<?xml version="1.0" encoding="UTF-8" standalone="no"?>
<svg
   id="svg8"
   viewBox="0 0 833.29141 436.5466"
   version="1.1"
   sodipodi:docname="EFM Logo - fixed dots.svg"
   inkscape:version="1.1 (c4e8f9e, 2021-05-24)"
   xmlns:inkscape="http://www.inkscape.org/namespaces/inkscape"
   xmlns:sodipodi="http://sodipodi.sourceforge.net/DTD/sodipodi-0.dtd"
   xmlns="http://www.w3.org/2000/svg"
   xmlns:svg="http://www.w3.org/2000/svg">
  <sodipodi:namedview
     id="namedview919"
     pagecolor="#ffffff"
     bordercolor="#666666"
     borderopacity="1.0"
     inkscape:pageshadow="2"
     inkscape:pageopacity="0.0"
     inkscape:pagecheckerboard="0"
     showgrid="false"
     inkscape:zoom="1.371669"
     inkscape:cx="495.3819"
     inkscape:cy="232.92791"
     inkscape:window-width="1586"
     inkscape:window-height="997"
     inkscape:window-x="0"
     inkscape:window-y="25"
     inkscape:window-maximized="0"
     inkscape:current-layer="svg8" />
  <defs
     id="defs826">
    <style
       id="style824">
      .cls-1, .cls-2, .cls-24, .cls-6 {
        fill: none;
      }

      .cls-1, .cls-2, .cls-24, .cls-6, .cls-9 {
        stroke: #000;
      }

      .cls-1, .cls-2, .cls-6, .cls-9 {
        stroke-miterlimit: 11.33858;
      }

      .cls-1, .cls-9 {
        stroke-width: 2.25px;
      }

      .cls-2 {
        stroke-width: 5.24999px;
      }

      .cls-3 {
        fill: #9c22a0;
      }

      .cls-4 {
        fill: #0acc3d;
      }

      .cls-5 {
        fill: #fff;
      }

      .cls-6 {
        stroke-width: 2.99999px;
      }

      .cls-7 {
        fill: #198bd7;
      }

      .cls-8, .cls-9 {
        fill: #fff250;
      }

      .cls-10 {
        font-size: 110px;
      }

      .cls-10, .cls-18, .cls-21, .cls-23 {
        font-family: Chalkboard;
      }

      .cls-11 {
        letter-spacing: -0.025em;
      }

      .cls-12 {
        letter-spacing: -0.01436em;
      }

      .cls-13 {
        letter-spacing: 0.02319em;
      }

      .cls-14 {
        letter-spacing: -0.03866em;
      }

      .cls-15 {
        letter-spacing: -0.07292em;
      }

      .cls-16 {
        letter-spacing: 0.01546em;
      }

      .cls-17 {
        letter-spacing: -0.0685em;
      }

      .cls-18, .cls-21, .cls-23 {
        font-size: 44px;
      }

      .cls-18 {
        letter-spacing: 0.00663em;
      }

      .cls-19 {
        letter-spacing: -0.08618em;
      }

      .cls-20 {
        letter-spacing: -0.05413em;
      }

      .cls-21 {
        letter-spacing: 0.02208em;
      }

      .cls-22 {
        letter-spacing: -0.08616em;
      }

      .cls-24 {
        stroke-miterlimit: 10;
        stroke-width: 2.25px;
      }
    </style>
  </defs>
  <g
     id="g850">
    <path
       id="path851"
       class="cls-1"
       d="M501.46176,51.639c17.69915,35.41243,39.99365,68.459,66.75509,91.17609" />
    <path
       id="path962"
       class="cls-2"
       d="M624.351,257.842c11.68794-6.17934,42.13209-31.62237,46.33929-42.05355" />
    <path
       id="path964"
       class="cls-3"
       d="M644.65453,202.98491,615.04032,231.9963c13.57346,9.36831,21.17056,10.79792,35.77494-.61856,4.862-3.80071,9.41507-8.52492,8.03568-14.73215-1.23956-5.57811-10.56677-11.241-14.19641-13.66068" />
    <path
       id="path964-2"
       data-name="path964"
       class="cls-1"
       d="M615.745,232.49514c13.57345,9.36831,20.4659,10.29908,35.07028-1.1174,4.862-3.80071,9.41507-8.52492,8.03568-14.73215-1.23956-5.57811-10.56677-11.241-14.19641-13.66068" />
    <g
       id="Torso">
      <path
         class="cls-4"
         d="M595.42243,185.25272a22.39415,22.39415,0,0,0,11.97108-3.3367,26.043,26.043,0,0,0,7.30072-6.577c5.51444,4.1325,9.54052,7.79946,15.01392,12.05658,6.2773,4.88234,11.53222,6.584,16.07144,13.39285.9344,1.40162-28.83991,30.97928-33.01932,32.77048-2.447,1.04872-4.36854-.51621-6.02287-2.65168C596.78553,218.061,598.78109,197.37073,595.42243,185.25272Z"
         id="path832" />
      <path
         class="cls-5"
         d="M611.06526,216.75273s2.447,6.1998-1.01472,7.78693c-3.44586,1.57987-5.12512-4.37164-5.12512-4.37164Z"
         id="path834" />
      <path
         id="path966"
         class="cls-1"
         d="M614.69423,175.339c5.51444,4.1325,9.54052,7.79946,15.01392,12.05658,6.2773,4.88234,11.53222,6.584,16.07144,13.39285.9344,1.40162-28.83991,30.97928-33.01932,32.77048-2.447,1.04872-4.36854-.51621-6.02287-2.65168-9.95187-12.84623-7.95631-33.5365-11.315-45.65451" />
      <path
         id="path970"
         class="cls-1"
         d="M604.63668,194.25273c-4.05182,3.72168-27.76044,24.20383-21.96429,30,8.22141,8.22145,27.76662-8.75247,28.39287-7.5,3.74328,7.48658-3.89928,11.72431-5.89287,3.75" />
    </g>
    <path
       id="path972"
       class="cls-1"
       d="M650.33312,206.14556C659.08489,188.29105,674.891,160.19,665.601,150.4313c-3.212-3.212-12.37826,12.32142,2.67859,12.32142" />
    <path
       id="path976"
       class="cls-1"
       d="M654.61887,210.16344c9.70231-5.18572,34.55706-34.73375,34.01786-52.76785-.34927-11.68154-15.17882,3.68873-1.07143,7.5" />
    <g
       id="Face">
      <path
         id="path968"
         class="cls-1"
         d="M575.601,162.217c.20465,40.762,57.38274,20.991,38.57142-9.1071-6.0831-9.35136-13.95623-13.03835-25.17857-9.10715A27.66318,27.66318,0,0,0,575.601,162.217Z" />
      <path
         id="path980"
         class="cls-1"
         d="M612.49564,158.79228c4.352,6.732-5.03528,12.8002-15,11.25" />
      <path
         id="path982"
         class="cls-6"
         d="M596.21868,156.8557a17.56956,17.56956,0,0,0,5.5627,2.47236" />
      <path
         id="path984"
         class="cls-6"
         d="M599.90637,150.48874c3.25459-.25312,3.65069.69444,5.63589,2.30981" />
      <path
         id="path990"
         class="cls-1"
         d="M577.67422,154.50658c-6.54281-2.1788-11.11088-.62843-16.07142,2.67858" />
      <path
         id="path992"
         class="cls-1"
         d="M584.1028,145.93516c-4.23646-2.81552-8.817-4.92187-11.25-8.57141" />
      <path
         id="path994"
         class="cls-1"
         d="M592.67423,141.64946c-.04366-3.90763-.23244-8.71272.53571-11.78574" />
    </g>
    <path
       id="path849"
       class="cls-1"
       d="M451.4502,54.22868c35.62105,63.26347,78.3078,119.06651,138.97177,157.475,19.93506,12.03132,30.765,26.55347,54.00228,29.32073" />
  </g>
  <g
     id="Grown_Up"
     data-name="Grown Up">
    <path
       id="path905"
       class="cls-1"
       d="M423.08535,314.65076c3.427,21.44857.1782,61.38462.87762,54.1589,13.43909-12.05259,41.25074,16.01351,23.93093,12.54136-.88823-.17827-24.18686-3.51541-24.18689-12.79732" />
    <path
       id="path915"
       class="cls-7"
       d="M452.548,275.90132c-1.5697,9.30889.892,28.32125-2.43525,34.06968a142.80874,142.80874,0,0,1-26.21624,4.6691c-2.87422.26577-11.56918,2.93959-13.17745,2.1718-1.39521-9.36563-2.24362-38.93243-2.81916-41.81011,0,0,16.1528,4.83182,24.71057,4.83181,11.99237,0,19.93753-3.93228,19.93753-3.93228" />
    <path
       id="path915-2"
       data-name="path915"
       class="cls-1"
       d="M452.548,275.90132c-1.5697,9.30889.892,28.32125-2.43525,34.06968a142.80874,142.80874,0,0,1-26.21624,4.6691c-2.87422.26577-11.56918,2.93959-13.17745,2.1718-1.39521-9.36563-2.24362-38.93243-2.81916-41.81011" />
    <path
       id="path917"
       class="cls-1"
       d="M436.0593,312.99085c.92565,21.387,1.18126,31.07537,1.18126,52.59749,14.63729-3.50542,36.10929,13.43919,13.37134,9.22163" />
    <g
       id="Torso-2"
       data-name="Torso">
      <path
         id="path935"
         class="cls-1"
         d="M461.88018,210.46357c10.41755-2.04456,27.87471-4.707,36.35254-6.15331,2.95927-2.6687,5.30767-3.77182,4.68255-9.90611-.276-2.7084-3.41507-5.2879-6.38655-1.45664-2.38149,3.07056-1.66472,6.58812.02594,11.30066" />
      <path
         id="path941"
         class="cls-1"
         d="M451.50013,194.61754c10.85422-3.75424,12.89271-3.18076,22.84311-5.87172,3.96639-1.07268,9.796-3.38214,13.39259-3.98156,1.94418-1.56455,7.26215-7.6698,4.17757-13.442-3.49283-6.53606-9.78485,4.5371-5.98738,12.7181" />
      <path
         class="cls-8"
         d="M448.92237,223.46061c2.82932-.61446,4.96836-.764,14.64948-4.405-1.54882-6.19526-2.00765-10.59529-5.08251-16.59254-3.93364,1.57343-9.942,2.59908-16.32487,3.33377a18.5083,18.5083,0,0,0-.80251-2.202c.01808.00006.03426.00177.0524.00177,1.19264-.29819,12.57186-3.31512,12.41337-3.71114-1.66517-4.16306-2.01564-7.85149-3.52417-11.77353l-16.57383,4.55249-.00019.00095c-.98682-1.19854-1.91058-2.36275-2.67477-3.50907a30.72882,30.72882,0,0,1-13.36079,3.13043,47.61662,47.61662,0,0,1-14.18786-2.33414l-.09967.2069-11.26166,84.20619c26.65757-.1229,40.20406,13.01343,65.83382-1.00459-2.11284-7.92687-5.7436-39.93036-9.002-49.75949Z"
         id="path858" />
      <path
         id="path913"
         class="cls-1"
         d="M403.40644,190.15948l-11.26162,84.20615c26.65753-.12287,40.204,13.01349,65.83381-1.00456-2.11288-7.92688-5.74359-39.93034-9.002-49.75947l-6.66643-17.31751c-1.7933-6.9894-7.978-12.21167-11.25542-17.12779a30.72915,30.72915,0,0,1-13.36082,3.1304,47.61744,47.61744,0,0,1-14.18783-2.3341" />
      <path
         id="path945"
         class="cls-1"
         d="M433.72974,192.66438l16.57384-4.55247c1.50853,3.922,1.859,7.61045,3.52418,11.77352.15843.39606-11.22074,3.413-12.41338,3.71116" />
      <path
         id="path911"
         class="cls-9"
         d="M448.916,223.46192c2.83263-.61551,4.96738-.76255,14.65584-4.40628-1.54882-6.1953-2.0077-10.59531-5.08253-16.59256-9.30056,3.72025-30.19112,4.38482-40.23806,5.35669-2.06682,4.4925-6.26616,8.41431-3.07135,16.38053C422.13827,227.11772,446.08341,224.07743,448.916,223.46192Z" />
    </g>
    <g
       id="Face-2"
       data-name="Face">
      <path
         id="path919"
         class="cls-1"
         d="M384.97833,154.839c-1.5837,8.86283-.70838,12.65834,3.01839,19.80691,4.10612,6.23009,8.94358,12.14233,15.5094,15.30666q.594.28628,1.20707.542c8.47768,3.14,22.20257,2.22,29.57837-3.285,5.81876-3.49787,10.37315-7.69524,12.50363-14.62979,1.78014-5.47062-.13613-12.7016-2.09587-18.09385-9.07694-16.06149-19.196-21.30146-38.97717-19.65881-6.12557,2.118-12.75859,5.7657-17.18878,10.72831a21.85026,21.85026,0,0,0-3.555,9.28353Z" />
      <path
         id="path931"
         class="cls-1"
         d="M445.74823,164.13241c3.50349,3.07218-4.93716,19.934-26.06126,13.75458" />
      <path
         id="path986"
         class="cls-1"
         d="M420.73945,164.823c5.392,1.66585,6.41444,2.0986,9.411-2.89571" />
      <path
         id="path988"
         class="cls-1"
         d="M435.25133,156.13588c5.67282,1.86116,6.51531,1.24326,6.51531-1.44783" />
      <path
         d="M436.76252,143.09347c-1.299.34248-6.86321-4.08635-6.86321-4.08635-2.41294-1.58207-8.77163-3.13114-14.47507-3.52754-8.51227-.59181-12.49794-.13974-17.89431,3.03809-8.61327,5.07051-11.12335,10.58226-12.41559,20.14467l.22834,9.10992.80353,1.76859a34.36485,34.36485,0,0,1,6.72008-1.61861c4.10209-.74611,8.75184-1.5917,12.5032-3.46764,3.07074-1.53537,4.1427-4.3,5.08828-6.73886a15.44333,15.44333,0,0,1,1.8394-3.74071c.92984-1.23844,3.49708-1.1613,5.75927-1.0943a14.29221,14.29221,0,0,0,4.51981-.303c5.774-1.8399,6.99416-3.07835,8.0712-4.17112.91462-.92934,1.7054-1.73179,6.712-3.05144Z"
         id="path868" />
    </g>
  </g>
  <text
     class="cls-10"
     transform="translate(62.83912 142.40101)"
     id="text900"><tspan
       class="cls-11"
       id="tspan872">E</tspan><tspan
       class="cls-12"
       x="57.41455"
       y="0"
       id="tspan874">a</tspan><tspan
       class="cls-13"
       x="114.78418"
       y="0"
       id="tspan876">r</tspan><tspan
       class="cls-14"
       x="165.46729"
       y="0"
       id="tspan878">l</tspan><tspan
       x="194.2749"
       y="0"
       id="tspan880">y </tspan><tspan
       class="cls-15"
       x="0"
       y="116"
       id="tspan882">F</tspan><tspan
       x="47.03906"
       y="116"
       id="tspan884">a</tspan><tspan
       class="cls-16"
       x="105.98828"
       y="116"
       id="tspan886">m</tspan><tspan
       x="188.76025"
       y="116"
       id="tspan888">i</tspan><tspan
       class="cls-14"
       x="216.22852"
       y="116"
       id="tspan890">l</tspan><tspan
       x="245.03613"
       y="116"
       id="tspan892">y </tspan><tspan
       x="0"
       y="232"
       id="tspan894">M</tspan><tspan
       class="cls-17"
       x="91.03857"
       y="232"
       id="tspan896">a</tspan><tspan
       x="142.45313"
       y="232"
       id="tspan898">th</tspan></text>
  <text
     class="cls-18"
     transform="translate(598.44471,86.4319)"
     id="text906">1...<tspan
   class="cls-19"
   x="16.626949"
   y="0"
   id="tspan902" /></text>
  <text
     class="cls-21"
     id="text912"
     x="648.29968"
     y="100.78834">2...<tspan
   class="cls-22"
   x="674.30945"
   y="100.78834"
   id="tspan908" /></text>
  <text
     class="cls-23"
     transform="translate(707.63661 115.14381)"
     id="text914">3!</text>
  <path
     class="cls-24"
     d="M623.73132,115.65l-3.59891,23.10266L637.096,119.3498s6.4509-.2936,49.32869,11.09568c29.81031,7.91827,72.74122,17.79291,79.4546-16.657,8.36388-42.91952-48.29485-55.62575-89.05486-66.25989-33.31266-8.69115-93.70628-25.00471-103.13922,16.14479C564.6028,103.29375,623.73132,115.65,623.73132,115.65Z"
     id="path916" />
</svg>
