<?xml version="1.0" encoding="UTF-8" standalone="no"?>
<svg
   id="svg8"
   viewBox="0 0 305.64149 247.7704"
   version="1.1"
   sodipodi:docname="10 EFM Pair Looking Away.svg"
   inkscape:version="1.1 (c4e8f9e, 2021-05-24)"
   width="305.64148"
   height="247.7704"
   inkscape:export-filename="/Users/chriswright/desktop/bitmap.png"
   inkscape:export-xdpi="96"
   inkscape:export-ydpi="96"
   xmlns:inkscape="http://www.inkscape.org/namespaces/inkscape"
   xmlns:sodipodi="http://sodipodi.sourceforge.net/DTD/sodipodi-0.dtd"
   xmlns="http://www.w3.org/2000/svg"
   xmlns:svg="http://www.w3.org/2000/svg">
  <path
     style="fill:none;stroke:#000000;stroke-width:1.36711;stroke-linecap:butt;stroke-linejoin:miter;stroke-miterlimit:4;stroke-dasharray:none;stroke-opacity:1"
     d="m 179.43415,81.250145 c -5.34798,-0.617729 -10.19494,2.833952 -13.99793,6.531177 -3.08681,3.012783 -5.03464,7.357084 -5.01343,11.885287 -0.10991,3.310711 0.83163,6.515661 1.97089,9.536991 1.59092,5.76806 9.79656,12.11483 13.91295,12.12443 7.0311,0.32725 19.81154,-5.69194 21.34063,-11.86768 0.94603,-4.22484 2.5665,-8.64199 1.5275,-13.018934 -1.11194,-3.419813 -3.8138,-5.779931 -5.85904,-8.525784 -2.75542,-2.986213 -6.29402,-4.937791 -9.9281,-6.344951 -1.22704,-0.576862 -2.68489,-1.041037 -3.95347,-0.320536 z"
     id="path987-6"
     sodipodi:nodetypes="cccccccccc" />
  <path
     style="fill:none;stroke:#000000;stroke-width:1.36711;stroke-linecap:butt;stroke-linejoin:miter;stroke-miterlimit:4;stroke-dasharray:none;stroke-opacity:1"
     d="m 171.96732,120.01347 c -2.23713,5.00379 -3.78703,10.28136 -4.71019,15.66503 -1.49725,5.37452 -3.68585,10.56088 -5.83425,15.69201 -1.70666,3.2255 -2.17738,6.90131 -3.35825,10.32132 -0.72776,2.82599 -3.31241,8.29337 -3.10676,11.2062 2.94608,-0.66537 11.08157,-2.32752 11.08157,-2.32752 3.49335,0.0697 7.01466,0.0755 10.43657,0.84112 7.71272,0.82712 15.49286,-0.4738 23.19481,0.38646 2.40925,1.04256 5.72009,2.00468 7.53542,-0.60184 -3.89205,-18.31281 -1.07021,-10.91853 -3.89205,-18.31281 -1.95352,-4.6381 -2.60767,-9.76354 -5.21984,-14.13731 -2.29597,-5.90066 -5.27721,-15.6733 -8.44895,-21.264 -1.6809,-0.12031 0.73876,1.1691 0,0"
     id="path1773-8"
     sodipodi:nodetypes="ccccccccccccc" />
  <path
     style="fill:none;stroke:#000000;stroke-width:0.911408px;stroke-linecap:butt;stroke-linejoin:miter;stroke-opacity:1"
     d="m 169.38766,83.354937 c -0.80688,-3.937035 -0.57452,-2.199009 -2.88603,-5.507164 -0.0641,-0.09178 0.0756,-0.263068 0,-0.344198 -0.30233,-0.324511 -0.88235,0.161136 -1.28269,0 -0.67488,-0.271643 -1.46418,-1.376794 -1.92403,-1.376794 -0.54928,0 -1.92401,-0.335691 -1.92401,0.344198"
     id="path7447" />
  <path
     style="fill:none;stroke:#000000;stroke-width:0.911408px;stroke-linecap:butt;stroke-linejoin:miter;stroke-opacity:1"
     d="m 179.32845,80.60135 c 0.39355,-2.872845 0.53058,-5.757391 0,-8.60494"
     id="path7449" />
  <path
     style="fill:#0acc3d;fill-opacity:1;stroke:none;stroke-width:0.332226"
     d="m 201.29438,171.40395 c -1.23626,-0.48995 -3.09967,-0.57903 -13.00511,-0.62179 -6.35916,-0.0275 -11.72191,-0.15592 -11.91724,-0.28549 -0.19532,-0.12958 -2.49607,-0.39072 -5.11277,-0.58032 -4.64624,-0.33664 -4.87671,-0.3201 -9.84298,0.70655 -2.79693,0.57819 -5.21277,1.00523 -5.36852,0.94897 -0.15575,-0.0563 0.30109,-1.88351 1.0152,-4.06056 0.7141,-2.17706 1.7273,-5.42972 2.25153,-7.22816 1.26045,-4.32402 2.36209,-7.37309 4.91224,-13.59582 2.2562,-5.50546 3.54344,-9.56108 4.82877,-15.21364 0.43908,-1.931 1.33049,-5.00323 1.98091,-6.82719 1.13841,-3.1924 1.21355,-3.3076 2.01161,-3.08409 0.45596,0.12771 2.0183,0.31161 3.47184,0.40869 3.03991,0.20301 6.21705,-0.43177 10.01636,-2.00122 1.31874,-0.54475 2.51809,-0.99047 2.66522,-0.99047 0.43561,0 3.23315,6.6022 5.61508,13.25162 1.22065,3.40756 2.72425,7.27978 3.34134,8.60494 0.6171,1.32516 1.59507,3.95828 2.17328,5.85136 0.57821,1.89309 1.60521,4.94592 2.28224,6.78406 0.79012,2.14522 1.40864,4.61048 1.72715,6.88396 0.27291,1.94803 0.83238,5.1294 1.24328,7.06973 0.62316,2.94266 0.67508,3.59198 0.31301,3.91452 -0.72139,0.64263 -3.06076,0.67533 -4.60244,0.0643 z"
     id="path31473" />
  <path
     style="fill:none;stroke:#000000;stroke-width:0.974669px;stroke-linecap:butt;stroke-linejoin:miter;stroke-opacity:1"
     d="m 166.33759,171.57012 c 0,1.84028 -0.16496,7.0992 0,8.92824 0.12691,1.40708 0.0963,2.84883 0.37502,4.2223 1.30222,6.41712 4.27947,14.89812 6.40191,19.71735 0.4442,1.00859 10.18602,-0.27884 11.78861,-0.27884 2.833,0 7.25039,1.44908 9.60287,0 1.44095,-0.8876 5.12153,-24.42995 5.12153,-25.23821 0,-2.06558 1.69767,-7.84332 -0.10984,-5.61653"
     id="path69924"
     sodipodi:nodetypes="cssssssc" />
  <path
     style="fill:none;stroke:#000000;stroke-width:2.0051;stroke-linecap:butt;stroke-linejoin:miter;stroke-miterlimit:4;stroke-dasharray:none;stroke-opacity:1"
     d="m 192.16817,193.05157 c -3.6154,10.92681 -4.121,19.83822 -2.55756,30.87831 0.39427,6.20169 0.077,11.78362 1.31607,16.55311 0.7316,2.29741 -0.24395,4.45983 -1.63058,6.16213 -0.86208,1.66896 -3.25262,3.29902 -4.39817,1.07867 -2.16429,-0.86621 -1.80865,-3.32013 -0.0735,-4.43447 1.56326,-1.46104 3.67498,-2.20378 5.74032,-2.04983"
     id="path85178"
     sodipodi:nodetypes="ccccccc" />
  <path
     style="fill:none;stroke:#000000;stroke-width:2.0051;stroke-linecap:butt;stroke-linejoin:miter;stroke-miterlimit:4;stroke-dasharray:none;stroke-opacity:1"
     d="m 182.00605,193.40062 c -3.6154,10.92681 -4.121,19.83822 -2.55756,30.87831 0.39427,6.20169 0.077,11.78362 1.31607,16.55312 0.7316,2.2974 -0.24395,4.45982 -1.63058,6.16212 -0.86208,1.66896 -3.25262,3.29902 -4.39817,1.07867 -2.16429,-0.8662 -1.80864,-3.32013 -0.0735,-4.43447 1.56326,-1.46104 3.67498,-2.20378 5.74032,-2.04983"
     id="path85178-7"
     sodipodi:nodetypes="ccccccc" />
  <path
     style="fill:#9c22a0;fill-opacity:1;stroke:none;stroke-width:0.234919"
     d="m 173.12768,203.04537 c -2.27396,-5.62442 -4.25878,-11.66226 -5.42055,-16.48932 -0.66344,-2.75658 -0.71159,-3.267 -0.85733,-9.08799 l -0.15442,-6.16737 3.0611,0.16169 c 1.68361,0.089 4.03045,0.33992 5.21522,0.55775 1.80178,0.33128 3.74883,0.38634 11.90428,0.33663 5.3626,-0.0327 10.3153,0.008 11.00601,0.0905 1.11787,0.13351 1.28883,0.22996 1.55601,0.87784 0.2524,0.61206 0.24367,1.12229 -0.0549,3.20693 -0.19526,1.36348 -0.41851,3.02668 -0.4961,3.69598 -0.56469,4.87105 -3.42147,19.87989 -4.22336,22.18848 -0.66398,1.91159 -1.57784,2.10181 -6.87411,1.43085 -2.33857,-0.29626 -3.23334,-0.29625 -6.46233,1e-4 -2.06136,0.18919 -4.64438,0.34623 -5.74003,0.34898 l -1.99211,0.005 z"
     id="path4148" />
  <path
     style="fill:none;stroke:#000000;stroke-width:0.911408px;stroke-linecap:butt;stroke-linejoin:miter;stroke-opacity:1"
     d="m 190.47489,84.53425 c 0.37918,-1.627992 -0.0328,-0.153454 1.44302,-2.925681 0.23717,-0.445496 0.33532,-0.982618 0.64134,-1.376792 1.08177,-1.393364 4.649,-2.28401 6.25308,-2.753582"
     id="path7097" />
  <path
     style="fill:none;stroke:#000000;stroke-width:1.6;stroke-linecap:butt;stroke-linejoin:miter;stroke-miterlimit:4;stroke-dasharray:none;stroke-opacity:1"
     d="m 167.51125,129.4044 c -3.37454,2.43372 -7.11413,4.9617 -8.6695,9.00769 -1.26886,3.15232 -0.54719,6.63719 -1.22222,9.89997 0.12562,2.49579 2.14387,4.24739 3.45663,6.19118 2.31276,2.89885 4.86518,5.64848 7.82031,7.89995 1.8628,1.11425 4.3459,1.44298 6.2849,0.3281 1.8328,0.0207 2.6565,-2.96604 0.88218,-3.71723 -1.40375,-0.90341 -3.36144,-1.56313 -4.88637,-0.53998 -1.3435,0.73932 -1.44553,2.48161 -2.5724,3.37255"
     id="path1058" />
  <path
     style="fill:none;stroke:#000000;stroke-width:1.6;stroke-linecap:butt;stroke-linejoin:miter;stroke-miterlimit:4;stroke-dasharray:none;stroke-opacity:1"
     d="m 193.9809,127.64193 c 4.78108,1.62793 10.3583,3.70075 12.28388,8.84818 0.64562,2.92853 2.74428,5.58903 2.51059,8.63389 -1.53457,5.2078 -3.81576,10.28537 -7.06495,14.66395 -1.90678,2.15022 -5.82259,3.04075 -8.0996,1.07703 -0.92572,-2.33104 2.04507,-4.60786 4.23032,-4.35062 1.90468,-0.24284 3.14912,2.66125 4.05283,2.60895"
     id="path1058-8" />
  <sodipodi:namedview
     id="namedview919"
     pagecolor="#ffffff"
     bordercolor="#666666"
     borderopacity="1.0"
     inkscape:pageshadow="2"
     inkscape:pageopacity="1"
     inkscape:pagecheckerboard="0"
     showgrid="false"
     inkscape:zoom="2.743338"
     inkscape:cx="129.22214"
     inkscape:cy="146.71907"
     inkscape:window-width="1582"
     inkscape:window-height="997"
     inkscape:window-x="17"
     inkscape:window-y="25"
     inkscape:window-maximized="0"
     inkscape:current-layer="svg8"
     fit-margin-left="2"
     fit-margin-top="2"
     fit-margin-right="2"
     fit-margin-bottom="2"
     inkscape:snap-global="false" />
  <defs
     id="defs826">
    <style
       id="style824">
      .cls-1, .cls-2, .cls-24, .cls-6 {
        fill: none;
      }

      .cls-1, .cls-2, .cls-24, .cls-6, .cls-9 {
        stroke: #000;
      }

      .cls-1, .cls-2, .cls-6, .cls-9 {
        stroke-miterlimit: 11.33858;
      }

      .cls-1, .cls-9 {
        stroke-width: 2.25px;
      }

      .cls-2 {
        stroke-width: 5.24999px;
      }

      .cls-3 {
        fill: #9c22a0;
      }

      .cls-4 {
        fill: #0acc3d;
      }

      .cls-5 {
        fill: #fff;
      }

      .cls-6 {
        stroke-width: 2.99999px;
      }

      .cls-7 {
        fill: #198bd7;
      }

      .cls-8, .cls-9 {
        fill: #fff250;
      }

      .cls-10 {
        font-size: 110px;
      }

      .cls-10, .cls-18, .cls-21, .cls-23 {
        font-family: Chalkboard;
      }

      .cls-11 {
        letter-spacing: -0.025em;
      }

      .cls-12 {
        letter-spacing: -0.01436em;
      }

      .cls-13 {
        letter-spacing: 0.02319em;
      }

      .cls-14 {
        letter-spacing: -0.03866em;
      }

      .cls-15 {
        letter-spacing: -0.07292em;
      }

      .cls-16 {
        letter-spacing: 0.01546em;
      }

      .cls-17 {
        letter-spacing: -0.0685em;
      }

      .cls-18, .cls-21, .cls-23 {
        font-size: 44px;
      }

      .cls-18 {
        letter-spacing: 0.00663em;
      }

      .cls-19 {
        letter-spacing: -0.08618em;
      }

      .cls-20 {
        letter-spacing: -0.05413em;
      }

      .cls-21 {
        letter-spacing: 0.02208em;
      }

      .cls-22 {
        letter-spacing: -0.08616em;
      }

      .cls-24 {
        stroke-miterlimit: 10;
        stroke-width: 2.25px;
      }
    </style>
  </defs>
  <text
     class="cls-10"
     id="text900"
     x="-237.91096"
     y="-268.84808" />
  <path
     style="fill:none;stroke:#000000;stroke-width:1.5;stroke-linecap:butt;stroke-linejoin:miter;stroke-miterlimit:4;stroke-dasharray:none;stroke-opacity:1"
     d="m 100.43549,12.38407 c -4.750212,4.28649 -7.747664,10.46742 -7.715034,16.91 -0.169137,4.71037 1.279767,9.27027 3.032929,13.56892 2.448232,8.20661 15.075655,17.23659 21.410245,17.25023 10.81996,0.4656 30.48742,-8.0983 32.84049,-16.88494 1.45582,-6.01097 3.9495,-12.29554 2.35061,-18.52291 -1.71112,-4.8656 -5.86892,-8.22349 -9.01629,-12.1302 -4.24023,-4.24869 -7.49856,-6.29629 -13.09096,-8.29835 -10.81014,-4.37011 -22.32102,1.39773 -29.81199,8.10725 z"
     id="path987"
     sodipodi:nodetypes="ccccccccc" />
  <path
     style="fill:none;stroke:#000000;stroke-width:1.5;stroke-linecap:butt;stroke-linejoin:miter;stroke-miterlimit:4;stroke-dasharray:none;stroke-opacity:1"
     d="m 110.14006,58.50323 c -3.99258,9.61796 -5.23151,20.32011 -7.85475,30.44976 -4.361097,13.5754 -10.691649,26.23574 -14.132607,40.22037 -1.830509,4.98999 -4.862178,9.59207 -5.129719,15.19308 7.571098,-1.69712 15.148301,-4.86762 22.959446,-3.46388 6.38111,0.90561 12.77682,1.90647 19.22218,1.4445 6.4138,-0.1828 12.85689,-0.62083 19.25107,0.22593 3.11293,2.54919 10.92937,2.97438 9.85368,-3.49297 -1.06472,-6.47384 -2.113,-12.95106 -2.83836,-19.49513 -0.91371,-5.79032 -3.35291,-11.04852 -4.54199,-16.76666 -1.40474,-6.3478 -3.8226,-12.25317 -5.93648,-18.28829 -3.31366,-10.22368 -5.03403,-18.13583 -9.53046,-27.7828"
     id="path1773"
     sodipodi:nodetypes="cccccccccccc" />
  <path
     style="fill:none;stroke:#000000;stroke-width:1.5;stroke-linecap:butt;stroke-linejoin:miter;stroke-miterlimit:4;stroke-dasharray:none;stroke-opacity:1"
     d="m 138.65622,41.957019 c -2.04659,1.146231 -2.39135,4.085323 -4.72726,4.856592 -3.62973,1.195411 -7.4507,2.570597 -11.3252,1.838114 -12.03552,-1.830166 -10.49931,-7.394383 -12.92738,-10.42124"
     id="path2668"
     sodipodi:nodetypes="cccc" />
  <path
     style="fill:none;stroke:#000000;stroke-width:1.5;stroke-linecap:butt;stroke-linejoin:miter;stroke-miterlimit:4;stroke-dasharray:none;stroke-opacity:1"
     d="m 137.02063,30.88219 c -1.21058,1.01051 -2.79602,1.5047 -4.36228,1.49976 -0.36891,0.005 -0.99566,-0.33329 -1.36327,-0.36389 -0.16956,-0.347 -0.96842,-0.79193 -1.08517,-1.1578 -0.32281,-0.13854 0.3006,0.19146 0,0 -0.22154,-0.11247 -0.4397,-0.23149 -0.66193,-0.3426"
     id="path3045"
     sodipodi:nodetypes="cccccc" />
  <path
     style="fill:none;stroke:#000000;stroke-width:1.5;stroke-linecap:butt;stroke-linejoin:miter;stroke-miterlimit:4;stroke-dasharray:none;stroke-opacity:1"
     d="m 120.98177,29.06445 c -0.54699,0.75021 -1.20936,1.40775 -1.83049,2.0934 -0.5477,0.40125 -1.26141,0.26696 -1.89445,0.26602 -0.83284,-0.0392 -1.70058,-0.22938 -2.36013,-0.76811 -0.37302,-0.19143 -1.20286,-0.91047 -1.33827,-1.3578 -0.30265,-0.72662 -0.60001,-0.80166 -0.77835,-1.69161"
     id="path3047"
     sodipodi:nodetypes="cssscc" />
  <path
     style="fill:none;stroke:#000000;stroke-width:1.5;stroke-linecap:butt;stroke-linejoin:miter;stroke-miterlimit:4;stroke-dasharray:none;stroke-opacity:1"
     d="m 92.680346,33.07903 c 3.65071,-0.72282 5.34142,-0.66476 8.271024,-2.86555 1.80031,-2.14988 3.64325,-7.66529 6.43813,-8.90612 6.46758,-3.73705 14.24777,-3.18411 21.38614,-2.36941 2.0221,0.34662 4.16511,-0.12003 6.00351,0.97576 0,0 6.27189,1.77985 8.7121,3.9793 1.72301,1.35042 3.07201,3.14526 4.77644,4.48738 1.39882,0.66751 2.99596,3.40694 4.55836,3.05826"
     id="path3164"
     sodipodi:nodetypes="cccccccc" />
  <path
     style="fill:#fff250;fill-opacity:1;stroke:none;stroke-width:0.364519"
     d="m 147.72278,143.0977 c -0.30073,-0.10499 -1.20291,-0.54313 -2.00486,-0.97365 -1.41918,-0.76188 -1.84697,-0.78348 -16.03885,-0.81003 -11.91811,-0.0223 -15.3463,-0.14335 -18.77275,-0.66294 -9.20235,-1.39544 -12.560972,-1.22593 -21.371637,1.07868 -2.6323,0.68853 -4.908729,1.25187 -5.058731,1.25187 -0.621335,0 0.344852,-3.35954 2.351293,-8.1757 1.175282,-2.82109 2.494634,-6.41883 2.931894,-7.99497 1.257921,-4.53429 4.033137,-12.43763 7.761653,-22.10387 5.003218,-12.97092 5.835368,-15.6337 7.917168,-25.3341 1.03263,-4.81165 2.2877,-10.21876 2.78905,-12.01579 0.84156,-3.01646 2.29172,-7.52112 2.5038,-7.77759 0.0497,-0.0601 1.08859,0.22692 2.30858,0.63791 3.73767,1.25912 9.71883,0.87216 15.96885,-1.03314 l 2.24532,-0.68449 1.45033,3.69294 c 1.62313,4.13294 2.87604,7.89797 5.47452,16.45112 0.97454,3.20777 2.78846,8.67597 4.03094,12.15154 1.24247,3.47558 2.838,8.56062 3.54562,11.30011 0.70761,2.73948 1.94192,7.11331 2.74291,9.71962 0.80098,2.60632 1.69239,6.29707 1.98091,8.20169 3.49647,23.08157 3.38756,21.46569 1.5343,22.76377 -0.77414,0.54222 -3.14372,0.71732 -4.29031,0.31702 z"
     id="path23402" />
  <path
     style="fill:none;stroke:#000000;stroke-width:1px;stroke-linecap:butt;stroke-linejoin:miter;stroke-opacity:1"
     d="m 135.12475,65.005742 c 1.98397,-0.35276 6.47375,3.270318 7.82819,4.582398 2.78413,2.84805 9.37202,5.56436 9.96033,9.06788 -1.20903,0.87265 -1.82708,3.50821 -3.43221,3.51917 -0.29744,0.81382 -1.20598,2.35296 -2.0064,2.37376 -4.48608,-4.49483 -6.32976,-5.795593 -8.81156,-7.443643"
     id="path53067"
     sodipodi:nodetypes="cccccc" />
  <path
     style="fill:#000000;stroke:none;stroke-width:0.18226"
     d="m 93.591645,29.59916 c 0,-5.10613 1.406317,-9.28536 4.515749,-13.41968 3.174966,-4.22147 9.582386,-8.76591 15.375726,-10.90518 2.96882,-1.09628 4.90931,-1.47401 8.08539,-1.57388 3.45562,-0.10865 5.33778,0.2006 8.57783,1.40941 6.02657,2.24843 9.50121,4.62765 13.88045,9.50451 3.62778,4.04001 4.81765,5.46515 5.75149,6.88875 1.58003,2.40868 2.00167,3.65266 2.2402,6.60936 l 0.12866,1.59477 h -0.54359 c -0.32341,0 -0.68424,-0.15665 -0.8908,-0.38673 -0.19096,-0.21269 -0.83931,-0.76389 -1.44076,-1.22486 -0.60146,-0.46098 -2.18726,-1.88874 -3.52399,-3.1728 -2.30043,-2.20979 -2.54903,-2.39281 -4.64763,-3.4216 -1.21945,-0.59782 -3.03736,-1.36783 -4.03978,-1.71114 -1.00243,-0.34331 -2.27369,-0.78776 -2.82503,-0.98767 -0.56465,-0.20474 -1.7586,-0.41642 -2.7339,-0.48469 -0.9523,-0.0667 -2.8912,-0.23715 -4.30867,-0.37887 -4.17984,-0.4179 -7.60076,-0.51164 -10.08984,-0.27649 -5.29757,0.5005 -9.94972,2.23124 -11.96285,4.45055 -0.84545,0.93205 -1.25186,1.56703 -3.60161,5.62719 -1.0802,1.8665 -1.765471,2.50728 -3.456616,3.23218 -0.638211,0.27357 -3.945279,1.10431 -4.39612,1.10431 -0.05187,0 -0.09431,-1.11485 -0.09431,-2.47744 z"
     id="path69414" />
  <path
     style="fill:none;stroke:#000000;stroke-width:1.13158px;stroke-linecap:butt;stroke-linejoin:miter;stroke-opacity:1"
     d="m 94.474474,141.44856 c -0.182144,6.9216 0.02538,13.89089 1.012416,20.71135 1.35306,8.1203 1.708068,19.20335 1.448261,23.51998 -0.120763,1.71688 -1.410629,-0.41073 0.09991,-0.031 2.932596,0.73722 7.495449,0.63857 9.907219,0.34885 10.26928,0.96613 18.00032,0.28866 28.28171,-0.0316 1.95082,-0.46588 5.95402,0.58242 5.65421,-3.3541 -0.69002,-2.8904 -0.38004,-6.14454 -0.20621,-9.22493 0.17073,-4.94782 -0.74249,-9.56295 -0.83392,-14.51649 -0.003,-1.20272 -0.003,-15.24954 0.003,-16.45226"
     id="path69920"
     sodipodi:nodetypes="cccsssscss" />
  <path
     style="fill:none;stroke:#000000;stroke-width:2.2;stroke-linecap:butt;stroke-linejoin:miter;stroke-miterlimit:4;stroke-dasharray:none;stroke-opacity:1"
     d="m 134.56477,175.40601 c -1.25519,3.43712 -2.26238,6.98405 -3.07455,10.52943 -1.62809,3.56792 0.46847,7.39491 -0.0635,11.09271 -0.25667,12.50674 -0.4069,25.02198 -0.15146,37.52952 -0.35241,2.93227 1.25044,6.21955 -0.1126,8.87859 -2.72121,1.17377 -3.7119,4.44212 -6.48808,5.26472 -3.62898,0.0281 -4.81463,-5.50293 -1.79197,-7.32408 2.52472,-1.37947 5.66821,-0.19581 8.40153,-0.35739"
     id="path84924" />
  <path
     style="fill:none;stroke:#000000;stroke-width:2.2;stroke-linecap:butt;stroke-linejoin:miter;stroke-miterlimit:4;stroke-dasharray:none;stroke-opacity:1"
     d="m 121.7747,175.78492 c -1.25519,3.43712 -2.26238,6.98405 -3.07455,10.52943 -1.62809,3.56792 0.46847,7.39491 -0.0635,11.09271 -0.25667,12.50674 -0.4069,25.02198 -0.15146,37.52952 -0.35241,2.93227 1.25044,6.21955 -0.1126,8.87859 -2.72121,1.17377 -3.7119,4.44212 -6.48808,5.26472 -3.62898,0.0281 -4.81463,-5.50293 -1.79197,-7.32408 2.52472,-1.37947 5.66821,-0.19581 8.40153,-0.35739"
     id="path84924-1" />
  <path
     style="fill:#198bd7;stroke:none;stroke-width:0.257754;fill-opacity:1"
     d="m 104.13268,185.44389 c -3.47324,-0.0926 -6.343974,-0.1861 -6.379415,-0.20789 -0.03544,-0.0218 -0.06444,-1.43599 -0.06444,-3.14265 0,-4.94015 -0.468698,-11.49649 -1.289125,-18.03283 -0.978917,-7.79901 -1.287017,-11.96976 -1.287791,-17.43278 -7.32e-4,-5.16295 -0.494876,-4.56495 4.166076,-5.04168 2.896225,-0.29623 3.242235,-0.2749 9.408025,0.57998 l 6.40122,0.88752 12.05001,-0.0633 12.05001,-0.0633 0.003,8.82694 c 0.002,5.88277 0.13621,10.28845 0.40205,13.20875 0.25539,2.8054 0.37029,6.32917 0.31939,9.79466 -0.0437,2.97706 0.018,6.24306 0.13723,7.25778 0.35699,3.03901 0.34196,3.04485 -8.85222,3.43921 -6.20887,0.26632 -16.83103,0.26223 -27.06418,-0.0104 z"
     id="path1732" />
  <path
     style="fill:none;stroke:#000000;stroke-width:1px;stroke-linecap:butt;stroke-linejoin:miter;stroke-opacity:1"
     d="m 107.16871,65.613497 c -3.15126,0.759783 -6.56644,0.225273 -9.560279,1.659055 -2.611047,1.101938 -5.026448,1.818406 -7.931307,2.039518 -1.270247,0.0358 -2.704605,0.852803 -3.82045,1.596961 -0.738066,0.90261 0.02537,2.013191 0.374219,2.910073 0.70148,1.242308 0.721999,2.686926 0.791537,4.071553 0.07625,0.987541 0.434744,2.848831 1.769757,2.094927 1.246631,-0.368032 2.502882,-0.763032 3.669972,-1.33487 1.372057,-0.828937 2.972744,-0.640592 4.524792,-1.134993 2.501464,-1.08892 4.667189,-0.95566 7.291459,-1.62921 0.42271,-0.12518 1.02306,-2.089254 1.43222,-2.253586"
     id="path1781"
     sodipodi:nodetypes="ccccccccccc" />
  <path
     style="fill:none;stroke:#000000;stroke-width:1.31279;stroke-linecap:butt;stroke-linejoin:miter;stroke-miterlimit:4;stroke-dasharray:none;stroke-opacity:1"
     d="m 186.08993,108.86577 c -1.75249,2.00016 -4.18091,2.75207 -6.45277,3.3979 -1.01647,0.33324 -2.07014,0.10427 -3.05567,-0.13722 -1.87327,-0.54331 -3.50199,-1.77309 -5.01696,-3.07449 -1.03382,-1.1169 -1.10387,-2.98407 -2.18624,-4.05361"
     id="path2666"
     sodipodi:nodetypes="cccc" />
  <path
     style="fill:none;stroke:#000000;stroke-width:1.36711;stroke-linecap:butt;stroke-linejoin:miter;stroke-miterlimit:4;stroke-dasharray:none;stroke-opacity:1"
     d="m 189.08225,97.816056 c -0.33499,0.761503 -1.06524,2.380104 -1.9681,2.628454 -1.72791,0.0876 -4.27219,0.90594 -4.93525,-1.013181 -0.41137,-0.98686 -0.23548,-0.48357 -0.47207,-0.58247"
     id="path6219"
     sodipodi:nodetypes="cccc" />
  <path
     style="fill:none;stroke:#000000;stroke-width:1.36711;stroke-linecap:butt;stroke-linejoin:miter;stroke-miterlimit:4;stroke-dasharray:none;stroke-opacity:1"
     d="m 170.18092,95.648147 c 0.69381,2.690095 5.96832,3.675365 6.15462,1.873645 0.11972,-0.459082 0.24724,-0.917176 0.41915,-1.357367"
     id="path6221"
     sodipodi:nodetypes="ccc" />
  <path
     style="fill:none;stroke:#000000;stroke-width:1.6;stroke-linecap:butt;stroke-linejoin:miter;stroke-opacity:1;stroke-miterlimit:4;stroke-dasharray:none"
     d="m 86.755624,75.091002 c -5.057007,2.593027 -10.499313,4.341571 -16.000825,5.711735 1.227713,-0.580436 2.457526,-0.19335 0.523183,0.153046 -5.952809,1.825018 -12.34475,2.929762 -18.53296,1.784453 -6.994539,-2.103032 -13.974477,-4.852984 -19.613049,-9.616125 -2.058332,-1.635934 -3.93606,-5.16173 -7.077145,-3.81123 -2.223272,0.717829 -3.592025,4.443802 -0.493401,4.858354 2.401636,0.968057 5.089229,1.031453 7.609841,0.555247"
     id="path2408" />
  <path
     style="fill:none;stroke:#000000;stroke-width:1.6;stroke-linecap:butt;stroke-linejoin:miter;stroke-opacity:1;stroke-miterlimit:4;stroke-dasharray:none"
     d="m 150.98318,81.708043 c 0.0557,0.611716 1.47859,1.470523 1.83677,1.987222 0.13425,0.193657 0.10134,0.465039 0.22961,0.662407 0.75855,1.167204 1.8752,2.033422 2.75516,3.091234 0.50462,0.60661 0.92627,1.777795 1.37758,2.428827 0.12007,0.173211 0.34782,0.263096 0.45919,0.441604 1.76752,2.833017 0.35967,1.210162 0.91839,2.208025 1.51915,2.713203 2.67952,2.649629 1.37758,2.649629"
     id="path2963" />
  <path
     style="fill:#fff250;stroke:none;stroke-width:0.364519;fill-opacity:1"
     d="m 87.909936,79.039963 c -0.133658,-0.133657 -0.250213,-0.912817 -0.259013,-1.731468 -0.0088,-0.818649 -0.252381,-2.144589 -0.541291,-2.946531 -1.122845,-3.116739 -0.487824,-3.906368 3.655706,-4.545758 1.4034,-0.216559 4.191973,-0.948294 6.19683,-1.626076 2.243019,-0.758297 4.785162,-1.328716 6.608732,-1.482899 l 2.96354,-0.250569 -1.0254,4.09227 c -0.56397,2.250749 -1.19045,4.257321 -1.39217,4.459048 -0.20173,0.201727 -1.48398,0.572183 -2.84944,0.823234 -3.830977,0.704357 -7.365393,1.633322 -9.835224,2.585034 -2.334245,0.899465 -3.109279,1.036706 -3.52227,0.623715 z"
     id="path3118" />
  <path
     style="fill:#fff250;stroke:none;stroke-width:0.364519;fill-opacity:1"
     d="m 144.9022,81.293673 c -0.88227,-0.898973 -2.45006,-2.252252 -3.48396,-3.007285 l -1.87983,-1.372788 -1.34137,-4.556493 c -0.73775,-2.506071 -1.33656,-4.761535 -1.33068,-5.012142 0.0172,-0.731888 1.59795,-0.525495 2.79189,0.364519 0.60514,0.451093 1.99029,1.567867 3.07811,2.48172 1.08782,0.913854 3.34674,2.632802 5.01982,3.819885 1.67308,1.187083 3.3711,2.620568 3.77338,3.185522 l 0.73143,1.027189 -0.98193,1.48379 c -0.54006,0.816084 -1.28945,1.564211 -1.66533,1.662503 -0.37587,0.09829 -0.7819,0.489071 -0.90229,0.868396 -0.40154,1.265136 -2.03891,0.859015 -3.80924,-0.944816 z"
     id="path4559" />
</svg>
