<?xml version="1.0" encoding="UTF-8" standalone="no"?>
<!-- Created with Inkscape (http://www.inkscape.org/) -->

<svg
   width="304.38586mm"
   height="95.801857mm"
   viewBox="0 0 304.38586 95.801857"
   version="1.1"
   id="svg5"
   inkscape:version="1.1 (c4e8f9e, 2021-05-24)"
   sodipodi:docname="12 Apples.svg"
   xmlns:inkscape="http://www.inkscape.org/namespaces/inkscape"
   xmlns:sodipodi="http://sodipodi.sourceforge.net/DTD/sodipodi-0.dtd"
   xmlns="http://www.w3.org/2000/svg"
   xmlns:svg="http://www.w3.org/2000/svg">
  <sodipodi:namedview
     id="namedview7"
     pagecolor="#ffffff"
     bordercolor="#666666"
     borderopacity="1.0"
     inkscape:pageshadow="2"
     inkscape:pageopacity="0.0"
     inkscape:pagecheckerboard="0"
     inkscape:document-units="mm"
     showgrid="false"
     inkscape:zoom="0.47433592"
     inkscape:cx="597.6777"
     inkscape:cy="182.36021"
     inkscape:window-width="1312"
     inkscape:window-height="997"
     inkscape:window-x="0"
     inkscape:window-y="25"
     inkscape:window-maximized="0"
     inkscape:current-layer="layer1"
     fit-margin-left="3"
     fit-margin-top="3"
     fit-margin-right="3"
     fit-margin-bottom="3" />
  <defs
     id="defs2" />
  <g
     inkscape:label="Layer 1"
     inkscape:groupmode="layer"
     id="layer1"
     transform="translate(101.99116,-83.739256)">
    <path
       style="fill:#ff0000;fill-opacity:1;stroke:#000000;stroke-width:0.264583px;stroke-linecap:butt;stroke-linejoin:miter;stroke-opacity:1"
       d="m 50.412165,110.14207 c 5.063906,1.25999 7.077278,-4.56532 11.023448,-6.20913 6.309375,-2.58113 13.437272,-0.23885 19.054974,2.96592 3.742688,3.97894 6.560647,9.1892 7.222025,14.78626 0.627013,6.84594 2.831233,13.51124 2.778362,20.41776 -0.211017,3.56996 -1.984579,6.84393 -2.347483,10.43752 -2.97798,8.57078 -3.357928,6.37644 -7.594538,12.99515 -2.868136,3.21994 -5.67309,6.65297 -9.206963,9.14242 -4.793435,1.41333 -10.213568,2.2579 -15.134676,1.36065 -5.188128,-3.48992 -10.503553,-0.79831 -15.873465,0.2607 -7.6525,0.42783 -16.271841,-1.23329 -21.714842,-7.05026 -3.566575,-4.80747 -6.575303,-10.32808 -7.501851,-16.29258 -1.8125718,-5.72738 -0.908066,-11.83542 -1.2054818,-17.73642 0.09929,-6.292 1.8628978,-12.42154 4.3049798,-18.15088 1.533595,-5.12861 5.844443,-8.95753 9.92536,-12.08433 5.089767,-2.07305 10.679477,-0.17315 15.645421,1.38333 2.750108,2.09561 6.224307,5.68355 9.790793,2.61621 -0.289382,-4.41902 1.127291,-9.663439 -0.931283,-14.021888 -2.290677,-3.703113 -5.87049,-10.39254 -11.122427,-7.296249 -3.448848,2.449485 0.20843,5.89498 2.936083,6.029391 2.782799,4.335777 4.93811,10.832716 3.640808,15.854796"
       id="path869"
       sodipodi:nodetypes="ccccccccccccccccccccc" />
    <path
       style="fill:#ff0000;fill-opacity:1;stroke:#000000;stroke-width:0.264583px;stroke-linecap:butt;stroke-linejoin:miter;stroke-opacity:1"
       d="m 159.18265,110.14207 c 5.06391,1.25999 7.07728,-4.56532 11.02345,-6.20913 6.30938,-2.58113 13.43727,-0.23885 19.05498,2.96592 3.74268,3.97894 6.56064,9.1892 7.22202,14.78626 0.62701,6.84594 2.83123,13.51124 2.77836,20.41776 -0.21101,3.56996 -1.98458,6.84393 -2.34748,10.43752 -2.97798,8.57078 -3.35793,6.37644 -7.59454,12.99515 -2.86813,3.21994 -5.67309,6.65297 -9.20696,9.14242 -4.79344,1.41333 -10.21357,2.2579 -15.13468,1.36065 -5.18812,-3.48992 -10.50355,-0.79831 -15.87346,0.2607 -7.6525,0.42783 -16.27184,-1.23329 -21.71484,-7.05026 -3.56658,-4.80747 -6.57531,-10.32808 -7.50185,-16.29258 -1.81258,-5.72738 -0.90807,-11.83542 -1.20549,-17.73642 0.0993,-6.292 1.8629,-12.42154 4.30498,-18.15088 1.5336,-5.12861 5.84445,-8.95753 9.92536,-12.08433 5.08977,-2.07305 10.67948,-0.17315 15.64542,1.38333 2.75011,2.09561 6.22431,5.68355 9.7908,2.61621 -0.28939,-4.41902 1.12729,-9.663441 -0.93129,-14.021891 -2.29067,-3.703109 -5.87049,-10.392536 -11.12242,-7.296245 -3.44885,2.449485 0.20843,5.89498 2.93608,6.029391 2.7828,4.335774 4.93811,10.832715 3.64081,15.854795"
       id="path869-6"
       sodipodi:nodetypes="ccccccccccccccccccccc" />
    <path
       style="fill:#ff0000;fill-opacity:1;stroke:#000000;stroke-width:0.264583px;stroke-linecap:butt;stroke-linejoin:miter;stroke-opacity:1"
       d="m -58.358326,110.14207 c 5.063906,1.25999 7.077278,-4.56532 11.023448,-6.20913 6.309375,-2.58113 13.437272,-0.23885 19.054974,2.96592 3.742688,3.97894 6.560647,9.1892 7.222025,14.78626 0.627013,6.84594 2.831233,13.51124 2.778362,20.41776 -0.211017,3.56996 -1.984579,6.84393 -2.347483,10.43752 -2.97798,8.57078 -3.357928,6.37644 -7.594538,12.99515 -2.868136,3.21994 -5.67309,6.65297 -9.206963,9.14242 -4.793435,1.41333 -10.213568,2.2579 -15.134676,1.36065 -5.188128,-3.48992 -10.503553,-0.79831 -15.873465,0.2607 -7.6525,0.42783 -16.271841,-1.23329 -21.714842,-7.05026 -3.566575,-4.80747 -6.575303,-10.32808 -7.501851,-16.29258 -1.812572,-5.72738 -0.908066,-11.83542 -1.205482,-17.73642 0.09929,-6.292 1.862898,-12.42154 4.30498,-18.15088 1.533595,-5.12861 5.844443,-8.95753 9.92536,-12.08433 5.089767,-2.07306 10.679477,-0.17315 15.645421,1.38333 2.750108,2.09561 6.224307,5.68355 9.790793,2.61621 -0.289382,-4.41902 1.127291,-9.663441 -0.931283,-14.02189 -2.290677,-3.703113 -5.87049,-10.39254 -11.122427,-7.296249 -3.448848,2.449485 0.20843,5.89498 2.936083,6.029391 2.782799,4.335777 4.93811,10.832718 3.640808,15.854798"
       id="path869-9"
       sodipodi:nodetypes="ccccccccccccccccccccc" />
  </g>
</svg>
