<?xml version="1.0" encoding="UTF-8" standalone="no"?>
<svg
   xmlns:dc="http://purl.org/dc/elements/1.1/"
   xmlns:cc="http://creativecommons.org/ns#"
   xmlns:rdf="http://www.w3.org/1999/02/22-rdf-syntax-ns#"
   xmlns:svg="http://www.w3.org/2000/svg"
   xmlns="http://www.w3.org/2000/svg"
   xmlns:sodipodi="http://sodipodi.sourceforge.net/DTD/sodipodi-0.dtd"
   xmlns:inkscape="http://www.inkscape.org/namespaces/inkscape"
   width="101.7577mm"
   height="31.449726mm"
   viewBox="0 0 101.7577 31.449726"
   version="1.1"
   id="svg45"
   inkscape:version="1.0.1 (c497b03c, 2020-09-10)"
   sodipodi:docname="120 Fingers 3 plus 1.svg">
  <defs
     id="defs39">
    <marker
       style="overflow:visible"
       id="Arrow1Mend"
       refX="0"
       refY="0"
       orient="auto"
       inkscape:stockid="Arrow1Mend"
       inkscape:isstock="true">
      <path
         transform="matrix(-0.4,0,0,-0.4,-4,0)"
         style="fill:#000000;fill-opacity:1;fill-rule:evenodd;stroke:#000000;stroke-width:1pt;stroke-opacity:1"
         d="M 0,0 5,-5 -12.5,0 5,5 Z"
         id="path933" />
    </marker>
  </defs>
  <sodipodi:namedview
     id="base"
     pagecolor="#ffffff"
     bordercolor="#666666"
     borderopacity="1.0"
     inkscape:pageopacity="0.0"
     inkscape:pageshadow="2"
     inkscape:zoom="1.4"
     inkscape:cx="226.7411"
     inkscape:cy="144.33046"
     inkscape:document-units="mm"
     inkscape:current-layer="layer1"
     inkscape:document-rotation="0"
     showgrid="true"
     inkscape:window-width="1252"
     inkscape:window-height="943"
     inkscape:window-x="347"
     inkscape:window-y="27"
     inkscape:window-maximized="0"
     fit-margin-top="1"
     fit-margin-left="1"
     fit-margin-bottom="1"
     fit-margin-right="1"
     inkscape:snap-global="true">
    <inkscape:grid
       type="xygrid"
       id="grid77"
       originx="-98.758077"
       originy="-71.992624" />
  </sodipodi:namedview>
  <metadata
     id="metadata42">
    <rdf:RDF>
      <cc:Work
         rdf:about="">
        <dc:format>image/svg+xml</dc:format>
        <dc:type
           rdf:resource="http://purl.org/dc/dcmitype/StillImage" />
        <dc:title></dc:title>
      </cc:Work>
    </rdf:RDF>
  </metadata>
  <g
     inkscape:label="Layer 1"
     inkscape:groupmode="layer"
     id="layer1"
     transform="translate(-98.758082,-71.992626)">
    <path
       id="path1920-0"
       style="display:inline;fill:none;stroke:#000000;stroke-width:0.264583px;stroke-linecap:butt;stroke-linejoin:miter;stroke-opacity:1"
       d="m 139.50682,85.941736 c 0.20325,1.800161 -0.54523,3.396751 -1.20256,4.93051 m 1.74371,11.304084 c -0.25561,-3.122454 -0.14743,-5.991384 0.8418,-8.959084 0.34597,-1.03793 -0.55973,-2.608499 -0.0601,-3.60769 0.26326,-0.52655 0.60126,-1.74809 0.60126,-2.345 0,-1.27131 -1.16292,-1.79359 -1.98422,-1.38295 0.39613,-1.298439 -0.77159,-4.158919 -2.34501,-2.585499 -0.49012,0.49013 -0.35807,1.742819 -1.0823,1.984229 -0.29049,0.0968 -0.47514,-0.9915 -0.4209,-1.262689 0.23418,-1.17092 0.54115,-2.73063 0.54115,-3.90833 0,-1.08727 0.42149,-2.04702 0.66141,-3.12667 0.11377,-0.51196 0.57318,-1.49927 0.30064,-2.04435 -0.29235,-0.5847 -1.1748,-0.86955 -1.80384,-0.24051 -0.0158,0.0158 -0.53696,1.26059 -0.99424,2.85133 -0.61113,2.12597 -1.20271,4.77531 -1.2305,5.02545 -0.0545,0.49016 0.093,2.071589 -0.24051,2.40513 -0.0446,0.0446 -0.42455,0 -0.48103,0 -1.79118,0 -1.09255,-6.69471 -1.56333,-7.63628 -0.10873,-0.21746 -0.19228,-0.45691 -0.48103,-0.60128 -0.21885,-0.10943 -1.10307,-0.0394 -1.26269,0.12026 -0.44262,0.44262 -0.4793,6.67939 -0.24051,7.395759 0.46094,1.38281 0.8418,3.628911 0.8418,5.17101 -1.57628,0.223791 -2.04271,-2.46472 -3.8482,-3.066529 -0.7824,-0.26079 -3.107,-0.0574 -2.88615,1.443079 0.0605,0.411031 0.85018,0.642401 1.31519,0.8358 0.62044,0.258041 0.99129,0.448501 1.4507,0.90791 0.76682,0.766821 1.51091,3.15107 2.76589,4.569741 0.27809,0.31436 0.74337,0.94892 1.02813,1.262889 0.73819,0.813951 1.37549,1.259491 1.85802,2.224541 0.52822,1.28803 0.60128,2.848803 0.60128,4.389353 2.70877,-0.1874 5.44452,0.18038 8.11729,0.18038 z m -3.42731,-17.737793 c 0.67755,1.963989 0.53883,3.896049 -0.0601,5.89256 0.21932,0.547159 0.48819,0.962049 1.14242,0.962049 0.24466,0 0.60128,-0.665549 0.60128,-0.4209 0,0.197401 -0.38009,0.401571 -0.24051,0.54116 0.77736,0.777351 2.19821,-0.60599 2.46526,-0.962049"
       sodipodi:nodetypes="cccssscssssssssssssscscsssssscccccsssc" />
    <path
       id="path132-9-0"
       style="display:inline;fill:none;stroke:#000000;stroke-width:0.264583px;stroke-linecap:butt;stroke-linejoin:miter;stroke-opacity:1"
       d="m 100.39781,90.288646 c 0.17418,1.246746 2.23512,3.926943 2.79596,1.683589 m -1.89404,-5.17102 c 0.0689,0.975784 1.8189,5.734725 2.49533,6.072942 0.76724,0.383619 1.34763,-0.323713 1.71364,-0.811731 m -1.59338,-7.09512 c 0.11779,1.383911 0.0445,2.719105 0.45095,3.938395 0.1532,0.459581 0.40813,1.353724 0.54115,1.743714 0.17276,0.50654 0.31628,1.023375 0.57122,1.533267 0.12434,0.248673 0.4428,0.30064 0.69147,0.30064 0.81896,0 1.1572,-0.570134 1.32282,-1.232625 m -6.25333,10.853123 c -0.19092,-0.74391 0.37541,-2.781325 0.1804,-3.397236 -0.42425,-1.339989 -1.02218,-6.652097 -1.02218,-8.35781 -0.14075,-0.344414 -0.27749,-0.577592 -0.38434,-1.039845 -0.332979,-1.440532 -0.002,-3.615819 1.28625,-2.327329 -0.2825,-1.73996 1.59405,-3.576766 2.61558,-1.894036 0.0298,-1.46908 2.91621,-1.937561 2.91621,-0.450961 -0.11526,2.074973 -0.0233,4.337921 0.54115,6.313453 0.22668,0.793374 1.26783,0.507232 1.74372,0.150321 0.54024,-0.40518 0.42547,-2.107114 0.3307,-2.675702 -0.25409,-1.524577 -0.082,-1.563331 0.99211,-1.563331 m -3.54754,-2.194678 c 2.15335,-2.966106 4.94915,0.673511 5.66454,3.677726 0.0536,0.22524 0.0337,0.641506 0.12142,0.839161 0.0899,0.202534 0.10659,0.336369 0.10659,0.533876 0.68561,0.03123 0.93189,-0.480944 1.32281,-0.871857 0.98366,-0.983658 2.31775,-2.53628 4.14884,-1.803844 0.14807,0.05923 1.084,0.332828 1.44166,0.891991 0.14512,0.226858 0.23083,0.797158 -0.0587,0.941917 -0.59358,0.296784 -1.08962,-0.443649 -2.16461,0.631345 -2.49085,2.490849 -4.44798,5.867302 -7.33563,8.177426 -1.11091,1.08774 -0.39096,3.097203 -0.66141,4.449483 -2.63629,0.16632 -6.11593,0.32812 -8.20748,-0.0902"
       sodipodi:nodetypes="cccsccssssccscscccsssccsscsssssccc" />
    <path
       id="path181-2"
       style="display:inline;fill:none;stroke:#000000;stroke-width:0.264583px;stroke-linecap:butt;stroke-linejoin:miter;stroke-opacity:1"
       d="m 178.22917,86.897111 c -0.29493,-1.257678 -1.51659,-2.7281 -3.14626,-1.913265 m 0.38266,4.846938 c 0.002,-0.417475 -0.2248,-1.337404 -0.42244,-1.533888 -0.19937,-0.198251 -0.71148,-0.05339 -1.10822,0.04579 m -4.80438,2.551022 c 1.57005,2.479805 4.2377,-0.240845 2.84864,-0.935373 m -3.01871,-4.421769 c 0.15185,0.711153 0.29514,1.440611 0.59525,2.040816 0.3555,0.711001 1.9923,2.708914 3.10373,2.338434 1.40128,-0.467093 1.49728,-1.521431 0.59524,-2.423469 m -1.23299,-3.911563 c 0.0119,0.465042 3e-5,0.851792 3e-5,1.318027 0,0.380021 0.009,0.697549 0.17007,1.020408 0.3746,0.749189 0.5913,1.615645 1.70068,1.615645 0.1747,0 -0.0164,0.01096 0.12756,-0.08504 1.05626,-0.704173 1.36565,-2.455766 0.80782,-3.571429 -0.20824,-0.416482 0.94824,-0.460273 0.46769,-0.340137 m -9.1412,7.185384 c 0.0751,3.180336 1.37802,6.078373 1.7432,9.141156 0.035,0.293372 0.3332,2.127592 0,2.210882 2.02647,0.15006 4.07847,-0.085 6.07993,-0.085 0.74724,0 1.99606,0.0856 2.50851,-0.0425 m -1e-5,0.085 c 0.37522,-1.61466 -0.41023,-3.72886 0.34014,-5.229593 0.77258,-1.545153 1.7433,-3.146777 2.08333,-4.846939 0.70214,-2.423547 0.22679,-2.2714 -0.5102,-4.039114 -0.25888,-0.6472 -0.16249,-1.46538 -0.38265,-2.125851 -0.43134,-1.294028 -1.27921,-2.598462 -1.65816,-3.10374 -0.0528,-0.399209 -1.65444,-1.776131 -2.29592,-1.530613 -0.66997,0.256424 -1.6586,0.798112 -1.79212,1.654757 -0.0518,0.332283 -0.29469,0.603462 -0.29122,0.896264 -0.22891,-0.0894 -0.26045,-0.260453 -0.38265,-0.680272 -0.41172,-1.414425 -2.40218,-0.719425 -2.64099,0.594316 -0.11538,0.634738 0.0992,1.508145 0.09,1.956704 -1.55985,-0.962907 -3.26626,1.027952 -2.21087,2.083333 -1.12386,-0.495393 -1.80931,1.974702 -1.14796,2.636055 0.11876,0.118758 0.56303,0.831966 1.0317,1.343847 0.55008,0.600784 1.13376,1.004491 1.26421,1.037105 0.31315,0.07829 1.82824,0.269298 1.82824,-0.340136 0,-1.414625 -2.55537,-2.99343 -2.97619,-4.676871"
       sodipodi:nodetypes="cccsccccssccscscsccscsccsccscsscssccssssc" />
    <path
       id="path54-4"
       style="display:inline;fill:none;stroke:#000000;stroke-width:0.264583px;stroke-linecap:butt;stroke-linejoin:miter;stroke-opacity:1"
       d="m 182.28355,88.515089 c 0.0681,-0.437681 0.24811,-0.82988 0.29762,-1.27551 0.40314,-3.62826 5.95065,-4.92677 4.84694,-1.61565 -0.0732,0.21952 -0.68133,0.55378 -0.80782,0.68028 -1.57659,1.57658 -1.14796,1.09171 -1.14796,3.61394 m 10.6635,11.474221 c 0.23554,0 -0.0112,-1.640969 -0.12405,-2.462369 -0.18049,-1.313862 -0.33075,-2.607732 0.0295,-3.868732 0.25955,-0.9084 0.24895,-1.94079 0.47247,-2.83484 0.38927,-1.55712 -0.43298,-4.87447 0.47246,-6.14211 0.57516,-0.80522 1.21465,-3.009241 2.16739,-4.67936 0.20232,-0.354661 0.25801,-1.1564 0.21721,-1.57423 -0.0364,-0.37303 -0.0319,-0.56046 -0.25606,-0.616801 -0.43285,-0.10877 -0.42804,-0.4382 -1.1855,0.30753 -0.38313,0.37719 -0.62096,1.25448 -0.97558,2.01251 -0.29989,0.641031 -0.71186,1.13015 -1.07273,1.84337 -0.29527,0.583571 -0.47107,0.880141 -0.89094,0.91244 -0.61839,0.0476 -1.34781,-0.26636 -0.96075,-0.575919 0.1922,-0.15371 2.05917,-7.892171 1.0671,-9.252311 -0.21049,-0.28859 -0.91113,-0.0619 -1.27962,0.40255 -0.37797,0.4764 -0.42125,1.200491 -0.42125,1.67632 0,0.468901 -1.50896,7.515231 -2.55135,6.472841 -0.14,-0.13999 -0.25799,0.008 -0.35887,-0.289931 -0.58362,-1.724679 -0.35779,-6.06348 -0.4544,-8.29118 -0.0412,-0.94954 -0.90481,-1.3837 -1.26559,-1.29351 -0.34753,0.0869 -0.72265,0.49613 -0.89177,1.19983 -0.17038,0.70892 0.0334,1.749081 -0.0246,2.75489 -0.16386,2.84592 -0.18237,6.185771 -0.50109,6.34513 -1.63425,0.817121 -2.69076,-2.34564 -3.48283,-4.2801 -0.24762,-0.60481 -0.33577,-2.058399 -0.54128,-2.263899 -0.299,-0.299001 -0.23128,-0.21624 -0.53929,-0.41515 -0.36724,-0.237221 -0.76773,0.0732 -0.97675,0.256239 -0.24671,0.21594 -0.33839,0.33765 -0.37518,0.89402 -0.0788,1.19096 0.50149,2.56423 0.50149,2.71252 0,0.30154 0.2974,1.48635 0.25385,1.36365 -0.14798,-0.41691 0.31898,1.377191 0.37142,1.779061 0.26862,2.058289 0.11392,-0.287261 0.1727,1.839859 0.0332,1.199531 -0.22127,1.884761 -0.32121,2.13462 -0.0537,2.162451 -0.56078,-0.434169 0.3022,3.439611 0.51189,1.43 1.07509,1.77652 1.76693,3.03308 0.67711,1.22983 0.9239,1.91214 2.17213,2.95231 0.52525,0.43769 0.95951,2.330272 0.88709,3.599251 -0.0331,0.57916 -0.20508,0.98944 -0.002,1.19228 0.32879,0.3288 3.44851,0.5497 3.83117,0.16704 0.45696,-0.45696 3.3792,-1.3e-4 4.08579,0.0894 0.4059,0.0515 1.48013,-0.53996 0.682,-0.53996 z" />
    <path
       style="fill:none;stroke:#000000;stroke-width:0.79375;stroke-linecap:butt;stroke-linejoin:miter;stroke-miterlimit:4;stroke-dasharray:2.38125, 2.38125;stroke-dashoffset:0;stroke-opacity:1;marker-end:url(#Arrow1Mend)"
       d="m 145.52083,92.604168 h 15.875"
       id="path99" />
  </g>
</svg>
