<?xml version="1.0" encoding="UTF-8" standalone="no"?>
<svg
   xmlns:dc="http://purl.org/dc/elements/1.1/"
   xmlns:cc="http://creativecommons.org/ns#"
   xmlns:rdf="http://www.w3.org/1999/02/22-rdf-syntax-ns#"
   xmlns:svg="http://www.w3.org/2000/svg"
   xmlns="http://www.w3.org/2000/svg"
   xmlns:sodipodi="http://sodipodi.sourceforge.net/DTD/sodipodi-0.dtd"
   xmlns:inkscape="http://www.inkscape.org/namespaces/inkscape"
   width="58.304279mm"
   height="38.930698mm"
   viewBox="0 0 58.304277 38.930698"
   version="1.1"
   id="svg45"
   inkscape:version="1.0.1 (c497b03c, 2020-09-10)"
   sodipodi:docname="120 Finger - Ten Frame - 7.svg">
  <defs
     id="defs39" />
  <sodipodi:namedview
     id="base"
     pagecolor="#ffffff"
     bordercolor="#666666"
     borderopacity="1.0"
     inkscape:pageopacity="0.0"
     inkscape:pageshadow="2"
     inkscape:zoom="0.98994949"
     inkscape:cx="244.47456"
     inkscape:cy="155.60433"
     inkscape:document-units="mm"
     inkscape:current-layer="layer1"
     inkscape:document-rotation="0"
     showgrid="true"
     inkscape:snap-global="false"
     fit-margin-top="1"
     fit-margin-left="1"
     fit-margin-bottom="1"
     fit-margin-right="1"
     inkscape:window-width="1252"
     inkscape:window-height="943"
     inkscape:window-x="367"
     inkscape:window-y="23"
     inkscape:window-maximized="0">
    <inkscape:grid
       type="xygrid"
       id="grid1898"
       originx="-39.545819"
       originy="-31.893615" />
  </sodipodi:namedview>
  <metadata
     id="metadata42">
    <rdf:RDF>
      <cc:Work
         rdf:about="">
        <dc:format>image/svg+xml</dc:format>
        <dc:type
           rdf:resource="http://purl.org/dc/dcmitype/StillImage" />
        <dc:title></dc:title>
      </cc:Work>
    </rdf:RDF>
  </metadata>
  <g
     inkscape:label="Layer 1"
     inkscape:groupmode="layer"
     id="layer1"
     transform="translate(-39.545822,-31.893616)">
    <g
       id="g1902"
       transform="matrix(1.2562111,0,0,1.2562111,-10.431314,-17.847182)">
      <path
         style="display:inline;fill:none;stroke:#000000;stroke-width:0.264583px;stroke-linecap:butt;stroke-linejoin:miter;stroke-opacity:1"
         d="m 82.020833,68.791667 c 0.23554,0 -0.0112,-1.64097 -0.12405,-2.462359 -0.18049,-1.31386 -0.33075,-2.60774 0.0295,-3.86874 0.25955,-0.9084 0.24895,-1.94079 0.47247,-2.83483 0.38927,-1.55712 -0.43298,-4.87447 0.47246,-6.14211 0.57516,-0.80522 1.21465,-3.009241 2.16739,-4.67936 0.20232,-0.35466 0.25801,-1.1564 0.21721,-1.57423 -0.0364,-0.37303 -0.0319,-0.56046 -0.25606,-0.6168 -0.43285,-0.10877 -0.42804,-0.4382 -1.1855,0.30753 -0.38313,0.37719 -0.62096,1.25448 -0.97558,2.01251 -0.29989,0.64103 -0.71186,1.13015 -1.07273,1.843369 -0.29527,0.583571 -0.47107,0.880141 -0.89094,0.91244 -0.61839,0.0476 -1.34781,-0.26636 -0.96075,-0.575919 0.1922,-0.15371 2.05917,-7.89217 1.0671,-9.25231 -0.21049,-0.28859 -0.91113,-0.0619 -1.27962,0.40255 -0.37797,0.4764 -0.42125,1.20049 -0.42125,1.67632 0,0.4689 -1.50896,7.51523 -2.55135,6.47284 -0.14,-0.13999 -0.25799,0.008 -0.35887,-0.28993 -0.58362,-1.72468 -0.35779,-6.06348 -0.4544,-8.29118 -0.0412,-0.94954 -0.90481,-1.3837 -1.26559,-1.29351 -0.34753,0.0869 -0.72265,0.49613 -0.89177,1.19983 -0.17038,0.70892 0.0334,1.74908 -0.0246,2.75489 -0.16386,2.84592 -0.18237,6.18577 -0.50109,6.345129 -1.63425,0.817121 -2.69076,-2.345639 -3.48283,-4.280099 -0.24762,-0.60481 -0.33577,-2.0584 -0.54128,-2.2639 -0.299001,-0.299 -0.23128,-0.21624 -0.539291,-0.41515 -0.367239,-0.23722 -0.767729,0.0732 -0.976749,0.25624 -0.24671,0.21594 -0.33839,0.33765 -0.37518,0.89402 -0.0788,1.19096 0.50149,2.56423 0.50149,2.71252 0,0.30154 0.179209,0.66014 0.29637,0.98099 0.11366,0.31123 0.163019,0.58498 0.31129,0.86255 0.921,1.724189 2.561859,3.4265 2.06585,5.41056 -0.0653,0.261089 -0.18355,0.50608 -0.28349,0.755949 -0.1739,0.434761 -0.85008,-0.519339 -1.18117,-0.850449 -0.78563,-0.78562 -1.646341,-1.27975 -2.909741,-1.700891 -0.63687,-0.212289 -1.69951,0.294631 -2.07155,0.76547 -0.31592,0.399801 -0.33437,0.741821 -0.2032,1.026641 0.10398,0.225729 0.88229,0.352589 1.02539,0.281029 0.28774,-0.143879 0.74776,0.425191 0.959831,0.687111 0.245679,0.30341 0.272,0.33171 0.553699,0.547329 1.477471,1.130881 2.245531,3.426641 3.259821,4.440931 1.05977,1.05976 1.64669,2.29479 2.89492,3.33497 0.52525,0.43769 0.959509,2.33027 0.88709,3.59924 -0.0331,0.579159 -0.205081,0.989441 -0.002,1.192281 0.32879,0.328798 3.44851,0.549698 3.83117,0.167039 0.45696,-0.456961 3.3792,-1.29e-4 4.08579,0.0894 0.4059,0.0515 1.48013,-0.539961 0.682,-0.539961 z"
         id="path1804-5-8"
         sodipodi:nodetypes="ssssssssssssssssssssssssssssssssssssssssssssssss" />
      <path
         id="path87-9-0"
         style="display:inline;fill:none;stroke:#000000;stroke-width:0.264583px;stroke-linecap:butt;stroke-linejoin:miter;stroke-opacity:1"
         d="m 41.86213,57.635646 c 0.33041,1.306809 1.78321,2.818376 2.28489,0.811729 m -1.95419,-5.171017 c 0.0608,0.948343 1.76324,5.270968 2.28489,5.531787 0.32507,0.162536 0.67839,0.04085 0.96205,-0.03006 0.42236,-0.10559 0.64276,-0.526651 0.75161,-0.962049 m 6.76441,-2.946283 c -0.0584,0.442869 0.30132,1.322472 0.90191,1.022178 1.22492,-0.61246 1.99215,-3.066534 3.72795,-3.066534 0.47169,0 3.52234,0.566364 2.64563,1.443074 -0.17046,0.170461 -0.80734,0.154544 -1.0823,0.360768 -1.9744,1.480801 -2.51428,2.68356 -3.54756,4.750122 -1.15992,1.649251 -2.25706,3.219113 -3.60769,4.569743 -0.8747,0.874703 -0.24051,4.412253 -0.24051,5.351412 -2.16713,0.45934 -7.4226,0.51431 -7.99705,-0.0601 m 0.78167,-18.15874 c -0.0576,1.139548 -0.10967,2.951071 0.37778,4.415724 0.19222,0.577541 0.47989,1.083008 0.73396,1.540634 0.37203,0.670103 0.74946,1.198894 1.65416,1.198894 0.0512,0 0.56267,-1.250047 0.60128,-1.443075 C 48.0495,56.071447 47.52858,55.117459 47.36157,54.389254 47.2541,53.920776 47.20906,53.7116 47.09329,53.306421 46.77868,52.205326 47.55035,50.569437 47.625,50.270833 m -3.92896,18.969554 c -0.0374,-1.442 0.67908,-3.31419 0.18039,-4.810263 -0.47517,-1.42549 -1.25547,-2.924602 -1.74371,-4.389352 -0.22476,-0.67429 -0.0673,-1.365922 -0.18039,-2.044359 -0.28419,-1.705152 -2.78097,-4.689992 0.24052,-4.689992 -0.5997,-2.247263 0.99236,-3.269281 2.34499,-2.254806 -0.0124,-0.314 0.014,-0.606201 0.0566,-0.831409 0.0576,-0.304456 0.16789,-0.460784 0.48456,-0.641731 2.501431,-1.429386 2.63956,2.28487 4.50961,2.28487 0.80415,-1.403831 0.299411,-3.241987 0.661411,-4.689995 0.266679,-1.066712 -0.54199,-4.087875 0,-4.629866 0.862219,-0.862217 1.593589,0.361148 1.924099,1.022178 1.50921,3.018424 0.12099,8.150391 0.75161,11.394283"
         sodipodi:nodetypes="cccssccsssscscccssssssccsscccsccsssc" />
    </g>
  </g>
</svg>
