<?xml version="1.0" encoding="UTF-8" standalone="no"?>
<!-- Created with Inkscape (http://www.inkscape.org/) -->

<svg
   width="55.367214mm"
   height="36.097511mm"
   viewBox="0 0 55.367214 36.097511"
   version="1.1"
   id="svg945"
   inkscape:version="1.1 (c4e8f9e, 2021-05-24)"
   sodipodi:docname="110 Invisible Add Sub.svg"
   xmlns:inkscape="http://www.inkscape.org/namespaces/inkscape"
   xmlns:sodipodi="http://sodipodi.sourceforge.net/DTD/sodipodi-0.dtd"
   xmlns="http://www.w3.org/2000/svg"
   xmlns:svg="http://www.w3.org/2000/svg">
  <sodipodi:namedview
     id="namedview947"
     pagecolor="#ffffff"
     bordercolor="#666666"
     borderopacity="1.0"
     inkscape:pageshadow="2"
     inkscape:pageopacity="0.0"
     inkscape:pagecheckerboard="0"
     inkscape:document-units="mm"
     showgrid="false"
     inkscape:zoom="1.8973437"
     inkscape:cx="109.89047"
     inkscape:cy="144.67595"
     inkscape:window-width="1312"
     inkscape:window-height="997"
     inkscape:window-x="392"
     inkscape:window-y="25"
     inkscape:window-maximized="0"
     inkscape:current-layer="layer1"
     inkscape:snap-global="false"
     fit-margin-left="2"
     fit-margin-top="2"
     fit-margin-right="2"
     fit-margin-bottom="2" />
  <defs
     id="defs942" />
  <g
     inkscape:label="Layer 1"
     inkscape:groupmode="layer"
     id="layer1"
     transform="translate(-105.33652,-132.88275)">
    <path
       id="path1920-0"
       style="display:inline;fill:none;stroke:#000000;stroke-width:0.264583px;stroke-linecap:butt;stroke-linejoin:miter;stroke-opacity:1"
       d="m 124.07837,150.3162 c 0.20325,1.80016 -0.54523,3.39675 -1.20256,4.93051 m 1.7437,11.30409 c -0.2556,-3.12246 -0.14743,-5.99139 0.84181,-8.95909 0.34596,-1.03793 -0.55974,-2.6085 -0.0601,-3.60769 0.26326,-0.52655 0.60126,-1.74809 0.60126,-2.345 0,-1.27131 -1.16292,-1.79359 -1.98421,-1.38295 0.39612,-1.29844 -0.77159,-4.15892 -2.34502,-2.5855 -0.49012,0.49013 -0.35807,1.74282 -1.0823,1.98423 -0.29049,0.0968 -0.47514,-0.9915 -0.4209,-1.26269 0.23418,-1.17092 0.54115,-2.73063 0.54115,-3.90833 0,-1.08727 0.42149,-2.04702 0.66141,-3.12667 0.11377,-0.51196 0.57318,-1.49927 0.30064,-2.04435 -0.29235,-0.5847 -1.1748,-0.86955 -1.80384,-0.24051 -0.0158,0.0158 -0.53696,1.26059 -0.99424,2.85133 -0.61113,2.12597 -1.20271,4.77531 -1.2305,5.02545 -0.0545,0.49016 0.093,2.07159 -0.24051,2.40513 -0.0446,0.0446 -0.42455,0 -0.48103,0 -1.79118,0 -1.09255,-6.69471 -1.56333,-7.63628 -0.10873,-0.21746 -0.19228,-0.45691 -0.48103,-0.60128 -0.21885,-0.10943 -1.10307,-0.0394 -1.26269,0.12026 -0.44262,0.44262 -0.4793,6.67939 -0.24051,7.39576 0.46094,1.38281 0.8418,3.62891 0.8418,5.17101 -1.57628,0.22379 -2.04271,-2.46472 -3.8482,-3.06653 -0.7824,-0.26079 -3.10701,-0.0574 -2.88615,1.44308 0.0605,0.41103 0.85018,0.6424 1.31519,0.8358 0.62044,0.25804 0.99129,0.4485 1.4507,0.90791 0.76682,0.76682 1.51091,3.15107 2.76589,4.56974 0.27809,0.31436 0.74337,0.94892 1.02813,1.26289 0.73819,0.81395 1.37549,1.25949 1.85802,2.22454 0.52822,1.28803 0.60128,2.84881 0.60128,4.38936 2.70877,-0.1874 5.44452,0.18038 8.11729,0.18038 z M 121.1922,148.813 c 0.67755,1.96399 0.53883,3.89605 -0.0601,5.89256 0.21932,0.54716 0.48819,0.96205 1.14242,0.96205 0.24467,0 0.60129,-0.66555 0.60129,-0.4209 0,0.1974 -0.38009,0.40157 -0.24051,0.54116 0.77736,0.77735 2.1982,-0.60599 2.46525,-0.96205"
       sodipodi:nodetypes="cccssscssssssssssssscscsssssscccccsssc" />
    <g
       id="g2271"
       transform="matrix(0.6346557,0,0,0.72595991,52.533558,45.764993)"
       style="stroke:#000000;stroke-opacity:1">
      <g
         id="g852-3-1-5-9-5"
         transform="matrix(0.08000806,0,0,0.1166813,140.77199,148.9923)"
         style="fill:none;stroke:#000000;stroke-width:1.91687;stroke-miterlimit:4;stroke-dasharray:none;stroke-opacity:1">
        <ellipse
           style="fill:none;fill-opacity:1;stroke:#000000;stroke-width:1.91687;stroke-miterlimit:4;stroke-dasharray:none;stroke-opacity:1;paint-order:fill markers stroke"
           id="path833-6-5-7-8-0"
           ry="10.016369"
           rx="17.764881"
           cy="70.469635"
           cx="67.925011" />
        <path
           style="fill:none;fill-opacity:1;stroke:#000000;stroke-width:1.91687;stroke-miterlimit:4;stroke-dasharray:none;stroke-opacity:1;paint-order:fill markers stroke"
           id="path835-2-0-2-3-4"
           sodipodi:type="arc"
           sodipodi:cx="68.012787"
           sodipodi:cy="67.035416"
           sodipodi:rx="9.0714293"
           sodipodi:ry="6.9372058"
           sodipodi:start="0.41873619"
           sodipodi:end="2.7436473"
           sodipodi:arc-type="arc"
           sodipodi:open="true"
           d="m 76.300477,69.856126 a 9.0714293,6.9372058 0 0 1 -8.38199,4.116121 9.0714293,6.9372058 0 0 1 -8.26828,-4.24849" />
        <path
           style="fill:none;fill-opacity:1;stroke:#000000;stroke-width:1.91687;stroke-miterlimit:4;stroke-dasharray:none;stroke-opacity:1;paint-order:fill markers stroke"
           id="path837-2-3-2-5-2"
           sodipodi:type="arc"
           sodipodi:cx="67.978737"
           sodipodi:cy="-72.530098"
           sodipodi:rx="6.4160981"
           sodipodi:ry="4.7247024"
           sodipodi:start="0.16047614"
           sodipodi:end="2.9805176"
           sodipodi:open="true"
           sodipodi:arc-type="arc"
           transform="scale(1,-1)"
           d="m 74.312397,-71.775146 a 6.4160981,4.7247024 0 0 1 -6.331739,3.96975 6.4160981,4.7247024 0 0 1 -6.334966,-3.966957" />
      </g>
      <g
         id="g852-3-1-5-9-5-5"
         transform="matrix(0.08000806,0,0,0.1166813,144.03606,150.51097)"
         style="fill:none;stroke:#000000;stroke-width:1.91687;stroke-miterlimit:4;stroke-dasharray:none;stroke-opacity:1">
        <ellipse
           style="fill:none;fill-opacity:1;stroke:#000000;stroke-width:1.91687;stroke-miterlimit:4;stroke-dasharray:none;stroke-opacity:1;paint-order:fill markers stroke"
           id="path833-6-5-7-8-0-1"
           ry="10.016369"
           rx="17.764881"
           cy="70.469635"
           cx="67.925011" />
        <path
           style="fill:none;fill-opacity:1;stroke:#000000;stroke-width:1.91687;stroke-miterlimit:4;stroke-dasharray:none;stroke-opacity:1;paint-order:fill markers stroke"
           id="path835-2-0-2-3-4-2"
           sodipodi:type="arc"
           sodipodi:cx="68.012787"
           sodipodi:cy="67.035416"
           sodipodi:rx="9.0714293"
           sodipodi:ry="6.9372058"
           sodipodi:start="0.41873619"
           sodipodi:end="2.7436473"
           sodipodi:arc-type="arc"
           sodipodi:open="true"
           d="m 76.300477,69.856126 a 9.0714293,6.9372058 0 0 1 -8.38199,4.116121 9.0714293,6.9372058 0 0 1 -8.26828,-4.24849" />
        <path
           style="fill:none;fill-opacity:1;stroke:#000000;stroke-width:1.91687;stroke-miterlimit:4;stroke-dasharray:none;stroke-opacity:1;paint-order:fill markers stroke"
           id="path837-2-3-2-5-2-0"
           sodipodi:type="arc"
           sodipodi:cx="67.978737"
           sodipodi:cy="-72.530098"
           sodipodi:rx="6.4160981"
           sodipodi:ry="4.7247024"
           sodipodi:start="0.16047614"
           sodipodi:end="2.9805176"
           sodipodi:open="true"
           sodipodi:arc-type="arc"
           transform="scale(1,-1)"
           d="m 74.312397,-71.775146 a 6.4160981,4.7247024 0 0 1 -6.331739,3.96975 6.4160981,4.7247024 0 0 1 -6.334966,-3.966957" />
      </g>
      <g
         id="g852-3-1-5-9-5-5-1"
         transform="matrix(0.08000806,0,0,0.1166813,144.62301,147.57239)"
         style="fill:none;stroke:#000000;stroke-width:1.91687;stroke-miterlimit:4;stroke-dasharray:none;stroke-opacity:1">
        <ellipse
           style="fill:none;fill-opacity:1;stroke:#000000;stroke-width:1.91687;stroke-miterlimit:4;stroke-dasharray:none;stroke-opacity:1;paint-order:fill markers stroke"
           id="path833-6-5-7-8-0-1-2"
           ry="10.016369"
           rx="17.764881"
           cy="70.469635"
           cx="67.925011" />
        <path
           style="fill:none;fill-opacity:1;stroke:#000000;stroke-width:1.91687;stroke-miterlimit:4;stroke-dasharray:none;stroke-opacity:1;paint-order:fill markers stroke"
           id="path835-2-0-2-3-4-2-5"
           sodipodi:type="arc"
           sodipodi:cx="68.012787"
           sodipodi:cy="67.035416"
           sodipodi:rx="9.0714293"
           sodipodi:ry="6.9372058"
           sodipodi:start="0.41873619"
           sodipodi:end="2.7436473"
           sodipodi:arc-type="arc"
           sodipodi:open="true"
           d="m 76.300477,69.856126 a 9.0714293,6.9372058 0 0 1 -8.38199,4.116121 9.0714293,6.9372058 0 0 1 -8.26828,-4.24849" />
        <path
           style="fill:none;fill-opacity:1;stroke:#000000;stroke-width:1.91687;stroke-miterlimit:4;stroke-dasharray:none;stroke-opacity:1;paint-order:fill markers stroke"
           id="path837-2-3-2-5-2-0-2"
           sodipodi:type="arc"
           sodipodi:cx="67.978737"
           sodipodi:cy="-72.530098"
           sodipodi:rx="6.4160981"
           sodipodi:ry="4.7247024"
           sodipodi:start="0.16047614"
           sodipodi:end="2.9805176"
           sodipodi:open="true"
           sodipodi:arc-type="arc"
           transform="scale(1,-1)"
           d="m 74.312397,-71.775146 a 6.4160981,4.7247024 0 0 1 -6.331739,3.96975 6.4160981,4.7247024 0 0 1 -6.334966,-3.966957" />
      </g>
      <g
         id="g852-3-1-5-9-5-5-9"
         transform="matrix(0.08000806,0,0,0.1166813,153.78227,149.18654)"
         style="fill:none;stroke:#000000;stroke-width:1.91687;stroke-miterlimit:4;stroke-dasharray:none;stroke-opacity:1">
        <ellipse
           style="fill:none;fill-opacity:1;stroke:#000000;stroke-width:1.91687;stroke-miterlimit:4;stroke-dasharray:none;stroke-opacity:1;paint-order:fill markers stroke"
           id="path833-6-5-7-8-0-1-6"
           ry="10.016369"
           rx="17.764881"
           cy="70.469635"
           cx="67.925011" />
        <path
           style="fill:none;fill-opacity:1;stroke:#000000;stroke-width:1.91687;stroke-miterlimit:4;stroke-dasharray:none;stroke-opacity:1;paint-order:fill markers stroke"
           id="path835-2-0-2-3-4-2-3"
           sodipodi:type="arc"
           sodipodi:cx="68.012787"
           sodipodi:cy="67.035416"
           sodipodi:rx="9.0714293"
           sodipodi:ry="6.9372058"
           sodipodi:start="0.41873619"
           sodipodi:end="2.7436473"
           sodipodi:arc-type="arc"
           sodipodi:open="true"
           d="m 76.300477,69.856126 a 9.0714293,6.9372058 0 0 1 -8.38199,4.116121 9.0714293,6.9372058 0 0 1 -8.26828,-4.24849" />
        <path
           style="fill:none;fill-opacity:1;stroke:#000000;stroke-width:1.91687;stroke-miterlimit:4;stroke-dasharray:none;stroke-opacity:1;paint-order:fill markers stroke"
           id="path837-2-3-2-5-2-0-7"
           sodipodi:type="arc"
           sodipodi:cx="67.978737"
           sodipodi:cy="-72.530098"
           sodipodi:rx="6.4160981"
           sodipodi:ry="4.7247024"
           sodipodi:start="0.16047614"
           sodipodi:end="2.9805176"
           sodipodi:open="true"
           sodipodi:arc-type="arc"
           transform="scale(1,-1)"
           d="m 74.312397,-71.775146 a 6.4160981,4.7247024 0 0 1 -6.331739,3.96975 6.4160981,4.7247024 0 0 1 -6.334966,-3.966957" />
      </g>
      <path
         style="fill:none;fill-rule:evenodd;stroke:#000000;stroke-width:0.265;stroke-miterlimit:4;stroke-dasharray:none;stroke-opacity:1"
         id="path959"
         sodipodi:type="arc"
         sodipodi:cx="150.35168"
         sodipodi:cy="159.63313"
         sodipodi:rx="16.803646"
         sodipodi:ry="5.3687997"
         sodipodi:start="0"
         sodipodi:end="3.1415927"
         sodipodi:open="true"
         sodipodi:arc-type="arc"
         d="m 167.15533,159.63313 a 16.803646,5.3687997 0 0 1 -8.40182,4.64952 16.803646,5.3687997 0 0 1 -16.80365,0 16.803646,5.3687997 0 0 1 -8.40182,-4.64952" />
      <path
         style="fill:none;fill-rule:evenodd;stroke:#000000;stroke-width:0.265;stroke-miterlimit:4;stroke-dasharray:none;stroke-opacity:1"
         id="path959-1"
         sodipodi:type="arc"
         sodipodi:cx="150.31517"
         sodipodi:cy="161.47066"
         sodipodi:rx="16.803646"
         sodipodi:ry="5.3687997"
         sodipodi:start="0"
         sodipodi:end="3.1415927"
         sodipodi:open="true"
         sodipodi:arc-type="arc"
         d="m 167.11882,161.47066 a 16.803646,5.3687997 0 0 1 -8.40183,4.64951 16.803646,5.3687997 0 0 1 -16.80364,0 16.803646,5.3687997 0 0 1 -8.40183,-4.64951" />
      <path
         style="fill:none;stroke:#000000;stroke-width:0.264583px;stroke-linecap:butt;stroke-linejoin:miter;stroke-opacity:1"
         d="m 133.21613,160.03685 v 1.8735"
         id="path1521" />
      <path
         style="fill:none;stroke:#000000;stroke-width:0.264583px;stroke-linecap:butt;stroke-linejoin:miter;stroke-opacity:1"
         d="m 166.93924,159.93824 0.19721,1.87351"
         id="path1523" />
      <path
         style="fill:none;stroke:#000000;stroke-width:0.264583px;stroke-linecap:butt;stroke-linejoin:miter;stroke-opacity:1"
         d="m 133.21613,160.03685 6.40936,-31.751"
         id="path1525"
         sodipodi:nodetypes="cc" />
      <path
         style="fill:none;stroke:#000000;stroke-width:0.264583px;stroke-linecap:butt;stroke-linejoin:miter;stroke-opacity:1"
         d="m 166.93924,159.93824 -6.31076,-31.65239"
         id="path1527"
         sodipodi:nodetypes="cc" />
      <ellipse
         style="fill:none;fill-rule:evenodd;stroke:#000000;stroke-width:0.265;stroke-miterlimit:4;stroke-dasharray:none;stroke-opacity:1"
         id="path959-6"
         cx="150.21242"
         cy="128.25981"
         rx="10.492889"
         ry="5.3687997" />
    </g>
    <path
       style="opacity:0.72233;fill:#ff0000;stroke:#000000;stroke-width:0.527053;stroke-opacity:1"
       d="m 549.18885,624.7606 c -15.15913,-1.42179 -26.8013,-6.13673 -29.34349,-11.88377 l -1.05221,-2.37868 7.29206,-41.36597 c 5.39987,-30.63209 7.42882,-41.12407 7.81911,-40.43374 1.51869,2.68616 5.45912,6.1617 8.91218,7.86073 12.04645,5.92725 30.89554,3.84459 38.12837,-4.21286 1.08644,-1.21031 2.21966,-2.62967 2.51825,-3.15413 0.79546,-1.39716 15.38273,82.48441 14.6879,84.46016 -0.2677,0.76119 -1.66958,2.28301 -3.11529,3.38182 -8.06986,6.1335 -27.64947,9.43319 -45.84688,7.72644 z m 10.27752,-13.64307 c 2.17664,-2.17663 0.62114,-6.32463 -2.37173,-6.32463 -1.89139,0 -3.42585,1.75714 -3.42585,3.92301 0,3.10837 3.59968,4.59952 5.79758,2.40162 z m 23.4778,-3.92894 c 0.71152,-0.71152 1.29368,-1.78958 1.29368,-2.39569 0,-1.37874 -2.25111,-3.68937 -3.59434,-3.68937 -0.55384,0 -1.6319,0.49156 -2.39569,1.09236 -1.74737,1.37448 -1.85255,3.70497 -0.23522,5.21174 1.5419,1.4365 3.35664,1.3559 4.93157,-0.21904 z m -31.35413,-0.20535 c 1.38522,-1.12168 1.63541,-3.92291 0.45368,-5.07954 -2.26944,-2.22124 -6.28071,-0.68818 -6.28071,2.4004 0,3.12218 3.36771,4.67058 5.82703,2.67914 z m 9.58926,-4.17905 c 1.24677,-1.09482 1.16452,-3.56668 -0.16284,-4.89405 -2.45166,-2.45166 -7.12961,0.34061 -5.99163,3.57642 0.92678,2.6353 3.92332,3.27684 6.15447,1.31763 z"
       id="path2376"
       transform="scale(0.26458333)" />
    <path
       style="opacity:0.904854;fill:#ff0000;stroke:#000000;stroke-width:0.527053;stroke-opacity:1"
       d="m 549.11613,537.89595 c -19.96578,-5.38797 -19.76616,-20.93534 0.33624,-26.18777 4.54057,-1.18637 13.79061,-1.19835 18.61118,-0.0241 10.10066,2.46044 16.3186,8.26394 15.40211,14.37554 -0.69854,4.65818 -5.62861,8.99066 -12.93118,11.36377 -5.02288,1.63227 -16.20651,1.87901 -21.41835,0.47255 z"
       id="path2748"
       transform="scale(0.26458333)" />
    <path
       style="opacity:1;fill:#ff0000;stroke:#000000;stroke-width:0.527053;stroke-opacity:1"
       d="m 546.02653,629.4888 c -13.82718,-1.75882 -25.42575,-7.01695 -26.41761,-11.97626 -0.18167,-0.90834 -0.53784,-1.65153 -0.79148,-1.65153 -0.25364,0 -0.45189,-0.88941 -0.44054,-1.97645 l 0.0206,-1.97645 0.70322,1.61474 c 0.38677,0.8881 1.7324,2.49567 2.99028,3.57237 6.53113,5.59041 20.20163,8.85062 37.11182,8.85062 17.3344,0 30.81311,-3.32457 37.56139,-9.26465 l 2.40895,-2.12044 -0.33404,2.05844 c -0.91502,5.63859 -10.83961,10.52291 -25.73705,12.66629 -6.13016,0.88198 -20.86999,0.99267 -27.07557,0.20332 z"
       id="path3194"
       transform="scale(0.26458333)" />
  </g>
</svg>
