<?xml version="1.0" encoding="UTF-8" standalone="no"?>
<svg
   id="svg8"
   viewBox="0 0 305.64149 247.7704"
   version="1.1"
   sodipodi:docname="10 EFM Pair.svg"
   inkscape:version="1.1 (c4e8f9e, 2021-05-24)"
   width="305.64148"
   height="247.7704"
   inkscape:export-filename="/Users/chriswright/desktop/bitmap.png"
   inkscape:export-xdpi="96"
   inkscape:export-ydpi="96"
   xmlns:inkscape="http://www.inkscape.org/namespaces/inkscape"
   xmlns:sodipodi="http://sodipodi.sourceforge.net/DTD/sodipodi-0.dtd"
   xmlns="http://www.w3.org/2000/svg"
   xmlns:svg="http://www.w3.org/2000/svg">
  <sodipodi:namedview
     id="namedview919"
     pagecolor="#ffffff"
     bordercolor="#666666"
     borderopacity="1.0"
     inkscape:pageshadow="2"
     inkscape:pageopacity="1"
     inkscape:pagecheckerboard="0"
     showgrid="false"
     inkscape:zoom="1.9398329"
     inkscape:cx="209.29638"
     inkscape:cy="189.96482"
     inkscape:window-width="1523"
     inkscape:window-height="997"
     inkscape:window-x="98"
     inkscape:window-y="25"
     inkscape:window-maximized="0"
     inkscape:current-layer="svg8"
     fit-margin-left="2"
     fit-margin-top="2"
     fit-margin-right="2"
     fit-margin-bottom="2"
     inkscape:snap-global="false" />
  <defs
     id="defs826">
    <style
       id="style824">
      .cls-1, .cls-2, .cls-24, .cls-6 {
        fill: none;
      }

      .cls-1, .cls-2, .cls-24, .cls-6, .cls-9 {
        stroke: #000;
      }

      .cls-1, .cls-2, .cls-6, .cls-9 {
        stroke-miterlimit: 11.33858;
      }

      .cls-1, .cls-9 {
        stroke-width: 2.25px;
      }

      .cls-2 {
        stroke-width: 5.24999px;
      }

      .cls-3 {
        fill: #9c22a0;
      }

      .cls-4 {
        fill: #0acc3d;
      }

      .cls-5 {
        fill: #fff;
      }

      .cls-6 {
        stroke-width: 2.99999px;
      }

      .cls-7 {
        fill: #198bd7;
      }

      .cls-8, .cls-9 {
        fill: #fff250;
      }

      .cls-10 {
        font-size: 110px;
      }

      .cls-10, .cls-18, .cls-21, .cls-23 {
        font-family: Chalkboard;
      }

      .cls-11 {
        letter-spacing: -0.025em;
      }

      .cls-12 {
        letter-spacing: -0.01436em;
      }

      .cls-13 {
        letter-spacing: 0.02319em;
      }

      .cls-14 {
        letter-spacing: -0.03866em;
      }

      .cls-15 {
        letter-spacing: -0.07292em;
      }

      .cls-16 {
        letter-spacing: 0.01546em;
      }

      .cls-17 {
        letter-spacing: -0.0685em;
      }

      .cls-18, .cls-21, .cls-23 {
        font-size: 44px;
      }

      .cls-18 {
        letter-spacing: 0.00663em;
      }

      .cls-19 {
        letter-spacing: -0.08618em;
      }

      .cls-20 {
        letter-spacing: -0.05413em;
      }

      .cls-21 {
        letter-spacing: 0.02208em;
      }

      .cls-22 {
        letter-spacing: -0.08616em;
      }

      .cls-24 {
        stroke-miterlimit: 10;
        stroke-width: 2.25px;
      }
    </style>
  </defs>
  <g
     id="g65220"
     transform="matrix(2.1325506,0,0,2.0892709,-46.446853,-190.12953)">
    <path
       style="fill:#666666;stroke:#000000;stroke-width:0.264583px;stroke-linecap:butt;stroke-linejoin:miter;stroke-opacity:1"
       d="m 145.69962,172.76017 -2.51009,23.70639 1.9523,-0.2789 3.76513,-23.42749 z"
       id="path1628"
       sodipodi:nodetypes="ccccc" />
    <path
       style="fill:#666666;stroke:#000000;stroke-width:0.264583px;stroke-linecap:butt;stroke-linejoin:miter;stroke-opacity:1"
       d="m 40.136482,173.24825 2.928438,23.08877 2.067814,-0.39443 -2.416439,-22.69434 z"
       id="path1630"
       sodipodi:nodetypes="ccccc" />
    <path
       style="fill:#a02c2c;stroke:#000000;stroke-width:0.264583px;stroke-linecap:butt;stroke-linejoin:miter;stroke-opacity:1"
       d="m 29.005463,129.13009 -0.836697,13.10824 H 156.90444 l -0.72118,-13.38714 z"
       id="path1499"
       sodipodi:nodetypes="ccccc" />
    <path
       style="fill:#a02c2c;stroke:#000000;stroke-width:0.264583px;stroke-linecap:butt;stroke-linejoin:miter;stroke-opacity:1"
       d="m 28.168768,146.70071 -1.394494,11.29539 132.245836,-0.22113 -1.44235,-11.35316 c -61.635688,-0.18593 -85.621899,0.4648 -129.408992,0.2789 z"
       id="path1501"
       sodipodi:nodetypes="ccccc" />
    <path
       style="fill:#a02c2c;stroke:#000000;stroke-width:0.264583px;stroke-linecap:butt;stroke-linejoin:miter;stroke-opacity:1"
       d="m 26.760258,159.90466 -1.625541,4.36667 135.939193,-0.5578 -1.5777,-3.98627 z"
       id="path1503"
       sodipodi:nodetypes="ccccc" />
    <path
       style="fill:#a02c2c;stroke:#000000;stroke-width:0.264583px;stroke-linecap:butt;stroke-linejoin:miter;stroke-opacity:1"
       d="m 23.875569,165.35309 -1.005876,7.2852 141.122727,-0.5578 -1.89041,-7.13584 z"
       id="path1505"
       sodipodi:nodetypes="ccccc" />
    <path
       style="fill:#666666;stroke:#000000;stroke-width:0.264583px;stroke-linecap:butt;stroke-linejoin:miter;stroke-opacity:1"
       d="m 26.609896,173.03907 -0.557798,31.51555 2.510089,-0.55779 1.394495,-30.95776 z"
       id="path1622" />
    <path
       style="fill:#666666;stroke:#000000;stroke-width:0.264583px;stroke-linecap:butt;stroke-linejoin:miter;stroke-opacity:1"
       d="m 157.69227,172.76017 0.2789,31.79445 2.78898,0.2789 v -32.2128 z"
       id="path1624"
       sodipodi:nodetypes="ccccc" />
    <path
       style="fill:#666666;stroke:#000000;stroke-width:0.264583px;stroke-linecap:butt;stroke-linejoin:miter;stroke-opacity:1"
       d="m 29.538332,182.59135 0.278898,1.1156 127.82718,0.25702 -0.11552,-2.78898 -127.851108,-0.0479 z"
       id="path1626"
       sodipodi:nodetypes="cccccc" />
  </g>
  <text
     class="cls-10"
     id="text900"
     x="-237.91096"
     y="-268.84808" />
  <g
     id="g69883"
     transform="translate(79.375387,-378.46341)">
    <path
       style="fill:none;stroke:#000000;stroke-width:1.5;stroke-linecap:butt;stroke-linejoin:miter;stroke-miterlimit:4;stroke-dasharray:none;stroke-opacity:1"
       d="m 21.060104,390.84748 c -4.750213,4.28649 -7.747665,10.46742 -7.715035,16.91 -0.169137,4.71037 1.279767,9.27027 3.032929,13.56892 2.448232,8.20661 15.075657,17.23659 21.410247,17.25023 10.819959,0.4656 30.487417,-8.0983 32.840483,-16.88494 1.455821,-6.01097 3.949507,-12.29554 2.350618,-18.52291 -1.711124,-4.8656 -5.868926,-8.22349 -9.016296,-12.1302 -4.240227,-4.24869 -7.498558,-6.29629 -13.090952,-8.29835 -10.810147,-4.37011 -22.321023,1.39773 -29.811994,8.10725 z"
       id="path987"
       sodipodi:nodetypes="ccccccccc" />
    <path
       style="fill:none;stroke:#000000;stroke-width:1.5;stroke-linecap:butt;stroke-linejoin:miter;stroke-miterlimit:4;stroke-dasharray:none;stroke-opacity:1"
       d="m 30.764668,436.96664 c -3.992572,9.61796 -5.231507,20.32011 -7.854741,30.44976 -4.361101,13.5754 -10.691653,26.23574 -14.1326108,40.22037 -1.830509,4.98999 -4.8621785,9.59207 -5.1297197,15.19308 7.5710985,-1.69712 15.1483015,-4.86762 22.9594455,-3.46388 6.381114,0.90561 12.776826,1.90647 19.222183,1.4445 6.413801,-0.1828 12.856892,-0.62083 19.251069,0.22593 3.11293,2.54919 10.929373,2.97438 9.853677,-3.49297 -1.064718,-6.47384 -2.113001,-12.95106 -2.838362,-19.49513 -0.913708,-5.79032 -3.352909,-11.04852 -4.541982,-16.76666 -1.404739,-6.3478 -3.8226,-12.25317 -5.936479,-18.28829 -3.31366,-10.22368 -5.034039,-18.13583 -9.530466,-27.7828"
       id="path1773"
       sodipodi:nodetypes="cccccccccccc" />
    <path
       style="fill:none;stroke:#000000;stroke-width:1.5;stroke-linecap:butt;stroke-linejoin:miter;stroke-miterlimit:4;stroke-dasharray:none;stroke-opacity:1"
       d="m 109.47598,425.71675 c -6.07927,-0.6542 -11.589001,3.00127 -15.912012,6.91678 -3.508906,3.19066 -5.72308,7.79145 -5.698974,12.587 -0.124944,3.50618 0.945353,6.90035 2.240384,10.10006 1.808464,6.10861 11.136152,12.8301 15.815422,12.84026 7.99254,0.34657 22.5206,-6.02799 24.25878,-12.56835 1.07539,-4.47428 2.91744,-9.15222 1.73637,-13.78758 -1.26399,-3.62172 -4.3353,-6.12118 -6.66021,-9.02915 -3.1322,-3.16252 -7.15467,-5.22932 -11.28568,-6.71956 -1.39483,-0.61092 -3.05203,-1.1025 -4.49408,-0.33946 z"
       id="path987-6"
       sodipodi:nodetypes="cccccccccc" />
    <path
       style="fill:none;stroke:#000000;stroke-width:1.5;stroke-linecap:butt;stroke-linejoin:miter;stroke-miterlimit:4;stroke-dasharray:none;stroke-opacity:1"
       d="m 100.98813,466.76868 c -2.54304,5.29922 -4.30487,10.88838 -5.35427,16.5899 -1.70198,5.69183 -4.18985,11.1844 -6.63203,16.61847 -1.94003,3.41594 -2.47512,7.30877 -3.81746,10.9307 -0.82728,2.99284 -3.76535,8.78301 -3.53158,11.86782 3.34893,-0.70466 12.59688,-2.46494 12.59688,-2.46494 3.97103,0.0738 7.97385,0.08 11.86367,0.89078 8.76737,0.87595 17.61138,-0.50177 26.3665,0.40928 2.7387,1.10411 6.50227,2.12303 8.56583,-0.63737 -4.42426,-19.39401 -1.21655,-11.56317 -4.42426,-19.39401 -2.22064,-4.91194 -2.96424,-10.33999 -5.9336,-14.97199 -2.60993,-6.24903 -5.99883,-16.59865 -9.60427,-22.51943 -1.91075,-0.12741 0.83977,1.23812 0,0"
       id="path1773-8"
       sodipodi:nodetypes="ccccccccccccc" />
    <path
       style="fill:none;stroke:#000000;stroke-width:1.4404;stroke-linecap:butt;stroke-linejoin:miter;stroke-miterlimit:4;stroke-dasharray:none;stroke-opacity:1"
       d="m 101.10043,454.89846 c 1.37052,2.54539 3.83188,4.00763 6.15057,5.31669 1.0251,0.63098 2.2476,0.69779 3.39866,0.73233 2.21137,-0.0205 4.34488,-0.8127 6.37321,-1.71059 1.44785,-0.84666 2.04465,-2.73562 3.5327,-3.51998"
       id="path2666"
       sodipodi:nodetypes="cccc" />
    <path
       style="fill:none;stroke:#000000;stroke-width:1.5;stroke-linecap:butt;stroke-linejoin:miter;stroke-miterlimit:4;stroke-dasharray:none;stroke-opacity:1"
       d="m 30.255113,419.19734 c 1.967212,1.27767 2.11895,4.23302 4.399393,5.15546 3.543746,1.43032 7.266559,3.05254 11.180681,2.57511 12.129464,-1.03884 10.960584,-6.69164 13.58148,-9.55316"
       id="path2668"
       sodipodi:nodetypes="cccc" />
    <path
       style="fill:none;stroke:#000000;stroke-width:1.5;stroke-linecap:butt;stroke-linejoin:miter;stroke-miterlimit:4;stroke-dasharray:none;stroke-opacity:1"
       d="m 31.718047,407.3456 c 1.210576,1.01051 2.796017,1.5047 4.362273,1.49976 0.36891,0.005 0.995663,-0.33329 1.363273,-0.36389 0.169562,-0.347 0.968418,-0.79193 1.085171,-1.1578 0.322806,-0.13854 -0.300598,0.19146 0,0 0.221536,-0.11247 0.439698,-0.23149 0.661931,-0.3426"
       id="path3045"
       sodipodi:nodetypes="cccccc" />
    <path
       style="fill:none;stroke:#000000;stroke-width:1.5;stroke-linecap:butt;stroke-linejoin:miter;stroke-miterlimit:4;stroke-dasharray:none;stroke-opacity:1"
       d="m 47.756902,407.52786 c 0.546988,0.75021 1.209365,1.40775 1.830493,2.0934 0.547698,0.40125 1.261409,0.26696 1.894444,0.26602 0.83284,-0.0392 1.700581,-0.22938 2.360136,-0.76811 0.373016,-0.19143 1.202863,-0.91047 1.338269,-1.3578 0.302651,-0.72662 0.600006,-0.80166 0.778345,-1.69161"
       id="path3047"
       sodipodi:nodetypes="cssscc" />
    <path
       style="fill:none;stroke:#000000;stroke-width:1.5;stroke-linecap:butt;stroke-linejoin:miter;stroke-miterlimit:4;stroke-dasharray:none;stroke-opacity:1"
       d="m 13.304959,411.54244 c 3.65071,-0.72282 5.34142,-0.66476 8.271025,-2.86555 1.800305,-2.14988 3.643248,-7.66529 6.438125,-8.90612 6.467579,-3.73705 14.247777,-3.18411 21.386149,-2.36941 2.022097,0.34662 4.165106,-0.12003 6.00351,0.97576 0,0 6.271883,1.77985 8.712091,3.9793 1.723012,1.35042 3.072011,3.14526 4.776446,4.48738 1.398822,0.66751 2.995958,3.40694 4.55836,3.05826"
       id="path3164"
       sodipodi:nodetypes="cccccccc" />
    <path
       style="fill:none;stroke:#000000;stroke-width:1.5;stroke-linecap:butt;stroke-linejoin:miter;stroke-miterlimit:4;stroke-dasharray:none;stroke-opacity:1"
       d="m 100.78962,444.90082 c 0.3808,0.80646 1.2109,2.52063 2.23722,2.78364 1.96419,0.0928 4.85638,0.95943 5.6101,-1.073 0.46763,-1.04513 0.26768,-0.51212 0.53663,-0.61686"
       id="path6219"
       sodipodi:nodetypes="cccc" />
    <path
       style="fill:none;stroke:#000000;stroke-width:1.5;stroke-linecap:butt;stroke-linejoin:miter;stroke-miterlimit:4;stroke-dasharray:none;stroke-opacity:1"
       d="m 122.27554,444.5363 c -0.78868,2.84892 -6.78443,3.89236 -6.99621,1.98427 -0.13609,-0.48619 -0.28104,-0.97133 -0.47646,-1.43751"
       id="path6221"
       sodipodi:nodetypes="ccc" />
    <path
       style="fill:none;stroke:#000000;stroke-width:1px;stroke-linecap:butt;stroke-linejoin:miter;stroke-opacity:1"
       d="m 98.055726,427.94581 c -0.917211,-4.16948 -0.653071,-2.32884 -3.280675,-5.83231 -0.0729,-0.0972 0.08592,-0.2786 0,-0.36452 -0.343672,-0.34367 -1.002997,0.17065 -1.458077,0 -0.767157,-0.28768 -1.664388,-1.45808 -2.187117,-1.45808 -0.624391,0 -2.187116,-0.35551 -2.187116,0.36452"
       id="path7447" />
    <path
       style="fill:none;stroke:#000000;stroke-width:1px;stroke-linecap:butt;stroke-linejoin:miter;stroke-opacity:1"
       d="m 109.35583,425.02965 c 0.44737,-3.04246 0.60313,-6.09731 0,-9.11298"
       id="path7449" />
    <path
       style="fill:#000000;fill-opacity:1;stroke:#000000;stroke-width:1px;stroke-linecap:butt;stroke-linejoin:miter;stroke-opacity:1"
       d="m 121.38497,429.40389 c 0.51031,-2.90134 2.32623,-5.49835 4.76974,-7.11534 1.61111,-1.1565 3.37996,-2.06429 5.07228,-3.09121"
       id="path7455" />
    <path
       style="fill:#fff250;fill-opacity:1;stroke:none;stroke-width:0.364519"
       d="m 68.347393,521.56111 c -0.300729,-0.10499 -1.202914,-0.54313 -2.004857,-0.97365 -1.419187,-0.76188 -1.846969,-0.78348 -16.038855,-0.81003 -11.918104,-0.0223 -15.346295,-0.14335 -18.77275,-0.66294 -9.202344,-1.39544 -12.56097,-1.22593 -21.371635,1.07868 -2.6323005,0.68853 -4.9087293,1.25187 -5.0587308,1.25187 -0.6213356,0 0.3448522,-3.35954 2.3512929,-8.1757 1.1752815,-2.82109 2.4946337,-6.41883 2.9318939,-7.99497 1.257921,-4.53429 4.033137,-12.43763 7.761653,-22.10387 5.003219,-12.97092 5.835364,-15.6337 7.917164,-25.3341 1.032629,-4.81165 2.287703,-10.21876 2.789055,-12.01579 0.84156,-3.01646 2.291723,-7.52112 2.503802,-7.77759 0.04973,-0.0601 1.088585,0.22692 2.308576,0.63791 3.737667,1.25912 9.718826,0.87216 15.96885,-1.03314 l 2.245323,-0.68449 1.450328,3.69294 c 1.623125,4.13294 2.876037,7.89797 5.474525,16.45112 0.974535,3.20777 2.788453,8.67597 4.030932,12.15154 1.242475,3.47558 2.838002,8.56062 3.545622,11.30011 0.707616,2.73948 1.941926,7.11331 2.74291,9.71962 0.800984,2.60632 1.692395,6.29707 1.980912,8.20169 3.496474,23.08157 3.387563,21.46569 1.534295,22.76377 -0.774137,0.54222 -3.143721,0.71732 -4.290306,0.31702 z"
       id="path23402" />
    <path
       style="fill:#0acc3d;fill-opacity:1;stroke:none;stroke-width:0.364519"
       d="m 134.32541,521.19328 c -1.40531,-0.51888 -3.52352,-0.61322 -14.78345,-0.6585 -7.22871,-0.0291 -13.32477,-0.16513 -13.54681,-0.30235 -0.22203,-0.13723 -2.83739,-0.41379 -5.8119,-0.61458 -5.281565,-0.35652 -5.543555,-0.339 -11.188915,0.74826 -3.179395,0.61233 -5.925574,1.06458 -6.102622,1.005 -0.177047,-0.0596 0.342259,-1.99471 1.154015,-4.3003 0.811756,-2.30559 1.963494,-5.75029 2.559418,-7.65491 1.432797,-4.57931 2.685076,-7.8084 5.583934,-14.39852 2.564724,-5.83051 4.027985,-10.12557 5.48906,-16.11186 0.499127,-2.04501 1.512432,-5.29863 2.25179,-7.23027 1.29407,-3.38089 1.37949,-3.50289 2.28668,-3.26618 0.51831,0.13525 2.29428,0.33001 3.94658,0.43282 3.45559,0.215 7.06718,-0.45726 11.38601,-2.11937 1.49907,-0.57692 2.86242,-1.04895 3.02967,-1.04895 0.49517,0 3.67525,6.99199 6.38289,14.034 1.38756,3.60874 3.09677,7.70958 3.79824,9.11298 0.70148,1.4034 1.81318,4.19198 2.47046,6.19683 0.65727,2.00486 1.82471,5.23793 2.59431,7.18459 0.89816,2.27188 1.60126,4.88269 1.96332,7.29039 0.31023,2.06305 0.94621,5.43225 1.41329,7.48713 0.70837,3.1164 0.76739,3.80406 0.35581,4.14564 -0.82003,0.68057 -3.47929,0.7152 -5.23178,0.0681 z"
       id="path31473" />
    <path
       style="fill:none;stroke:#000000;stroke-width:1px;stroke-linecap:butt;stroke-linejoin:miter;stroke-opacity:1"
       d="m 27.338957,446.90082 c -4.642567,3.22923 -9.298898,6.43987 -13.952538,9.65234 -1.118398,0.69267 -2.54754,1.35246 -2.894489,2.73905 -0.33685,0.6536 -2.6134293,0.88857 -1.0623544,1.32994 1.5360464,0.11174 2.6792734,2.49232 3.3538834,3.66754 1.072151,2.13465 0.888804,2.75826 1.813659,4.95973 0.33755,-1.07265 1.673251,-0.83752 1.810277,-1.98892 1.437294,-2.62112 2.385128,-2.87912 3.601065,-4.28394 1.325376,-1.27271 3.043071,-2.20455 4.004202,-3.81222 l 0.04562,-0.23438"
       id="path53065"
       sodipodi:nodetypes="csssscccss" />
    <path
       style="fill:none;stroke:#000000;stroke-width:1px;stroke-linecap:butt;stroke-linejoin:miter;stroke-opacity:1"
       d="m 56.11388,444.56271 c 1.983973,-0.35276 6.109231,2.17676 7.463669,3.48884 2.784132,2.84805 9.372021,5.56436 9.960329,9.06788 -1.209027,0.87265 -1.827075,3.50821 -3.432208,3.51917 -0.29744,0.81382 -1.205975,2.35296 -2.006398,2.37376 -4.486077,-4.49483 -7.058795,-7.43593 -9.540599,-9.08398"
       id="path53067"
       sodipodi:nodetypes="cccccc" />
    <path
       style="fill:#fff250;fill-opacity:1;stroke:none;stroke-width:0.257754"
       d="m 14.554859,467.28659 c -0.137227,-0.36093 -0.249503,-0.81643 -0.249503,-1.01222 0,-0.63592 -2.055202,-4.34732 -2.876667,-5.19486 l -0.799526,-0.8249 0.499125,-0.85498 c 0.350678,-0.6007 2.637988,-2.32768 7.690636,-5.80664 3.955331,-2.72341 7.224168,-4.91899 7.264083,-4.87908 0.03991,0.0399 -0.263975,1.57222 -0.675308,3.40513 -0.411334,1.83291 -0.888927,4.05749 -1.061317,4.94352 -0.172391,0.88603 -0.38912,1.61097 -0.481621,1.61097 -0.0925,0 -1.752341,1.51495 -3.688536,3.36656 -2.25345,2.15501 -3.715666,3.77003 -4.06307,4.48767 -0.671796,1.38774 -1.218049,1.65375 -1.558296,0.75883 z"
       id="path54251" />
    <path
       style="fill:#fff250;fill-opacity:1;stroke:none;stroke-width:0.257754"
       d="m 64.021861,458.03564 -4.282992,-4.23406 -1.187272,-3.83965 c -0.653,-2.11181 -1.260833,-4.03134 -1.350739,-4.26563 -0.09669,-0.25199 -0.03565,-0.42599 0.149454,-0.42599 0.770118,0 3.822492,1.73255 5.626564,3.19367 1.087445,0.88073 3.021077,2.33528 4.29696,3.23233 3.310765,2.32775 4.393146,3.24649 5.020372,4.26136 l 0.551642,0.89258 -1.078339,1.45969 c -0.593086,0.80283 -1.292187,1.51562 -1.553556,1.58396 -0.261369,0.0684 -0.773733,0.63366 -1.138586,1.25623 -0.364854,0.62258 -0.687478,1.12917 -0.716943,1.12576 -0.02947,-0.003 -1.98092,-1.91152 -4.336565,-4.24025 z"
       id="path55575" />
    <g
       id="g6184"
       transform="matrix(0.94772341,0,0,0.89088054,17.037205,-2.11372)">
      <path
         style="fill:#ff0000;stroke:#d90000;stroke-width:2;stroke-linecap:butt;stroke-linejoin:miter;stroke-miterlimit:4;stroke-dasharray:none;stroke-opacity:1"
         d="m 31.703762,546.45375 v 43.56046 l 30.157236,11.08343 30.672745,-11.34119 V 548.25803 L 61.860998,559.08371 C 51.459159,554.89902 41.861991,551.19427 31.703762,546.45375 Z"
         id="path5624"
         sodipodi:nodetypes="ccccccc" />
      <path
         style="fill:none;stroke:#000000;stroke-width:2;stroke-linecap:butt;stroke-linejoin:miter;stroke-miterlimit:4;stroke-dasharray:none;stroke-opacity:1"
         d="m 61.860998,559.06877 0.515509,40.72516"
         id="path5739" />
    </g>
    <path
       style="fill:none;stroke:#000000;stroke-width:1.5;stroke-linecap:butt;stroke-linejoin:miter;stroke-miterlimit:4;stroke-dasharray:none;stroke-opacity:1"
       d="m 125.26852,472.97888 c 0.2945,0.89212 1.57209,1.57209 2.06204,2.06204 2.59605,-0.56573 0.41901,0.93452 0.77326,1.28877 0.41676,0.41676 1.26253,0.20528 1.54652,0.77326 0.0769,0.1537 -0.1031,0.37804 0,0.51551 2.76549,3.68732 5.45029,7.474 2.31979,11.85669 -2.20354,3.08496 -4.48724,6.44064 -7.73262,8.50589 -1.00961,0.64248 -2.26425,0.78728 -3.35081,1.28877 -3.25226,1.50104 -6.10228,3.11388 -9.5369,4.12406 -0.43144,0.1269 -3.98448,1.17061 -4.12407,1.03102 -0.0859,-0.0859 -0.17184,-0.68734 -0.25775,-0.77326 -0.12151,-0.12151 -0.39401,0.12151 -0.51551,0 -0.12151,-0.12151 0.0768,-0.36181 0,-0.51551 -0.55744,-1.11488 -2.79332,-1.43864 -3.60856,-1.03102 -0.15621,0.0781 -0.66525,0.14975 -0.77326,0.25776 -0.35746,0.35746 -1.01779,1.31523 -0.77327,1.80428 1.15563,2.31125 5.19867,1.32052 6.95937,0 0.0972,-0.0729 0.17183,-0.17184 0.25775,-0.25776 0.60143,-0.25775 1.21903,-0.48063 1.80428,-0.77326 0.31843,-0.15921 0.25775,-0.794 0.25775,-0.25775"
       id="path57365" />
    <path
       style="fill:none;stroke:#000000;stroke-width:1.5;stroke-linecap:butt;stroke-linejoin:miter;stroke-miterlimit:4;stroke-dasharray:none;stroke-opacity:1"
       d="m 12.114446,464.21524 c -1.814707,2.65029 -4.2637329,5.64434 -5.2921896,8.02491 -1.1025901,2.43511 -0.8555019,6.98621 -0.3073549,9.49772 0.4029836,5.06132 5.7162495,7.05743 8.3878985,10.66623 3.12544,3.94695 7.463851,6.63905 11.889644,8.89195 3.991256,2.31906 8.738533,2.8593 13.270457,2.42684 2.656522,-0.21789 5.313501,0.16189 7.957575,-0.21639 1.697778,0.57429 4.943558,0.92439 5.174272,3.02557 -1.17301,2.15527 -3.915411,4.52579 -6.344396,2.56004 -3.630512,-1.11112 -4.819404,-1.07527 -4.965298,-4.40947"
       id="path57367"
       sodipodi:nodetypes="cccccccccc" />
    <path
       style="fill:none;stroke:#000000;stroke-width:1.5;stroke-linecap:butt;stroke-linejoin:miter;stroke-miterlimit:4;stroke-dasharray:none;stroke-opacity:1"
       d="m 71.397902,459.31791 c 0.592126,1.98002 2.036858,2.87926 3.09305,4.63958 0.377683,0.62947 0.469497,1.39375 0.773263,2.06203 2.48755,5.47261 4.671069,15.37657 4.124066,21.3936 -0.114571,1.26028 -0.688317,2.40911 -1.031016,3.60855 -0.232037,0.81213 -0.05797,1.77842 -0.257755,2.57755 -0.02084,0.0833 -0.197,-0.0608 -0.257754,0 -0.121506,0.1215 0,0.34367 0,0.5155"
       id="path58023" />
    <path
       style="fill:none;stroke:#000000;stroke-width:1.5;stroke-linecap:butt;stroke-linejoin:miter;stroke-miterlimit:4;stroke-dasharray:none;stroke-opacity:1"
       d="m 97.688827,473.23664 c -0.238843,1.48004 -1.807809,0.90508 -2.577542,1.54652 -1.111067,0.92589 -1.277705,1.73724 -2.062033,2.8353 -1.39805,1.95727 -3.762645,4.74041 -4.381821,7.21711 -0.1781,0.71241 -0.12441,1.5864 -0.257754,2.31979 -0.1417,0.77935 -0.36016,1.54305 -0.515508,2.31979 -0.04296,0.21479 0.08592,0.60143 0,0.77326 -0.03842,0.0769 -0.257755,-0.0859 -0.257755,0 0,0.52593 0.257755,-0.0104 0.257755,0.51551"
       id="path58027" />
    <path
       style="fill:#000000;stroke:none;stroke-width:0.18226"
       d="m 14.216258,408.06257 c 0,-5.10613 1.406317,-9.28536 4.515749,-13.41968 3.174966,-4.22147 9.58239,-8.76591 15.375728,-10.90518 2.968819,-1.09628 4.909309,-1.47401 8.085389,-1.57388 3.455622,-0.10865 5.33778,0.2006 8.577827,1.40941 6.026569,2.24843 9.501208,4.62765 13.88045,9.50451 3.627781,4.04001 4.817649,5.46515 5.751491,6.88875 1.58003,2.40868 2.001671,3.65266 2.240204,6.60936 l 0.128659,1.59477 H 72.22816 c -0.323406,0 -0.684234,-0.15665 -0.890798,-0.38673 -0.190963,-0.21269 -0.839304,-0.76389 -1.440762,-1.22486 -0.601457,-0.46098 -2.187253,-1.88874 -3.523989,-3.1728 -2.300431,-2.20979 -2.549028,-2.39281 -4.647623,-3.4216 -1.219456,-0.59782 -3.03736,-1.36783 -4.039788,-1.71114 -1.002429,-0.34331 -2.27369,-0.78776 -2.825026,-0.98767 -0.564648,-0.20474 -1.758597,-0.41642 -2.733896,-0.48469 -0.952307,-0.0667 -2.891209,-0.23715 -4.308672,-0.37887 -4.179842,-0.4179 -7.600764,-0.51164 -10.089845,-0.27649 -5.297566,0.5005 -9.949721,2.23124 -11.962844,4.45055 -0.845452,0.93205 -1.251866,1.56703 -3.601609,5.62719 -1.080203,1.8665 -1.765476,2.50728 -3.456621,3.23218 -0.638211,0.27357 -3.945279,1.10431 -4.39612,1.10431 -0.05187,0 -0.09431,-1.11485 -0.09431,-2.47744 z"
       id="path69414" />
    <path
       style="fill:#ffffff;stroke:none;stroke-width:0.18226"
       d="m 105.16386,467.29098 c -2.88717,-0.55844 -6.708158,-2.81312 -9.77764,-5.76957 -2.372011,-2.28465 -3.650884,-4.15545 -4.637127,-6.78342 -1.718591,-4.5794 -2.074693,-6.41726 -1.949478,-10.06135 0.0762,-2.21772 0.155585,-2.71898 0.67242,-4.24604 1.070387,-3.16261 2.788867,-5.63829 5.511507,-7.94 4.901674,-4.14384 8.602508,-5.86034 13.005338,-6.03203 1.00243,-0.0391 2.32639,-0.11687 2.94214,-0.17285 1.03474,-0.0941 1.29747,-0.0317 3.46862,0.82337 3.909,1.5395 6.93086,3.25059 9.04469,5.12145 1.2313,1.08976 5.29947,5.68308 6.17428,6.97129 1.369,2.01594 1.66901,2.90148 1.75717,5.18645 0.0562,1.45703 -0.0134,2.55608 -0.24226,3.82745 -0.43604,2.42192 -1.81357,7.52974 -2.27419,8.43263 -1.08005,2.11707 -6.21795,6.21612 -8.34009,6.65377 -0.32579,0.0672 -0.59235,0.2028 -0.59235,0.30137 0,0.4841 -5.94427,2.61814 -9.02185,3.23891 -1.84198,0.37154 -4.90297,0.6107 -5.74118,0.44857 z m 8.42912,-5.98208 c 0.57618,-0.15296 1.70864,-0.53304 2.51658,-0.84462 1.55093,-0.5981 2.02391,-0.97908 3.79744,-3.05882 l 0.98253,-1.15218 -0.29915,-0.62732 c -0.38886,-0.81545 -0.55601,-0.72379 -2.43734,1.33661 -1.40664,1.54052 -1.52645,1.62596 -3.07997,2.19633 -2.20631,0.81004 -3.32601,1.01217 -5.0931,0.91942 -1.40211,-0.0736 -1.60863,-0.13912 -3.02381,-0.95948 -2.03058,-1.1771 -3.48711,-2.31618 -4.33779,-3.39237 -0.38584,-0.48812 -0.73221,-0.97953 -0.7697,-1.09202 -0.0439,-0.13177 -0.30795,-0.063 -0.74232,0.19325 -0.66155,0.39032 -0.66914,0.40746 -0.40588,0.91655 1.05623,2.04251 5.7133,5.40116 8.09611,5.83885 1.11593,0.20498 3.50614,0.0683 4.7964,-0.2742 z m -5.44781,-13.00045 c 0.72611,-0.42407 1.44846,-1.47399 1.27509,-1.85333 -0.0712,-0.15583 -0.13536,-0.49522 -0.14252,-0.75418 -0.0239,-0.86254 -0.9488,-0.47901 -1.38512,0.57436 -0.3207,0.77423 -1.14938,0.97173 -3.15161,0.75109 -1.79552,-0.19785 -2.19067,-0.43614 -2.78673,-1.68046 -0.18947,-0.39555 -0.45108,-0.72012 -0.58136,-0.72127 -0.2907,-0.003 -1.31234,0.51297 -1.31234,0.66223 0,0.33626 1.39494,2.32414 1.90264,2.71138 1.0789,0.82292 4.96975,1.01814 6.18195,0.31018 z m 12.28431,-0.87674 c 1.34589,-0.68673 2.59583,-1.89983 2.59583,-2.51934 0,-0.12575 -0.30441,-0.32206 -0.67645,-0.43625 -0.65387,-0.20067 -0.69403,-0.18627 -1.20313,0.43135 -0.83624,1.0145 -2.16372,1.59839 -3.67155,1.61493 l -1.26802,0.0139 -0.3026,-0.81212 c -0.16643,-0.44666 -0.38992,-0.84122 -0.49666,-0.8768 -0.34399,-0.11466 -1.34807,0.51269 -1.24606,0.77854 0.0527,0.13732 0.18202,0.56985 0.2874,0.96117 0.35011,1.30022 1.14177,1.70536 3.16295,1.61869 1.22592,-0.0526 1.61217,-0.15866 2.81829,-0.77407 z"
       id="path69490" />
    <path
       style="fill:#ffffff;stroke:none;stroke-width:0.18226"
       d="m 36.178553,437.58424 c -4.594017,-1.1719 -9.82934,-4.47589 -14.071996,-8.88076 -2.411075,-2.50327 -3.807299,-4.64393 -4.955929,-7.59835 -1.565767,-4.02734 -2.852379,-8.52075 -2.531617,-8.84151 0.05549,-0.0555 0.982265,-0.30005 2.0595,-0.54346 2.328781,-0.5262 4.387051,-1.48898 5.412746,-2.53187 0.402605,-0.40935 1.360989,-1.87275 2.129743,-3.25201 1.917526,-3.44031 2.768412,-4.56351 4.044272,-5.33855 3.500097,-2.1262 8.677197,-3.18726 14.292371,-2.92927 2.259201,0.1038 4.014952,0.24781 9.933155,0.81474 0.852064,0.0816 1.836266,0.27598 2.187116,0.43191 0.35085,0.15593 1.41707,0.545 2.369377,0.86459 2.312139,0.77594 5.336586,2.22778 6.365026,3.05544 0.458828,0.36924 1.787897,1.57726 2.953488,2.68447 2.792184,2.65234 5.114069,4.68467 5.599649,4.90134 0.215409,0.0961 0.391653,0.32972 0.391653,0.51911 0,1.38868 -2.563467,10.98491 -3.307165,12.38023 -1.207835,2.26614 -4.778505,5.46138 -8.647873,7.73862 -4.618598,2.7182 -10.712468,5.03492 -16.049548,6.10161 -1.914575,0.38266 -7.250604,0.65926 -8.173968,0.42372 z m 11.087622,-10.00281 c 4.148882,-0.54387 7.035583,-1.71795 8.960947,-3.6446 0.831759,-0.83232 1.368174,-1.62741 2.24065,-3.32114 0.630899,-1.22477 1.225521,-2.27532 1.321383,-2.33457 0.327797,-0.20259 0.174495,-0.60802 -0.378913,-1.00208 -0.427772,-0.3046 -0.610287,-0.34654 -0.80497,-0.18496 -0.138473,0.11492 -0.763827,1.19652 -1.389675,2.40357 -0.659398,1.27174 -1.506971,2.59843 -2.015543,3.15489 -1.632533,1.78625 -4.533835,2.90115 -8.795537,3.37992 -2.179011,0.2448 -3.477537,0.15918 -5.63258,-0.37138 -1.531532,-0.37706 -5.803337,-1.9997 -6.441634,-2.44686 -0.214594,-0.15033 -0.891797,-1.08961 -1.504893,-2.08729 -0.613097,-0.99768 -1.33829,-1.98983 -1.611539,-2.20476 l -0.496818,-0.3908 -0.412325,0.51525 c -0.508878,0.6359 -0.514871,0.82323 -0.04008,1.25291 0.205732,0.18619 0.755134,0.97916 1.220894,1.76215 0.46576,0.783 1.097099,1.68199 1.402974,1.99775 1.130231,1.16678 6.302381,3.11259 9.760254,3.67191 1.005407,0.16262 2.637497,0.10964 4.617402,-0.14991 z m 5.711703,-17.13171 c 1.148721,-0.34113 2.413326,-1.43298 3.149021,-2.71884 0.690035,-1.20606 0.700535,-1.52646 0.05466,-1.66799 -0.275668,-0.0604 -0.599607,-0.13982 -0.719866,-0.17649 -0.120258,-0.0367 -0.448326,0.38962 -0.729039,0.94731 -0.712763,1.41604 -1.705515,2.07951 -3.303479,2.20778 l -1.20363,0.0966 -0.944681,-1.05623 -0.944682,-1.05623 -0.565457,0.40264 c -0.311001,0.22145 -0.565457,0.48457 -0.565457,0.5847 0,0.32881 1.889009,2.33615 2.362272,2.51026 0.717088,0.2638 2.396334,0.2276 3.41034,-0.0735 z m -15.765528,-1.0342 c 0.402124,-0.12048 1.060987,-0.56261 1.515049,-1.01667 l 0.803479,-0.80348 -0.297406,-0.62367 c -0.163574,-0.34302 -0.407073,-0.62367 -0.541113,-0.62367 -0.134037,0 -0.607593,0.33543 -1.052349,0.74539 -0.570701,0.52605 -1.020778,0.77383 -1.529576,0.84208 -0.935623,0.12549 -2.409198,-0.23389 -3.222744,-0.78598 -0.35415,-0.24033 -0.67154,-0.43697 -0.705312,-0.43697 -0.03377,0 -0.278364,0.28445 -0.543539,0.63211 l -0.482134,0.63212 0.721131,0.47722 c 1.522788,1.00773 3.806424,1.41934 5.334514,0.96152 z"
       id="path69566" />
  </g>
  <path
     style="fill:none;stroke:#000000;stroke-width:0.917421px;stroke-linecap:butt;stroke-linejoin:miter;stroke-opacity:1"
     d="m 94.398136,141.53541 c -0.182744,4.53467 0.02546,9.10058 1.01575,13.56899 1.357516,5.31999 1.713694,12.58102 1.453031,15.40905 -0.121161,1.12481 -0.276926,0.96994 0.10024,-0.0203 2.166446,-1.03682 4.934103,0.24949 7.353813,0.0597 10.30311,0.63296 20.64564,0.35798 30.96089,0.14816 1.95724,-0.30522 5.97363,0.38157 5.67283,-2.19743 -0.69229,-1.89364 -0.38129,-4.02558 -0.20689,-6.04369 0.17129,-3.24155 -0.74494,-6.26514 -0.83667,-9.51044 -0.003,-0.78796 -0.26139,-3.74262 -0.25558,-4.53058"
     id="path69920"
     sodipodi:nodetypes="cccsssscss" />
  <path
     style="fill:none;stroke:#000000;stroke-width:0.943397px;stroke-linecap:butt;stroke-linejoin:miter;stroke-opacity:1"
     d="m 177.76741,146.19265 c 0,1.51176 -0.18813,3.03276 0,4.53528 0.14473,1.15589 0.10982,2.34026 0.42768,3.46854 1.48511,5.27154 4.88051,12.23852 7.30104,16.19743 0.50658,0.82854 11.61661,-0.22906 13.44428,-0.22906 3.23089,0 8.26869,1.1904 10.95156,0 1.64333,-0.72914 5.84083,-20.06874 5.84083,-20.73271 0,-1.69684 1.9361,-6.44315 -0.12527,-4.61388"
     id="path69924"
     sodipodi:nodetypes="cssssssc" />
  <path
     style="fill:#198bd7;fill-opacity:1;stroke:none;stroke-width:0.239683"
     d="m 106.18182,170.95083 c -1.91383,-0.097 -4.36514,-0.29338 -5.44738,-0.43628 -1.082229,-0.14292 -2.201214,-0.19577 -2.486629,-0.11743 -0.496231,0.13619 -0.525999,0.0177 -0.680373,-2.70705 -0.262567,-4.63446 -0.645769,-7.73283 -1.482595,-11.9875 -0.65442,-3.32724 -0.811097,-4.83305 -0.918185,-8.82461 l -0.129121,-4.8128 2.028022,-0.28434 c 3.091841,-0.4335 6.700971,-0.34577 11.958791,0.29069 6.13582,0.74273 11.67208,1.11942 14.36256,0.97723 l 2.12647,-0.11238 0.003,1.14545 0.003,1.14545 6.76294,2.00591 6.76294,2.00592 0.17629,3.00886 c 0.097,1.65487 0.31597,3.96168 0.48668,5.12622 0.17071,1.16454 0.32497,4.55865 0.3428,7.54248 0.0305,5.10585 0.004,5.43839 -0.4543,5.65037 -1.16895,0.54094 -24.93356,0.81391 -33.41515,0.38381 z"
     id="path70480" />
  <path
     style="fill:#9c22a0;fill-opacity:1;stroke:none;stroke-width:0.242761"
     d="m 186.31484,170.01504 c -0.78592,-0.20917 -4.72499,-8.10781 -6.5277,-13.08935 -1.03369,-2.85646 -1.41411,-4.90975 -1.4262,-7.69793 l -0.008,-1.83525 3.34998,-1.02275 3.34996,-1.02276 9.6e-4,-0.80024 9.5e-4,-0.80024 12.95203,0.0111 c 12.44952,0.0106 13.02203,0.03 14.75631,0.49703 0.99235,0.26726 2.13379,0.54952 2.53654,0.62723 0.45703,0.0882 0.68388,0.25314 0.60355,0.43883 -0.0708,0.16363 -0.27121,1.11104 -0.44538,2.10534 -1.36679,7.80282 -4.74591,20.70295 -5.73841,21.90695 -0.57747,0.70055 -2.68289,0.84513 -6.86257,0.47129 -2.85691,-0.25554 -4.5251,-0.28415 -6.97663,-0.11969 -4.52998,0.30391 -9.07517,0.46092 -9.56543,0.33044 z"
     id="path76131" />
  <path
     style="fill:none;stroke:#000000;stroke-width:2.2;stroke-linecap:butt;stroke-linejoin:miter;stroke-opacity:1;stroke-miterlimit:4;stroke-dasharray:none"
     d="m 109.07886,171.59641 c 1.25519,3.43712 2.26238,6.98405 3.07455,10.52943 1.62809,3.56792 -0.46847,7.39491 0.0635,11.09271 0.25667,12.50674 0.4069,25.02198 0.15146,37.52952 0.35241,2.93227 -1.25044,6.21955 0.1126,8.87859 2.72121,1.17377 3.7119,4.44212 6.48808,5.26472 3.62898,0.0281 4.81463,-5.50293 1.79197,-7.32408 -2.52472,-1.37947 -5.66821,-0.19581 -8.40153,-0.35739"
     id="path84924" />
  <path
     style="fill:none;stroke:#000000;stroke-width:2.2;stroke-linecap:butt;stroke-linejoin:miter;stroke-opacity:1;stroke-miterlimit:4;stroke-dasharray:none"
     d="m 121.86893,171.97532 c 1.25519,3.43712 2.26238,6.98405 3.07455,10.52943 1.62809,3.56792 -0.46847,7.39491 0.0635,11.09271 0.25667,12.50674 0.4069,25.02198 0.15146,37.52952 0.35241,2.93227 -1.25044,6.21955 0.1126,8.87859 2.72121,1.17377 3.7119,4.44212 6.48808,5.26472 3.62898,0.0281 4.81463,-5.50293 1.79197,-7.32408 -2.52472,-1.37947 -5.66821,-0.19581 -8.40153,-0.35739"
     id="path84924-1" />
  <path
     style="fill:none;stroke:#000000;stroke-width:2.2;stroke-linecap:butt;stroke-linejoin:miter;stroke-opacity:1;stroke-miterlimit:4;stroke-dasharray:none"
     d="m 203.86363,170.86737 c -4.10977,11.57194 -4.68451,21.00948 -2.90728,32.70138 0.44818,6.56784 0.0875,12.47933 1.49603,17.53042 0.83164,2.43305 -0.27731,4.72314 -1.85355,6.52594 -0.97996,1.7675 -3.69739,3.4938 -4.99958,1.14236 -2.46024,-0.91735 -2.05596,-3.51616 -0.0835,-4.69629 1.77702,-1.5473 4.1775,-2.33389 6.52525,-2.17085"
     id="path85178"
     sodipodi:nodetypes="ccccccc" />
  <path
     style="fill:none;stroke:#000000;stroke-width:2.2;stroke-linecap:butt;stroke-linejoin:miter;stroke-opacity:1;stroke-miterlimit:4;stroke-dasharray:none"
     d="m 192.31193,171.23703 c -4.10977,11.57194 -4.68451,21.00948 -2.90728,32.70138 0.44818,6.56784 0.0875,12.47933 1.49603,17.53042 0.83164,2.43305 -0.27731,4.72314 -1.85355,6.52594 -0.97996,1.7675 -3.69739,3.4938 -4.99958,1.14236 -2.46024,-0.91735 -2.05596,-3.51616 -0.0835,-4.69629 1.77702,-1.5473 4.1775,-2.33389 6.52525,-2.17085"
     id="path85178-7"
     sodipodi:nodetypes="ccccccc" />
</svg>
