<?xml version="1.0" encoding="UTF-8" standalone="no"?>
<svg
   id="svg8"
   viewBox="0 0 390.70314 353.00507"
   version="1.1"
   sodipodi:docname="EFM Logo - fixed dots and no EFM.svg"
   inkscape:version="1.1 (c4e8f9e, 2021-05-24)"
   width="390.70312"
   height="353.00507"
   inkscape:export-filename="/Users/chriswright/desktop/bitmap.png"
   inkscape:export-xdpi="96"
   inkscape:export-ydpi="96"
   xmlns:inkscape="http://www.inkscape.org/namespaces/inkscape"
   xmlns:sodipodi="http://sodipodi.sourceforge.net/DTD/sodipodi-0.dtd"
   xmlns="http://www.w3.org/2000/svg"
   xmlns:svg="http://www.w3.org/2000/svg">
  <sodipodi:namedview
     id="namedview919"
     pagecolor="#ffffff"
     bordercolor="#666666"
     borderopacity="1.0"
     inkscape:pageshadow="2"
     inkscape:pageopacity="1"
     inkscape:pagecheckerboard="0"
     showgrid="false"
     inkscape:zoom="1.371669"
     inkscape:cx="119.92689"
     inkscape:cy="214.70194"
     inkscape:window-width="1586"
     inkscape:window-height="997"
     inkscape:window-x="0"
     inkscape:window-y="25"
     inkscape:window-maximized="0"
     inkscape:current-layer="svg8"
     fit-margin-left="3"
     fit-margin-top="3"
     fit-margin-right="3"
     fit-margin-bottom="3" />
  <defs
     id="defs826">
    <style
       id="style824">
      .cls-1, .cls-2, .cls-24, .cls-6 {
        fill: none;
      }

      .cls-1, .cls-2, .cls-24, .cls-6, .cls-9 {
        stroke: #000;
      }

      .cls-1, .cls-2, .cls-6, .cls-9 {
        stroke-miterlimit: 11.33858;
      }

      .cls-1, .cls-9 {
        stroke-width: 2.25px;
      }

      .cls-2 {
        stroke-width: 5.24999px;
      }

      .cls-3 {
        fill: #9c22a0;
      }

      .cls-4 {
        fill: #0acc3d;
      }

      .cls-5 {
        fill: #fff;
      }

      .cls-6 {
        stroke-width: 2.99999px;
      }

      .cls-7 {
        fill: #198bd7;
      }

      .cls-8, .cls-9 {
        fill: #fff250;
      }

      .cls-10 {
        font-size: 110px;
      }

      .cls-10, .cls-18, .cls-21, .cls-23 {
        font-family: Chalkboard;
      }

      .cls-11 {
        letter-spacing: -0.025em;
      }

      .cls-12 {
        letter-spacing: -0.01436em;
      }

      .cls-13 {
        letter-spacing: 0.02319em;
      }

      .cls-14 {
        letter-spacing: -0.03866em;
      }

      .cls-15 {
        letter-spacing: -0.07292em;
      }

      .cls-16 {
        letter-spacing: 0.01546em;
      }

      .cls-17 {
        letter-spacing: -0.0685em;
      }

      .cls-18, .cls-21, .cls-23 {
        font-size: 44px;
      }

      .cls-18 {
        letter-spacing: 0.00663em;
      }

      .cls-19 {
        letter-spacing: -0.08618em;
      }

      .cls-20 {
        letter-spacing: -0.05413em;
      }

      .cls-21 {
        letter-spacing: 0.02208em;
      }

      .cls-22 {
        letter-spacing: -0.08616em;
      }

      .cls-24 {
        stroke-miterlimit: 10;
        stroke-width: 2.25px;
      }
    </style>
  </defs>
  <g
     id="g850"
     transform="translate(-380.12547,-32.785687)">
    <path
       id="path851"
       class="cls-1"
       d="m 501.46176,51.639 c 17.69915,35.41243 39.99365,68.459 66.75509,91.17609" />
    <path
       id="path962"
       class="cls-2"
       d="m 624.351,257.842 c 11.68794,-6.17934 42.13209,-31.62237 46.33929,-42.05355" />
    <path
       id="path964"
       class="cls-3"
       d="m 644.65453,202.98491 -29.61421,29.01139 c 13.57346,9.36831 21.17056,10.79792 35.77494,-0.61856 4.862,-3.80071 9.41507,-8.52492 8.03568,-14.73215 -1.23956,-5.57811 -10.56677,-11.241 -14.19641,-13.66068" />
    <path
       id="path964-2"
       data-name="path964"
       class="cls-1"
       d="m 615.745,232.49514 c 13.57345,9.36831 20.4659,10.29908 35.07028,-1.1174 4.862,-3.80071 9.41507,-8.52492 8.03568,-14.73215 -1.23956,-5.57811 -10.56677,-11.241 -14.19641,-13.66068" />
    <g
       id="Torso">
      <path
         class="cls-4"
         d="m 595.42243,185.25272 a 22.39415,22.39415 0 0 0 11.97108,-3.3367 26.043,26.043 0 0 0 7.30072,-6.577 c 5.51444,4.1325 9.54052,7.79946 15.01392,12.05658 6.2773,4.88234 11.53222,6.584 16.07144,13.39285 0.9344,1.40162 -28.83991,30.97928 -33.01932,32.77048 -2.447,1.04872 -4.36854,-0.51621 -6.02287,-2.65168 -9.95187,-12.84625 -7.95631,-33.53652 -11.31497,-45.65453 z"
         id="path832" />
      <path
         class="cls-5"
         d="m 611.06526,216.75273 c 0,0 2.447,6.1998 -1.01472,7.78693 -3.44586,1.57987 -5.12512,-4.37164 -5.12512,-4.37164 z"
         id="path834" />
      <path
         id="path966"
         class="cls-1"
         d="m 614.69423,175.339 c 5.51444,4.1325 9.54052,7.79946 15.01392,12.05658 6.2773,4.88234 11.53222,6.584 16.07144,13.39285 0.9344,1.40162 -28.83991,30.97928 -33.01932,32.77048 -2.447,1.04872 -4.36854,-0.51621 -6.02287,-2.65168 -9.95187,-12.84623 -7.95631,-33.5365 -11.315,-45.65451" />
      <path
         id="path970"
         class="cls-1"
         d="m 604.63668,194.25273 c -4.05182,3.72168 -27.76044,24.20383 -21.96429,30 8.22141,8.22145 27.76662,-8.75247 28.39287,-7.5 3.74328,7.48658 -3.89928,11.72431 -5.89287,3.75" />
    </g>
    <path
       id="path972"
       class="cls-1"
       d="M 650.33312,206.14556 C 659.08489,188.29105 674.891,160.19 665.601,150.4313 c -3.212,-3.212 -12.37826,12.32142 2.67859,12.32142" />
    <path
       id="path976"
       class="cls-1"
       d="m 654.61887,210.16344 c 9.70231,-5.18572 34.55706,-34.73375 34.01786,-52.76785 -0.34927,-11.68154 -15.17882,3.68873 -1.07143,7.5" />
    <g
       id="Face">
      <path
         id="path968"
         class="cls-1"
         d="m 575.601,162.217 c 0.20465,40.762 57.38274,20.991 38.57142,-9.1071 -6.0831,-9.35136 -13.95623,-13.03835 -25.17857,-9.10715 A 27.66318,27.66318 0 0 0 575.601,162.217 Z" />
      <path
         id="path980"
         class="cls-1"
         d="m 612.49564,158.79228 c 4.352,6.732 -5.03528,12.8002 -15,11.25" />
      <path
         id="path982"
         class="cls-6"
         d="m 596.21868,156.8557 a 17.56956,17.56956 0 0 0 5.5627,2.47236" />
      <path
         id="path984"
         class="cls-6"
         d="m 599.90637,150.48874 c 3.25459,-0.25312 3.65069,0.69444 5.63589,2.30981" />
      <path
         id="path990"
         class="cls-1"
         d="m 577.67422,154.50658 c -6.54281,-2.1788 -11.11088,-0.62843 -16.07142,2.67858" />
      <path
         id="path992"
         class="cls-1"
         d="m 584.1028,145.93516 c -4.23646,-2.81552 -8.817,-4.92187 -11.25,-8.57141" />
      <path
         id="path994"
         class="cls-1"
         d="m 592.67423,141.64946 c -0.0437,-3.90763 -0.23244,-8.71272 0.53571,-11.78574" />
    </g>
    <path
       id="path849"
       class="cls-1"
       d="m 451.4502,54.22868 c 35.62105,63.26347 78.3078,119.06651 138.97177,157.475 19.93506,12.03132 30.765,26.55347 54.00228,29.32073" />
  </g>
  <g
     id="Grown_Up"
     data-name="Grown Up"
     transform="translate(-380.12547,-32.785687)">
    <path
       id="path905"
       class="cls-1"
       d="m 423.08535,314.65076 c 3.427,21.44857 0.1782,61.38462 0.87762,54.1589 13.43909,-12.05259 41.25074,16.01351 23.93093,12.54136 -0.88823,-0.17827 -24.18686,-3.51541 -24.18689,-12.79732" />
    <path
       id="path915"
       class="cls-7"
       d="m 452.548,275.90132 c -1.5697,9.30889 0.892,28.32125 -2.43525,34.06968 a 142.80874,142.80874 0 0 1 -26.21624,4.6691 c -2.87422,0.26577 -11.56918,2.93959 -13.17745,2.1718 -1.39521,-9.36563 -2.24362,-38.93243 -2.81916,-41.81011 0,0 16.1528,4.83182 24.71057,4.83181 11.99237,0 19.93753,-3.93228 19.93753,-3.93228" />
    <path
       id="path915-2"
       data-name="path915"
       class="cls-1"
       d="m 452.548,275.90132 c -1.5697,9.30889 0.892,28.32125 -2.43525,34.06968 a 142.80874,142.80874 0 0 1 -26.21624,4.6691 c -2.87422,0.26577 -11.56918,2.93959 -13.17745,2.1718 -1.39521,-9.36563 -2.24362,-38.93243 -2.81916,-41.81011" />
    <path
       id="path917"
       class="cls-1"
       d="m 436.0593,312.99085 c 0.92565,21.387 1.18126,31.07537 1.18126,52.59749 14.63729,-3.50542 36.10929,13.43919 13.37134,9.22163" />
    <g
       id="Torso-2"
       data-name="Torso">
      <path
         id="path935"
         class="cls-1"
         d="m 461.88018,210.46357 c 10.41755,-2.04456 27.87471,-4.707 36.35254,-6.15331 2.95927,-2.6687 5.30767,-3.77182 4.68255,-9.90611 -0.276,-2.7084 -3.41507,-5.2879 -6.38655,-1.45664 -2.38149,3.07056 -1.66472,6.58812 0.0259,11.30066" />
      <path
         id="path941"
         class="cls-1"
         d="m 451.50013,194.61754 c 10.85422,-3.75424 12.89271,-3.18076 22.84311,-5.87172 3.96639,-1.07268 9.796,-3.38214 13.39259,-3.98156 1.94418,-1.56455 7.26215,-7.6698 4.17757,-13.442 -3.49283,-6.53606 -9.78485,4.5371 -5.98738,12.7181" />
      <path
         class="cls-8"
         d="m 448.92237,223.46061 c 2.82932,-0.61446 4.96836,-0.764 14.64948,-4.405 -1.54882,-6.19526 -2.00765,-10.59529 -5.08251,-16.59254 -3.93364,1.57343 -9.942,2.59908 -16.32487,3.33377 a 18.5083,18.5083 0 0 0 -0.80251,-2.202 c 0.0181,6e-5 0.0343,0.002 0.0524,0.002 1.19264,-0.29819 12.57186,-3.31512 12.41337,-3.71114 -1.66517,-4.16306 -2.01564,-7.85149 -3.52417,-11.77353 l -16.57383,4.55249 -1.9e-4,9.5e-4 c -0.98682,-1.19854 -1.91058,-2.36275 -2.67477,-3.50907 a 30.72882,30.72882 0 0 1 -13.36079,3.13043 47.61662,47.61662 0 0 1 -14.18786,-2.33414 l -0.0997,0.2069 -11.26166,84.20619 c 26.65757,-0.1229 40.20406,13.01343 65.83382,-1.00459 -2.11284,-7.92687 -5.7436,-39.93036 -9.002,-49.75949 z"
         id="path858" />
      <path
         id="path913"
         class="cls-1"
         d="m 403.40644,190.15948 -11.26162,84.20615 c 26.65753,-0.12287 40.204,13.01349 65.83381,-1.00456 -2.11288,-7.92688 -5.74359,-39.93034 -9.002,-49.75947 l -6.66643,-17.31751 c -1.7933,-6.9894 -7.978,-12.21167 -11.25542,-17.12779 a 30.72915,30.72915 0 0 1 -13.36082,3.1304 47.61744,47.61744 0 0 1 -14.18783,-2.3341" />
      <path
         id="path945"
         class="cls-1"
         d="m 433.72974,192.66438 16.57384,-4.55247 c 1.50853,3.922 1.859,7.61045 3.52418,11.77352 0.15843,0.39606 -11.22074,3.413 -12.41338,3.71116" />
      <path
         id="path911"
         class="cls-9"
         d="m 448.916,223.46192 c 2.83263,-0.61551 4.96738,-0.76255 14.65584,-4.40628 -1.54882,-6.1953 -2.0077,-10.59531 -5.08253,-16.59256 -9.30056,3.72025 -30.19112,4.38482 -40.23806,5.35669 -2.06682,4.4925 -6.26616,8.41431 -3.07135,16.38053 6.95837,2.91742 30.90351,-0.12287 33.7361,-0.73838 z" />
    </g>
    <g
       id="Face-2"
       data-name="Face">
      <path
         id="path919"
         class="cls-1"
         d="m 384.97833,154.839 c -1.5837,8.86283 -0.70838,12.65834 3.01839,19.80691 4.10612,6.23009 8.94358,12.14233 15.5094,15.30666 q 0.594,0.28628 1.20707,0.542 c 8.47768,3.14 22.20257,2.22 29.57837,-3.285 5.81876,-3.49787 10.37315,-7.69524 12.50363,-14.62979 1.78014,-5.47062 -0.13613,-12.7016 -2.09587,-18.09385 -9.07694,-16.06149 -19.196,-21.30146 -38.97717,-19.65881 -6.12557,2.118 -12.75859,5.7657 -17.18878,10.72831 a 21.85026,21.85026 0 0 0 -3.555,9.28353 z" />
      <path
         id="path931"
         class="cls-1"
         d="m 445.74823,164.13241 c 3.50349,3.07218 -4.93716,19.934 -26.06126,13.75458" />
      <path
         id="path986"
         class="cls-1"
         d="m 420.73945,164.823 c 5.392,1.66585 6.41444,2.0986 9.411,-2.89571" />
      <path
         id="path988"
         class="cls-1"
         d="m 435.25133,156.13588 c 5.67282,1.86116 6.51531,1.24326 6.51531,-1.44783" />
      <path
         d="m 436.76252,143.09347 c -1.299,0.34248 -6.86321,-4.08635 -6.86321,-4.08635 -2.41294,-1.58207 -8.77163,-3.13114 -14.47507,-3.52754 -8.51227,-0.59181 -12.49794,-0.13974 -17.89431,3.03809 -8.61327,5.07051 -11.12335,10.58226 -12.41559,20.14467 l 0.22834,9.10992 0.80353,1.76859 a 34.36485,34.36485 0 0 1 6.72008,-1.61861 c 4.10209,-0.74611 8.75184,-1.5917 12.5032,-3.46764 3.07074,-1.53537 4.1427,-4.3 5.08828,-6.73886 a 15.44333,15.44333 0 0 1 1.8394,-3.74071 c 0.92984,-1.23844 3.49708,-1.1613 5.75927,-1.0943 a 14.29221,14.29221 0 0 0 4.51981,-0.303 c 5.774,-1.8399 6.99416,-3.07835 8.0712,-4.17112 0.91462,-0.92934 1.7054,-1.73179 6.712,-3.05144 z"
         id="path868" />
    </g>
  </g>
  <text
     class="cls-10"
     id="text900"
     x="-317.28635"
     y="109.61533" />
  <text
     class="cls-18"
     id="text906"
     x="218.31924"
     y="53.646214">1...<tspan
   class="cls-19"
   x="234.9462"
   y="53.646214"
   id="tspan902" /></text>
  <text
     class="cls-21"
     id="text912"
     x="268.17422"
     y="68.002647">2...<tspan
   class="cls-22"
   x="294.18399"
   y="68.002647"
   id="tspan908" /></text>
  <text
     class="cls-23"
     id="text914"
     x="327.51114"
     y="82.358124">3!</text>
  <path
     class="cls-24"
     d="m 243.60585,82.864313 -3.59891,23.102657 16.96359,-19.402857 c 0,0 6.4509,-0.2936 49.32869,11.09568 29.81031,7.918267 72.74122,17.792907 79.4546,-16.657 8.36388,-42.91952 -48.29485,-55.62575 -89.05486,-66.25989 -33.31266,-8.6911503 -93.70628,-25.00471 -103.13922,16.14479 -9.08241,39.62037 50.04611,51.97662 50.04611,51.97662 z"
     id="path916" />
</svg>
