<?xml version="1.0" encoding="UTF-8" standalone="no"?>
<svg
   xmlns:dc="http://purl.org/dc/elements/1.1/"
   xmlns:cc="http://creativecommons.org/ns#"
   xmlns:rdf="http://www.w3.org/1999/02/22-rdf-syntax-ns#"
   xmlns:svg="http://www.w3.org/2000/svg"
   xmlns="http://www.w3.org/2000/svg"
   xmlns:sodipodi="http://sodipodi.sourceforge.net/DTD/sodipodi-0.dtd"
   xmlns:inkscape="http://www.inkscape.org/namespaces/inkscape"
   width="68.218781mm"
   height="134.37215mm"
   viewBox="0 0 68.218781 134.37215"
   version="1.1"
   id="svg45"
   inkscape:version="1.0.1 (c497b03c, 2020-09-10)"
   sodipodi:docname="170 FIngers 8 - 5 as difference.svg">
  <defs
     id="defs39" />
  <sodipodi:namedview
     id="base"
     pagecolor="#ffffff"
     bordercolor="#666666"
     borderopacity="1.0"
     inkscape:pageopacity="0.0"
     inkscape:pageshadow="2"
     inkscape:zoom="1.4"
     inkscape:cx="275.12558"
     inkscape:cy="262.54567"
     inkscape:document-units="mm"
     inkscape:current-layer="layer1"
     inkscape:document-rotation="0"
     showgrid="true"
     inkscape:snap-global="false"
     fit-margin-left="1"
     fit-margin-top="1"
     fit-margin-right="1"
     fit-margin-bottom="1"
     inkscape:window-width="1252"
     inkscape:window-height="943"
     inkscape:window-x="158"
     inkscape:window-y="32"
     inkscape:window-maximized="0">
    <inkscape:grid
       type="xygrid"
       id="grid140"
       originx="-53.828384"
       originy="-10.287768" />
  </sodipodi:namedview>
  <metadata
     id="metadata42">
    <rdf:RDF>
      <cc:Work
         rdf:about="">
        <dc:format>image/svg+xml</dc:format>
        <dc:type
           rdf:resource="http://purl.org/dc/dcmitype/StillImage" />
        <dc:title />
      </cc:Work>
    </rdf:RDF>
  </metadata>
  <g
     inkscape:label="Layer 1"
     inkscape:groupmode="layer"
     id="layer1"
     transform="translate(-53.828381,-10.287768)">
    <g
       id="g79">
      <text
         xml:space="preserve"
         style="font-size:4.23333px;line-height:1.25;font-family:Chalkboard;-inkscape-font-specification:Chalkboard;text-align:center;letter-spacing:0px;word-spacing:-0.264583px;text-anchor:middle;stroke-width:0.264583"
         x="120.80582"
         y="62.2738"
         id="text158"><tspan
           sodipodi:role="line"
           id="tspan156"
           x="120.80582"
           y="62.2738"
           style="stroke-width:0.264583" /></text>
      <path
         id="path1920-0"
         style="display:inline;fill:none;stroke:#000000;stroke-width:0.264583px;stroke-linecap:butt;stroke-linejoin:miter;stroke-opacity:1"
         d="m 99.679931,127.09568 c 0.20325,1.80016 -0.54523,3.39675 -1.20256,4.93051 m 1.743709,11.30409 c -0.255609,-3.12246 -0.14743,-5.99139 0.8418,-8.95909 0.34597,-1.03793 -0.55973,-2.6085 -0.0601,-3.60769 0.26326,-0.52655 0.60126,-1.74809 0.60126,-2.345 0,-1.27131 -1.16292,-1.79359 -1.984219,-1.38295 0.396129,-1.29844 -0.77159,-4.15892 -2.345012,-2.5855 -0.49012,0.49013 -0.35807,1.74282 -1.0823,1.98423 -0.29049,0.0968 -0.47514,-0.9915 -0.4209,-1.26269 0.23418,-1.17092 0.54115,-2.73063 0.54115,-3.90833 0,-1.08727 0.42149,-2.04702 0.66141,-3.12667 0.11377,-0.51196 0.57318,-1.49927 0.30064,-2.04435 -0.29235,-0.5847 -1.1748,-0.86955 -1.80384,-0.24051 -0.0158,0.0158 -0.53696,1.26059 -0.99424,2.85133 -0.61113,2.12597 -1.20271,4.77531 -1.2305,5.02545 -0.0545,0.49016 0.093,2.07159 -0.24051,2.40513 -0.0446,0.0446 -0.42455,0 -0.48103,0 -1.79118,0 -1.09255,-6.69471 -1.56333,-7.63628 -0.10873,-0.21746 -0.19228,-0.45691 -0.48103,-0.60128 -0.21885,-0.10943 -1.10307,-0.0394 -1.26269,0.12026 -0.44262,0.44262 -0.4793,6.67939 -0.24051,7.39576 0.46094,1.38281 0.8418,3.62891 0.8418,5.17101 -1.57628,0.22379 -2.04271,-2.46472 -3.8482,-3.06653 -0.7824,-0.26079 -3.107,-0.0574 -2.88615,1.44308 0.0605,0.41103 0.85018,0.6424 1.31519,0.8358 0.62044,0.25804 0.99129,0.4485 1.4507,0.90791 0.76682,0.76682 1.51091,3.15107 2.76589,4.56974 0.27809,0.31436 0.74337,0.94892 1.02813,1.26289 0.73819,0.81395 1.37549,1.25949 1.85802,2.22454 0.52822,1.28803 0.60128,2.84881 0.60128,4.38936 2.70877,-0.1874 5.44452,0.18038 8.117291,0.18038 z m -3.427311,-17.7378 c 0.67755,1.96399 0.53883,3.89605 -0.0601,5.89256 0.21932,0.54716 0.48819,0.96205 1.14242,0.96205 0.244662,0 0.601282,-0.66555 0.601282,-0.4209 0,0.1974 -0.38009,0.40157 -0.24051,0.54116 0.77736,0.77735 2.198209,-0.60599 2.465259,-0.96205"
         sodipodi:nodetypes="cccssscssssssssssssscscsssssscccccsssc" />
      <path
         id="path87-9"
         style="display:inline;fill:none;stroke:#000000;stroke-width:0.264583px;stroke-linecap:butt;stroke-linejoin:miter;stroke-opacity:1"
         d="m 101.25327,97.244863 c -0.33041,1.306809 -1.783206,2.818377 -2.284886,0.811729 m 1.954186,-5.171017 c -0.0608,0.948343 -1.763236,5.270968 -2.284886,5.531787 -0.32507,0.162536 -0.67839,0.04085 -0.96205,-0.03006 -0.42236,-0.10559 -0.64276,-0.526651 -0.75161,-0.962049 m -6.76441,-2.946283 c 0.0584,0.442869 -0.30132,1.322472 -0.90191,1.022178 -1.22492,-0.61246 -1.99215,-3.066534 -3.72795,-3.066534 -0.47169,0 -3.52234,0.566364 -2.64563,1.443074 0.17046,0.170461 0.80734,0.154544 1.0823,0.360768 1.9744,1.480801 2.51428,2.68356 3.54756,4.750122 1.15992,1.649252 2.25706,3.219112 3.60769,4.569742 0.8747,0.8747 0.24051,4.41224 0.24051,5.35141 2.16713,0.45933 7.4226,0.5143 7.99705,-0.0601 m -0.78167,-18.158735 c 0.0576,1.139546 0.10967,2.951069 -0.37778,4.415722 -0.19222,0.577541 -0.47989,1.083008 -0.73396,1.540634 -0.37203,0.670103 -0.74946,1.198894 -1.65416,1.198894 -0.0512,0 -0.56267,-1.250047 -0.60128,-1.443075 -0.14448,-0.722406 0.37644,-1.676394 0.54345,-2.404599 0.10747,-0.468478 0.15251,-0.677654 0.26828,-1.082833 0.31461,-1.101095 -0.45706,-2.736983 -0.53171,-3.035586 m 3.92896,18.969538 c 0.0374,-1.442 -0.67908,-3.31419 -0.18039,-4.81025 0.47517,-1.42549 1.255466,-2.9246 1.743706,-4.389347 0.22476,-0.674294 0.0673,-1.365926 0.18039,-2.044363 0.28419,-1.705152 2.78097,-4.689992 -0.24052,-4.689992 0.5997,-2.247262 -0.992356,-3.269279 -2.344986,-2.254805 0.0124,-0.313999 -0.014,-0.6062 -0.0566,-0.831408 -0.0576,-0.304456 -0.16789,-0.460785 -0.48456,-0.641731 -2.50143,-1.429387 -2.63956,2.284869 -4.50961,2.284869 -0.80415,-1.40383 -0.29941,-3.241986 -0.66141,-4.689994 -0.26668,-1.066712 0.54199,-4.087875 0,-4.629866 -0.86222,-0.862217 -1.59359,0.361148 -1.9241,1.022178 -1.50921,3.018423 -0.12099,8.150391 -0.75161,11.394281"
         sodipodi:nodetypes="cccssccsssscscccssssssccsscccsccsssc" />
      <path
         id="path132-9"
         style="display:inline;fill:none;stroke:#000000;stroke-width:0.264583px;stroke-linecap:butt;stroke-linejoin:miter;stroke-opacity:1"
         d="m 101.71698,62.258908 c -0.17418,1.24675 -2.235115,3.926934 -2.795955,1.68359 m 1.894035,-5.17102 c -0.0689,0.97578 -1.818895,5.73473 -2.495325,6.07294 -0.76724,0.38362 -1.347627,-0.32371 -1.713637,-0.81173 m 1.593377,-7.09512 c -0.11779,1.38391 -0.0445,2.71911 -0.45095,3.9384 -0.1532,0.45958 -0.40813,1.35372 -0.541147,1.74371 -0.17276,0.50654 -0.31628,1.02338 -0.57122,1.53327 -0.12434,0.24867 -0.4428,0.30064 -0.69147,0.30064 -0.81896,0 -1.1572,-0.57014 -1.32282,-1.23263 m 6.253322,10.853079 c 0.19092,-0.743914 -0.37541,-2.781312 -0.1804,-3.397219 0.42425,-1.339984 1.02218,-6.65207 1.02218,-8.35778 0.14075,-0.34441 0.27749,-0.57759 0.38434,-1.03985 0.33298,-1.44053 0.002,-3.61581 -1.28625,-2.32732 0.2825,-1.73996 -1.594045,-3.57677 -2.615575,-1.89404 -0.0298,-1.46908 -2.916207,-1.93756 -2.916207,-0.45096 0.11526,2.07497 0.0233,4.33792 -0.54115,6.31345 -0.22668,0.79338 -1.26783,0.50723 -1.74372,0.15032 -0.54024,-0.40518 -0.42547,-2.10711 -0.3307,-2.6757 0.25409,-1.52458 0.082,-1.56333 -0.99212,-1.56333 m 3.54755,-2.19468 c -2.15335,-2.9661 -4.94916,0.67351 -5.66455,3.67773 -0.0536,0.22524 -0.0337,0.6415 -0.12141,0.83916 -0.0899,0.20253 -0.10659,0.33637 -0.10659,0.53387 -0.68562,0.0312 -0.9319,-0.48094 -1.32281,-0.87185 -0.98366,-0.98366 -2.31775,-2.53628 -4.14884,-1.80385 -0.14807,0.0592 -1.084,0.33283 -1.44167,0.89199 -0.14511,0.22686 -0.23082,0.79716 0.0587,0.94192 0.59358,0.29679 1.08962,-0.44365 2.16461,0.63135 2.49085,2.49085 4.44798,5.867288 7.33563,8.177396 1.11091,1.087734 0.39096,3.097182 0.66141,4.449453 2.63629,0.16633 6.115927,0.32812 8.207482,-0.0902"
         sodipodi:nodetypes="cccsccssssccscscccsssccsscsssssccc" />
      <path
         id="path181-2-4"
         style="display:inline;fill:none;stroke:#000000;stroke-width:0.264583px;stroke-linecap:butt;stroke-linejoin:miter;stroke-opacity:1"
         d="m 89.816388,25.084602 c 0.29493,-1.25768 1.51659,-2.7281 3.14626,-1.91326 m -0.38266,4.84694 c -0.002,-0.41748 0.2248,-1.33741 0.42244,-1.53389 0.19937,-0.19825 0.71148,-0.0534 1.10822,0.0458 m 4.80438,2.55102 c -1.57005,2.47981 -4.2377,-0.24085 -2.84864,-0.93537 m 3.01871,-4.42177 c -0.15185,0.71115 -0.29514,1.44061 -0.59525,2.04081 -0.3555,0.711 -1.9923,2.70892 -3.10373,2.33844 -1.40128,-0.4671 -1.49728,-1.52143 -0.59524,-2.42347 m 1.23299,-3.91156 c -0.0119,0.46504 -3e-5,0.85179 -3e-5,1.31802 0,0.38002 -0.009,0.69755 -0.17007,1.02041 -0.3746,0.74919 -0.5913,1.61565 -1.70068,1.61565 -0.1747,0 0.0164,0.011 -0.12756,-0.085 -1.05626,-0.70418 -1.36565,-2.45577 -0.80782,-3.57143 0.20824,-0.41649 -0.94824,-0.46028 -0.46769,-0.34014 m 9.141202,7.18538 c -0.0751,3.18034 -1.37803,6.07838 -1.7432,9.14116 -0.035,0.29337 -0.333202,2.12758 0,2.21088 -2.026472,0.15006 -4.078472,-0.085 -6.079932,-0.085 -0.74724,0 -1.99606,0.0856 -2.50851,-0.0425 m 1e-5,0.085 c -0.37522,-1.61466 0.41023,-3.72886 -0.34014,-5.22959 -0.77258,-1.54515 -1.7433,-3.14678 -2.08333,-4.84694 -0.70214,-2.42355 -0.22679,-2.2714 0.5102,-4.03911 0.25888,-0.6472 0.16249,-1.46538 0.38265,-2.12585 0.43134,-1.29403 1.27921,-2.59847 1.65816,-3.10375 0.0528,-0.3992 1.65444,-1.77613 2.29592,-1.53061 0.66997,0.25643 1.6586,0.79811 1.79212,1.65476 0.0518,0.33228 0.29469,0.60346 0.29122,0.89626 0.22891,-0.0894 0.26045,-0.26045 0.38265,-0.68027 0.41172,-1.41442 2.40218,-0.71942 2.64099,0.59432 0.11538,0.63474 -0.0992,1.50814 -0.09,1.9567 1.559842,-0.96291 3.266262,1.02795 2.210872,2.08333 1.12386,-0.49539 1.80931,1.97471 1.14796,2.63606 -0.11876,0.11876 -0.56303,0.83197 -1.0317,1.34385 -0.55009,0.60078 -1.13376,1.00449 -1.26421,1.0371 -0.313152,0.0783 -1.828242,0.2693 -1.828242,-0.34013 0,-1.41463 2.555362,-2.99344 2.976192,-4.67688"
         sodipodi:nodetypes="cccsccccssccscscsccscsccsccscsscssccssssc" />
      <path
         style="display:inline;fill:none;stroke:#000000;stroke-width:0.264583px;stroke-linecap:butt;stroke-linejoin:miter;stroke-opacity:1"
         d="m 58.208333,39.6875 c -0.23554,0 0.0112,-1.64097 0.12405,-2.462359 0.18049,-1.31386 0.33075,-2.60774 -0.0295,-3.86874 -0.25955,-0.9084 -0.24895,-1.94079 -0.47247,-2.83483 -0.38927,-1.55712 0.43298,-4.87447 -0.47246,-6.14211 -0.57516,-0.80522 -1.21465,-3.009241 -2.16739,-4.679361 -0.20232,-0.35466 -0.25801,-1.1564 -0.21721,-1.57423 0.0364,-0.37303 0.0319,-0.56046 0.25606,-0.6168 0.43285,-0.10877 0.42804,-0.4382 1.1855,0.30753 0.38313,0.37719 0.62096,1.25448 0.97558,2.01251 0.29989,0.64103 0.71186,1.13015 1.07273,1.84337 0.29527,0.583571 0.47107,0.880141 0.89094,0.91244 0.61839,0.0476 1.34781,-0.26636 0.96075,-0.575919 -0.1922,-0.15371 -2.05917,-7.892171 -1.0671,-9.252311 0.21049,-0.28859 0.91113,-0.0619 1.27962,0.40255 0.37797,0.4764 0.42125,1.20049 0.42125,1.67632 0,0.4689 1.50896,7.515231 2.55135,6.472841 0.14,-0.139991 0.25799,0.008 0.35887,-0.289931 0.58362,-1.72468 0.35779,-6.06348 0.4544,-8.29118 0.0412,-0.94954 0.90481,-1.3837 1.26559,-1.29351 0.34753,0.0869 0.72265,0.49613 0.89177,1.19983 0.17038,0.70892 -0.0334,1.74908 0.0246,2.75489 0.16386,2.84592 0.18237,6.185771 0.50109,6.34513 1.63425,0.817121 2.69076,-2.34564 3.48283,-4.2801 0.24762,-0.60481 0.33577,-2.0584 0.54128,-2.2639 0.299,-0.299 0.23128,-0.21624 0.53929,-0.41515 0.36724,-0.23722 0.76773,0.0732 0.97675,0.25624 0.24671,0.21594 0.33839,0.33765 0.37518,0.89402 0.0788,1.19096 -0.50149,2.56423 -0.50149,2.71252 0,0.30154 -0.17921,0.66014 -0.29637,0.98099 -0.11366,0.31123 -0.16302,0.58498 -0.31129,0.86255 -0.921,1.72419 -2.56186,3.426501 -2.06585,5.410561 0.0653,0.261089 0.18355,0.50608 0.28349,0.755949 0.1739,0.434761 0.85008,-0.519339 1.18117,-0.850449 0.78563,-0.78562 1.64634,-1.27975 2.90974,-1.700891 0.63687,-0.212289 1.69951,0.294631 2.07155,0.76547 0.31592,0.399801 0.33437,0.741821 0.2032,1.026641 -0.10398,0.225729 -0.88229,0.352589 -1.02539,0.281029 -0.28774,-0.143879 -0.74776,0.425191 -0.95983,0.687111 -0.24568,0.30341 -0.272,0.33171 -0.5537,0.547329 -1.47747,1.130881 -2.24553,3.426641 -3.25982,4.440931 -1.05977,1.05976 -1.64669,2.29479 -2.89492,3.33497 -0.52525,0.43769 -0.95951,2.33027 -0.88709,3.59924 0.0331,0.579159 0.20508,0.989441 0.002,1.192281 -0.32879,0.328798 -3.44851,0.549698 -3.83117,0.167039 -0.45696,-0.456961 -3.379201,-1.29e-4 -4.08579,0.0894 -0.4059,0.0515 -1.48013,-0.539961 -0.682,-0.539961 z"
         id="path1804-5-8-1"
         sodipodi:nodetypes="ssssssssssssssssssssssssssssssssssssssssssssssss" />
      <path
         style="display:inline;fill:none;stroke:#000000;stroke-width:0.264583px;stroke-linecap:butt;stroke-linejoin:miter;stroke-opacity:1"
         d="m 58.208543,74.083383 c -0.23554,0 0.0112,-1.640971 0.12405,-2.462361 0.18049,-1.31386 0.33075,-2.607741 -0.0295,-3.868742 -0.25955,-0.9084 -0.24895,-1.940791 -0.47247,-2.834831 -0.38927,-1.557121 0.43298,-4.874473 -0.47246,-6.142113 -0.57516,-0.805221 -1.21465,-3.009243 -2.16739,-4.679364 -0.20232,-0.35466 -0.25801,-1.1564 -0.21721,-1.57423 0.0364,-0.373031 0.0319,-0.560461 0.25606,-0.616801 0.43285,-0.10877 0.42804,-0.4382 1.1855,0.30753 0.38313,0.377191 0.62096,1.254481 0.97558,2.012512 0.29989,0.64103 0.71186,1.13015 1.07273,1.84337 0.29527,0.583572 0.47107,0.880142 0.89094,0.912441 0.61839,0.0476 1.34781,-0.26636 0.96075,-0.575919 -0.1922,-0.15371 -2.05917,-7.892175 -1.0671,-9.252316 0.21049,-0.28859 0.91113,-0.0619 1.27962,0.40255 0.37797,0.4764 0.42125,1.200491 0.42125,1.676321 0,0.4689 1.50896,7.515235 2.55135,6.472844 0.14,-0.139991 0.25799,0.008 0.35887,-0.289931 0.58362,-1.724681 0.35779,-6.063483 0.4544,-8.291184 0.0412,-0.949541 0.90481,-1.383701 1.26559,-1.293511 0.34753,0.0869 0.72265,0.49613 0.89177,1.199831 0.17038,0.70892 -0.0334,1.749081 0.0246,2.754891 0.16386,2.845922 0.18237,6.185774 0.50109,6.345133 1.63425,0.817122 2.69076,-2.345641 3.48283,-4.280102 0.24762,-0.60481 0.33577,-2.058401 0.54128,-2.263901 0.299,-0.299 0.23128,-0.21624 0.53929,-0.41515 0.36724,-0.23722 0.76773,0.0732 0.97675,0.25624 0.24671,0.21594 0.33839,0.33765 0.37518,0.894021 0.0788,1.19096 -0.50149,2.564231 -0.50149,2.712521 0,0.30154 -0.17921,0.66014 -0.29637,0.98099 -0.11366,0.311231 -0.16302,0.584981 -0.31129,0.862551 -0.921,1.724191 -2.56186,3.426503 -2.06585,5.410564 0.0653,0.261089 0.18355,0.50608 0.28349,0.755949 0.1739,0.434761 0.85008,-0.519339 1.18117,-0.850449 0.78563,-0.785621 1.64634,-1.279751 2.90974,-1.700892 0.63687,-0.212289 1.69951,0.294631 2.07155,0.76547 0.31592,0.399801 0.33437,0.741821 0.2032,1.026642 -0.10398,0.225729 -0.88229,0.352589 -1.02539,0.281029 -0.28774,-0.143879 -0.74776,0.425191 -0.95983,0.687111 -0.24568,0.30341 -0.272,0.33171 -0.5537,0.547329 -1.47747,1.130882 -2.24553,3.426643 -3.25982,4.440934 -1.05977,1.05976 -1.64669,2.294791 -2.89492,3.334971 -0.52525,0.437691 -0.95951,2.330272 -0.88709,3.599242 0.0331,0.579159 0.20508,0.989442 0.002,1.192282 -0.32879,0.328798 -3.44851,0.549698 -3.83117,0.167039 -0.45696,-0.456961 -3.3792,-1.29e-4 -4.08579,0.0894 -0.4059,0.0515 -1.48013,-0.539961 -0.682,-0.539961 z"
         id="path1804-5-8-1-4"
         sodipodi:nodetypes="ssssssssssssssssssssssssssssssssssssssssssssssss" />
      <path
         style="display:inline;fill:none;stroke:#000000;stroke-width:0.264583px;stroke-linecap:butt;stroke-linejoin:miter;stroke-opacity:1"
         d="m 58.208543,108.47922 c -0.23554,0 0.0112,-1.64097 0.12405,-2.46236 0.18049,-1.31386 0.33075,-2.60774 -0.0295,-3.86874 -0.25955,-0.9084 -0.24895,-1.94079 -0.47247,-2.834833 -0.38927,-1.55712 0.43298,-4.87447 -0.47246,-6.14211 -0.57516,-0.80522 -1.21465,-3.00924 -2.16739,-4.67936 -0.20232,-0.35466 -0.25801,-1.1564 -0.21721,-1.57423 0.0364,-0.37303 0.0319,-0.56046 0.25606,-0.6168 0.43285,-0.10877 0.42804,-0.4382 1.1855,0.30753 0.38313,0.37719 0.62096,1.25448 0.97558,2.01251 0.29989,0.64103 0.71186,1.13015 1.07273,1.84337 0.29527,0.58357 0.47107,0.88014 0.89094,0.91244 0.61839,0.0476 1.34781,-0.26636 0.96075,-0.57592 -0.1922,-0.15371 -2.05917,-7.89217 -1.0671,-9.25231 0.21049,-0.28859 0.91113,-0.0619 1.27962,0.40255 0.37797,0.4764 0.42125,1.20049 0.42125,1.67632 0,0.4689 1.50896,7.51523 2.55135,6.47284 0.14,-0.13999 0.25799,0.008 0.35887,-0.28993 0.58362,-1.72468 0.35779,-6.06348 0.4544,-8.29118 0.0412,-0.94954 0.90481,-1.3837 1.26559,-1.29351 0.34753,0.0869 0.72265,0.49613 0.89177,1.19983 0.17038,0.70892 -0.0334,1.74908 0.0246,2.75489 0.16386,2.84592 0.18237,6.18577 0.50109,6.34513 1.63425,0.81712 2.69076,-2.34564 3.48283,-4.2801 0.24762,-0.60481 0.33577,-2.0584 0.54128,-2.2639 0.299,-0.299 0.23128,-0.21624 0.53929,-0.41515 0.36724,-0.23722 0.76773,0.0732 0.97675,0.25624 0.24671,0.21594 0.33839,0.33765 0.37518,0.89402 0.0788,1.19096 -0.50149,2.56423 -0.50149,2.71252 0,0.30154 -0.17921,0.66014 -0.29637,0.98099 -0.11366,0.31123 -0.16302,0.58498 -0.31129,0.86255 -0.921,1.72419 -2.56186,3.4265 -2.06585,5.41056 0.0653,0.26109 0.18355,0.50608 0.28349,0.75595 0.1739,0.43476 0.85008,-0.51934 1.18117,-0.85045 0.78563,-0.78562 1.64634,-1.27975 2.90974,-1.70089 0.63687,-0.21229 1.69951,0.29463 2.07155,0.76547 0.31592,0.3998 0.33437,0.74182 0.2032,1.02664 -0.10398,0.22573 -0.88229,0.35259 -1.02539,0.28103 -0.28774,-0.14388 -0.74776,0.42519 -0.95983,0.68711 -0.24568,0.30341 -0.272,0.33171 -0.5537,0.54733 -1.47747,1.13088 -2.24553,3.42664 -3.25982,4.440933 -1.05977,1.05976 -1.64669,2.29479 -2.89492,3.33497 -0.52525,0.43769 -0.95951,2.33027 -0.88709,3.59924 0.0331,0.57916 0.20508,0.98945 0.002,1.19229 -0.32879,0.32879 -3.44851,0.54969 -3.83117,0.16703 -0.45696,-0.45696 -3.3792,-1.2e-4 -4.08579,0.0894 -0.4059,0.0515 -1.48013,-0.53996 -0.682,-0.53996 z"
         id="path1804-5-8-1-9"
         sodipodi:nodetypes="ssssssssssssssssssssssssssssssssssssssssssssssss" />
      <path
         style="display:inline;fill:none;stroke:#000000;stroke-width:0.264583px;stroke-linecap:butt;stroke-linejoin:miter;stroke-opacity:1"
         d="m 58.208544,142.87505 c -0.23554,0 0.0112,-1.64097 0.12405,-2.46236 0.18049,-1.31386 0.33075,-2.60774 -0.0295,-3.86874 -0.25955,-0.9084 -0.24895,-1.94079 -0.47247,-2.83483 -0.38927,-1.55712 0.43298,-4.87447 -0.47246,-6.14211 -0.57516,-0.80522 -1.21465,-3.00924 -2.16739,-4.67936 -0.20232,-0.35466 -0.25801,-1.1564 -0.21721,-1.57423 0.0364,-0.37303 0.0319,-0.56046 0.25606,-0.6168 0.43285,-0.10877 0.42804,-0.4382 1.1855,0.30753 0.38313,0.37719 0.62096,1.25448 0.97558,2.01251 0.29989,0.64103 0.71186,1.13015 1.07273,1.84337 0.29527,0.58357 0.47107,0.88014 0.89094,0.91244 0.61839,0.0476 1.34781,-0.26636 0.96075,-0.57592 -0.1922,-0.15371 -2.05917,-7.89217 -1.0671,-9.25231 0.21049,-0.28859 0.91113,-0.0619 1.27962,0.40255 0.37797,0.4764 0.42125,1.20049 0.42125,1.67632 0,0.4689 1.50896,7.51523 2.55135,6.47284 0.14,-0.13999 0.25799,0.008 0.35887,-0.28993 0.58362,-1.72468 0.35779,-6.06348 0.4544,-8.29118 0.0412,-0.94954 0.90481,-1.3837 1.26559,-1.29351 0.34753,0.0869 0.72265,0.49613 0.89177,1.19983 0.17038,0.70892 -0.0334,1.74908 0.0246,2.75489 0.16386,2.84592 0.18237,6.18577 0.50109,6.34513 1.63425,0.81712 2.69076,-2.34564 3.48283,-4.2801 0.24762,-0.60481 0.33577,-2.0584 0.54128,-2.2639 0.299,-0.299 0.23128,-0.21624 0.53929,-0.41515 0.36724,-0.23722 0.76773,0.0732 0.97675,0.25624 0.24671,0.21594 0.33839,0.33765 0.37518,0.89402 0.0788,1.19096 -0.50149,2.56423 -0.50149,2.71252 0,0.30154 -0.17921,0.66014 -0.29637,0.98099 -0.11366,0.31123 -0.16302,0.58498 -0.31129,0.86255 -0.921,1.72419 -2.56186,3.4265 -2.06585,5.41056 0.0653,0.26109 0.18355,0.50608 0.28349,0.75595 0.1739,0.43476 0.85008,-0.51934 1.18117,-0.85045 0.78563,-0.78562 1.64634,-1.27975 2.90974,-1.70089 0.63687,-0.21229 1.69951,0.29463 2.07155,0.76547 0.31592,0.3998 0.33437,0.74182 0.2032,1.02664 -0.10398,0.22573 -0.88229,0.35259 -1.02539,0.28103 -0.28774,-0.14388 -0.74776,0.42519 -0.95983,0.68711 -0.24568,0.30341 -0.272,0.33171 -0.5537,0.54733 -1.47747,1.13088 -2.24553,3.42664 -3.25982,4.44093 -1.05977,1.05976 -1.64669,2.29479 -2.89492,3.33497 -0.52525,0.43769 -0.95951,2.33027 -0.88709,3.59924 0.0331,0.57916 0.20508,0.98944 0.002,1.19228 -0.32879,0.3288 -3.448511,0.5497 -3.831171,0.16704 -0.45696,-0.45696 -3.3792,-1.3e-4 -4.08579,0.0894 -0.405899,0.0515 -1.48013,-0.53996 -0.682,-0.53996 z"
         id="path1804-5-8-1-2"
         sodipodi:nodetypes="ssssssssssssssssssssssssssssssssssssssssssssssss" />
      <text
         xml:space="preserve"
         style="font-size:4.23333px;line-height:1.25;font-family:Chalkboard;-inkscape-font-specification:Chalkboard;text-align:center;letter-spacing:0px;word-spacing:-0.264583px;text-anchor:middle;stroke-width:0.264583"
         x="117.33131"
         y="31.7997"
         id="text154"><tspan
           sodipodi:role="line"
           id="tspan152"
           x="117.33131"
           y="31.7997"
           style="font-size:14.1111px;stroke-width:0.264583">0</tspan></text>
      <text
         xml:space="preserve"
         style="font-size:14.1111px;line-height:1.25;font-family:Chalkboard;-inkscape-font-specification:Chalkboard;text-align:center;letter-spacing:0px;word-spacing:-0.264583px;text-anchor:middle;stroke-width:0.264583"
         x="117.86586"
         y="66.004829"
         id="text162"><tspan
           sodipodi:role="line"
           id="tspan160"
           x="117.86586"
           y="66.004829"
           style="font-size:14.1111px;stroke-width:0.264583">1</tspan></text>
      <text
         xml:space="preserve"
         style="font-size:14.1111px;line-height:1.25;font-family:Chalkboard;-inkscape-font-specification:Chalkboard;text-align:center;letter-spacing:0px;word-spacing:-0.264583px;text-anchor:middle;stroke-width:0.264583"
         x="117.33903"
         y="101.03468"
         id="text162-9"><tspan
           sodipodi:role="line"
           id="tspan160-7"
           x="117.33903"
           y="101.03468"
           style="font-size:14.1111px;stroke-width:0.264583">2</tspan></text>
      <text
         xml:space="preserve"
         style="font-size:14.1111px;line-height:1.25;font-family:Chalkboard;-inkscape-font-specification:Chalkboard;text-align:center;letter-spacing:0px;word-spacing:-0.264583px;text-anchor:middle;stroke-width:0.264583"
         x="117.87893"
         y="134.98866"
         id="text162-1"><tspan
           sodipodi:role="line"
           id="tspan160-3"
           x="117.87893"
           y="134.98866"
           style="font-size:14.1111px;stroke-width:0.264583">3</tspan></text>
    </g>
  </g>
</svg>
