<?xml version="1.0" encoding="UTF-8" standalone="no"?>
<svg
   xmlns:dc="http://purl.org/dc/elements/1.1/"
   xmlns:cc="http://creativecommons.org/ns#"
   xmlns:rdf="http://www.w3.org/1999/02/22-rdf-syntax-ns#"
   xmlns:svg="http://www.w3.org/2000/svg"
   xmlns="http://www.w3.org/2000/svg"
   xmlns:sodipodi="http://sodipodi.sourceforge.net/DTD/sodipodi-0.dtd"
   xmlns:inkscape="http://www.inkscape.org/namespaces/inkscape"
   width="48.538414mm"
   height="31.23131mm"
   viewBox="0 0 48.538414 31.23131"
   version="1.1"
   id="svg45"
   inkscape:version="1.0.1 (c497b03c, 2020-09-10)"
   sodipodi:docname="170 Fingers 4 Plus 2.svg">
  <defs
     id="defs39" />
  <sodipodi:namedview
     id="base"
     pagecolor="#ffffff"
     bordercolor="#666666"
     borderopacity="1.0"
     inkscape:pageopacity="0.0"
     inkscape:pageshadow="2"
     inkscape:zoom="0.98994949"
     inkscape:cx="354.19351"
     inkscape:cy="235.0243"
     inkscape:document-units="mm"
     inkscape:current-layer="layer1"
     inkscape:document-rotation="0"
     showgrid="true"
     inkscape:snap-global="false"
     fit-margin-left="1"
     fit-margin-top="1"
     fit-margin-right="1"
     fit-margin-bottom="1"
     inkscape:window-width="1252"
     inkscape:window-height="943"
     inkscape:window-x="7"
     inkscape:window-y="23"
     inkscape:window-maximized="0">
    <inkscape:grid
       type="xygrid"
       id="grid77"
       originx="-28.957615"
       originy="-11.147686" />
  </sodipodi:namedview>
  <metadata
     id="metadata42">
    <rdf:RDF>
      <cc:Work
         rdf:about="">
        <dc:format>image/svg+xml</dc:format>
        <dc:type
           rdf:resource="http://purl.org/dc/dcmitype/StillImage" />
        <dc:title></dc:title>
      </cc:Work>
    </rdf:RDF>
  </metadata>
  <g
     inkscape:label="Layer 1"
     inkscape:groupmode="layer"
     id="layer1"
     transform="translate(-28.957614,-11.147686)">
    <g
       id="g81">
      <path
         id="path54-4"
         style="display:inline;fill:none;stroke:#000000;stroke-width:0.264583px;stroke-linecap:butt;stroke-linejoin:miter;stroke-opacity:1"
         d="m 59.263795,27.670149 c 0.0681,-0.437681 0.24811,-0.82988 0.29762,-1.27551 0.40314,-3.62826 5.95065,-4.92677 4.84694,-1.61565 -0.0732,0.21952 -0.68133,0.55378 -0.80782,0.68028 -1.57659,1.57658 -1.14796,1.09171 -1.14796,3.61394 m 10.6635,11.47422 c 0.23554,0 -0.0112,-1.64097 -0.12405,-2.46237 -0.18049,-1.31386 -0.33075,-2.60773 0.0295,-3.86873 0.25955,-0.9084 0.24895,-1.94079 0.47247,-2.83484 0.38927,-1.55712 -0.43298,-4.87447 0.47246,-6.14211 0.57516,-0.80522 1.21465,-3.009241 2.16739,-4.67936 0.20232,-0.354661 0.25801,-1.1564 0.21721,-1.57423 -0.0364,-0.37303 -0.0319,-0.56046 -0.25606,-0.616801 -0.43285,-0.108769 -0.42804,-0.4382 -1.1855,0.30753 -0.38313,0.37719 -0.62096,1.254481 -0.97558,2.01251 -0.29989,0.641031 -0.71186,1.13015 -1.07273,1.84337 -0.29527,0.583571 -0.47107,0.880141 -0.89094,0.91244 -0.61839,0.0476 -1.34781,-0.26636 -0.96075,-0.575919 0.1922,-0.15371 2.05917,-7.892171 1.0671,-9.252311 -0.21049,-0.28859 -0.91113,-0.0619 -1.27962,0.40255 -0.37797,0.4764 -0.42125,1.200491 -0.42125,1.67632 0,0.468901 -1.50896,7.515231 -2.55135,6.472841 -0.14,-0.13999 -0.25799,0.008 -0.35887,-0.289931 -0.58362,-1.724679 -0.35779,-6.06348 -0.4544,-8.29118 -0.0412,-0.94954 -0.90481,-1.3837 -1.26559,-1.29351 -0.34753,0.0869 -0.72265,0.49613 -0.89177,1.19983 -0.17038,0.70892 0.0334,1.749081 -0.0246,2.75489 -0.16386,2.84592 -0.18237,6.185771 -0.50109,6.34513 -1.63425,0.817121 -2.69076,-2.345639 -3.48283,-4.2801 -0.24762,-0.60481 -0.33577,-2.058399 -0.54128,-2.263899 -0.299,-0.299 -0.23128,-0.21624 -0.53929,-0.41515 -0.36724,-0.237221 -0.76773,0.0732 -0.97675,0.25624 -0.24671,0.215939 -0.33839,0.337649 -0.37518,0.894019 -0.0788,1.19096 0.50149,2.56423 0.50149,2.71252 0,0.30154 0.2974,1.48635 0.25385,1.36365 -0.14798,-0.41691 0.31898,1.377191 0.37142,1.779061 0.26862,2.058289 0.11392,-0.287261 0.1727,1.839859 0.0332,1.199531 -0.22127,1.884761 -0.32121,2.13462 -0.0537,2.162451 -0.56078,-0.434169 0.3022,3.439611 0.51189,1.43 1.07509,1.77652 1.76693,3.03308 0.67711,1.22983 0.9239,1.91214 2.17213,2.95231 0.52525,0.43769 0.95951,2.33027 0.88709,3.59925 -0.0331,0.57916 -0.20508,0.989439 -0.002,1.192279 0.32879,0.3288 3.44851,0.549701 3.83117,0.167042 0.45696,-0.456962 3.3792,-1.32e-4 4.08579,0.0894 0.4059,0.0515 1.48013,-0.539959 0.682,-0.539959 z" />
      <path
         id="path87-9-0"
         style="display:inline;fill:none;stroke:#000000;stroke-width:0.264583px;stroke-linecap:butt;stroke-linejoin:miter;stroke-opacity:1"
         d="m 31.239673,29.224226 c 0.33041,1.306809 1.78321,2.818376 2.28489,0.811729 m -1.95419,-5.171017 c 0.0608,0.948343 1.76324,5.270968 2.28489,5.531787 0.32507,0.162536 0.67839,0.04085 0.96205,-0.03006 0.42236,-0.10559 0.64276,-0.526651 0.75161,-0.962049 m 6.76441,-2.946283 c -0.0584,0.442869 0.30132,1.322472 0.90191,1.022178 1.22492,-0.61246 1.99215,-3.066534 3.72795,-3.066534 0.47169,0 3.52234,0.566364 2.64563,1.443074 -0.17046,0.170461 -0.80734,0.154544 -1.0823,0.360768 -1.9744,1.480801 -2.51428,2.68356 -3.54756,4.750122 -1.15992,1.649251 -2.25706,3.219113 -3.60769,4.569743 -0.8747,0.874703 -0.24051,4.412253 -0.24051,5.351412 -2.16713,0.45934 -7.4226,0.51431 -7.99705,-0.0601 m 0.78167,-18.158739 c -0.0576,1.139547 -0.10967,2.95107 0.37778,4.415723 0.19222,0.577541 0.47989,1.083008 0.73396,1.540634 0.37203,0.670103 0.74946,1.198894 1.65416,1.198894 0.0512,0 0.56267,-1.250047 0.60128,-1.443075 0.14448,-0.722406 -0.37644,-1.676394 -0.54345,-2.404599 -0.10747,-0.468478 -0.15251,-0.677654 -0.26828,-1.082833 -0.31461,-1.101095 0.45706,-2.736984 0.53171,-3.035588 m -3.92896,18.969554 c -0.0374,-1.442 0.67908,-3.31419 0.18039,-4.810263 -0.47517,-1.42549 -1.25547,-2.924602 -1.74371,-4.389352 -0.22476,-0.67429 -0.0673,-1.365922 -0.18039,-2.044359 -0.28419,-1.705152 -2.78097,-4.689992 0.24052,-4.689992 -0.5997,-2.247263 0.99236,-3.269281 2.34499,-2.254806 -0.0124,-0.313999 0.014,-0.6062 0.0566,-0.831409 0.0576,-0.304456 0.16789,-0.460784 0.48456,-0.641731 2.50143,-1.429386 2.63956,2.28487 4.50961,2.28487 0.80415,-1.403831 0.29941,-3.241986 0.66141,-4.689994 0.26668,-1.066713 -0.54199,-4.087876 0,-4.629867 0.86222,-0.862217 1.59359,0.361148 1.9241,1.022178 1.50921,3.018424 0.12099,8.150391 0.75161,11.394283"
         sodipodi:nodetypes="cccssccsssscscccssssssccsscccsccsssc" />
    </g>
  </g>
</svg>
