<?xml version="1.0" encoding="UTF-8" standalone="no"?>
<!-- Created with Inkscape (http://www.inkscape.org/) -->

<svg
   width="51.231735mm"
   height="123.40816mm"
   viewBox="0 0 51.231735 123.40816"
   version="1.1"
   id="svg5"
   inkscape:version="1.1 (c4e8f9e, 2021-05-24)"
   sodipodi:docname="140 Ice Cream Scoop Story.svg"
   xmlns:inkscape="http://www.inkscape.org/namespaces/inkscape"
   xmlns:sodipodi="http://sodipodi.sourceforge.net/DTD/sodipodi-0.dtd"
   xmlns="http://www.w3.org/2000/svg"
   xmlns:svg="http://www.w3.org/2000/svg">
  <sodipodi:namedview
     id="namedview7"
     pagecolor="#ffffff"
     bordercolor="#666666"
     borderopacity="1.0"
     inkscape:pageshadow="2"
     inkscape:pageopacity="0.0"
     inkscape:pagecheckerboard="0"
     inkscape:document-units="mm"
     showgrid="false"
     inkscape:zoom="0.94867184"
     inkscape:cx="158.64285"
     inkscape:cy="272.48622"
     inkscape:window-width="1312"
     inkscape:window-height="997"
     inkscape:window-x="105"
     inkscape:window-y="25"
     inkscape:window-maximized="0"
     inkscape:current-layer="layer1"
     inkscape:snap-global="false"
     fit-margin-left="1"
     fit-margin-top="1"
     fit-margin-bottom="1"
     fit-margin-right="1" />
  <defs
     id="defs2" />
  <g
     inkscape:label="Layer 1"
     inkscape:groupmode="layer"
     id="layer1"
     transform="translate(-22.082199,-93.338826)">
    <path
       style="fill:#ffff00;stroke:#000000;stroke-width:0.264583px;stroke-linecap:butt;stroke-linejoin:miter;stroke-opacity:1"
       d="m 71.591071,114.55413 c 0.878202,-1.47257 0.545928,-3.19912 0.43078,-4.6624 0.04316,-1.55303 -0.607192,-3.02659 -1.408283,-4.32264 -0.919015,-0.59571 -1.439719,-1.62635 -2.362456,-2.22915 -2.071421,-1.74394 -4.936033,-2.48244 -7.592311,-1.99119 -3.683414,1.24198 -5.135232,1.38529 -7.486941,4.32241 -1.132332,1.6324 -1.705378,3.99831 -1.839525,5.78201 -0.240244,0.93162 1.13847,1.44252 0.255091,2.11167 -0.3817,0.83461 -0.302887,2.83864 1.05165,2.42498 1.333776,-0.56854 0.778303,1.22129 1.6628,1.6243 0.799169,0.7995 1.984513,0.44888 3.007256,0.56639 0.740059,0.30639 1.753389,-0.97045 2.159882,-0.0584 1.000827,0.61258 1.431985,0.81754 2.591011,0.95978 0.790737,0.0555 1.493856,-0.56013 2.209772,-0.0596 1.247837,-0.026 1.972601,-1.51283 3.285194,-1.24431 1.144293,0.12274 1.795382,-0.91697 2.726577,-1.46808 0.754459,-0.52395 1.544934,-0.83318 1.309503,-1.75571 z"
       id="path869"
       sodipodi:nodetypes="ccccccccccccccccc" />
    <path
       style="fill:#800000;stroke:#000000;stroke-width:0.264583px;stroke-linecap:butt;stroke-linejoin:miter;stroke-opacity:1"
       d="m 71.062944,137.5857 c 0.878202,-1.47257 0.545928,-3.19912 0.43078,-4.6624 0.04316,-1.55303 -0.607192,-3.02659 -1.408283,-4.32264 -0.919015,-0.59571 -1.439719,-1.62635 -2.362456,-2.22915 -2.071421,-1.74394 -4.936033,-2.48244 -7.592311,-1.99119 -3.683414,1.24198 -5.135232,1.38529 -7.486941,4.32241 -1.132332,1.6324 -1.705378,3.99831 -1.839525,5.78201 -0.240244,0.93162 1.13847,1.44253 0.255091,2.11167 -0.3817,0.83461 -0.302887,2.83864 1.05165,2.42498 1.333776,-0.56853 0.778303,1.22129 1.6628,1.6243 0.799169,0.7995 1.984513,0.44888 3.007256,0.56639 0.740059,0.30639 1.753389,-0.97045 2.159882,-0.0584 1.000827,0.61258 1.431985,0.81754 2.591011,0.95978 0.790737,0.0555 1.493856,-0.56013 2.209772,-0.0596 1.247837,-0.026 1.972601,-1.51283 3.285194,-1.24431 1.144293,0.12274 1.795382,-0.91697 2.726577,-1.46808 0.754459,-0.52395 1.544934,-0.83318 1.309503,-1.75571 z"
       id="path869-19"
       sodipodi:nodetypes="ccccccccccccccccc" />
    <path
       style="fill:#e9afaf;stroke:#000000;stroke-width:0.264583px;stroke-linecap:butt;stroke-linejoin:miter;stroke-opacity:1"
       d="m 24.821983,120.20533 9.761455,27.61098 8.924756,-27.05318"
       id="path2431"
       sodipodi:nodetypes="ccc" />
    <path
       style="fill:#00ff00;stroke:#000000;stroke-width:0.264583px;stroke-linecap:butt;stroke-linejoin:miter;stroke-opacity:1"
       d="m 44.596199,118.71016 c 0.878202,-1.47257 0.545928,-3.19911 0.43078,-4.6624 0.04316,-1.55303 -0.607192,-3.02659 -1.408283,-4.32264 -0.919015,-0.59571 -1.439719,-1.62635 -2.362456,-2.22915 -2.071421,-1.74393 -4.936033,-2.48244 -7.592311,-1.99119 -3.683414,1.24198 -5.135232,1.38529 -7.486941,4.32241 -1.132332,1.6324 -1.705378,3.99832 -1.839525,5.78201 -0.240244,0.93163 1.13847,1.44253 0.255091,2.11167 -0.3817,0.83461 -0.302887,2.83864 1.05165,2.42498 1.333776,-0.56853 0.778303,1.22129 1.6628,1.6243 0.799169,0.7995 1.984513,0.44888 3.007256,0.56639 0.740059,0.30639 1.753389,-0.97045 2.159882,-0.0584 1.000827,0.61258 1.431985,0.81754 2.591011,0.95978 0.790737,0.0555 1.493856,-0.56013 2.209772,-0.0596 1.247837,-0.026 1.972601,-1.51283 3.285194,-1.24431 1.144293,0.12274 1.795382,-0.91697 2.726577,-1.46808 0.754459,-0.52395 1.544934,-0.83318 1.309503,-1.75571 z"
       id="path869-30"
       sodipodi:nodetypes="ccccccccccccccccc" />
    <path
       style="fill:#ff0000;stroke:#000000;stroke-width:0.264583px;stroke-linecap:butt;stroke-linejoin:miter;stroke-opacity:1"
       d="m 44.989619,107.82574 c 0.878202,-1.47257 0.545928,-3.19912 0.43078,-4.6624 0.04316,-1.55303 -0.607192,-3.0266 -1.408283,-4.322645 -0.919015,-0.595711 -1.439719,-1.626351 -2.362456,-2.229151 -2.071421,-1.743937 -4.936033,-2.482438 -7.592311,-1.991195 -3.683414,1.241982 -5.135232,1.385289 -7.486941,4.322417 -1.132332,1.632404 -1.705378,3.998314 -1.839525,5.782014 -0.240244,0.93162 1.13847,1.44252 0.255091,2.11167 -0.3817,0.83461 -0.302887,2.83864 1.05165,2.42498 1.333776,-0.56854 0.778303,1.22129 1.6628,1.6243 0.799169,0.7995 1.984513,0.44888 3.007256,0.56639 0.740059,0.30639 1.753389,-0.97045 2.159882,-0.0584 1.000827,0.61258 1.431985,0.81754 2.591011,0.95978 0.790737,0.0555 1.493856,-0.56013 2.209772,-0.0596 1.247837,-0.026 1.972601,-1.51283 3.285194,-1.24431 1.144293,0.12274 1.795382,-0.91697 2.726577,-1.46808 0.754459,-0.52395 1.544934,-0.83318 1.309503,-1.75571 z"
       id="path869-3"
       sodipodi:nodetypes="ccccccccccccccccc" />
    <path
       style="fill:#e9afaf;stroke:#000000;stroke-width:0.264583px;stroke-linecap:butt;stroke-linejoin:miter;stroke-opacity:1"
       d="m 24.403183,187.72687 9.761455,27.61098 8.924756,-27.05318"
       id="path2431-1"
       sodipodi:nodetypes="ccc" />
    <path
       style="fill:#e9afaf;stroke:#000000;stroke-width:0.264583px;stroke-linecap:butt;stroke-linejoin:miter;stroke-opacity:1"
       d="m 51.177458,187.11182 9.761455,27.61098 8.924756,-27.05318"
       id="path2431-9"
       sodipodi:nodetypes="ccc" />
    <path
       style="fill:#00ff00;stroke:#000000;stroke-width:0.264583px;stroke-linecap:butt;stroke-linejoin:miter;stroke-opacity:1"
       d="m 43.501872,186.46411 c 0.8782,-1.47257 0.54592,-3.19912 0.43078,-4.6624 0.0432,-1.55303 -0.6072,-3.02659 -1.40829,-4.32264 -0.91902,-0.59571 -1.43973,-1.62635 -2.36247,-2.22915 -2.07143,-1.74394 -4.936055,-2.48244 -7.592333,-1.9912 -3.683414,1.24199 -5.135232,1.38529 -7.486941,4.32242 -1.132332,1.6324 -1.705378,3.99831 -1.839525,5.78201 -0.240244,0.93162 1.13847,1.44252 0.255091,2.11167 -0.3817,0.83461 -0.302887,2.83864 1.05165,2.42498 1.333776,-0.56854 0.778303,1.22129 1.6628,1.6243 0.799169,0.7995 1.984513,0.44888 3.007256,0.56639 0.740059,0.30639 1.753389,-0.97045 2.159882,-0.0584 1.000827,0.61258 1.431985,0.81754 2.591011,0.95978 0.790737,0.0555 1.493856,-0.56013 2.209779,-0.0596 1.24784,-0.026 1.97261,-1.51283 3.28521,-1.24431 1.1443,0.12274 1.79539,-0.91697 2.72659,-1.46808 0.75446,-0.52395 1.54494,-0.83318 1.30951,-1.75571 z"
       id="path869-8"
       sodipodi:nodetypes="ccccccccccccccccc" />
    <path
       style="fill:#ff0000;stroke:#000000;stroke-width:0.264583px;stroke-linecap:butt;stroke-linejoin:miter;stroke-opacity:1"
       d="m 43.902656,175.09757 c 0.8782,-1.47257 0.54593,-3.19911 0.43078,-4.6624 0.0432,-1.55302 -0.60719,-3.02659 -1.40828,-4.32263 -0.91902,-0.59571 -1.43972,-1.62635 -2.36246,-2.22915 -2.07142,-1.74394 -4.93603,-2.48244 -7.59231,-1.9912 -3.68341,1.24198 -5.13523,1.38529 -7.48694,4.32242 -1.13233,1.6324 -1.70538,3.99831 -1.83953,5.78201 -0.24024,0.93162 1.13847,1.44252 0.25509,2.11167 -0.3817,0.8346 -0.30288,2.83863 1.05165,2.42498 1.33378,-0.56854 0.77831,1.22128 1.6628,1.62429 0.79917,0.7995 1.98452,0.44888 3.00726,0.56639 0.74006,0.30639 1.75339,-0.97045 2.15988,-0.0584 1.00083,0.61258 1.43199,0.81754 2.59101,0.95978 0.79074,0.0555 1.49386,-0.56013 2.20977,-0.0596 1.24784,-0.026 1.97261,-1.51283 3.2852,-1.24431 1.14429,0.12274 1.79538,-0.91696 2.72658,-1.46808 0.75445,-0.52394 1.54493,-0.83318 1.3095,-1.75571 z"
       id="path869-4"
       sodipodi:nodetypes="ccccccccccccccccc" />
    <path
       style="fill:#782121;stroke:#000000;stroke-width:0.264583px;stroke-linecap:butt;stroke-linejoin:miter;stroke-opacity:1"
       d="m 44.489085,165.13942 c 0.8782,-1.47257 0.54593,-3.19912 0.43078,-4.6624 0.0432,-1.55303 -0.60719,-3.02659 -1.40829,-4.32264 -0.91901,-0.59571 -1.43971,-1.62635 -2.36245,-2.22915 -2.07142,-1.74394 -4.93603,-2.48244 -7.59231,-1.99119 -3.68342,1.24198 -5.13523,1.38528 -7.48694,4.32241 -1.13234,1.6324 -1.70538,3.99831 -1.83953,5.78201 -0.24024,0.93162 1.13847,1.44252 0.25509,2.11168 -0.3817,0.8346 -0.30288,2.83863 1.05165,2.42498 1.33378,-0.56854 0.77831,1.22128 1.6628,1.62429 0.79917,0.7995 1.98452,0.44888 3.00726,0.56639 0.74006,0.30639 1.75339,-0.97045 2.15988,-0.0584 1.00083,0.61258 1.43199,0.81754 2.59101,0.95978 0.79074,0.0555 1.49386,-0.56013 2.20977,-0.0596 1.24784,-0.026 1.9726,-1.51283 3.2852,-1.24431 1.14429,0.12274 1.79538,-0.91696 2.72657,-1.46808 0.75446,-0.52394 1.54494,-0.83318 1.30951,-1.75571 z"
       id="path869-1"
       sodipodi:nodetypes="ccccccccccccccccc" />
    <path
       style="fill:#ff0000;stroke:#000000;stroke-width:0.264583px;stroke-linecap:butt;stroke-linejoin:miter;stroke-opacity:1"
       d="m 70.398029,186.97571 c 0.8782,-1.47257 0.54593,-3.19911 0.43078,-4.6624 0.0432,-1.55303 -0.60719,-3.02659 -1.40828,-4.32264 -0.91902,-0.59571 -1.43972,-1.62635 -2.36246,-2.22915 -2.07142,-1.74393 -4.93603,-2.48244 -7.59231,-1.99119 -3.68341,1.24198 -5.13523,1.38529 -7.48694,4.32241 -1.13233,1.6324 -1.70538,3.99832 -1.83953,5.78201 -0.24024,0.93163 1.13847,1.44253 0.2551,2.11167 -0.3817,0.83461 -0.30289,2.83864 1.05165,2.42499 1.33377,-0.56854 0.7783,1.22128 1.6628,1.62429 0.79916,0.7995 1.98451,0.44888 3.00725,0.56639 0.74006,0.30639 1.75339,-0.97045 2.15988,-0.0584 1.00083,0.61258 1.43199,0.81754 2.59101,0.95978 0.79074,0.0555 1.49386,-0.56013 2.20978,-0.0596 1.24783,-0.026 1.9726,-1.51283 3.28519,-1.24431 1.14429,0.12274 1.79538,-0.91696 2.72658,-1.46808 0.75446,-0.52394 1.54493,-0.83318 1.3095,-1.75571 z"
       id="path869-0"
       sodipodi:nodetypes="ccccccccccccccccc" />
    <path
       style="fill:#ffff00;stroke:#000000;stroke-width:0.264583px;stroke-linecap:butt;stroke-linejoin:miter;stroke-opacity:1"
       d="m 70.927201,176.21318 c 0.8782,-1.47258 0.54592,-3.19912 0.43078,-4.6624 0.0432,-1.55304 -0.6072,-3.0266 -1.40829,-4.32265 -0.91901,-0.59571 -1.43972,-1.62635 -2.36245,-2.22915 -2.07142,-1.74393 -4.93604,-2.48243 -7.59231,-1.99119 -3.68342,1.24198 -5.13524,1.38529 -7.48695,4.32242 -1.13233,1.63239 -1.70537,3.99831 -1.83952,5.78201 -0.24024,0.93162 1.13847,1.44252 0.25509,2.11167 -0.3817,0.83461 -0.30289,2.83863 1.05165,2.42498 1.33378,-0.56854 0.7783,1.22129 1.6628,1.6243 0.79917,0.7995 1.98451,0.44888 3.00726,0.56639 0.74006,0.30639 1.75339,-0.97045 2.15988,-0.0584 1.00083,0.61258 1.43198,0.81754 2.59101,0.95978 0.79074,0.0555 1.49386,-0.56013 2.20977,-0.0596 1.24784,-0.026 1.9726,-1.51283 3.2852,-1.24431 1.14429,0.12274 1.79538,-0.91697 2.72657,-1.46808 0.75446,-0.52395 1.54494,-0.83318 1.30951,-1.75571 z"
       id="path869-5"
       sodipodi:nodetypes="ccccccccccccccccc" />
    <path
       style="fill:#800000;stroke:#000000;stroke-width:0.264583px;stroke-linecap:butt;stroke-linejoin:miter;stroke-opacity:1"
       d="m 71.206094,165.55777 c 0.8782,-1.47257 0.54593,-3.19912 0.43078,-4.6624 0.0432,-1.55303 -0.60719,-3.02659 -1.40828,-4.32264 -0.91902,-0.59571 -1.43972,-1.62635 -2.36246,-2.22915 -2.07142,-1.74394 -4.93603,-2.48244 -7.59231,-1.9912 -3.68341,1.24198 -5.13523,1.38529 -7.48694,4.32242 -1.13233,1.6324 -1.70538,3.99831 -1.83952,5.78201 -0.24025,0.93162 1.13847,1.44252 0.25509,2.11167 -0.3817,0.83461 -0.30289,2.83863 1.05165,2.42498 1.33377,-0.56854 0.7783,1.22129 1.6628,1.6243 0.79917,0.7995 1.98451,0.44888 3.00725,0.56639 0.74006,0.30639 1.75339,-0.97045 2.15988,-0.0584 1.00083,0.61258 1.43199,0.81754 2.59102,0.95978 0.79073,0.0555 1.49385,-0.56013 2.20977,-0.0596 1.24783,-0.026 1.9726,-1.51283 3.28519,-1.24431 1.1443,0.12274 1.79538,-0.91697 2.72658,-1.46808 0.75446,-0.52395 1.54493,-0.83318 1.3095,-1.75571 z"
       id="path869-2"
       sodipodi:nodetypes="ccccccccccccccccc" />
  </g>
</svg>
