<?xml version="1.0" encoding="UTF-8" standalone="no"?>
<svg
   xmlns:dc="http://purl.org/dc/elements/1.1/"
   xmlns:cc="http://creativecommons.org/ns#"
   xmlns:rdf="http://www.w3.org/1999/02/22-rdf-syntax-ns#"
   xmlns:svg="http://www.w3.org/2000/svg"
   xmlns="http://www.w3.org/2000/svg"
   xmlns:sodipodi="http://sodipodi.sourceforge.net/DTD/sodipodi-0.dtd"
   xmlns:inkscape="http://www.inkscape.org/namespaces/inkscape"
   width="66.106438mm"
   height="141.17497mm"
   viewBox="0 0 66.106438 141.17497"
   version="1.1"
   id="svg45"
   inkscape:version="1.0.1 (c497b03c, 2020-09-10)"
   sodipodi:docname="170 Fingers 8 take away 5 Fixed.svg">
  <defs
     id="defs39" />
  <sodipodi:namedview
     id="base"
     pagecolor="#ffffff"
     bordercolor="#666666"
     borderopacity="1.0"
     inkscape:pageopacity="0.0"
     inkscape:pageshadow="2"
     inkscape:zoom="0.98994949"
     inkscape:cx="105.17405"
     inkscape:cy="277.69267"
     inkscape:document-units="mm"
     inkscape:current-layer="layer1"
     inkscape:document-rotation="0"
     showgrid="true"
     inkscape:window-width="1252"
     inkscape:window-height="943"
     inkscape:window-x="147"
     inkscape:window-y="54"
     inkscape:window-maximized="0"
     inkscape:snap-global="false"
     fit-margin-left="1"
     fit-margin-top="1"
     fit-margin-right="1"
     fit-margin-bottom="1">
    <inkscape:grid
       type="xygrid"
       id="grid182"
       originx="-16.786926"
       originy="-12.933651" />
  </sodipodi:namedview>
  <metadata
     id="metadata42">
    <rdf:RDF>
      <cc:Work
         rdf:about="">
        <dc:format>image/svg+xml</dc:format>
        <dc:type
           rdf:resource="http://purl.org/dc/dcmitype/StillImage" />
        <dc:title></dc:title>
      </cc:Work>
    </rdf:RDF>
  </metadata>
  <g
     inkscape:label="Layer 1"
     inkscape:groupmode="layer"
     id="layer1"
     transform="translate(-16.786926,-12.933652)">
    <path
       id="path1920-0"
       style="display:inline;fill:none;stroke:#000000;stroke-width:0.264583px;stroke-linecap:butt;stroke-linejoin:miter;stroke-opacity:1"
       d="m 61.361764,26.411639 c 0.20325,1.800161 -0.54523,3.396751 -1.202561,4.93051 m 1.74371,11.304091 c -0.25561,-3.122461 -0.14743,-5.991391 0.841801,-8.959091 0.34597,-1.03793 -0.55973,-2.608499 -0.0601,-3.60769 0.263259,-0.52655 0.60126,-1.74809 0.60126,-2.345 0,-1.27131 -1.162921,-1.79359 -1.984221,-1.38295 0.396131,-1.298439 -0.771589,-4.15892 -2.34501,-2.5855 -0.49012,0.49013 -0.35807,1.74282 -1.082299,1.98423 -0.29049,0.0968 -0.475141,-0.9915 -0.4209,-1.26269 0.234179,-1.17092 0.54115,-2.73063 0.54115,-3.90833 0,-1.08727 0.421489,-2.04702 0.661409,-3.12667 0.11377,-0.51196 0.573181,-1.49927 0.30064,-2.04435 -0.292349,-0.5847 -1.1748,-0.86955 -1.80384,-0.24051 -0.0158,0.0158 -0.53696,1.26059 -0.99424,2.85133 -0.61113,2.12597 -1.20271,4.77531 -1.2305,5.02545 -0.0545,0.49016 0.093,2.07159 -0.24051,2.405131 -0.0446,0.0446 -0.424549,0 -0.481029,0 -1.79118,0 -1.09255,-6.694711 -1.56333,-7.636281 -0.10873,-0.21746 -0.192281,-0.45691 -0.48103,-0.60128 -0.21885,-0.10943 -1.103071,-0.0394 -1.26269,0.12026 -0.44262,0.44262 -0.479301,6.67939 -0.24051,7.39576 0.460939,1.38281 0.8418,3.628911 0.8418,5.17101 -1.576281,0.223791 -2.042711,-2.46472 -3.848201,-3.066529 -0.782399,-0.26079 -3.106999,-0.0574 -2.886149,1.443079 0.0605,0.411031 0.85018,0.642401 1.315189,0.8358 0.620441,0.258041 0.991291,0.448501 1.4507,0.90791 0.76682,0.766821 1.51091,3.15107 2.765891,4.569741 0.27809,0.31436 0.74337,0.94892 1.028129,1.262889 0.738191,0.813951 1.375491,1.259491 1.858021,2.224541 0.528219,1.28803 0.60128,2.84881 0.60128,4.38936 2.70877,-0.187402 5.444519,0.18038 8.117289,0.18038 z m -3.42731,-17.7378 c 0.67755,1.963989 0.53883,3.896049 -0.0601,5.89256 0.21932,0.547159 0.488189,0.962049 1.14242,0.962049 0.244659,0 0.601279,-0.665549 0.601279,-0.4209 0,0.197401 -0.380089,0.401571 -0.240509,0.54116 0.77736,0.777351 2.198209,-0.60599 2.465259,-0.962049"
       sodipodi:nodetypes="cccssscssssssssssssscscsssssscccccsssc" />
    <path
       id="path87-9"
       style="display:inline;fill:none;stroke:#000000;stroke-width:0.264583px;stroke-linecap:butt;stroke-linejoin:miter;stroke-opacity:1"
       d="m 63.28898,65.263258 c -0.330409,1.306809 -1.78321,2.818381 -2.28489,0.811729 m 1.95419,-5.171017 c -0.0608,0.948343 -1.76324,5.270968 -2.28489,5.531787 -0.32507,0.162536 -0.67839,0.04085 -0.96205,-0.03006 -0.42236,-0.10559 -0.64276,-0.526651 -0.75161,-0.962049 m -6.76441,-2.946283 c 0.0584,0.442869 -0.30132,1.322472 -0.90191,1.022178 -1.22492,-0.61246 -1.99215,-3.066534 -3.72795,-3.066534 -0.47169,0 -3.52234,0.566364 -2.64563,1.443074 0.17046,0.170461 0.80734,0.154544 1.0823,0.360768 1.9744,1.480801 2.51428,2.68356 3.54756,4.750122 1.15992,1.649252 2.25706,3.219109 3.60769,4.569741 0.8747,0.8747 0.24051,4.41225 0.24051,5.35141 2.16713,0.45933 7.4226,0.5143 7.99705,-0.0601 M 60.61327,58.709289 c 0.0576,1.139547 0.10967,2.95107 -0.37778,4.415723 -0.19222,0.577541 -0.47989,1.083008 -0.73396,1.540634 -0.37203,0.670103 -0.74946,1.198894 -1.65416,1.198894 -0.0512,0 -0.56267,-1.250047 -0.60128,-1.443075 -0.14448,-0.722406 0.37644,-1.676394 0.54345,-2.404599 0.10747,-0.468478 0.15251,-0.677654 0.26828,-1.082833 0.31461,-1.101095 -0.45706,-2.736984 -0.53171,-3.035587 m 3.92896,18.969538 c 0.0374,-1.44199 -0.67908,-3.31418 -0.18039,-4.81025 0.47517,-1.425492 1.25547,-2.924601 1.74371,-4.38935 0.22476,-0.67429 0.0673,-1.365922 0.18039,-2.044359 0.28419,-1.705152 2.78097,-4.689992 -0.24052,-4.689992 0.599701,-2.247263 -0.99236,-3.26928 -2.34499,-2.254806 0.0124,-0.313999 -0.014,-0.6062 -0.0566,-0.831408 -0.0576,-0.304456 -0.16789,-0.460785 -0.48456,-0.641731 -2.50143,-1.429387 -2.63956,2.284869 -4.50961,2.284869 -0.80415,-1.40383 -0.29941,-3.241986 -0.66141,-4.689994 -0.26668,-1.066712 0.54199,-4.087875 0,-4.629866 -0.86222,-0.862217 -1.59359,0.361148 -1.9241,1.022178 -1.50921,3.018423 -0.12099,8.150391 -0.75161,11.394282"
       sodipodi:nodetypes="cccssccsssscscccssssssccsscccsccsssc" />
    <path
       style="display:inline;fill:none;stroke:#000000;stroke-width:0.264583px;stroke-linecap:butt;stroke-linejoin:miter;stroke-opacity:1"
       d="m 21.166878,42.333383 c -0.23554,0 0.0112,-1.64097 0.124049,-2.462359 0.18049,-1.31386 0.330751,-2.60774 -0.0295,-3.86874 -0.259549,-0.9084 -0.248949,-1.94079 -0.472469,-2.83483 -0.38927,-1.55712 0.43298,-4.87447 -0.47246,-6.14211 -0.57516,-0.80522 -1.21465,-3.009241 -2.16739,-4.67936 -0.20232,-0.35466 -0.25801,-1.1564 -0.21721,-1.57423 0.0364,-0.37303 0.0319,-0.56046 0.25606,-0.6168 0.43285,-0.10877 0.42804,-0.4382 1.1855,0.30753 0.38313,0.37719 0.62096,1.25448 0.97558,2.01251 0.29989,0.64103 0.71186,1.13015 1.07273,1.843369 0.29527,0.583571 0.47107,0.880141 0.89094,0.91244 0.61839,0.0476 1.34781,-0.26636 0.96075,-0.575919 -0.1922,-0.15371 -2.059171,-7.89217 -1.067101,-9.25231 0.210491,-0.28859 0.91113,-0.0619 1.27962,0.40255 0.37797,0.4764 0.42125,1.20049 0.42125,1.67632 0,0.4689 1.50896,7.51523 2.551351,6.47284 0.14,-0.13999 0.257989,0.008 0.35887,-0.28993 0.58362,-1.72468 0.35779,-6.06348 0.4544,-8.29118 0.0412,-0.94954 0.90481,-1.3837 1.26559,-1.29351 0.34753,0.0869 0.72265,0.49613 0.89177,1.19983 0.17038,0.70892 -0.0334,1.74908 0.0246,2.75489 0.16386,2.84592 0.18237,6.18577 0.50109,6.345129 1.63425,0.817121 2.69076,-2.345639 3.48283,-4.280099 0.24762,-0.60481 0.33577,-2.0584 0.54128,-2.2639 0.299,-0.299 0.23128,-0.21624 0.53929,-0.41515 0.36724,-0.23722 0.76773,0.0732 0.97675,0.25624 0.24671,0.21594 0.33839,0.33765 0.37518,0.89402 0.0788,1.19096 -0.50149,2.56423 -0.50149,2.71252 0,0.30154 -0.17921,0.66014 -0.29637,0.98099 -0.11366,0.31123 -0.16302,0.58498 -0.31129,0.86255 -0.921,1.724189 -2.56186,3.4265 -2.06585,5.41056 0.0653,0.261089 0.18355,0.50608 0.28349,0.755949 0.1739,0.434761 0.85008,-0.519339 1.18117,-0.850449 0.78563,-0.78562 1.64634,-1.27975 2.90974,-1.700891 0.63687,-0.212289 1.69951,0.294631 2.07155,0.76547 0.31592,0.399801 0.33437,0.741821 0.2032,1.026641 -0.10398,0.225729 -0.88229,0.352589 -1.02539,0.281029 -0.28774,-0.143879 -0.74776,0.425191 -0.95983,0.687111 -0.24568,0.30341 -0.272,0.33171 -0.5537,0.547329 -1.47747,1.130881 -2.24553,3.426641 -3.25982,4.440931 -1.05977,1.05976 -1.64669,2.29479 -2.89492,3.33497 -0.52525,0.43769 -0.95951,2.33027 -0.88709,3.59924 0.0331,0.579159 0.20508,0.989441 0.002,1.192281 -0.32879,0.328798 -3.448511,0.549698 -3.831171,0.167039 -0.45696,-0.456961 -3.3792,-1.29e-4 -4.08579,0.0894 -0.4059,0.0515 -1.48013,-0.539961 -0.682,-0.539961 z"
       id="path1804-5-8-1"
       sodipodi:nodetypes="ssssssssssssssssssssssssssssssssssssssssssssssss" />
    <path
       style="display:inline;fill:none;stroke:#000000;stroke-width:0.264583px;stroke-linecap:butt;stroke-linejoin:miter;stroke-opacity:1"
       d="m 21.166878,76.729217 c -0.23554,0 0.0112,-1.64097 0.12405,-2.46236 0.18049,-1.31386 0.33075,-2.60774 -0.0295,-3.86874 -0.25955,-0.9084 -0.24895,-1.94079 -0.47247,-2.83483 -0.38927,-1.55712 0.43298,-4.87447 -0.47246,-6.14211 -0.57516,-0.80522 -1.21465,-3.009237 -2.16739,-4.679357 -0.20232,-0.35466 -0.25801,-1.1564 -0.21721,-1.57423 0.0364,-0.37303 0.0319,-0.56046 0.25606,-0.6168 0.43285,-0.10877 0.42804,-0.4382 1.1855,0.30753 0.38313,0.37719 0.62096,1.25448 0.97558,2.01251 0.29989,0.64103 0.71186,1.13015 1.07273,1.84337 0.29527,0.583571 0.47107,0.880141 0.89094,0.91244 0.61839,0.0476 1.34781,-0.26636 0.96075,-0.575919 -0.1922,-0.15371 -2.05917,-7.892171 -1.0671,-9.252311 0.21049,-0.28859 0.91113,-0.0619 1.27962,0.40255 0.37797,0.4764 0.42125,1.20049 0.42125,1.67632 0,0.4689 1.50896,7.515231 2.55135,6.472841 0.14,-0.139991 0.25799,0.008 0.35887,-0.289931 0.58362,-1.72468 0.35779,-6.06348 0.4544,-8.29118 0.0412,-0.94954 0.90481,-1.3837 1.26559,-1.29351 0.34753,0.0869 0.72265,0.49613 0.89177,1.19983 0.17038,0.70892 -0.0334,1.74908 0.0246,2.75489 0.16386,2.84592 0.18237,6.185771 0.50109,6.34513 1.63425,0.817121 2.69076,-2.34564 3.48283,-4.2801 0.24762,-0.60481 0.33577,-2.0584 0.54128,-2.2639 0.299,-0.299 0.23128,-0.21624 0.53929,-0.41515 0.36724,-0.23722 0.76773,0.0732 0.97675,0.25624 0.24671,0.21594 0.33839,0.33765 0.37518,0.89402 0.0788,1.19096 -0.50149,2.56423 -0.50149,2.71252 0,0.30154 -0.17921,0.66014 -0.29637,0.98099 -0.11366,0.31123 -0.16302,0.58498 -0.31129,0.86255 -0.921,1.72419 -2.56186,3.426497 -2.06585,5.410557 0.0653,0.26109 0.18355,0.50608 0.28349,0.75595 0.1739,0.43476 0.85008,-0.51934 1.18117,-0.85045 0.78563,-0.78562 1.64634,-1.27975 2.90974,-1.70089 0.63687,-0.21229 1.69951,0.29463 2.07155,0.76547 0.31592,0.3998 0.33437,0.74182 0.2032,1.02664 -0.10398,0.22573 -0.88229,0.35259 -1.02539,0.28103 -0.28774,-0.14388 -0.74776,0.42519 -0.95983,0.68711 -0.24568,0.30341 -0.272,0.33171 -0.5537,0.54733 -1.47747,1.13088 -2.24553,3.42664 -3.25982,4.44093 -1.05977,1.05976 -1.64669,2.29479 -2.89492,3.33497 -0.52525,0.43769 -0.95951,2.33027 -0.88709,3.59924 0.0331,0.57916 0.20508,0.98944 0.002,1.19228 -0.32879,0.3288 -3.448511,0.5497 -3.831171,0.16704 -0.45696,-0.45696 -3.3792,-1.3e-4 -4.08579,0.0894 -0.4059,0.0515 -1.48013,-0.53996 -0.682,-0.53996 z"
       id="path1804-5-8-1-6"
       sodipodi:nodetypes="ssssssssssssssssssssssssssssssssssssssssssssssss" />
    <text
       xml:space="preserve"
       style="font-size:14.1111px;line-height:1.25;font-family:Chalkboard;-inkscape-font-specification:Chalkboard;text-align:center;letter-spacing:0px;word-spacing:-0.264583px;text-anchor:middle;stroke-width:0.264583"
       x="78.309967"
       y="33.675961"
       id="text234"><tspan
         id="tspan232"
         x="78.309967"
         y="33.675961"
         style="font-size:14.1111px;stroke-width:0.264583"
         sodipodi:role="line">0</tspan></text>
    <text
       xml:space="preserve"
       style="font-size:14.1111px;line-height:1.25;font-family:Chalkboard;-inkscape-font-specification:Chalkboard;text-align:center;letter-spacing:0px;word-spacing:-0.264583px;text-anchor:middle;stroke-width:0.264583"
       x="78.328407"
       y="68.160522"
       id="text234-1"><tspan
         id="tspan232-3"
         x="78.328407"
         y="68.160522"
         style="font-size:14.1111px;stroke-width:0.264583"
         sodipodi:role="line">1</tspan></text>
    <text
       xml:space="preserve"
       style="font-size:14.1111px;line-height:1.25;font-family:Chalkboard;-inkscape-font-specification:Chalkboard;text-align:center;letter-spacing:0px;word-spacing:-0.264583px;text-anchor:middle;stroke-width:0.264583"
       x="77.788506"
       y="110.65638"
       id="text234-7"><tspan
         id="tspan232-2"
         x="77.788506"
         y="110.65638"
         style="font-size:14.1111px;stroke-width:0.264583"
         sodipodi:role="line">4</tspan></text>
    <text
       xml:space="preserve"
       style="font-size:14.1111px;line-height:1.25;font-family:Chalkboard;-inkscape-font-specification:Chalkboard;text-align:center;letter-spacing:0px;word-spacing:-0.264583px;text-anchor:middle;stroke-width:0.264583"
       x="77.526596"
       y="145.15028"
       id="text234-9"><tspan
         id="tspan232-5"
         x="77.526596"
         y="145.15028"
         style="font-size:14.1111px;stroke-width:0.264583"
         sodipodi:role="line">5</tspan></text>
    <text
       xml:space="preserve"
       style="font-size:14.1111px;line-height:1.25;font-family:Chalkboard;-inkscape-font-specification:Chalkboard;text-align:center;letter-spacing:0px;word-spacing:-0.264583px;text-anchor:middle;stroke-width:0.264583"
       x="68.960907"
       y="85.815002"
       id="text272"><tspan
         sodipodi:role="line"
         id="tspan270"
         x="68.960907"
         y="85.815002"
         style="font-size:16.9333px;stroke-width:0.264583">. . .</tspan></text>
    <path
       id="path181-2-4"
       style="display:inline;fill:none;stroke:#000000;stroke-width:0.264583px;stroke-linecap:butt;stroke-linejoin:miter;stroke-opacity:1"
       d="m 48.59926,103.53612 c 0.29493,-1.25768 1.51659,-2.7281 3.14626,-1.91327 m -0.38266,4.84694 c -0.002,-0.41748 0.2248,-1.33741 0.42244,-1.53389 0.19937,-0.19825 0.71148,-0.0534 1.10822,0.0458 m 4.804383,2.55102 c -1.570053,2.47981 -4.237703,-0.24085 -2.848643,-0.93537 m 3.018713,-4.42177 c -0.15185,0.71115 -0.29514,1.44061 -0.59525,2.04082 -0.3555,0.71099 -1.992303,2.70891 -3.103733,2.33843 -1.40128,-0.4671 -1.49728,-1.52143 -0.59524,-2.42347 m 1.23299,-3.91156 c -0.0119,0.46504 -3e-5,0.85179 -3e-5,1.31803 0,0.38002 -0.009,0.69755 -0.17007,1.0204 -0.3746,0.74919 -0.5913,1.61565 -1.70068,1.61565 -0.1747,0 0.0164,0.011 -0.12756,-0.085 -1.05626,-0.70417 -1.36565,-2.45577 -0.80782,-3.57143 0.20824,-0.41649 -0.94824,-0.46028 -0.46769,-0.34014 m 9.141203,7.18538 c -0.0751,3.18034 -1.37802,6.07838 -1.7432,9.14116 -0.035,0.29337 -0.3332,2.12758 0,2.21088 -2.02647,0.15006 -4.078473,-0.085 -6.079933,-0.085 -0.74724,0 -1.99606,0.0856 -2.50851,-0.0425 m 1e-5,0.085 c -0.37522,-1.61466 0.41023,-3.72886 -0.34014,-5.22959 -0.77258,-1.54515 -1.7433,-3.14678 -2.08333,-4.84694 -0.70214,-2.42355 -0.22679,-2.2714 0.5102,-4.03911 0.25888,-0.6472 0.16249,-1.46538 0.38265,-2.12585 0.43134,-1.29403 1.27921,-2.598469 1.65816,-3.103747 0.0528,-0.399209 1.65444,-1.776131 2.29592,-1.530613 0.66997,0.256424 1.6586,0.798112 1.79212,1.654757 0.0518,0.332283 0.29469,0.603463 0.29122,0.896263 0.22891,-0.0894 0.26045,-0.26045 0.38265,-0.680271 0.41172,-1.414425 2.402183,-0.719425 2.640993,0.594321 0.11538,0.63474 -0.0992,1.50815 -0.09,1.9567 1.55985,-0.9629 3.26626,1.02796 2.21087,2.08334 1.12386,-0.4954 1.80931,1.9747 1.14796,2.63605 -0.11876,0.11876 -0.56303,0.83197 -1.0317,1.34385 -0.55008,0.60078 -1.13376,1.00449 -1.26421,1.0371 -0.31315,0.0783 -1.82824,0.2693 -1.82824,-0.34013 0,-1.41463 2.55537,-2.99344 2.97619,-4.67687"
       sodipodi:nodetypes="cccsccccssccscscsccscsccsccscsscssccssssc" />
    <path
       id="path1920-0-9"
       style="display:inline;fill:none;stroke:#000000;stroke-width:0.264583px;stroke-linecap:butt;stroke-linejoin:miter;stroke-opacity:1"
       d="m 21.421822,136.52738 c -0.20325,1.80016 0.54523,3.39675 1.20257,4.93051 m -1.74371,11.30409 c 0.25561,-3.12246 0.14743,-5.99139 -0.841811,-8.95909 -0.345969,-1.03793 0.559731,-2.6085 0.0601,-3.60769 -0.263249,-0.52655 -0.60126,-1.74809 -0.60126,-2.345 0,-1.27131 1.162931,-1.79359 1.984231,-1.38295 -0.39614,-1.29844 0.771579,-4.15892 2.345009,-2.5855 0.49012,0.49013 0.358071,1.74282 1.08229,1.98423 0.29049,0.0968 0.475151,-0.9915 0.420901,-1.26269 -0.23417,-1.17092 -0.54115,-2.73063 -0.54115,-3.90833 0,-1.08727 -0.42148,-2.04702 -0.6614,-3.12667 -0.11377,-0.51196 -0.573191,-1.49927 -0.300641,-2.04435 0.292341,-0.5847 1.1748,-0.86955 1.80384,-0.24051 0.0158,0.0158 0.536961,1.26059 0.994241,2.85133 0.61113,2.12597 1.20271,4.77531 1.2305,5.02545 0.0545,0.49016 -0.093,2.07159 0.24051,2.40513 0.0446,0.0446 0.42454,0 0.48102,0 1.79118,0 1.09255,-6.69471 1.56333,-7.63628 0.10873,-0.21746 0.19228,-0.45691 0.48103,-0.60128 0.21885,-0.10943 1.10307,-0.0394 1.26269,0.12026 0.44262,0.44262 0.4793,6.67939 0.24051,7.39576 -0.46094,1.38281 -0.8418,3.62891 -0.8418,5.17101 1.57628,0.22379 2.04271,-2.46472 3.8482,-3.06653 0.7824,-0.26079 3.107,-0.0574 2.88615,1.44308 -0.0605,0.41103 -0.85018,0.6424 -1.31519,0.8358 -0.62044,0.25804 -0.99129,0.4485 -1.4507,0.90791 -0.76682,0.76682 -1.51091,3.15107 -2.76589,4.56974 -0.27809,0.31436 -0.74337,0.94892 -1.02813,1.26289 -0.73819,0.81395 -1.37549,1.25949 -1.85802,2.22454 -0.52822,1.28803 -0.601281,2.84881 -0.601281,4.38936 -2.70877,-0.1874 -5.444509,0.18038 -8.117279,0.18038 z m 3.427309,-17.7378 c -0.67755,1.96399 -0.538829,3.89605 0.0601,5.89256 -0.21932,0.54716 -0.488191,0.96205 -1.14242,0.96205 -0.24466,0 -0.60128,-0.66555 -0.60128,-0.4209 0,0.1974 0.380089,0.40157 0.24051,0.54116 -0.777361,0.77735 -2.19821,-0.60599 -2.46526,-0.96205"
       sodipodi:nodetypes="cccssscssssssssssssscscsssssscccccsssc" />
    <path
       id="path54"
       style="display:inline;fill:none;stroke:#000000;stroke-width:0.264583px;stroke-linecap:butt;stroke-linejoin:miter;stroke-opacity:1"
       d="m 36.706827,105.62666 c -0.0681,-0.43768 -0.24811,-0.82988 -0.29762,-1.27551 -0.40314,-3.62826 -5.95065,-4.926766 -4.84694,-1.61564 0.0732,0.21951 0.68133,0.55378 0.80782,0.68027 1.57659,1.57658 1.14796,1.09171 1.14796,3.61395 m -10.6635,11.47423 c -0.23554,0 0.0112,-1.64097 0.12405,-2.46237 0.18049,-1.31386 0.33075,-2.60774 -0.0295,-3.86874 -0.25955,-0.9084 -0.24895,-1.94079 -0.47247,-2.83483 -0.38927,-1.55713 0.43298,-4.87449 -0.47246,-6.14213 -0.57516,-0.80522 -1.21465,-3.00924 -2.167389,-4.679356 -0.20232,-0.354661 -0.25801,-1.1564 -0.21721,-1.57423 0.0364,-0.37303 0.0319,-0.56046 0.25606,-0.616801 0.432849,-0.10877 0.428039,-0.4382 1.185499,0.30753 0.38313,0.37719 0.62096,1.25448 0.97558,2.01251 0.29989,0.641031 0.71186,1.13015 1.07273,1.843367 0.29527,0.58357 0.47107,0.88014 0.89094,0.91244 0.61839,0.0476 1.34781,-0.26636 0.96075,-0.57592 -0.1922,-0.15371 -2.05917,-7.892167 -1.0671,-9.252307 0.21049,-0.28859 0.91113,-0.0619 1.27962,0.40255 0.37797,0.4764 0.42125,1.200491 0.42125,1.67632 0,0.4689 1.50896,7.515227 2.55135,6.472837 0.14,-0.139987 0.25799,0.008 0.35887,-0.289927 0.58362,-1.724679 0.35779,-6.06348 0.4544,-8.29118 0.0412,-0.94954 0.90481,-1.3837 1.26559,-1.29351 0.34753,0.0869 0.72265,0.49613 0.89177,1.19983 0.17038,0.70892 -0.0334,1.749081 0.0246,2.75489 0.16386,2.84592 0.18237,6.185767 0.50109,6.345127 1.63425,0.81712 2.69076,-2.345637 3.48283,-4.280097 0.24762,-0.60481 0.33577,-2.058399 0.54128,-2.263899 0.299,-0.299001 0.23128,-0.21624 0.53929,-0.41515 0.36724,-0.237221 0.76773,0.0732 0.97675,0.256239 0.24671,0.21594 0.33839,0.33765 0.37518,0.89402 0.0788,1.19096 -0.50149,2.56423 -0.50149,2.71252 0,0.30154 -0.2974,1.48635 -0.25385,1.36365 0.14798,-0.41691 -0.31898,1.377187 -0.37142,1.779057 -0.26862,2.05829 -0.11392,-0.28726 -0.1727,1.83986 -0.0332,1.19953 0.22127,1.88476 0.32121,2.13463 0.0537,2.16245 0.56078,-0.43418 -0.3022,3.43961 -0.51189,1.43001 -1.07509,1.77652 -1.76693,3.03308 -0.67711,1.22983 -0.9239,1.91214 -2.17213,2.95232 -0.52525,0.43769 -0.95951,2.33027 -0.88709,3.59925 0.0331,0.57916 0.20508,0.98944 0.002,1.19228 -0.32879,0.3288 -3.448511,0.5497 -3.831171,0.16704 -0.45696,-0.45696 -3.3792,-1.3e-4 -4.08579,0.0894 -0.4059,0.0515 -1.48013,-0.53996 -0.682,-0.53996 z" />
    <path
       id="path181-2-4-6"
       style="display:inline;fill:none;stroke:#000000;stroke-width:0.264583px;stroke-linecap:butt;stroke-linejoin:miter;stroke-opacity:1"
       d="m 48.431175,137.69915 c 0.29493,-1.25768 1.51659,-2.7281 3.14626,-1.91327 m -0.38266,4.84694 c -0.002,-0.41748 0.2248,-1.33741 0.42244,-1.53389 0.19937,-0.19825 0.71148,-0.0534 1.10822,0.0458 m 4.804383,2.55102 c -1.570053,2.47981 -4.237703,-0.24085 -2.848643,-0.93537 m 3.018713,-4.42177 c -0.15185,0.71115 -0.29514,1.44061 -0.59525,2.04082 -0.3555,0.71099 -1.992303,2.70891 -3.103733,2.33843 -1.40128,-0.4671 -1.49728,-1.52143 -0.59524,-2.42347 m 1.23299,-3.91156 c -0.0119,0.46504 -3e-5,0.85179 -3e-5,1.31803 0,0.38002 -0.009,0.69755 -0.17007,1.0204 -0.3746,0.74919 -0.5913,1.61565 -1.70068,1.61565 -0.1747,0 0.0164,0.011 -0.12756,-0.085 -1.05626,-0.70417 -1.36565,-2.45577 -0.80782,-3.57143 0.20824,-0.41649 -0.94824,-0.46028 -0.46769,-0.34014 m 9.141203,7.18538 c -0.0751,3.18034 -1.37802,6.07838 -1.7432,9.14116 -0.035,0.29337 -0.3332,2.12758 0,2.21088 -2.02647,0.15006 -4.078473,-0.085 -6.079933,-0.085 -0.74724,0 -1.99606,0.0856 -2.50851,-0.0425 m 10e-6,0.085 c -0.37522,-1.61466 0.41023,-3.72886 -0.34014,-5.22959 -0.77258,-1.54515 -1.7433,-3.14678 -2.08333,-4.84694 -0.70214,-2.42355 -0.22679,-2.2714 0.5102,-4.03911 0.25888,-0.6472 0.16249,-1.46538 0.38265,-2.12585 0.43134,-1.29403 1.27921,-2.59847 1.65816,-3.10375 0.0528,-0.39921 1.65444,-1.77613 2.29592,-1.53061 0.66997,0.25642 1.6586,0.79811 1.79212,1.65476 0.0518,0.33228 0.29469,0.60346 0.29122,0.89626 0.22891,-0.0894 0.26045,-0.26045 0.38265,-0.68027 0.41172,-1.41443 2.402183,-0.71943 2.640993,0.59432 0.11538,0.63474 -0.0992,1.50815 -0.09,1.9567 1.55985,-0.9629 3.26626,1.02796 2.21087,2.08334 1.12386,-0.4954 1.80931,1.9747 1.14796,2.63605 -0.11876,0.11876 -0.56303,0.83197 -1.0317,1.34385 -0.55008,0.60078 -1.13376,1.00449 -1.26421,1.0371 -0.31315,0.0783 -1.82824,0.2693 -1.82824,-0.34013 0,-1.41463 2.55537,-2.99344 2.97619,-4.67687"
       sodipodi:nodetypes="cccsccccssccscscsccscsccsccscsscssccssssc" />
  </g>
</svg>
