<?xml version="1.0" encoding="UTF-8" standalone="no"?>
<svg
   xmlns:dc="http://purl.org/dc/elements/1.1/"
   xmlns:cc="http://creativecommons.org/ns#"
   xmlns:rdf="http://www.w3.org/1999/02/22-rdf-syntax-ns#"
   xmlns:svg="http://www.w3.org/2000/svg"
   xmlns="http://www.w3.org/2000/svg"
   xmlns:sodipodi="http://sodipodi.sourceforge.net/DTD/sodipodi-0.dtd"
   xmlns:inkscape="http://www.inkscape.org/namespaces/inkscape"
   width="66.718872mm"
   height="100.92324mm"
   viewBox="0 0 66.718872 100.92324"
   version="1.1"
   id="svg45"
   inkscape:version="1.0.1 (c497b03c, 2020-09-10)"
   sodipodi:docname="170 Fingers 4 Plus 2 Counting On.svg">
  <defs
     id="defs39" />
  <sodipodi:namedview
     id="base"
     pagecolor="#ffffff"
     bordercolor="#666666"
     borderopacity="1.0"
     inkscape:pageopacity="0.0"
     inkscape:pageshadow="2"
     inkscape:zoom="0.98994949"
     inkscape:cx="333.88959"
     inkscape:cy="292.07895"
     inkscape:document-units="mm"
     inkscape:current-layer="layer1"
     inkscape:document-rotation="0"
     showgrid="true"
     inkscape:snap-global="false"
     inkscape:window-width="1252"
     inkscape:window-height="943"
     inkscape:window-x="319"
     inkscape:window-y="43"
     inkscape:window-maximized="0"
     fit-margin-top="1"
     fit-margin-left="1"
     fit-margin-right="1"
     fit-margin-bottom="1">
    <inkscape:grid
       type="xygrid"
       id="grid119"
       originx="-23.53933"
       originy="-9.6553025" />
  </sodipodi:namedview>
  <metadata
     id="metadata42">
    <rdf:RDF>
      <cc:Work
         rdf:about="">
        <dc:format>image/svg+xml</dc:format>
        <dc:type
           rdf:resource="http://purl.org/dc/dcmitype/StillImage" />
        <dc:title></dc:title>
      </cc:Work>
    </rdf:RDF>
  </metadata>
  <g
     inkscape:label="Layer 1"
     inkscape:groupmode="layer"
     id="layer1"
     transform="translate(-23.539331,-9.6553025)">
    <g
       id="g224">
      <g
         id="g208">
        <g
           id="g141">
          <path
             id="path54-4"
             style="display:inline;fill:none;stroke:#000000;stroke-width:0.264583px;stroke-linecap:butt;stroke-linejoin:miter;stroke-opacity:1"
             d="m 52.816348,26.177766 c 0.0681,-0.437681 0.24811,-0.82988 0.29762,-1.27551 0.40314,-3.62826 5.95065,-4.92677 4.84694,-1.61565 -0.0732,0.21952 -0.68133,0.55378 -0.80782,0.68028 -1.57659,1.57658 -1.14796,1.09171 -1.14796,3.61394 m 10.663497,11.47422 c 0.23554,0 -0.0112,-1.64097 -0.12405,-2.46237 -0.18049,-1.31386 -0.33075,-2.60773 0.0295,-3.86873 0.25955,-0.9084 0.24895,-1.94079 0.47247,-2.83484 0.38927,-1.55712 -0.43298,-4.87447 0.47246,-6.14211 0.57516,-0.80522 1.21465,-3.009241 2.16739,-4.67936 0.20232,-0.354661 0.25801,-1.1564 0.21721,-1.57423 -0.0364,-0.37303 -0.0319,-0.56046 -0.25606,-0.616801 -0.43285,-0.108769 -0.42804,-0.4382 -1.1855,0.30753 -0.38313,0.37719 -0.62096,1.254481 -0.97558,2.01251 -0.29989,0.641031 -0.71186,1.13015 -1.07273,1.84337 -0.29527,0.583571 -0.47107,0.880141 -0.89094,0.91244 -0.61839,0.0476 -1.34781,-0.26636 -0.96075,-0.575919 0.1922,-0.15371 2.05917,-7.892171 1.0671,-9.252311 -0.21049,-0.28859 -0.91113,-0.0619 -1.27962,0.40255 -0.37797,0.4764 -0.42125,1.200491 -0.42125,1.67632 0,0.468901 -1.50896,7.515231 -2.55135,6.472841 -0.14,-0.13999 -0.25799,0.008 -0.35887,-0.289931 -0.58362,-1.724679 -0.35779,-6.06348 -0.4544,-8.29118 -0.0412,-0.94954 -0.90481,-1.3837 -1.265587,-1.29351 -0.34753,0.0869 -0.72265,0.49613 -0.89177,1.19983 -0.17038,0.70892 0.0334,1.749081 -0.0246,2.75489 -0.16386,2.84592 -0.18237,6.185771 -0.50109,6.34513 -1.63425,0.817121 -2.690761,-2.345639 -3.48283,-4.2801 -0.24762,-0.60481 -0.33577,-2.058399 -0.54128,-2.263899 -0.299,-0.299 -0.23128,-0.21624 -0.53929,-0.41515 -0.36724,-0.237221 -0.767731,0.0732 -0.976751,0.25624 -0.24671,0.215939 -0.33839,0.337649 -0.37518,0.894019 -0.0788,1.19096 0.50149,2.56423 0.50149,2.71252 0,0.30154 0.2974,1.48635 0.25385,1.36365 -0.14798,-0.41691 0.318981,1.377191 0.371421,1.779061 0.26862,2.058289 0.11392,-0.287261 0.1727,1.839859 0.0332,1.199531 -0.22127,1.884761 -0.32121,2.13462 -0.0537,2.162451 -0.560781,-0.434169 0.3022,3.439611 0.51189,1.43 1.07509,1.77652 1.76693,3.03308 0.67711,1.22983 0.923899,1.91214 2.17213,2.95231 0.52525,0.43769 0.95951,2.33027 0.887089,3.59925 -0.0331,0.57916 -0.205079,0.989439 -0.002,1.192279 0.32879,0.3288 3.448508,0.549701 3.831168,0.167042 0.45696,-0.456962 3.3792,-1.32e-4 4.08579,0.0894 0.4059,0.0515 1.48013,-0.539959 0.682,-0.539959 z" />
          <path
             style="display:inline;fill:none;stroke:#000000;stroke-width:0.264583px;stroke-linecap:butt;stroke-linejoin:miter;stroke-opacity:1"
             d="m 66.680162,73.548844 c 0.23554,0 -0.0112,-1.64097 -0.12405,-2.462359 -0.18049,-1.31386 -0.33075,-2.60774 0.0295,-3.86874 0.25955,-0.9084 0.24895,-1.94079 0.47247,-2.83483 0.38927,-1.55712 -0.43298,-4.87447 0.47246,-6.14211 0.57516,-0.80522 1.21465,-3.009241 2.16739,-4.67936 0.20232,-0.35466 0.25801,-1.1564 0.21721,-1.57423 -0.0364,-0.37303 -0.0319,-0.56046 -0.25606,-0.6168 -0.43285,-0.10877 -0.42804,-0.4382 -1.1855,0.30753 -0.38313,0.37719 -0.62096,1.25448 -0.97558,2.01251 -0.29989,0.64103 -0.71186,1.13015 -1.07273,1.843369 -0.29527,0.583571 -0.47107,0.880141 -0.89094,0.91244 -0.61839,0.0476 -1.34781,-0.26636 -0.96075,-0.575919 0.1922,-0.15371 2.05917,-7.89217 1.0671,-9.25231 -0.21049,-0.28859 -0.91113,-0.0619 -1.27962,0.40255 -0.37797,0.4764 -0.42125,1.20049 -0.42125,1.67632 0,0.4689 -1.50896,7.51523 -2.55135,6.47284 -0.14,-0.13999 -0.25799,0.008 -0.35887,-0.28993 -0.58362,-1.72468 -0.35779,-6.06348 -0.4544,-8.29118 -0.0412,-0.94954 -0.90481,-1.3837 -1.265592,-1.29351 -0.34753,0.0869 -0.72265,0.49613 -0.89177,1.19983 -0.17038,0.70892 0.0334,1.74908 -0.0246,2.75489 -0.16386,2.84592 -0.18237,6.18577 -0.50109,6.345129 -1.63425,0.817121 -2.69076,-2.345639 -3.48283,-4.280099 -0.24762,-0.60481 -0.33577,-2.0584 -0.54128,-2.2639 -0.299,-0.299 -0.23128,-0.21624 -0.53929,-0.41515 -0.36724,-0.23722 -0.76773,0.0732 -0.97675,0.25624 -0.24671,0.21594 -0.33839,0.33765 -0.37518,0.89402 -0.0788,1.19096 0.50149,2.56423 0.50149,2.71252 0,0.30154 0.17921,0.66014 0.29637,0.98099 0.11366,0.31123 0.16302,0.58498 0.31129,0.86255 0.921,1.724189 2.56186,3.4265 2.06585,5.41056 -0.0653,0.261089 -0.18355,0.50608 -0.28349,0.755949 -0.1739,0.434761 -0.85008,-0.519339 -1.18117,-0.850449 -0.78563,-0.78562 -1.646341,-1.27975 -2.90974,-1.700891 -0.63687,-0.212289 -1.69951,0.294631 -2.07155,0.76547 -0.31592,0.399801 -0.33437,0.741821 -0.2032,1.026641 0.10398,0.225729 0.88229,0.352589 1.02539,0.281029 0.28774,-0.143879 0.74776,0.425191 0.95983,0.687111 0.24568,0.30341 0.272,0.33171 0.5537,0.547329 1.47747,1.130881 2.24553,3.426641 3.25982,4.440931 1.05977,1.05976 1.64669,2.29479 2.89492,3.33497 0.52525,0.43769 0.95951,2.33027 0.88709,3.59924 -0.0331,0.579159 -0.20508,0.989441 -0.002,1.192281 0.32879,0.328798 3.448512,0.549698 3.831172,0.167039 0.45696,-0.456961 3.3792,-1.29e-4 4.08579,0.0894 0.4059,0.0515 1.48013,-0.539961 0.682,-0.539961 z"
             id="path1804-5-8"
             sodipodi:nodetypes="ssssssssssssssssssssssssssssssssssssssssssssssss" />
          <path
             style="display:inline;fill:none;stroke:#000000;stroke-width:0.264583px;stroke-linecap:butt;stroke-linejoin:miter;stroke-opacity:1"
             d="m 66.145833,108.47917 c 0.23554,0 -0.0112,-1.64097 -0.12405,-2.46235 -0.18049,-1.31386 -0.33075,-2.60774 0.0295,-3.86874 0.25955,-0.9084 0.24895,-1.94079 0.47247,-2.834833 0.38927,-1.55712 -0.43298,-4.87447 0.47246,-6.14211 0.57516,-0.80522 1.21465,-3.00925 2.16739,-4.67937 0.20232,-0.35466 0.25801,-1.1564 0.21721,-1.57423 -0.0364,-0.37303 -0.0319,-0.56046 -0.25606,-0.6168 -0.43285,-0.10877 -0.42804,-0.4382 -1.1855,0.30753 -0.38313,0.37719 -0.62096,1.25448 -0.97558,2.01251 -0.29989,0.64103 -0.71186,1.13015 -1.07273,1.84337 -0.29527,0.58358 -0.47107,0.88015 -0.89094,0.91244 -0.61839,0.0476 -1.34781,-0.26636 -0.96075,-0.57591 0.1922,-0.15371 2.05917,-7.89218 1.0671,-9.25232 -0.21049,-0.28859 -0.91113,-0.0619 -1.27962,0.40255 -0.37797,0.4764 -0.42125,1.20049 -0.42125,1.67632 0,0.4689 -1.50896,7.51524 -2.55135,6.47285 -0.14,-0.14 -0.25799,0.008 -0.35887,-0.28994 -0.58362,-1.72468 -0.35779,-6.06348 -0.4544,-8.29118 -0.0412,-0.94954 -0.90481,-1.3837 -1.26559,-1.29351 -0.34753,0.0869 -0.72265,0.49613 -0.89177,1.19983 -0.17038,0.70892 0.0334,1.74908 -0.0246,2.75489 -0.16386,2.84592 -0.18237,6.18578 -0.50109,6.34513 -1.63425,0.81713 -2.69076,-2.34564 -3.48283,-4.2801 -0.24762,-0.60481 -0.33577,-2.0584 -0.54128,-2.2639 -0.299,-0.299 -0.23128,-0.21624 -0.53929,-0.41515 -0.36724,-0.23722 -0.76773,0.0732 -0.97675,0.25624 -0.24671,0.21594 -0.33839,0.33765 -0.37518,0.89402 -0.0788,1.19096 0.50149,2.56423 0.50149,2.71252 0,0.30154 0.17921,0.66014 0.29637,0.98099 0.11366,0.31123 0.16302,0.58498 0.31129,0.86255 0.921,1.72419 2.56186,3.42651 2.06585,5.41057 -0.0653,0.26108 -0.18355,0.50608 -0.28349,0.75594 -0.1739,0.43477 -0.85008,-0.51933 -1.18117,-0.85044 -0.78563,-0.78562 -1.64634,-1.27975 -2.909739,-1.7009 -0.63687,-0.21228 -1.69951,0.29464 -2.07155,0.76547 -0.31592,0.39981 -0.33437,0.74183 -0.2032,1.02665 0.10398,0.22572 0.88229,0.35258 1.02539,0.28102 0.28774,-0.14387 0.74776,0.4252 0.95983,0.68712 0.24568,0.30341 0.272,0.33171 0.5537,0.54732 1.477469,1.13089 2.245529,3.42665 3.259819,4.440943 1.05977,1.05976 1.64669,2.29479 2.89492,3.33497 0.52525,0.43769 0.95951,2.33027 0.88709,3.59924 -0.0331,0.57915 -0.20508,0.98944 -0.002,1.19228 0.32879,0.32879 3.44851,0.54969 3.83117,0.16704 0.45696,-0.45697 3.3792,-1.3e-4 4.08579,0.0894 0.4059,0.0515 1.48013,-0.53997 0.682,-0.53997 z"
             id="path1804-5-8-8"
             sodipodi:nodetypes="ssssssssssssssssssssssssssssssssssssssssssssssss" />
          <path
             id="path181-2"
             style="display:inline;fill:none;stroke:#000000;stroke-width:0.264583px;stroke-linecap:butt;stroke-linejoin:miter;stroke-opacity:1"
             d="m 38.2905,23.99221 c -0.29493,-1.257678 -1.51659,-2.7281 -3.14626,-1.913265 m 0.38266,4.846938 c 0.002,-0.417475 -0.2248,-1.337404 -0.42244,-1.533888 -0.19937,-0.198251 -0.71148,-0.05339 -1.10822,0.04579 m -4.80438,2.551022 c 1.57005,2.479806 4.2377,-0.240845 2.84864,-0.935373 m -3.01871,-4.421768 c 0.15185,0.711152 0.29514,1.44061 0.59525,2.040815 0.3555,0.711001 1.9923,2.708914 3.10373,2.338434 1.40128,-0.467093 1.49728,-1.521431 0.59524,-2.423469 m -1.23299,-3.911563 c 0.0119,0.465042 3e-5,0.851792 3e-5,1.318027 0,0.380021 0.009,0.69755 0.17007,1.020408 0.3746,0.749189 0.5913,1.615645 1.70068,1.615645 0.1747,0 -0.0164,0.01096 0.12756,-0.08504 1.05626,-0.704173 1.36565,-2.455765 0.80782,-3.571428 -0.20824,-0.416483 0.94824,-0.460274 0.46769,-0.340138 m -9.1412,7.185384 c 0.0751,3.180337 1.37802,6.078374 1.7432,9.141157 0.035,0.293368 0.3332,2.127583 0,2.210882 2.02647,0.150056 4.07847,-0.08503 6.07993,-0.08503 0.74724,0 1.99606,0.08559 2.50851,-0.04252 m -1e-5,0.08503 c 0.37522,-1.614665 -0.41023,-3.72886 0.34014,-5.229593 0.77258,-1.545153 1.7433,-3.146777 2.08333,-4.846939 0.70214,-2.423548 0.22679,-2.271401 -0.5102,-4.039115 -0.25888,-0.6472 -0.16249,-1.46538 -0.38265,-2.12585 -0.43134,-1.294029 -1.27921,-2.598463 -1.65816,-3.103741 -0.0528,-0.399209 -1.65444,-1.776131 -2.29592,-1.530613 -0.66997,0.256424 -1.6586,0.798112 -1.79212,1.654757 -0.0518,0.332283 -0.29469,0.603462 -0.29122,0.896264 -0.22891,-0.0894 -0.26045,-0.260453 -0.38265,-0.680272 -0.41172,-1.414425 -2.40218,-0.719425 -2.64099,0.594316 -0.11538,0.634739 0.0992,1.508146 0.09,1.956704 -1.55985,-0.962907 -3.26626,1.027953 -2.21087,2.083333 -1.12386,-0.495392 -1.80931,1.974702 -1.14796,2.636055 0.11876,0.118758 0.56303,0.831967 1.0317,1.343848 0.55008,0.600784 1.13376,1.004491 1.26421,1.037105 0.31315,0.07829 1.82824,0.269298 1.82824,-0.340136 0,-1.414626 -2.55537,-2.993431 -2.97619,-4.676872"
             sodipodi:nodetypes="cccsccccssccscscsccscsccsccscsscssccssssc" />
          <path
             id="path181-2-9"
             style="display:inline;fill:none;stroke:#000000;stroke-width:0.264583px;stroke-linecap:butt;stroke-linejoin:miter;stroke-opacity:1"
             d="m 38.194675,58.975021 c -0.29493,-1.257678 -1.51659,-2.7281 -3.146261,-1.913265 m 0.382661,4.846938 c 0.002,-0.417474 -0.224801,-1.337403 -0.422441,-1.533888 -0.19937,-0.198251 -0.71148,-0.05339 -1.10822,0.04579 m -4.80438,2.551022 c 1.57005,2.479806 4.2377,-0.240845 2.84864,-0.935373 m -3.01871,-4.421768 c 0.15185,0.711152 0.29514,1.440611 0.59525,2.040815 0.3555,0.711001 1.9923,2.708914 3.10373,2.338435 1.40128,-0.467094 1.49728,-1.521432 0.59524,-2.42347 m -1.23299,-3.911563 c 0.0119,0.465043 3e-5,0.851792 3e-5,1.318027 0,0.380021 0.009,0.69755 0.17007,1.020408 0.3746,0.74919 0.5913,1.615645 1.70068,1.615645 0.1747,0 -0.0164,0.01096 0.12756,-0.08504 1.05626,-0.704172 1.365651,-2.455765 0.80782,-3.571428 -0.20824,-0.416483 0.948241,-0.460274 0.467691,-0.340138 m -9.141201,7.185384 c 0.0751,3.180337 1.37802,6.078374 1.7432,9.141157 0.035,0.293368 0.3332,2.127583 0,2.210882 2.02647,0.150056 4.07847,-0.08503 6.07993,-0.08503 0.74724,0 1.996061,0.08559 2.508511,-0.04252 m -10e-6,0.08503 c 0.37522,-1.614665 -0.41023,-3.72886 0.34014,-5.229593 0.77258,-1.545153 1.7433,-3.146777 2.08333,-4.846939 0.70214,-2.423548 0.22679,-2.271401 -0.5102,-4.039115 -0.25888,-0.6472 -0.16249,-1.46538 -0.38265,-2.12585 -0.43134,-1.294029 -1.27921,-2.598463 -1.65816,-3.103741 -0.0528,-0.399209 -1.654441,-1.776131 -2.295921,-1.530613 -0.66997,0.256424 -1.6586,0.798112 -1.79212,1.654757 -0.0518,0.332283 -0.29469,0.603462 -0.29122,0.896264 -0.22891,-0.0894 -0.26045,-0.260453 -0.38265,-0.680272 -0.41172,-1.414425 -2.40218,-0.719425 -2.64099,0.594316 -0.11538,0.634739 0.0992,1.508146 0.09,1.956705 -1.55985,-0.962908 -3.26626,1.027952 -2.21087,2.083332 -1.12386,-0.495392 -1.80931,1.974702 -1.14796,2.636056 0.11876,0.118757 0.56303,0.831966 1.0317,1.343847 0.55008,0.600784 1.13376,1.004491 1.264211,1.037105 0.31315,0.07829 1.828239,0.269298 1.828239,-0.340136 0,-1.414626 -2.55537,-2.993431 -2.97619,-4.676872"
             sodipodi:nodetypes="cccsccccssccscscsccscsccsccscsscssccssssc" />
          <path
             id="path132-9-0"
             style="display:inline;fill:none;stroke:#000000;stroke-width:0.264583px;stroke-linecap:butt;stroke-linejoin:miter;stroke-opacity:1"
             d="m 25.179059,97.424827 c 0.17418,1.24675 2.23512,3.926943 2.79596,1.68359 m -1.89404,-5.17102 c 0.0689,0.97579 1.8189,5.734727 2.49533,6.072943 0.76724,0.38361 1.34763,-0.323716 1.71364,-0.811733 m -1.59338,-7.09512 c 0.11779,1.38392 0.0445,2.71911 0.45095,3.9384 0.1532,0.45958 0.40813,1.35372 0.54115,1.74371 0.17276,0.50654 0.31628,1.02338 0.57122,1.53327 0.12434,0.248667 0.4428,0.300637 0.69147,0.300637 0.81896,0 1.157201,-0.570127 1.32282,-1.232617 m -6.25333,10.853123 c -0.19092,-0.74392 0.37541,-2.78133 0.1804,-3.39724 -0.42425,-1.33999 -1.02218,-6.652103 -1.02218,-8.357813 -0.14075,-0.34441 -0.27749,-0.57759 -0.38434,-1.03984 -0.33298,-1.44053 -0.002,-3.61582 1.28625,-2.32733 -0.2825,-1.73996 1.59405,-3.57677 2.61558,-1.89404 0.0298,-1.46908 2.916211,-1.93756 2.916211,-0.45096 -0.115261,2.07497 -0.0233,4.33792 0.541149,6.31345 0.22668,0.79338 1.26783,0.50724 1.74372,0.15032 0.54024,-0.40518 0.42547,-2.10711 0.330701,-2.6757 -0.254091,-1.52457 -0.082,-1.56333 0.992119,-1.56333 m -3.54755,-2.19468 c 2.15335,-2.9661 4.94916,0.67352 5.66455,3.67773 0.0536,0.22524 0.0337,0.64151 0.121411,0.83916 0.0899,0.20254 0.10659,0.33637 0.10659,0.53388 0.685619,0.0312 0.931899,-0.48095 1.32281,-0.87186 0.98366,-0.98366 2.31775,-2.53628 4.14884,-1.80384 0.14807,0.0592 1.084,0.33282 1.441669,0.89199 0.145111,0.22686 0.230821,0.79716 -0.0587,0.94191 -0.59358,0.29679 -1.089621,-0.44364 -2.16461,0.63135 -2.49085,2.49085 -4.44798,5.867303 -7.33563,8.177433 -1.110911,1.08774 -0.390961,3.09719 -0.66141,4.44948 -2.636291,0.16632 -6.115931,0.32812 -8.207491,-0.0902"
             sodipodi:nodetypes="cccsccssssccscscccsssccsscsssssccc" />
        </g>
        <text
           xml:space="preserve"
           style="font-size:4.23333px;line-height:1.25;font-family:Chalkboard;-inkscape-font-specification:Chalkboard;text-align:center;letter-spacing:0px;word-spacing:-0.264583px;text-anchor:middle;stroke-width:0.264583"
           x="85.258972"
           y="31.516315"
           id="text145"><tspan
             sodipodi:role="line"
             id="tspan143"
             x="85.258972"
             y="31.516315"
             style="font-size:14.1111px;stroke-width:0.264583">0</tspan></text>
        <text
           xml:space="preserve"
           style="font-size:4.23333px;line-height:1.25;font-family:Chalkboard;-inkscape-font-specification:Chalkboard;text-align:center;letter-spacing:0px;word-spacing:-0.264583px;text-anchor:middle;stroke-width:0.264583"
           x="85.539314"
           y="65.984764"
           id="text145-4"><tspan
             sodipodi:role="line"
             id="tspan143-8"
             x="85.539314"
             y="65.984764"
             style="font-size:14.1111px;stroke-width:0.264583">1</tspan></text>
        <text
           xml:space="preserve"
           style="font-size:4.23333px;line-height:1.25;font-family:Chalkboard;-inkscape-font-specification:Chalkboard;text-align:center;letter-spacing:0px;word-spacing:-0.264583px;text-anchor:middle;stroke-width:0.264583"
           x="85.550064"
           y="101.01318"
           id="text145-0"><tspan
             sodipodi:role="line"
             id="tspan143-3"
             x="85.550064"
             y="101.01318"
             style="font-size:14.1111px;stroke-width:0.264583">2</tspan></text>
      </g>
    </g>
  </g>
</svg>
