<?xml version="1.0" encoding="UTF-8" standalone="no"?>
<!-- Created with Inkscape (http://www.inkscape.org/) -->

<svg
   width="34.294018mm"
   height="34.127796mm"
   viewBox="0 0 34.294018 34.127796"
   version="1.1"
   id="svg945"
   inkscape:version="1.1 (c4e8f9e, 2021-05-24)"
   sodipodi:docname="130 Whats Missing.svg"
   xmlns:inkscape="http://www.inkscape.org/namespaces/inkscape"
   xmlns:sodipodi="http://sodipodi.sourceforge.net/DTD/sodipodi-0.dtd"
   xmlns="http://www.w3.org/2000/svg"
   xmlns:svg="http://www.w3.org/2000/svg">
  <sodipodi:namedview
     id="namedview947"
     pagecolor="#ffffff"
     bordercolor="#666666"
     borderopacity="1.0"
     inkscape:pageshadow="2"
     inkscape:pageopacity="0.0"
     inkscape:pagecheckerboard="0"
     inkscape:document-units="mm"
     showgrid="false"
     inkscape:zoom="1.8973437"
     inkscape:cx="33.994895"
     inkscape:cy="140.98658"
     inkscape:window-width="1312"
     inkscape:window-height="997"
     inkscape:window-x="392"
     inkscape:window-y="25"
     inkscape:window-maximized="0"
     inkscape:current-layer="layer1"
     inkscape:snap-global="false"
     fit-margin-left="1"
     fit-margin-top="1"
     fit-margin-right="1"
     fit-margin-bottom="1" />
  <defs
     id="defs942" />
  <g
     inkscape:label="Layer 1"
     inkscape:groupmode="layer"
     id="layer1"
     transform="translate(-125.45812,-133.88901)">
    <g
       id="g852-3-1-5-9-5"
       transform="matrix(0.05077757,0,0,0.08470595,142.99089,155.04302)"
       style="fill:none;stroke:#000000;stroke-width:1.91687;stroke-miterlimit:4;stroke-dasharray:none;stroke-opacity:1">
      <ellipse
         style="fill:none;fill-opacity:1;stroke:#000000;stroke-width:1.91687;stroke-miterlimit:4;stroke-dasharray:none;stroke-opacity:1;paint-order:fill markers stroke"
         id="path833-6-5-7-8-0"
         ry="10.016369"
         rx="17.764881"
         cy="70.469635"
         cx="67.925011" />
      <path
         style="fill:none;fill-opacity:1;stroke:#000000;stroke-width:1.91687;stroke-miterlimit:4;stroke-dasharray:none;stroke-opacity:1;paint-order:fill markers stroke"
         id="path835-2-0-2-3-4"
         sodipodi:type="arc"
         sodipodi:cx="68.012787"
         sodipodi:cy="67.035416"
         sodipodi:rx="9.0714293"
         sodipodi:ry="6.9372058"
         sodipodi:start="0.41873619"
         sodipodi:end="2.7436473"
         sodipodi:arc-type="arc"
         sodipodi:open="true"
         d="m 76.300477,69.856126 a 9.0714293,6.9372058 0 0 1 -8.38199,4.116121 9.0714293,6.9372058 0 0 1 -8.26828,-4.24849" />
      <path
         style="fill:none;fill-opacity:1;stroke:#000000;stroke-width:1.91687;stroke-miterlimit:4;stroke-dasharray:none;stroke-opacity:1;paint-order:fill markers stroke"
         id="path837-2-3-2-5-2"
         sodipodi:type="arc"
         sodipodi:cx="67.978737"
         sodipodi:cy="-72.530098"
         sodipodi:rx="6.4160981"
         sodipodi:ry="4.7247024"
         sodipodi:start="0.16047614"
         sodipodi:end="2.9805176"
         sodipodi:open="true"
         sodipodi:arc-type="arc"
         transform="scale(1,-1)"
         d="m 74.312397,-71.775146 a 6.4160981,4.7247024 0 0 1 -6.331739,3.96975 6.4160981,4.7247024 0 0 1 -6.334966,-3.966957" />
    </g>
    <g
       id="g852-3-1-5-9-5-5"
       transform="matrix(0.05077757,0,0,0.08470595,128.88633,156.84276)"
       style="fill:none;stroke:#000000;stroke-width:4.0343128;stroke-miterlimit:4;stroke-dasharray:none;stroke-opacity:1">
      <ellipse
         style="fill:none;fill-opacity:1;stroke:#000000;stroke-width:4.0343128;stroke-miterlimit:4;stroke-dasharray:none;stroke-opacity:1;paint-order:fill markers stroke"
         id="path833-6-5-7-8-0-1"
         ry="10.016369"
         rx="17.764881"
         cy="70.469635"
         cx="67.925011" />
      <path
         style="fill:none;fill-opacity:1;stroke:#000000;stroke-width:4.0343128;stroke-miterlimit:4;stroke-dasharray:none;stroke-opacity:1;paint-order:fill markers stroke"
         id="path835-2-0-2-3-4-2"
         sodipodi:type="arc"
         sodipodi:cx="68.012787"
         sodipodi:cy="67.035416"
         sodipodi:rx="9.0714293"
         sodipodi:ry="6.9372058"
         sodipodi:start="0.41873619"
         sodipodi:end="2.7436473"
         sodipodi:arc-type="arc"
         sodipodi:open="true"
         d="m 76.300477,69.856126 a 9.0714293,6.9372058 0 0 1 -8.38199,4.116121 9.0714293,6.9372058 0 0 1 -8.26828,-4.24849" />
      <path
         style="fill:none;fill-opacity:1;stroke:#000000;stroke-width:4.0343128;stroke-miterlimit:4;stroke-dasharray:none;stroke-opacity:1;paint-order:fill markers stroke"
         id="path837-2-3-2-5-2-0"
         sodipodi:type="arc"
         sodipodi:cx="67.978737"
         sodipodi:cy="-72.530098"
         sodipodi:rx="6.4160981"
         sodipodi:ry="4.7247024"
         sodipodi:start="0.16047614"
         sodipodi:end="2.9805176"
         sodipodi:open="true"
         sodipodi:arc-type="arc"
         transform="scale(1,-1)"
         d="m 74.312397,-71.775146 a 6.4160981,4.7247024 0 0 1 -6.331739,3.96975 6.4160981,4.7247024 0 0 1 -6.334966,-3.966957" />
    </g>
    <g
       id="g852-3-1-5-9-5-5-1"
       transform="matrix(0.05077757,0,0,0.08470595,123.95978,152.19938)"
       style="fill:none;stroke:#000000;stroke-width:4.0343128;stroke-miterlimit:4;stroke-dasharray:none;stroke-opacity:1">
      <ellipse
         style="fill:none;fill-opacity:1;stroke:#000000;stroke-width:4.0343128;stroke-miterlimit:4;stroke-dasharray:none;stroke-opacity:1;paint-order:fill markers stroke"
         id="path833-6-5-7-8-0-1-2"
         ry="10.016369"
         rx="17.764881"
         cy="70.469635"
         cx="67.925011" />
      <path
         style="fill:none;fill-opacity:1;stroke:#000000;stroke-width:4.0343128;stroke-miterlimit:4;stroke-dasharray:none;stroke-opacity:1;paint-order:fill markers stroke"
         id="path835-2-0-2-3-4-2-5"
         sodipodi:type="arc"
         sodipodi:cx="68.012787"
         sodipodi:cy="67.035416"
         sodipodi:rx="9.0714293"
         sodipodi:ry="6.9372058"
         sodipodi:start="0.41873619"
         sodipodi:end="2.7436473"
         sodipodi:arc-type="arc"
         sodipodi:open="true"
         d="m 76.300477,69.856126 a 9.0714293,6.9372058 0 0 1 -8.38199,4.116121 9.0714293,6.9372058 0 0 1 -8.26828,-4.24849" />
      <path
         style="fill:none;fill-opacity:1;stroke:#000000;stroke-width:4.0343128;stroke-miterlimit:4;stroke-dasharray:none;stroke-opacity:1;paint-order:fill markers stroke"
         id="path837-2-3-2-5-2-0-2"
         sodipodi:type="arc"
         sodipodi:cx="67.978737"
         sodipodi:cy="-72.530098"
         sodipodi:rx="6.4160981"
         sodipodi:ry="4.7247024"
         sodipodi:start="0.16047614"
         sodipodi:end="2.9805176"
         sodipodi:open="true"
         sodipodi:arc-type="arc"
         transform="scale(1,-1)"
         d="m 74.312397,-71.775146 a 6.4160981,4.7247024 0 0 1 -6.331739,3.96975 6.4160981,4.7247024 0 0 1 -6.334966,-3.966957" />
    </g>
    <g
       id="g852-3-1-5-9-5-5-9"
       transform="matrix(0.05077757,0,0,0.08470595,147.48281,153.23174)"
       style="fill:none;stroke:#000000;stroke-width:1.91687;stroke-miterlimit:4;stroke-dasharray:none;stroke-opacity:1">
      <ellipse
         style="fill:none;fill-opacity:1;stroke:#000000;stroke-width:1.91687;stroke-miterlimit:4;stroke-dasharray:none;stroke-opacity:1;paint-order:fill markers stroke"
         id="path833-6-5-7-8-0-1-6"
         ry="10.016369"
         rx="17.764881"
         cy="70.469635"
         cx="67.925011" />
      <path
         style="fill:none;fill-opacity:1;stroke:#000000;stroke-width:1.91687;stroke-miterlimit:4;stroke-dasharray:none;stroke-opacity:1;paint-order:fill markers stroke"
         id="path835-2-0-2-3-4-2-3"
         sodipodi:type="arc"
         sodipodi:cx="68.012787"
         sodipodi:cy="67.035416"
         sodipodi:rx="9.0714293"
         sodipodi:ry="6.9372058"
         sodipodi:start="0.41873619"
         sodipodi:end="2.7436473"
         sodipodi:arc-type="arc"
         sodipodi:open="true"
         d="m 76.300477,69.856126 a 9.0714293,6.9372058 0 0 1 -8.38199,4.116121 9.0714293,6.9372058 0 0 1 -8.26828,-4.24849" />
      <path
         style="fill:none;fill-opacity:1;stroke:#000000;stroke-width:1.91687;stroke-miterlimit:4;stroke-dasharray:none;stroke-opacity:1;paint-order:fill markers stroke"
         id="path837-2-3-2-5-2-0-7"
         sodipodi:type="arc"
         sodipodi:cx="67.978737"
         sodipodi:cy="-72.530098"
         sodipodi:rx="6.4160981"
         sodipodi:ry="4.7247024"
         sodipodi:start="0.16047614"
         sodipodi:end="2.9805176"
         sodipodi:open="true"
         sodipodi:arc-type="arc"
         transform="scale(1,-1)"
         d="m 74.312397,-71.775146 a 6.4160981,4.7247024 0 0 1 -6.331739,3.96975 6.4160981,4.7247024 0 0 1 -6.334966,-3.966957" />
    </g>
    <path
       style="fill:none;fill-rule:evenodd;stroke:#000000;stroke-width:0.265;stroke-miterlimit:4;stroke-dasharray:none;stroke-opacity:1"
       id="path959"
       sodipodi:type="arc"
       sodipodi:cx="147.95511"
       sodipodi:cy="161.65225"
       sodipodi:rx="10.66453"
       sodipodi:ry="3.8975334"
       sodipodi:start="0"
       sodipodi:end="3.1415927"
       sodipodi:open="true"
       sodipodi:arc-type="arc"
       d="m 158.61964,161.65225 a 10.66453,3.8975334 0 0 1 -5.33227,3.37537 10.66453,3.8975334 0 0 1 -10.66453,0 10.66453,3.8975334 0 0 1 -5.33226,-3.37537" />
    <path
       style="fill:none;fill-rule:evenodd;stroke:#000000;stroke-width:0.265;stroke-miterlimit:4;stroke-dasharray:none;stroke-opacity:1"
       id="path959-1"
       sodipodi:type="arc"
       sodipodi:cx="147.93193"
       sodipodi:cy="162.98622"
       sodipodi:rx="10.66453"
       sodipodi:ry="3.8975334"
       sodipodi:start="0"
       sodipodi:end="3.1415927"
       sodipodi:open="true"
       sodipodi:arc-type="arc"
       d="m 158.59646,162.98622 a 10.66453,3.8975334 0 0 1 -5.33226,3.37536 10.66453,3.8975334 0 0 1 -10.66453,0 10.66453,3.8975334 0 0 1 -5.33227,-3.37536" />
    <path
       style="fill:none;stroke:#000000;stroke-width:0.179592px;stroke-linecap:butt;stroke-linejoin:miter;stroke-opacity:1"
       d="m 137.07993,161.94533 v 1.36009"
       id="path1521" />
    <path
       style="fill:none;stroke:#000000;stroke-width:0.179592px;stroke-linecap:butt;stroke-linejoin:miter;stroke-opacity:1"
       d="m 158.4825,161.87374 0.12516,1.3601"
       id="path1523" />
    <path
       style="fill:none;stroke:#000000;stroke-width:0.179592px;stroke-linecap:butt;stroke-linejoin:miter;stroke-opacity:1"
       d="m 137.07993,161.94533 4.06774,-23.04995"
       id="path1525"
       sodipodi:nodetypes="cc" />
    <path
       style="fill:none;stroke:#000000;stroke-width:0.179592px;stroke-linecap:butt;stroke-linejoin:miter;stroke-opacity:1"
       d="m 158.4825,161.87374 -4.00516,-22.97836"
       id="path1527"
       sodipodi:nodetypes="cc" />
    <ellipse
       style="fill:none;fill-rule:evenodd;stroke:#000000;stroke-width:0.179875;stroke-miterlimit:4;stroke-dasharray:none;stroke-opacity:1"
       id="path959-6"
       cx="147.86673"
       cy="138.87648"
       rx="6.6593719"
       ry="3.8975334" />
    <path
       style="opacity:0.904854;fill:#ff0000;stroke:#000000;stroke-width:0.139449;stroke-opacity:1"
       d="m 145.28697,142.3183 c -5.28261,-1.42557 -5.22979,-5.53914 0.089,-6.92885 1.20136,-0.31389 3.64876,-0.31706 4.92421,-0.006 2.67246,0.65099 4.31763,2.1865 4.07514,3.80353 -0.18482,1.23247 -1.48924,2.37877 -3.42138,3.00666 -1.32897,0.43187 -4.28797,0.49715 -5.66694,0.12503 z"
       id="path2748" />
    <path
       style="fill:#ff0000;stroke:#000000;stroke-width:0.139449;stroke-opacity:1"
       d="m 144.46952,166.55224 c -3.65844,-0.46535 -6.72723,-1.85657 -6.98966,-3.16872 -0.0481,-0.24033 -0.14231,-0.43696 -0.20941,-0.43696 -0.0671,0 -0.11957,-0.23533 -0.11656,-0.52294 l 0.005,-0.52293 0.18606,0.42723 c 0.10233,0.23498 0.45836,0.66031 0.79118,0.94519 1.72802,1.47913 5.34501,2.34172 9.81916,2.34172 4.5864,0 8.15264,-0.87962 9.93812,-2.45127 l 0.63737,-0.56103 -0.0884,0.54463 c -0.2421,1.49188 -2.86798,2.78419 -6.8096,3.35129 -1.62193,0.23336 -5.52185,0.26264 -7.16374,0.0538 z"
       id="path3194" />
    <path
       style="opacity:0.636893;fill:#ff0000;stroke:none;stroke-width:0.139449"
       d="m 145.91065,165.3028 c -3.46838,-0.24159 -6.47777,-1.1561 -7.72789,-2.34839 -1.04953,-1.00098 -1.10723,-0.31176 1.04932,-12.5329 l 1.92136,-10.8883 0.27077,0.54728 c 0.55884,1.12951 2.19171,2.12856 4.19782,2.56836 1.56511,0.34312 3.92813,0.22838 5.45387,-0.26483 1.3216,-0.42722 2.42935,-1.13819 2.99931,-1.92499 0.26677,-0.36827 0.43505,-0.50156 0.47649,-0.3774 0.0352,0.10556 0.91656,5.10321 1.9585,11.10588 1.38389,7.97268 1.85726,10.9834 1.75649,11.17168 -0.24916,0.46557 -1.17064,1.17099 -2.05114,1.57023 -2.40524,1.09059 -6.51038,1.6377 -10.3049,1.37338 z m 1.19095,-3.62376 c 0.40528,-0.40528 0.361,-1.03077 -0.0985,-1.39225 -0.44151,-0.3473 -0.95446,-0.28616 -1.33081,0.1586 -0.33647,0.39764 -0.3055,0.76651 0.0983,1.17026 0.41458,0.41459 0.95421,0.44028 1.33111,0.0634 z m 4.43897,-1.75637 c 0.44956,-0.31487 0.37399,-1.10896 -0.14202,-1.49257 -0.32701,-0.24311 -0.42774,-0.25648 -0.79279,-0.10527 -0.23785,0.0985 -0.47395,0.33321 -0.54752,0.54425 -0.32517,0.93279 0.65756,1.63129 1.48233,1.05359 z"
       id="path1292" />
    <g
       id="g852-3-1-5-9-5-5-1-9"
       transform="matrix(0.05077757,0,0,0.08470595,124.05989,156.75572)"
       style="fill:none;stroke:#000000;stroke-width:4.0343128;stroke-miterlimit:4;stroke-dasharray:none;stroke-opacity:1">
      <ellipse
         style="fill:none;fill-opacity:1;stroke:#000000;stroke-width:4.0343128;stroke-miterlimit:4;stroke-dasharray:none;stroke-opacity:1;paint-order:fill markers stroke"
         id="path833-6-5-7-8-0-1-2-4"
         ry="10.016369"
         rx="17.764881"
         cy="70.469635"
         cx="67.925011" />
      <path
         style="fill:none;fill-opacity:1;stroke:#000000;stroke-width:4.0343128;stroke-miterlimit:4;stroke-dasharray:none;stroke-opacity:1;paint-order:fill markers stroke"
         id="path835-2-0-2-3-4-2-5-5"
         sodipodi:type="arc"
         sodipodi:cx="68.012787"
         sodipodi:cy="67.035416"
         sodipodi:rx="9.0714293"
         sodipodi:ry="6.9372058"
         sodipodi:start="0.41873619"
         sodipodi:end="2.7436473"
         sodipodi:arc-type="arc"
         sodipodi:open="true"
         d="m 76.300477,69.856126 a 9.0714293,6.9372058 0 0 1 -8.38199,4.116121 9.0714293,6.9372058 0 0 1 -8.26828,-4.24849" />
      <path
         style="fill:none;fill-opacity:1;stroke:#000000;stroke-width:4.0343128;stroke-miterlimit:4;stroke-dasharray:none;stroke-opacity:1;paint-order:fill markers stroke"
         id="path837-2-3-2-5-2-0-2-9"
         sodipodi:type="arc"
         sodipodi:cx="67.978737"
         sodipodi:cy="-72.530098"
         sodipodi:rx="6.4160981"
         sodipodi:ry="4.7247024"
         sodipodi:start="0.16047614"
         sodipodi:end="2.9805176"
         sodipodi:open="true"
         sodipodi:arc-type="arc"
         transform="scale(1,-1)"
         d="m 74.312397,-71.775146 a 6.4160981,4.7247024 0 0 1 -6.331739,3.96975 6.4160981,4.7247024 0 0 1 -6.334966,-3.966957" />
    </g>
    <g
       id="g852-3-1-5-9-5-5-1-0"
       transform="matrix(0.05077757,0,0,0.08470595,128.10393,150.48049)"
       style="fill:none;stroke:#000000;stroke-width:4.0343128;stroke-miterlimit:4;stroke-dasharray:none;stroke-opacity:1">
      <ellipse
         style="fill:none;fill-opacity:1;stroke:#000000;stroke-width:4.0343128;stroke-miterlimit:4;stroke-dasharray:none;stroke-opacity:1;paint-order:fill markers stroke"
         id="path833-6-5-7-8-0-1-2-48"
         ry="10.016369"
         rx="17.764881"
         cy="70.469635"
         cx="67.925011" />
      <path
         style="fill:none;fill-opacity:1;stroke:#000000;stroke-width:4.0343128;stroke-miterlimit:4;stroke-dasharray:none;stroke-opacity:1;paint-order:fill markers stroke"
         id="path835-2-0-2-3-4-2-5-6"
         sodipodi:type="arc"
         sodipodi:cx="68.012787"
         sodipodi:cy="67.035416"
         sodipodi:rx="9.0714293"
         sodipodi:ry="6.9372058"
         sodipodi:start="0.41873619"
         sodipodi:end="2.7436473"
         sodipodi:arc-type="arc"
         sodipodi:open="true"
         d="m 76.300477,69.856126 a 9.0714293,6.9372058 0 0 1 -8.38199,4.116121 9.0714293,6.9372058 0 0 1 -8.26828,-4.24849" />
      <path
         style="fill:none;fill-opacity:1;stroke:#000000;stroke-width:4.0343128;stroke-miterlimit:4;stroke-dasharray:none;stroke-opacity:1;paint-order:fill markers stroke"
         id="path837-2-3-2-5-2-0-2-2"
         sodipodi:type="arc"
         sodipodi:cx="67.978737"
         sodipodi:cy="-72.530098"
         sodipodi:rx="6.4160981"
         sodipodi:ry="4.7247024"
         sodipodi:start="0.16047614"
         sodipodi:end="2.9805176"
         sodipodi:open="true"
         sodipodi:arc-type="arc"
         transform="scale(1,-1)"
         d="m 74.312397,-71.775146 a 6.4160981,4.7247024 0 0 1 -6.331739,3.96975 6.4160981,4.7247024 0 0 1 -6.334966,-3.966957" />
    </g>
  </g>
</svg>
