<?xml version="1.0" encoding="UTF-8" standalone="no"?>
<svg
   xmlns:dc="http://purl.org/dc/elements/1.1/"
   xmlns:cc="http://creativecommons.org/ns#"
   xmlns:rdf="http://www.w3.org/1999/02/22-rdf-syntax-ns#"
   xmlns:svg="http://www.w3.org/2000/svg"
   xmlns="http://www.w3.org/2000/svg"
   xmlns:sodipodi="http://sodipodi.sourceforge.net/DTD/sodipodi-0.dtd"
   xmlns:inkscape="http://www.inkscape.org/namespaces/inkscape"
   width="38.055103mm"
   height="109.12236mm"
   viewBox="0 0 38.055103 109.12236"
   version="1.1"
   id="svg66"
   inkscape:version="1.0.1 (c497b03c, 2020-09-10)"
   sodipodi:docname="290 Fingers for 8 + 3.svg">
  <defs
     id="defs60" />
  <sodipodi:namedview
     id="base"
     pagecolor="#ffffff"
     bordercolor="#666666"
     borderopacity="1.0"
     inkscape:pageopacity="0.0"
     inkscape:pageshadow="2"
     inkscape:zoom="0.98994949"
     inkscape:cx="148.87563"
     inkscape:cy="214.17892"
     inkscape:document-units="mm"
     inkscape:current-layer="layer1"
     inkscape:document-rotation="0"
     showgrid="true"
     inkscape:snap-global="false"
     fit-margin-top="1"
     fit-margin-left="1"
     fit-margin-bottom="1"
     fit-margin-right="1"
     inkscape:window-width="1252"
     inkscape:window-height="943"
     inkscape:window-x="184"
     inkscape:window-y="83"
     inkscape:window-maximized="0">
    <inkscape:grid
       type="xygrid"
       id="grid104"
       originx="-28.624685"
       originy="-28.690154" />
  </sodipodi:namedview>
  <metadata
     id="metadata63">
    <rdf:RDF>
      <cc:Work
         rdf:about="">
        <dc:format>image/svg+xml</dc:format>
        <dc:type
           rdf:resource="http://purl.org/dc/dcmitype/StillImage" />
        <dc:title></dc:title>
      </cc:Work>
    </rdf:RDF>
  </metadata>
  <g
     inkscape:label="Layer 1"
     inkscape:groupmode="layer"
     id="layer1"
     transform="translate(-28.624684,-28.690154)">
    <path
       id="path1920-0"
       style="display:inline;fill:none;stroke:#000000;stroke-width:0.264583px;stroke-linecap:butt;stroke-linejoin:miter;stroke-opacity:1"
       d="m 62.480198,120.44562 c 0.20325,1.80016 -0.54523,3.39675 -1.202561,4.93051 m 1.74371,11.30409 c -0.25561,-3.12246 -0.14743,-5.99139 0.841801,-8.95909 0.34597,-1.03793 -0.55973,-2.6085 -0.0601,-3.60769 0.263259,-0.52655 0.60126,-1.74809 0.60126,-2.345 0,-1.27131 -1.162921,-1.79359 -1.984221,-1.38295 0.396131,-1.29844 -0.771589,-4.15892 -2.34501,-2.5855 -0.49012,0.49013 -0.35807,1.74282 -1.082299,1.98423 -0.29049,0.0968 -0.475141,-0.9915 -0.4209,-1.26269 0.234179,-1.17092 0.54115,-2.73063 0.54115,-3.90833 0,-1.08727 0.421489,-2.04702 0.661409,-3.12667 0.11377,-0.51196 0.573181,-1.49927 0.30064,-2.04435 -0.292349,-0.5847 -1.1748,-0.86955 -1.80384,-0.24051 -0.0158,0.0158 -0.53696,1.26059 -0.99424,2.85133 -0.61113,2.12597 -1.20271,4.77531 -1.2305,5.02545 -0.0545,0.49016 0.093,2.07159 -0.24051,2.40513 -0.0446,0.0446 -0.42455,0 -0.48103,0 -1.79118,0 -1.09255,-6.69471 -1.56333,-7.63628 -0.10873,-0.21746 -0.19228,-0.45691 -0.48103,-0.60128 -0.21885,-0.10943 -1.10307,-0.0394 -1.26269,0.12026 -0.44262,0.44262 -0.4793,6.67939 -0.24051,7.39576 0.46094,1.38281 0.8418,3.62891 0.8418,5.17101 -1.57628,0.22379 -2.04271,-2.46472 -3.8482,-3.06653 -0.7824,-0.26079 -3.107,-0.0574 -2.88615,1.44308 0.0605,0.41103 0.85018,0.6424 1.31519,0.8358 0.62044,0.25804 0.99129,0.4485 1.4507,0.90791 0.76682,0.76682 1.51091,3.15107 2.76589,4.56974 0.27809,0.31436 0.74337,0.94892 1.02813,1.26289 0.73819,0.81395 1.37549,1.25949 1.85802,2.22454 0.52822,1.28803 0.60128,2.84881 0.60128,4.38936 2.708771,-0.1874 5.44452,0.18038 8.11729,0.18038 z m -3.42731,-17.7378 c 0.67755,1.96399 0.53883,3.89605 -0.0601,5.89256 0.21932,0.54716 0.488189,0.96205 1.14242,0.96205 0.244659,0 0.601279,-0.66555 0.601279,-0.4209 0,0.1974 -0.380089,0.40157 -0.240509,0.54116 0.77736,0.77735 2.198209,-0.60599 2.465259,-0.96205"
       sodipodi:nodetypes="cccssscssssssssssssscscsssssscccccsssc" />
    <path
       id="path87-9"
       style="display:inline;fill:none;stroke:#000000;stroke-width:0.264583px;stroke-linecap:butt;stroke-linejoin:miter;stroke-opacity:1"
       d="m 64.397726,94.502887 c -0.33041,1.306801 -1.783209,2.818377 -2.28489,0.81172 m 1.95419,-5.171013 c -0.0608,0.948343 -1.76324,5.270973 -2.284889,5.531784 -0.32507,0.16254 -0.67839,0.0408 -0.962051,-0.0301 -0.422359,-0.10559 -0.642759,-0.526651 -0.75161,-0.962051 m -6.76441,-2.94628 c 0.0584,0.44287 -0.30132,1.32247 -0.90191,1.02218 -1.22492,-0.61246 -1.99215,-3.066534 -3.72795,-3.066534 -0.47169,0 -3.52234,0.566365 -2.64563,1.443074 0.17046,0.17046 0.80734,0.15454 1.0823,0.36077 1.9744,1.4808 2.51428,2.68356 3.54756,4.75012 1.15992,1.649247 2.25706,3.219107 3.60769,4.569743 0.8747,0.8747 0.24051,4.41225 0.24051,5.35141 2.16713,0.45934 7.4226,0.51431 7.997051,-0.0601 M 61.722016,87.948915 c 0.0576,1.139547 0.10967,2.951072 -0.37778,4.415722 -0.192219,0.57754 -0.479889,1.08301 -0.73396,1.54063 -0.372029,0.67011 -0.749459,1.1989 -1.65416,1.1989 -0.0512,0 -0.56267,-1.25005 -0.601279,-1.44308 -0.144481,-0.7224 0.376439,-1.67639 0.54345,-2.4046 0.10747,-0.468473 0.15251,-0.67765 0.26828,-1.082828 0.31461,-1.101095 -0.45706,-2.736985 -0.531711,-3.035586 m 3.928961,18.969547 c 0.0374,-1.442 -0.679081,-3.31419 -0.18039,-4.81026 0.47517,-1.425496 1.255469,-2.924606 1.74371,-4.389356 0.224759,-0.674287 0.0673,-1.365916 0.18039,-2.044357 0.28419,-1.70515 2.78097,-4.689988 -0.24052,-4.689988 0.5997,-2.247262 -0.99236,-3.269279 -2.344991,-2.254806 0.0124,-0.313999 -0.014,-0.6062 -0.0566,-0.831408 -0.0576,-0.304456 -0.16789,-0.460785 -0.48456,-0.641731 -2.501429,-1.429387 -2.63956,2.28487 -4.509609,2.28487 -0.80415,-1.403831 -0.299411,-3.241987 -0.661411,-4.689996 -0.26668,-1.06671 0.541991,-4.087873 0,-4.629864 -0.86222,-0.862219 -1.59359,0.361148 -1.9241,1.022178 -1.50921,3.018422 -0.12099,8.150389 -0.75161,11.394285"
       sodipodi:nodetypes="cccssccsssscscccssssssccsscccsccsssc" />
    <path
       id="path132-9"
       style="display:inline;fill:none;stroke:#000000;stroke-width:0.264583px;stroke-linecap:butt;stroke-linejoin:miter;stroke-opacity:1"
       d="m 63.917397,62.858628 c -0.17418,1.246745 -2.23512,3.926943 -2.79596,1.683588 m 1.894039,-5.171019 c -0.0689,0.975783 -1.818899,5.734725 -2.495329,6.072941 -0.76724,0.38362 -1.34763,-0.323712 -1.713641,-0.811731 m 1.593381,-7.095119 c -0.117791,1.383911 -0.0445,2.719104 -0.45095,3.938394 -0.153201,0.459581 -0.408131,1.353725 -0.541151,1.743715 -0.17276,0.50654 -0.31628,1.023374 -0.571219,1.533266 -0.124341,0.248674 -0.4428,0.300641 -0.69147,0.300641 -0.81896,0 -1.157201,-0.570135 -1.322821,-1.232625 m 6.25333,10.853126 c 0.190921,-0.743918 -0.375409,-2.781329 -0.180399,-3.397239 0.42425,-1.33999 1.02218,-6.652096 1.02218,-8.357809 0.14075,-0.344416 0.27749,-0.577594 0.38434,-1.039847 0.33298,-1.440532 0.002,-3.615818 -1.286251,-2.327328 0.282501,-1.73996 -1.59405,-3.576766 -2.615579,-1.894036 -0.0298,-1.46908 -2.916211,-1.937561 -2.916211,-0.450961 0.115261,2.074974 0.0233,4.337921 -0.54115,6.313453 -0.226679,0.793375 -1.267829,0.507233 -1.74372,0.150321 -0.54024,-0.405181 -0.425469,-2.107113 -0.3307,-2.675703 0.254091,-1.524576 0.082,-1.56333 -0.99212,-1.56333 m 3.547551,-2.194678 c -2.15335,-2.966106 -4.94916,0.673511 -5.66455,3.677726 -0.0536,0.22524 -0.0337,0.641506 -0.121411,0.83916 -0.0899,0.202534 -0.10659,0.33637 -0.10659,0.533877 -0.68562,0.03123 -0.9319,-0.480944 -1.32281,-0.871858 -0.98366,-0.983657 -2.31775,-2.53628 -4.14884,-1.803842 -0.14807,0.05923 -1.084,0.332827 -1.44167,0.89199 -0.14511,0.226859 -0.23082,0.797158 0.0587,0.941917 0.59358,0.296783 1.08962,-0.443648 2.16461,0.631346 2.49085,2.490848 4.44798,5.867302 7.33563,8.177424 1.11091,1.087742 0.39096,3.097199 0.66141,4.449482 2.63629,0.166325 6.115931,0.32812 8.20749,-0.09019"
       sodipodi:nodetypes="cccsccssssccscscccsssccsscsssssccc" />
    <path
       id="path181-2-4"
       style="display:inline;fill:none;stroke:#000000;stroke-width:0.264583px;stroke-linecap:butt;stroke-linejoin:miter;stroke-opacity:1"
       d="m 51.839603,35.593071 c 0.29493,-1.257678 1.51659,-2.7281 3.146261,-1.913265 m -0.38266,4.846938 c -0.002,-0.417475 0.2248,-1.337404 0.422439,-1.533888 0.199371,-0.198251 0.711481,-0.05339 1.10822,0.04579 m 4.80438,2.551022 c -1.570049,2.479807 -4.2377,-0.240845 -2.848639,-0.935373 m 3.01871,-4.421768 c -0.151851,0.711152 -0.29514,1.44061 -0.59525,2.040815 -0.3555,0.711001 -1.9923,2.708914 -3.10373,2.338434 -1.401281,-0.467093 -1.497281,-1.521431 -0.59524,-2.423469 m 1.232989,-3.911563 c -0.0119,0.465042 -2.9e-5,0.851792 -2.9e-5,1.318027 0,0.380021 -0.009,0.69755 -0.17007,1.020408 -0.3746,0.749189 -0.5913,1.615645 -1.70068,1.615645 -0.174701,0 0.0164,0.01096 -0.127561,-0.08504 -1.05626,-0.704173 -1.36565,-2.455765 -0.80782,-3.571428 0.208241,-0.416483 -0.948239,-0.460274 -0.467689,-0.340138 m 9.1412,7.185384 c -0.0751,3.180338 -1.37802,6.078375 -1.7432,9.141158 -0.035,0.293368 -0.333201,2.127583 0,2.210882 -2.02647,0.150056 -4.078471,-0.08503 -6.07993,-0.08503 -0.74724,0 -1.996061,0.08559 -2.508511,-0.04252 m 1.1e-5,0.08503 c -0.375221,-1.614665 0.410229,-3.72886 -0.340141,-5.229593 -0.772579,-1.545153 -1.7433,-3.146777 -2.08333,-4.846939 -0.70214,-2.423549 -0.22679,-2.271402 0.5102,-4.039116 0.25888,-0.6472 0.16249,-1.46538 0.38265,-2.12585 0.431341,-1.294029 1.279211,-2.598463 1.658161,-3.103741 0.0528,-0.399209 1.654439,-1.776131 2.29592,-1.530613 0.66997,0.256424 1.658599,0.798112 1.79212,1.654757 0.0518,0.332283 0.29469,0.603462 0.29122,0.896264 0.228909,-0.0894 0.26045,-0.260453 0.38265,-0.680272 0.411719,-1.414425 2.40218,-0.719425 2.64099,0.594316 0.11538,0.634739 -0.0992,1.508146 -0.09,1.956704 1.55985,-0.962907 3.26626,1.027953 2.210869,2.083333 1.123861,-0.495392 1.80931,1.974702 1.147961,2.636055 -0.11876,0.118758 -0.563031,0.831968 -1.0317,1.343849 -0.55008,0.600784 -1.13376,1.004491 -1.26421,1.037105 -0.31315,0.07829 -1.82824,0.269298 -1.82824,-0.340136 0,-1.414627 2.55537,-2.993432 2.976189,-4.676873"
       sodipodi:nodetypes="cccsccccssccscscsccscsccsccscsscssccssssc" />
    <text
       xml:space="preserve"
       style="font-size:8.46667px;line-height:1.25;font-family:Chalkboard;-inkscape-font-specification:Chalkboard;text-align:center;letter-spacing:0px;word-spacing:-0.264583px;text-anchor:middle;stroke-width:0.264583"
       x="34.472397"
       y="45.168549"
       id="text108"><tspan
         sodipodi:role="line"
         id="tspan106"
         x="34.472397"
         y="45.168549"
         style="font-size:11.2889px;stroke-width:0.264583">8</tspan></text>
    <text
       xml:space="preserve"
       style="font-size:8.46667px;line-height:1.25;font-family:Chalkboard;-inkscape-font-specification:Chalkboard;text-align:center;letter-spacing:0px;word-spacing:-0.264583px;text-anchor:middle;stroke-width:0.264583"
       x="34.292938"
       y="72.401047"
       id="text108-9"><tspan
         sodipodi:role="line"
         id="tspan106-2"
         x="34.292938"
         y="72.401047"
         style="font-size:11.2889px;stroke-width:0.264583">9</tspan></text>
    <text
       xml:space="preserve"
       style="font-size:8.46667px;line-height:1.25;font-family:Chalkboard;-inkscape-font-specification:Chalkboard;text-align:center;letter-spacing:0px;word-spacing:-0.264583px;text-anchor:middle;stroke-width:0.264583"
       x="34.303684"
       y="99.762466"
       id="text108-5"><tspan
         sodipodi:role="line"
         id="tspan106-7"
         x="34.303684"
         y="99.762466"
         style="font-size:11.2889px;stroke-width:0.264583">10</tspan></text>
    <text
       xml:space="preserve"
       style="font-size:8.46667px;line-height:1.25;font-family:Chalkboard;-inkscape-font-specification:Chalkboard;text-align:center;letter-spacing:0px;word-spacing:-0.264583px;text-anchor:middle;stroke-width:0.264583"
       x="34.292938"
       y="127.18415"
       id="text108-3"><tspan
         sodipodi:role="line"
         id="tspan106-0"
         x="34.292938"
         y="127.18415"
         style="font-size:11.2889px;stroke-width:0.264583">11</tspan></text>
  </g>
</svg>
