<?xml version="1.0" encoding="UTF-8" standalone="no"?>
<svg
   xmlns:dc="http://purl.org/dc/elements/1.1/"
   xmlns:cc="http://creativecommons.org/ns#"
   xmlns:rdf="http://www.w3.org/1999/02/22-rdf-syntax-ns#"
   xmlns:svg="http://www.w3.org/2000/svg"
   xmlns="http://www.w3.org/2000/svg"
   xmlns:sodipodi="http://sodipodi.sourceforge.net/DTD/sodipodi-0.dtd"
   xmlns:inkscape="http://www.inkscape.org/namespaces/inkscape"
   width="145.2345mm"
   height="255.9832mm"
   viewBox="0 0 145.2345 255.9832"
   version="1.1"
   id="svg896"
   inkscape:version="1.0.1 (c497b03c, 2020-09-10)"
   sodipodi:docname="20 Balloons.svg">
  <defs
     id="defs890" />
  <sodipodi:namedview
     id="base"
     pagecolor="#ffffff"
     bordercolor="#666666"
     borderopacity="1.0"
     inkscape:pageopacity="0.0"
     inkscape:pageshadow="2"
     inkscape:zoom="0.7"
     inkscape:cx="198.33944"
     inkscape:cy="485.63338"
     inkscape:document-units="mm"
     inkscape:current-layer="layer1"
     inkscape:document-rotation="0"
     showgrid="false"
     inkscape:snap-global="false"
     inkscape:window-width="1252"
     inkscape:window-height="943"
     inkscape:window-x="0"
     inkscape:window-y="23"
     inkscape:window-maximized="0"
     fit-margin-top="3"
     fit-margin-left="3"
     fit-margin-right="3"
     fit-margin-bottom="3" />
  <metadata
     id="metadata893">
    <rdf:RDF>
      <cc:Work
         rdf:about="">
        <dc:format>image/svg+xml</dc:format>
        <dc:type
           rdf:resource="http://purl.org/dc/dcmitype/StillImage" />
        <dc:title />
      </cc:Work>
    </rdf:RDF>
  </metadata>
  <g
     inkscape:label="Layer 1"
     inkscape:groupmode="layer"
     id="layer1"
     transform="translate(-34.87071,-28.404911)">
    <g
       id="g873"
       transform="matrix(0.98206216,0,0,0.99557221,0.61249005,0.12866391)">
      <g
         id="g1572">
        <g
           id="g1526"
           transform="translate(-0.75595238,-0.75595238)">
          <path
             id="path878-1-2"
             style="fill:#ff5555;stroke:none;stroke-width:0.264583px;stroke-linecap:butt;stroke-linejoin:miter;stroke-opacity:1"
             d="m 83.498491,203.96612 c -0.303329,0.1788 -0.629685,0.32332 -0.909984,0.5364 -0.02314,0.0176 0.139656,0.50189 0.138349,0.51633 -0.009,0.15096 -0.02096,0.50877 -0.149768,0.73188 -0.232192,0.40217 -0.256218,1.19973 -0.381366,1.4165 -0.335806,0.58163 -0.766372,0.91312 -0.927653,1.70122 -0.02136,0.10418 0.07756,0.28947 0.103764,0.38725 0.09437,0.3522 0.15285,0.47884 0.353892,0.80444 0.248929,0.40305 1.988862,0.81718 2.493016,0.78467 0.291723,-0.0188 1.244881,-0.26627 1.385303,-0.50955 0.0015,-0.002 0.537062,-0.36325 0.717977,-0.6766 0.34907,-0.60461 -0.393165,-1.97959 -0.609927,-2.53437 -0.101599,-0.26017 -0.08059,-1.0831 -0.328579,-1.22628 -0.120637,-0.0696 -1.147769,-0.97141 -1.284024,-1.17778 -0.220902,-0.33458 -0.205014,-0.95174 -0.47495,-1.25623 -0.114515,-0.1291 -0.148367,0.331 -0.126057,0.50212 m 8e-6,0 c 8.414231,-6.34825 15.10052,-14.06203 18.509008,-24.13773 2.48877,-7.35693 5.23408,-16.45956 3.1465,-24.25048 -2.6373,-9.84255 -4.30623,-16.71656 -10.864453,-23.95091 -4.256745,-4.6956 -13.435545,-8.34209 -19.645524,-9.23819 -14.154892,-2.04256 -28.050839,9.58879 -33.012637,19.65174 -5.189649,10.52504 -3.043255,23.88812 1.785153,35.76712 1.560768,3.83985 4.283058,6.73398 6.9859,9.61277 3.82433,4.0733 8.057785,7.7186 12.782626,10.53206 2.872563,1.7105 6.060769,3.1902 9.013161,4.41772 3.393776,1.41105 6.630769,2.40292 11.300266,1.5959 z" />
          <path
             id="path878-1-1"
             style="fill:#ff0000;stroke:none;stroke-width:0.264583px;stroke-linecap:butt;stroke-linejoin:miter;stroke-opacity:1"
             d="m 135.84753,207.68337 c -0.35049,0.0337 -0.70732,0.0269 -1.05138,0.10202 -0.0283,0.006 -0.0855,0.51388 -0.0928,0.52642 -0.072,0.133 -0.23401,0.45224 -0.44505,0.60001 -0.38039,0.26636 -0.73923,0.97904 -0.94427,1.12261 -0.55015,0.38523 -1.08046,0.50369 -1.5597,1.1498 -0.0634,0.0854 -0.0521,0.29513 -0.0696,0.39481 -0.0633,0.35908 -0.0639,0.49857 -0.0192,0.87863 0.0552,0.47049 1.45716,1.58114 1.92782,1.76474 0.27235,0.1062 1.24077,0.28479 1.47085,0.12365 0.002,-0.001 0.64027,-0.10229 0.93666,-0.30978 0.57188,-0.40044 0.48028,-1.96028 0.51829,-2.55469 0.0179,-0.27873 0.38469,-1.01568 0.22045,-1.25025 -0.0799,-0.1141 -0.6297,-1.36546 -0.66597,-1.61008 -0.0588,-0.39658 0.21642,-0.94921 0.10046,-1.33925 -0.0492,-0.1654 -0.27436,0.23728 -0.32646,0.4018 m 1e-5,0 c 10.30877,-2.19746 19.62859,-6.36277 26.9759,-14.05396 5.36477,-5.61585 11.6998,-12.70542 13.1004,-20.64863 1.76944,-10.03497 3.16195,-16.97024 0.27555,-26.29842 -1.87347,-6.05464 -8.65122,-13.23861 -13.90066,-16.67519 -11.96546,-7.83331 -29.47509,-3.16441 -38.22479,3.85877 -9.1515,7.34569 -12.85369,20.36385 -13.49794,33.17045 -0.20826,4.13971 1.03587,7.91317 2.26883,11.66451 1.74458,5.30789 4.04083,10.40079 7.13396,14.94745 1.88054,2.76424 4.14468,5.4527 6.30169,7.81295 2.47948,2.71311 4.994,4.98006 9.56706,6.22207 z" />
          <path
             id="path878"
             style="fill:#008000;stroke:none;stroke-width:0.264583px;stroke-linecap:butt;stroke-linejoin:miter;stroke-opacity:1"
             d="m 104.62141,115.18708 c -0.33927,0.0942 -0.69191,0.14933 -1.01781,0.28261 -0.0269,0.011 0.005,0.52093 0,0.53454 -0.0478,0.14348 -0.15193,0.48601 -0.33409,0.66818 -0.32837,0.32837 -0.558,1.09253 -0.73499,1.26953 -0.4749,0.4749 -0.97659,0.68365 -1.33635,1.40316 -0.0476,0.0951 0,0.29968 0,0.40091 0,0.36462 0.0237,0.50208 0.13363,0.86862 0.13613,0.45374 1.70959,1.30409 2.20498,1.40317 0.28666,0.0573 1.27138,0.065 1.46998,-0.13364 0.002,-0.002 0.61278,-0.21187 0.86863,-0.46772 0.49366,-0.49366 0.13259,-2.0139 0.0668,-2.60588 -0.0308,-0.2776 0.20248,-1.06705 0,-1.26953 -0.0985,-0.0985 -0.85724,-1.23538 -0.93544,-1.46998 -0.12678,-0.38035 0.0483,-0.97237 -0.13363,-1.33635 -0.0772,-0.15434 -0.22898,0.28132 -0.25172,0.45238 m 1e-5,0 c 9.77057,-3.95417 18.2255,-9.67457 24.12563,-18.524772 4.30808,-6.46211 9.31578,-14.54403 9.31578,-22.60979 0,-10.18976 0.16706,-17.26149 -4.29531,-25.94673 -2.89639,-5.63733 -10.81865,-11.53521 -16.5851,-14.00804 -13.14392,-5.63652 -29.57679,2.00197 -36.974,10.43782 -7.736899,8.82323 -9.12226,22.2865 -7.532889,35.01042 0.513759,4.11297 2.394235,7.61306 4.259894,11.09331 2.639773,4.92431 5.785503,9.541102 9.621172,13.481572 2.331973,2.39569 5.028568,4.65014 7.562652,6.59997 2.912934,2.24134 5.782912,4.03721 10.502171,4.46624 z" />
          <path
             id="path878-5"
             style="fill:#0000ff;stroke:none;stroke-width:0.264583px;stroke-linecap:butt;stroke-linejoin:miter;stroke-opacity:1"
             d="m 97.393416,143.99274 c -0.267672,0.22875 -0.563972,0.42775 -0.803012,0.68627 -0.01973,0.0213 0.224686,0.47002 0.225907,0.48447 0.01735,0.15022 0.06771,0.50468 -0.0204,0.74676 -0.158829,0.43638 -0.044,1.22599 -0.129604,1.46121 -0.229702,0.6311 -0.596166,1.03231 -0.618142,1.83646 -0.0029,0.1063 0.126647,0.2716 0.169432,0.36335 0.154095,0.33046 0.233677,0.44502 0.488205,0.73076 0.315134,0.35369 2.100547,0.4594 2.591394,0.33983 0.284027,-0.0692 1.179734,-0.47839 1.275774,-0.74235 0.001,-0.002 0.46583,-0.45099 0.58958,-0.791 0.23878,-0.65604 -0.73094,-1.88125 -1.04075,-2.38996 -0.145231,-0.23858 -0.267442,-1.05265 -0.536524,-1.15059 -0.130891,-0.0476 -1.299018,-0.75735 -1.469036,-0.93691 -0.275646,-0.29114 -0.367167,-0.90168 -0.685876,-1.15467 -0.135194,-0.10726 -0.08864,0.35173 -0.03695,0.51637 m 8e-6,0 c 7.184038,-7.71292 12.429258,-16.47057 14.036348,-26.98508 1.17344,-7.67735 2.29639,-17.118394 -1.11235,-24.42846 C 106.01103,83.344145 103.17379,76.864383 95.458975,70.878762 90.451515,66.993673 80.778958,64.99647 74.507716,65.192333 60.213181,65.638772 48.548108,79.506425 45.409104,90.278101 c -3.283155,11.266319 1.151109,24.053659 7.968925,34.913749 2.203844,3.5105 5.387333,5.88793 8.549011,8.25364 4.473553,3.34733 9.275694,6.20213 14.417304,8.15238 3.125947,1.18569 6.522666,2.0893 9.64336,2.78549 3.587245,0.80028 6.947297,1.21499 11.405713,-0.39062 z" />
          <path
             id="path878-8"
             style="fill:#ffff00;stroke:none;stroke-width:0.264583px;stroke-linecap:butt;stroke-linejoin:miter;stroke-opacity:1"
             d="m 128.04304,137.20603 c -0.35209,0.003 -0.70699,-0.0348 -1.05628,0.01 -0.0288,0.004 -0.13,0.50448 -0.13835,0.51633 -0.0833,0.12621 -0.27254,0.43012 -0.49564,0.55894 -0.40216,0.23219 -0.82176,0.91089 -1.03852,1.03604 -0.58164,0.3358 -1.12025,0.4076 -1.65399,1.00948 -0.0706,0.0795 -0.0776,0.28946 -0.10376,0.38725 -0.0944,0.3522 -0.10705,0.49111 -0.0957,0.87361 0.0141,0.4735 1.31382,1.70212 1.76668,1.92605 0.26206,0.12954 1.21124,0.39184 1.45448,0.25136 0.002,-0.001 0.64674,-0.046 0.9601,-0.22696 0.60461,-0.34906 0.6493,-1.91096 0.73897,-2.49979 0.0421,-0.27611 0.47176,-0.97829 0.32859,-1.22628 -0.0696,-0.12064 -0.5083,-1.41515 -0.52311,-1.662 -0.024,-0.4002 0.29832,-0.92674 0.21679,-1.3254 -0.0346,-0.16905 -0.294,0.21247 -0.36022,0.37181 m 0,0 c 10.46106,-1.29061 20.10844,-4.6278 28.09814,-11.64938 5.83379,-5.1269 12.76262,-11.63735 14.8502,-19.42827 2.6373,-9.842557 4.62896,-16.630087 2.56654,-26.174327 -1.33864,-6.19488 -7.46447,-13.94223 -12.39443,-17.823266 -11.23721,-8.846357 -29.08713,-5.721282 -38.41564,0.512581 -9.7569,6.520125 -14.5796,19.166095 -16.33758,31.867815 -0.56826,4.10579 0.34225,7.973317 1.24359,11.817857 1.27531,5.43974 3.11894,10.71339 5.80404,15.51235 1.63247,2.9176 3.65369,5.79318 5.59677,8.33243 2.23358,2.91889 4.54095,5.39637 8.98837,7.03221 z" />
          <path
             id="path878-1"
             style="fill:#008000;stroke:none;stroke-width:0.264583px;stroke-linecap:butt;stroke-linejoin:miter;stroke-opacity:1"
             d="m 109.15713,193.05017 c -0.33927,0.0942 -0.69191,0.14933 -1.01781,0.28261 -0.0269,0.011 0.005,0.52093 0,0.53454 -0.0478,0.14348 -0.15193,0.48601 -0.33409,0.66818 -0.32837,0.32837 -0.558,1.09253 -0.73499,1.26953 -0.4749,0.4749 -0.97659,0.68365 -1.33635,1.40316 -0.0476,0.0951 0,0.29968 0,0.40091 0,0.36462 0.0237,0.50208 0.13363,0.86862 0.13613,0.45374 1.70959,1.30409 2.20498,1.40317 0.28666,0.0573 1.27138,0.065 1.46998,-0.13364 0.002,-0.002 0.61278,-0.21187 0.86863,-0.46772 0.49366,-0.49366 0.13259,-2.0139 0.0668,-2.60588 -0.0308,-0.2776 0.20248,-1.06705 0,-1.26953 -0.0985,-0.0985 -0.85724,-1.23538 -0.93544,-1.46998 -0.12678,-0.38035 0.0483,-0.97237 -0.13363,-1.33635 -0.0772,-0.15434 -0.22898,0.28132 -0.25172,0.45238 m 10e-6,0 c 9.77057,-3.95417 18.2255,-9.67457 24.12563,-18.52477 4.30808,-6.46211 9.31578,-14.54403 9.31578,-22.60979 0,-10.18976 0.16706,-17.26149 -4.29531,-25.94673 -2.89639,-5.63733 -10.81865,-11.53521 -16.5851,-14.00804 -13.14392,-5.63652 -29.576797,2.00197 -36.974006,10.43782 -7.736899,8.82323 -9.12226,22.2865 -7.532889,35.01042 0.513759,4.11297 2.394235,7.61306 4.259894,11.09331 2.639773,4.92431 5.785502,9.5411 9.621171,13.48157 2.331973,2.39569 5.028569,4.65014 7.562655,6.59997 2.912935,2.24134 5.782915,4.03721 10.502175,4.46624 z" />
        </g>
        <path
           style="fill:#008000;stroke:none;stroke-width:1.5875;paint-order:fill markers stroke"
           id="path1534"
           d="m 105.41155,194.67608 c 1.56925,0.76524 2.86526,1.98522 4.18449,3.11073 1.13743,0.80975 1.73584,1.78111 2.02698,3.12377 0.36738,1.65718 -0.24864,2.64018 -1.07636,4.07271 -0.67696,1.3533 -4.5015,5.29512 0.43617,1.28199 0.24995,-0.20315 -0.6201,0.17448 -0.93015,0.26172 -1.83757,0.32512 -3.70379,0.28381 -5.55266,0.51451 -1.81501,0.5395 -4.939332,1.32386 -5.585182,3.02277 -0.08043,1.20134 -0.07023,2.40579 -0.06583,3.60902 0.357193,1.37177 1.880582,2.04878 3.011722,2.71941 1.0916,0.58254 1.96321,1.4849 3.08558,2.00515 1.79345,0.23499 3.4897,0.54566 5.11941,1.35799 0.83927,0.41578 1.48281,0.84445 1.65025,1.79045 0.3054,0.87992 0.58032,1.84257 -0.29395,2.45636 -0.10008,0.052 -0.39726,0.21339 -0.30023,0.15593 9.77657,-5.78913 -7.92097,4.551 1.91743,-1.20058 -0.76531,0.23468 -1.52487,0.45689 -2.27766,0.73552 -1.52284,0.51725 -2.34201,1.17816 -4.03176,2.23819 -0.0712,0.0446 -0.0752,0.15334 -0.13365,0.21367 -0.1811,0.18686 -0.43618,0.2839 -0.65475,0.42511 -0.92865,0.87955 -1.81054,1.80695 -2.75861,2.67184 -0.66256,0.76792 -1.01068,1.65339 -1.16845,2.64197 0.0558,0.77855 0.32257,1.53293 0.61684,2.25152 0.64318,1.23644 1.87674,1.88919 3.02056,2.59325 0.89873,0.52157 1.83506,0.85621 2.86537,0.94974 1.18312,-0.067 2.06136,0.19738 2.97254,0.94622 0.76654,0.74165 1.13927,1.83634 1.45769,2.83706 0.36117,0.88284 -0.0595,1.57976 -0.63401,2.27358 -0.52621,0.60657 -0.94646,1.20264 -1.63894,1.62905 0.98487,-0.57978 1.9787,-1.1446 2.95462,-1.73933 0.13479,-0.0822 -0.30004,0.0987 -0.45256,0.13941 -0.47254,0.12602 -0.4649,0.10761 -0.97553,0.4021 -1.26311,0.72846 -2.5127,1.48014 -3.76905,2.2202 -1.04318,0.6078 -1.65103,1.56903 -2.19019,2.60785 -0.73097,1.18915 -0.96591,1.86353 -0.85086,3.22987 0.20795,1.01174 0.56531,1.89197 1.2427,2.66094 0.70686,0.83498 1.48354,1.61317 2.45648,2.12887 0.84234,0.35084 1.71147,0.63035 2.56621,0.94727 0.79953,0.32037 1.6439,0.52719 2.38858,0.9677 0.40801,0.20978 0.59314,0.48379 0.69115,0.91834 0.0596,0.97176 0.0531,1.95168 0.0585,2.92583 -0.21747,1.20414 -0.0371,2.77729 -0.93027,3.73498 -1.99224,1.14501 4.98748,-2.29264 1.73246,-1.34726 -11.58408,6.57571 1.90874,-0.90285 -1.91306,1.10884 -2.88307,1.2332 -3.25418,1.65626 -4.53247,3.58891 0,0 3.41403,-1.49854 3.41403,-1.49854 v 0 c 0.91956,-1.44156 3.11528,-2.93873 -1.81176,0.26096 2.20537,-1.13112 8.35482,-4.84879 1.92429,-1.12692 0.48424,-0.37377 0.47168,-0.0586 0.83869,-0.24643 1.53874,-0.78748 2.83694,-1.05111 3.78672,-2.22232 0.69179,-1.1513 0.58035,-2.63012 0.75752,-3.91558 0.01,-1.01312 0.11009,-2.05242 -0.017,-3.05754 -0.15048,-0.50091 -0.37099,-0.90725 -0.85518,-1.15409 -0.75812,-0.47509 -1.59787,-0.70731 -2.43698,-1.01095 -0.82865,-0.353 -1.70614,-0.59304 -2.54281,-0.93123 -0.9711,-0.41958 -1.71896,-1.18643 -2.38034,-1.99458 -0.59983,-0.72235 -0.99426,-1.49589 -1.1349,-2.45016 -0.0706,-1.16837 0.31243,-2.03336 0.9298,-3.03157 0.57357,-0.99399 1.2357,-1.86232 2.26121,-2.43592 -0.85652,0.48516 -1.70595,0.98305 -2.56956,1.45548 -0.28814,0.15762 0.55141,-0.37727 0.86707,-0.46799 1.76063,-0.50598 0.27997,1.23875 3.98384,-2.0398 0.62677,-0.48341 1.05104,-1.13838 1.56482,-1.73311 0.54748,-0.83787 0.91286,-1.62422 0.47976,-2.59233 -0.3592,-1.05639 -0.75606,-2.22555 -1.5667,-3.01394 -0.9503,-0.80182 -1.82581,-1.25516 -3.10023,-1.13901 -0.99149,-0.0535 -1.90427,-0.31281 -2.78104,-0.79628 -1.0817,-0.63838 -2.26098,-1.24511 -2.87006,-2.39723 -0.24024,-0.66671 -0.52955,-1.34956 -0.52612,-2.06638 0.20038,-0.92665 0.58107,-1.75861 1.2734,-2.42858 0.92074,-0.87298 1.77019,-1.82781 2.76463,-2.61537 3.03969,-2.21301 -4.33022,1.98824 -1.58445,0.78421 0.75765,-0.27869 1.48083,-0.59383 2.28805,-0.70686 11.44797,-6.44427 -2.22197,1.29539 1.03283,-0.51124 3.35606,-1.86284 2.46074,-1.14758 3.73686,-2.20406 0.64404,-0.87533 0.45095,-1.80493 0.13379,-2.78693 -0.22988,-1.05745 -0.89132,-1.60535 -1.86194,-2.05781 -1.62247,-0.81532 -3.28442,-1.27684 -5.1019,-1.39593 -1.14802,-0.44899 -2.00107,-1.37358 -3.08153,-1.95491 -1.01872,-0.57305 -2.47459,-1.17638 -2.79745,-2.39965 -0.0248,-1.1342 -0.10753,-2.31932 0.18511,-3.42135 0.89209,-0.73853 3.14699,-1.87931 -2.548355,1.40671 -0.139567,0.0805 0.280035,-0.16005 0.425375,-0.22962 0.58632,-0.28063 0.66132,-0.27713 1.31937,-0.48672 1.85612,-0.26727 3.72109,-0.22518 5.57799,-0.4906 3.55522,-0.64763 5.16725,-2.49015 6.75301,-5.25988 0.80013,-1.44537 1.45423,-2.68567 1.01667,-4.34693 -0.33695,-1.40505 -0.96473,-2.47398 -2.17603,-3.30991 -1.35318,-1.16571 -2.70738,-2.34672 -4.23114,-3.28597 0,0 -3.07888,2.12369 -3.07888,2.12369 z" />
        <path
           style="fill:#ff0000;stroke:none;stroke-width:1.5875;paint-order:fill markers stroke"
           id="path1534-1"
           d="m 130.51654,207.79896 c 1.31773,1.14532 2.25382,2.65915 3.2368,4.08776 0.88909,1.07655 1.2157,2.16969 1.14941,3.54195 -0.0741,1.6958 -0.92348,2.48587 -2.09376,3.65536 -1.00415,1.13197 -5.7186,3.94961 0.0895,1.35119 0.29402,-0.13153 -0.64411,0.008 -0.9662,0.012 -1.85909,-0.16165 -3.65104,-0.68448 -5.49662,-0.94016 -1.89279,0.0514 -5.11366,3.6e-4 -6.17722,1.47423 -0.38858,1.13959 -0.69047,2.30566 -0.99763,3.46901 -0.01,1.41747 1.28623,2.46571 2.20526,3.40623 0.90363,0.84524 1.512,1.94245 2.46146,2.73544 1.67154,0.69117 3.22958,1.43027 4.5935,2.63674 0.70306,0.61881 1.21373,1.19945 1.13063,2.15655 0.0672,0.92898 0.0836,1.93 -0.91969,2.29658 -0.11014,0.0244 -0.43896,0.1033 -0.33037,0.0729 10.94179,-3.06152 -8.82895,2.34582 2.16283,-0.66342 -0.79997,0.0286 -1.59117,0.0467 -2.39042,0.12096 -1.60482,0.10549 -2.56714,0.53186 -4.47366,1.11843 -0.0802,0.0246 -0.11235,0.12864 -0.1844,0.17179 -0.22329,0.13362 -0.4948,0.16134 -0.74247,0.24118 -1.12464,0.60922 -2.21651,1.27676 -3.35613,1.86681 -0.83873,0.57026 -1.40417,1.33546 -1.81243,2.24955 -0.14766,0.76644 -0.0851,1.56418 0.0131,2.33443 0.30125,1.36078 1.32383,2.31054 2.24646,3.28667 0.73311,0.73641 1.55091,1.30199 2.52191,1.65899 1.16014,0.24152 1.94004,0.72416 2.62636,1.68333 0.54847,0.91477 0.62516,2.06863 0.67373,3.11767 0.12038,0.94623 -0.46634,1.51054 -1.20085,2.03201 -0.66527,0.44971 -1.22547,0.91671 -2.00473,1.14936 1.10138,-0.30514 2.20753,-0.59348 3.30413,-0.91536 0.15146,-0.0445 -0.31535,0.0177 -0.47322,0.0175 -0.48909,-5.3e-4 -0.47692,-0.0163 -1.04636,0.13592 -1.40862,0.37673 -2.81018,0.77937 -4.21527,1.16905 -1.16494,0.31711 -2.00085,1.08825 -2.79053,1.95212 -1.01383,0.95945 -1.4153,1.55005 -1.6578,2.8996 -0.061,1.03108 0.0564,1.97382 0.51165,2.89191 0.46667,0.98948 1.01547,1.94217 1.82179,2.69211 0.72283,0.55691 1.48999,1.05183 2.23358,1.57918 0.68938,0.51639 1.45145,0.93472 2.05674,1.55294 0.33982,0.30822 0.44772,0.62081 0.42993,1.06593 -0.19394,0.95408 -0.45385,1.89891 -0.70076,2.84127 -0.52171,1.10682 -0.75467,2.67305 -1.86525,3.36693 -2.22071,0.59038 5.4109,-0.92364 2.0221,-0.85294 -12.89126,3.35346 2.07739,-0.37807 -2.13485,0.57592 -3.10401,0.44498 -3.57196,0.75759 -5.3069,2.29353 0,0 3.68555,-0.56386 3.68555,-0.56386 v 0 c 1.26132,-1.15445 3.76972,-2.0323 -1.81757,-0.21683 2.42296,-0.52177 9.3251,-2.52118 2.15038,-0.59047 0.56447,-0.23571 0.47079,0.0655 0.87389,-0.0209 1.69013,-0.3624 3.01233,-0.28105 4.23287,-1.16652 0.9662,-0.93303 1.2413,-2.3903 1.74514,-3.58611 0.27191,-0.976 0.63754,-1.954 0.77492,-2.95775 -0.0157,-0.52279 -0.12353,-0.97237 -0.52733,-1.33612 -0.60933,-0.65511 -1.36036,-1.09675 -2.09231,-1.60724 -0.70903,-0.55543 -1.4945,-1.01439 -2.21513,-1.55763 -0.82941,-0.65659 -1.35331,-1.59088 -1.78299,-2.54268 -0.39243,-0.85298 -0.57321,-1.70226 -0.46208,-2.66042 0.23419,-1.14681 0.82805,-1.8832 1.68274,-2.68759 0.81129,-0.81168 1.6756,-1.47906 2.81463,-1.7677 -0.9529,0.24695 -1.90225,0.50804 -2.85871,0.74084 -0.31911,0.0777 0.63026,-0.22169 0.95865,-0.22764 1.83159,-0.033 -0.0502,1.26902 4.37604,-0.9392 0.73051,-0.3047 1.30985,-0.82755 1.96005,-1.26904 0.74566,-0.66763 1.30214,-1.33261 1.13435,-2.37982 -0.0735,-1.11336 -0.15427,-2.34541 -0.73324,-3.31674 -0.71039,-1.02045 -1.43874,-1.68494 -2.6998,-1.90261 -0.94386,-0.30829 -1.75843,-0.795 -2.48019,-1.4889 -0.87961,-0.89662 -1.86168,-1.78788 -2.15181,-3.05839 -0.0595,-0.70618 -0.16222,-1.44064 0.0266,-2.13215 0.43339,-0.84321 1.01643,-1.54827 1.85858,-2.01624 1.11531,-0.60494 2.18294,-1.30736 3.34734,-1.81072 3.50887,-1.35087 -4.69728,0.79975 -1.73343,0.34742 0.80396,-0.0731 1.58406,-0.19035 2.39303,-0.0906 12.72579,-3.26174 -2.48154,0.67616 1.12995,-0.2265 3.72385,-0.93075 2.67392,-0.4716 4.17998,-1.16179 0.84865,-0.67881 0.90273,-1.6267 0.85055,-2.65734 0.0516,-1.08092 -0.44545,-1.78134 -1.2659,-2.4696 -1.35616,-1.20746 -2.84203,-2.08341 -4.56676,-2.66884 -0.99269,-0.73081 -1.57738,-1.84468 -2.47056,-2.68585 -0.83569,-0.8172 -2.0858,-1.77677 -2.08105,-3.04191 0.26955,-1.10198 0.4964,-2.26814 1.0643,-3.25687 1.05285,-0.48248 3.52616,-1.00077 -2.82559,0.69922 -0.15565,0.0416 0.3119,-0.0821 0.47029,-0.11171 0.63899,-0.11931 0.71053,-0.0965 1.4004,-0.12865 1.86204,0.22224 3.65258,0.7456 5.51498,0.9694 3.60169,0.29462 5.63567,-1.06793 7.88426,-3.33286 1.14695,-1.18903 2.09978,-2.21777 2.1071,-3.93568 0.0381,-1.44437 -0.29155,-2.63936 -1.24523,-3.76032 -1.00536,-1.47623 -2.00774,-2.96747 -3.2365,-4.2691 0,0 -3.52361,1.25445 -3.52361,1.25445 z" />
        <path
           style="fill:#ff2a2a;stroke:none;stroke-width:1.5875;paint-order:fill markers stroke"
           id="path1534-10"
           d="m 77.576661,206.49639 c 1.678292,0.48112 3.16646,1.45751 4.661091,2.33684 1.26076,0.59993 2.018755,1.45262 2.538622,2.72433 0.649565,1.56821 0.213596,2.64324 -0.352789,4.19774 -0.431678,1.4503 -3.513624,5.99635 0.652159,1.18678 0.210877,-0.24347 -0.580381,0.27951 -0.870572,0.41926 -1.753196,0.63927 -3.598238,0.92266 -5.378959,1.47091 -1.693752,0.84647 -4.634406,2.16145 -4.975432,3.9467 0.129403,1.19706 0.348598,2.38143 0.56187,3.56562 0.589972,1.2889 2.207778,1.69109 3.438187,2.15511 1.176174,0.38414 2.191235,1.12144 3.386895,1.43889 1.80701,-0.08 3.531436,-0.0686 5.277447,0.44838 0.898719,0.26372 1.60692,0.57414 1.936087,1.47669 0.453557,0.81352 0.891462,1.7138 0.137063,2.47008 -0.08953,0.0686 -0.354169,0.27914 -0.268592,0.2057 8.622771,-7.39887 -7.010359,5.85732 1.679821,-1.5153 -0.712931,0.36401 -1.422365,0.71474 -2.115335,1.11985 -1.409884,0.77384 -2.101844,1.56695 -3.58185,2.9043 -0.06238,0.0563 -0.04743,0.16407 -0.09452,0.23363 -0.1459,0.21548 -0.380254,0.35533 -0.570983,0.53235 -0.761809,1.02745 -1.46926,2.09389 -2.25274,3.11028 -0.519147,0.87131 -0.708217,1.80377 -0.691925,2.80473 0.190146,0.75703 0.583859,1.45363 0.99844,2.1102 0.848114,1.10596 2.176283,1.5346 3.424985,2.02934 0.975646,0.35759 1.955861,0.52455 2.986759,0.43774 1.153511,-0.27143 2.06432,-0.16354 3.09169,0.41567 0.883681,0.59728 1.440839,1.61062 1.928195,2.54084 0.508986,0.80671 0.215724,1.56609 -0.229576,2.34913 -0.412886,0.68873 -0.723244,1.34872 -1.331158,1.8889 0.869229,-0.742 1.749881,-1.4708 2.6077,-2.22597 0.118472,-0.10432 -0.278342,0.1493 -0.421477,0.21587 -0.443477,0.20617 -0.439151,0.18671 -0.890884,0.5654 -1.117426,0.93673 -2.217504,1.89398 -3.326257,2.84095 -0.921788,0.77972 -1.353488,1.8319 -1.704067,2.94856 -0.513371,1.29802 -0.627637,2.00295 -0.277074,3.32855 0.380479,0.96026 0.885259,1.76506 1.685889,2.40472 0.841114,0.69956 1.741125,1.33105 2.788835,1.66997 0.890466,0.19923 1.794928,0.32358 2.691715,0.48726 0.843016,0.17667 1.710471,0.23372 2.520332,0.53823 0.438239,0.13574 0.668137,0.37344 0.840118,0.78437 0.227439,0.94664 0.391199,1.9128 0.565675,2.87122 -0.0051,1.2236 0.445736,2.74154 -0.267564,3.83978 -1.763143,1.47356 4.513598,-3.12388 1.472191,-1.62764 -10.266231,8.48737 1.722967,-1.22058 -1.691448,1.4242 -2.625127,1.7151 -2.917135,2.19617 -3.840404,4.32144 0,0 3.101945,-2.06861 3.101945,-2.06861 v 0 c 0.655265,-1.57934 2.557647,-3.43505 -1.738921,0.5716 1.975449,-1.49689 7.385905,-6.22593 1.699369,-1.44395 0.411979,-0.45217 0.454337,-0.13963 0.783156,-0.38832 1.378619,-1.04271 2.61132,-1.52778 3.34329,-2.84612 0.48136,-1.25393 0.11482,-2.69094 0.0661,-3.98763 -0.16608,-0.99947 -0.24798,-2.04036 -0.54768,-3.00814 -0.23517,-0.46717 -0.52289,-0.82905 -1.042593,-0.98806 -0.8291,-0.33623 -1.696416,-0.41909 -2.575506,-0.57241 -0.877358,-0.20374 -1.7832,-0.28776 -2.665885,-0.47553 -1.029207,-0.24458 -1.898866,-0.86991 -2.690532,-1.55093 -0.716152,-0.60722 -1.238913,-1.30051 -1.543124,-2.21586 -0.272414,-1.13837 -0.04541,-2.05673 0.389247,-3.14698 0.392252,-1.07848 0.893539,-2.04861 1.803865,-2.79156 -0.759261,0.62651 -1.509329,1.26434 -2.277782,1.87956 -0.256392,0.20526 0.477521,-0.46729 0.772632,-0.61145 1.64602,-0.80402 0.490824,1.17132 3.569109,-2.70059 0.533305,-0.58491 0.837395,-1.3036 1.240095,-1.97851 0.393668,-0.92021 0.616949,-1.75806 0.02232,-2.63626 -0.537183,-0.97796 -1.131037,-2.06045 -2.066263,-2.69609 -1.075098,-0.62463 -2.016028,-0.91905 -3.250918,-0.58336 -0.985719,0.11946 -1.929659,0.0226 -2.877062,-0.30126 -1.176121,-0.44085 -2.442842,-0.83358 -3.242732,-1.86243 -0.352363,-0.61486 -0.755854,-1.2371 -0.87695,-1.94363 0.03642,-0.94737 0.266863,-1.83279 0.832336,-2.6128 0.75516,-1.01961 1.4259,-2.10744 2.268475,-3.05571 2.609224,-2.70723 -3.919181,2.70996 -1.424203,1.04743 0.697746,-0.40603 1.355216,-0.84196 2.130545,-1.09344 10.155013,-8.33429 -1.963271,1.66155 0.928363,-0.68282 2.981595,-2.41731 2.224081,-1.55745 3.297357,-2.81948 0.482256,-0.97387 0.130677,-1.85581 -0.352187,-2.76782 -0.410012,-1.00146 -1.156546,-1.42619 -2.190988,-1.70322 -1.7394,-0.5212 -3.456244,-0.68712 -5.266792,-0.48879 -1.208545,-0.24281 -2.209189,-1.00523 -3.374182,-1.39011 -1.102752,-0.38745 -2.641271,-0.7288 -3.171644,-1.87742 -0.221374,-1.11266 -0.508642,-2.26541 -0.411814,-3.40152 0.750293,-0.88222 2.772842,-2.39722 -2.265367,1.82785 -0.123464,0.10356 0.247989,-0.20623 0.379039,-0.29999 0.528683,-0.37818 0.60315,-0.38776 1.214809,-0.70843 1.78151,-0.58552 3.625456,-0.86792 5.408056,-1.45175 3.388748,-1.25515 4.656337,-3.34961 5.737048,-6.35262 0.536988,-1.56236 0.965775,-2.89739 0.246387,-4.45744 -0.575815,-1.32519 -1.379675,-2.26887 -2.717731,-2.88176 -1.535045,-0.91302 -3.073752,-1.84093 -4.737463,-2.50132 0,0 -2.663329,2.62608 -2.663329,2.62608 z" />
        <circle
           id="path1557"
           style="fill:#008000;stroke:#000000;stroke-width:0.264583"
           cx="135.31548"
           cy="218.47023"
           r="0.19981238" />
      </g>
      <path
         style="fill:none;stroke:#000000;stroke-width:2.11667;stroke-linecap:butt;stroke-linejoin:miter;stroke-miterlimit:4;stroke-dasharray:none;stroke-opacity:1"
         d="m 35.829082,83.211459 c 19.989869,-10.205405 24.756408,4.011506 40.241033,10.205357 6.939074,2.775627 13.882235,4.014089 21.166667,5.669642 7.124898,1.619292 14.348198,2.320692 21.544638,-0.377975 8.44221,-3.165827 15.34019,-11.627451 22.67857,-17.00893 12.50256,-9.168543 23.99413,-13.007454 38.93155,-15.497024"
         id="path852"
         sodipodi:nodetypes="cssssc" />
      <path
         id="path854"
         style="fill:none;stroke:#000000;stroke-width:2.11667;stroke-linecap:butt;stroke-linejoin:miter;stroke-miterlimit:4;stroke-dasharray:none;stroke-opacity:1"
         d="m 35.248686,125.54479 c 8.285875,3.00635 12.187637,13.2824 21.47973,14.2142 17.196673,4.16006 34.888256,-2.71178 48.976074,-12.35818 6.05863,-3.62676 13.07688,-6.21702 20.23567,-5.6344 6.02629,-0.70747 14.7539,1.51371 20.282,5.51503 9.20939,7.38377 4.50243,16.70807 13.94802,23.87231 5.65178,3.43745 13.84339,1.66882 20.04581,1.98328"
         sodipodi:nodetypes="ccccccc" />
      <path
         style="fill:none;stroke:#000000;stroke-width:2.11667;stroke-linecap:butt;stroke-linejoin:miter;stroke-miterlimit:4;stroke-dasharray:none;stroke-opacity:1"
         d="m 34.87071,200.76205 c 17.033103,-5.0867 35.198625,-37.93007 54.428571,-30.23809 5.840644,2.33625 18.857949,10.91952 25.324399,12.09524 5.64279,1.02596 32.25304,-9.57587 35.52976,-7.9375 14.08806,7.04403 14.07016,21.92261 30.06255,21.92261"
         id="path872"
         sodipodi:nodetypes="csscc" />
      <path
         style="fill:none;stroke:#000000;stroke-width:2.11667;stroke-linecap:butt;stroke-linejoin:miter;stroke-miterlimit:4;stroke-dasharray:none;stroke-opacity:1"
         d="m 34.87071,229.11027 c 31.004004,44.80298 49.664074,-2.55675 82.77678,-8.31548 14.69111,-2.55498 33.0652,-2.80874 47.24703,2.64583 5.3363,2.05243 14.84149,5.89387 14.74107,6.80357"
         id="path874"
         sodipodi:nodetypes="cssc" />
      <rect
         style="fill:none;stroke:#000000;stroke-width:0.525086;stroke-miterlimit:4;stroke-dasharray:none;paint-order:fill markers stroke"
         id="rect854"
         width="145.5249"
         height="254.38205"
         x="36.002598"
         y="29.914776" />
    </g>
  </g>
</svg>
