<?xml version="1.0" encoding="UTF-8" standalone="no"?>
<!-- Created with Inkscape (http://www.inkscape.org/) -->

<svg
   width="419.89148mm"
   height="146.55632mm"
   viewBox="0 0 419.89148 146.55632"
   version="1.1"
   id="svg5"
   inkscape:version="1.1 (c4e8f9e, 2021-05-24)"
   sodipodi:docname="30 Mug On Shelf.svg"
   xmlns:inkscape="http://www.inkscape.org/namespaces/inkscape"
   xmlns:sodipodi="http://sodipodi.sourceforge.net/DTD/sodipodi-0.dtd"
   xmlns="http://www.w3.org/2000/svg"
   xmlns:svg="http://www.w3.org/2000/svg">
  <sodipodi:namedview
     id="namedview7"
     pagecolor="#ffffff"
     bordercolor="#666666"
     borderopacity="1.0"
     inkscape:pageshadow="2"
     inkscape:pageopacity="1"
     inkscape:pagecheckerboard="0"
     inkscape:document-units="mm"
     showgrid="false"
     inkscape:snap-global="false"
     fit-margin-left="2"
     fit-margin-top="2"
     fit-margin-right="2"
     fit-margin-bottom="2"
     inkscape:zoom="0.33540614"
     inkscape:cx="821.39223"
     inkscape:cy="245.97045"
     inkscape:window-width="1312"
     inkscape:window-height="997"
     inkscape:window-x="0"
     inkscape:window-y="25"
     inkscape:window-maximized="0"
     inkscape:current-layer="svg5" />
  <defs
     id="defs2" />
  <g
     inkscape:label="Layer 1"
     inkscape:groupmode="layer"
     id="layer1"
     transform="translate(102.38614,-162.13785)" />
  <path
     style="fill:#a02c2c;fill-opacity:1;stroke:#000000;stroke-width:0.264583px;stroke-linecap:butt;stroke-linejoin:miter;stroke-opacity:1"
     d="M 26.657053,76.882069 2.2028663,132.1012 395.37424,133.87029 373.74869,72.937839 Z"
     id="path1849"
     sodipodi:nodetypes="ccccc" />
  <path
     style="fill:#de8787;stroke:#000000;stroke-width:0.264583px;stroke-linecap:butt;stroke-linejoin:miter;stroke-opacity:1"
     d="m 3.7805593,132.59109 v 11.83267 L 394.25865,143.6349 v -11.04381 z"
     id="path2040" />
  <path
     style="fill:#ff0000;fill-opacity:1;stroke:#000000;stroke-width:2.11667;stroke-miterlimit:4;stroke-dasharray:none;stroke-opacity:1"
     d="m 322.4452,111.26766 c -10.60802,-1.25331 -22.16189,-1.7385 -31.14835,-8.15351 -4.07688,-5.625641 -1.00933,-13.138611 -2.01927,-19.573071 0.0219,-23.63739 -0.27973,-47.27814 0.23336,-70.91251 3.93223,-5.8176702 11.74783,-5.9706302 17.95824,-7.4586902 20.62903,-3.16665 41.9952,-2.96758 62.33052,1.94212 7.14243,0.48505 9.71834,6.7698302 10.16396,12.6734502 4.52096,-0.0936 9.50384,-0.0806 13.87672,1.96333 15.22731,6.19085 23.87492,23.15417 22.92101,39.13947 -0.37864,15.26781 -9.65044,30.9422 -24.56189,35.9061 -4.44115,2.78692 -11.94838,-1.07121 -14.08027,4.549601 -2.41249,5.54168 -9.70092,5.53434 -14.71835,7.47865 -13.42304,2.87892 -27.29514,3.00947 -40.95568,2.44506 z m 25.79688,-1.14093 c 9.85613,-1.37611 20.79123,-1.79374 28.91244,-8.1948 2.27794,-7.333121 0.40552,-15.585851 1.0134,-23.291301 -0.006,-20.99018 -0.008,-41.98037 -0.0283,-62.97055 -6.87048,5.71869 -16.32722,6.12444 -24.78659,7.33616 -18.51914,1.80415 -37.48899,1.49668 -55.59127,-3.05149 -3.11061,-1.22171 -9.43761,-5.95454 -7.80514,0.87136 -0.31348,26.21794 -0.38728,52.44175 0.12719,78.6577 2.74369,6.423321 10.66828,6.991491 16.56431,8.688521 13.65794,2.89047 27.72766,2.61741 41.59401,1.9544 z m 40.08448,-13.278131 c 16.39041,-3.19637 27.1663,-19.92696 27.44967,-35.96287 1.00938,-15.7815 -7.75939,-32.71849 -22.95148,-38.51518 -4.47875,-1.4586 -15.28339,-4.80461 -13.50128,3.66958 4.54443,2.4578 10.80128,-0.42172 15.39517,3.255 13.64527,6.82882 19.3353,24.0189 15.81376,38.31829 -2.72336,12.65601 -14.4411,24.78391 -28.15762,23.02772 -6.45194,-0.23224 -3.06908,9.985111 2.59067,6.52437 1.11566,-0.14308 2.22847,-0.3878 3.36111,-0.31691 z m 0.92594,-7.37604 c 14.4785,-3.47148 22.66828,-19.49109 21.11037,-33.5946 -0.50988,-14.15747 -12.03813,-28.68724 -27.05237,-28.10121 -7.46956,-0.23089 -2.83588,9.50307 -4.10099,14.16945 -0.0131,15.49898 -0.11587,30.99966 0.17682,46.49692 2.13714,3.08644 6.82879,1.02622 9.86617,1.02944 z m -44.45,-66.6994 c 10.69692,-0.91136 22.17604,-1.22355 31.62987,-6.83468 3.87171,-6.5493302 -8.06722,-8.3558102 -12.72575,-9.2817902 -20.13628,-3.64111 -40.99354,-3.46914 -61.09108,0.32091 -4.12514,1.5349 -12.23002,1.99582 -11.66674,7.8498602 5.26399,5.62152 14.1481,5.408 21.26933,6.94366 10.79377,1.42295 21.72323,1.60095 32.58437,1.00204 z"
     id="path1388" />
  <path
     style="opacity:0.998058;fill:#0000ff;fill-opacity:1;stroke:#000000;stroke-width:6.31076;stroke-miterlimit:4;stroke-dasharray:none;stroke-opacity:1"
     d="m 312.85978,107.74555 c -9.33562,-1.45023 -17.0884,-4.00748 -19.51937,-6.43845 l -2.094,-2.094001 v -40.2079 c 0,-37.99023 0.0761,-40.17563 1.38048,-39.62282 8.55762,3.62689 18.44707,5.17847 36.08964,5.66219 17.4837,0.47938 33.46793,-1.01865 42.2316,-3.95788 l 5.4935,-1.84246 0.14811,35.95058 c 0.18707,45.407441 0.24282,44.19306 -2.1269,46.331581 -5.23415,4.72349 -20.40858,7.40623 -41.23434,7.28994 -7.68796,-0.0429 -16.85388,-0.52478 -20.36872,-1.07078 z"
     id="path2841" />
</svg>
