<?xml version="1.0" encoding="UTF-8" standalone="no"?>
<!-- Created with Inkscape (http://www.inkscape.org/) -->

<svg
   width="97.779167mm"
   height="97.779167mm"
   viewBox="0 0 97.779167 97.779167"
   version="1.1"
   id="svg5"
   inkscape:version="1.1 (c4e8f9e, 2021-05-24)"
   sodipodi:docname="EFM480TurningTheTables.svg"
   xmlns:inkscape="http://www.inkscape.org/namespaces/inkscape"
   xmlns:sodipodi="http://sodipodi.sourceforge.net/DTD/sodipodi-0.dtd"
   xmlns="http://www.w3.org/2000/svg"
   xmlns:svg="http://www.w3.org/2000/svg">
  <sodipodi:namedview
     id="namedview7"
     pagecolor="#ffffff"
     bordercolor="#666666"
     borderopacity="1.0"
     inkscape:pageshadow="2"
     inkscape:pageopacity="1"
     inkscape:pagecheckerboard="0"
     inkscape:document-units="mm"
     showgrid="true"
     inkscape:zoom="1.3416246"
     inkscape:cx="197.89441"
     inkscape:cy="175.53346"
     inkscape:window-width="1312"
     inkscape:window-height="997"
     inkscape:window-x="291"
     inkscape:window-y="25"
     inkscape:window-maximized="0"
     inkscape:current-layer="layer1"
     fit-margin-left="1"
     fit-margin-top="1"
     fit-margin-right="1"
     fit-margin-bottom="1">
    <inkscape:grid
       type="xygrid"
       id="grid824"
       originx="-14.610417"
       originy="-88.69375" />
  </sodipodi:namedview>
  <defs
     id="defs2" />
  <g
     inkscape:label="Layer 1"
     inkscape:groupmode="layer"
     id="layer1"
     transform="translate(-14.610417,-88.693749)">
    <g
       id="g22874">
      <g
         id="g1160"
         style="fill:none;fill-opacity:1;stroke:#010000;stroke-width:0.529167;stroke-miterlimit:4;stroke-dasharray:none;stroke-opacity:1">
        <path
           style="fill:none;fill-opacity:1;stroke:#010000;stroke-width:0.529167;stroke-linecap:butt;stroke-linejoin:miter;stroke-miterlimit:4;stroke-dasharray:none;stroke-opacity:1"
           d="m 15.875,89.958332 h 95.25 v 95.249998 h -95.25 z"
           id="path859"
           sodipodi:nodetypes="ccccc" />
        <path
           style="fill:none;fill-opacity:1;stroke:#010000;stroke-width:0.529167;stroke-linecap:butt;stroke-linejoin:miter;stroke-miterlimit:4;stroke-dasharray:none;stroke-opacity:1"
           d="M 26.458333,89.958332 V 185.20833"
           id="path1031" />
        <path
           style="fill:none;fill-opacity:1;stroke:#010000;stroke-width:0.529167;stroke-linecap:butt;stroke-linejoin:miter;stroke-miterlimit:4;stroke-dasharray:none;stroke-opacity:1"
           d="M 37.041666,89.958332 V 185.20833"
           id="path1033" />
        <path
           style="fill:none;fill-opacity:1;stroke:#010000;stroke-width:0.529167;stroke-linecap:butt;stroke-linejoin:miter;stroke-miterlimit:4;stroke-dasharray:none;stroke-opacity:1"
           d="M 47.624999,89.958332 V 185.20833"
           id="path1035" />
        <path
           style="fill:none;fill-opacity:1;stroke:#010000;stroke-width:0.529167;stroke-linecap:butt;stroke-linejoin:miter;stroke-miterlimit:4;stroke-dasharray:none;stroke-opacity:1"
           d="M 58.208333,89.958332 V 185.20833"
           id="path1037" />
        <path
           style="fill:none;fill-opacity:1;stroke:#010000;stroke-width:0.529167;stroke-linecap:butt;stroke-linejoin:miter;stroke-miterlimit:4;stroke-dasharray:none;stroke-opacity:1"
           d="M 68.791666,89.958332 V 185.20833"
           id="path1039" />
        <path
           style="fill:none;fill-opacity:1;stroke:#010000;stroke-width:0.529167;stroke-linecap:butt;stroke-linejoin:miter;stroke-miterlimit:4;stroke-dasharray:none;stroke-opacity:1"
           d="M 79.374999,89.958332 V 185.20833"
           id="path1041" />
        <path
           style="fill:none;fill-opacity:1;stroke:#010000;stroke-width:0.529167;stroke-linecap:butt;stroke-linejoin:miter;stroke-miterlimit:4;stroke-dasharray:none;stroke-opacity:1"
           d="M 89.958332,89.958332 V 185.20833"
           id="path1043" />
        <path
           style="fill:none;fill-opacity:1;stroke:#010000;stroke-width:0.529167;stroke-linecap:butt;stroke-linejoin:miter;stroke-miterlimit:4;stroke-dasharray:none;stroke-opacity:1"
           d="M 100.54167,89.958332 V 185.20833"
           id="path1045" />
        <path
           style="fill:none;fill-opacity:1;stroke:#010000;stroke-width:0.529167;stroke-linecap:butt;stroke-linejoin:miter;stroke-miterlimit:4;stroke-dasharray:none;stroke-opacity:1"
           d="m 15.875,100.54167 h 95.25"
           id="path1047" />
        <path
           style="fill:none;fill-opacity:1;stroke:#010000;stroke-width:0.529167;stroke-linecap:butt;stroke-linejoin:miter;stroke-miterlimit:4;stroke-dasharray:none;stroke-opacity:1"
           d="m 15.875,111.125 h 95.25"
           id="path1049" />
        <path
           style="fill:none;fill-opacity:1;stroke:#010000;stroke-width:0.529167;stroke-linecap:butt;stroke-linejoin:miter;stroke-miterlimit:4;stroke-dasharray:none;stroke-opacity:1"
           d="m 15.875,121.70833 h 95.25"
           id="path1051" />
        <path
           style="fill:none;fill-opacity:1;stroke:#010000;stroke-width:0.529167;stroke-linecap:butt;stroke-linejoin:miter;stroke-miterlimit:4;stroke-dasharray:none;stroke-opacity:1"
           d="m 15.875,132.29166 h 95.25"
           id="path1053" />
        <path
           style="fill:none;fill-opacity:1;stroke:#010000;stroke-width:0.529167;stroke-linecap:butt;stroke-linejoin:miter;stroke-miterlimit:4;stroke-dasharray:none;stroke-opacity:1"
           d="m 15.875,142.875 h 95.25"
           id="path1055" />
        <path
           style="fill:none;fill-opacity:1;stroke:#010000;stroke-width:0.529167;stroke-linecap:butt;stroke-linejoin:miter;stroke-miterlimit:4;stroke-dasharray:none;stroke-opacity:1"
           d="m 15.875,153.45833 h 95.25"
           id="path1057" />
        <path
           style="fill:none;fill-opacity:1;stroke:#010000;stroke-width:0.529167;stroke-linecap:butt;stroke-linejoin:miter;stroke-miterlimit:4;stroke-dasharray:none;stroke-opacity:1"
           d="m 15.875,164.04166 h 95.25"
           id="path1059" />
        <path
           style="fill:none;fill-opacity:1;stroke:#010000;stroke-width:0.529167;stroke-linecap:butt;stroke-linejoin:miter;stroke-miterlimit:4;stroke-dasharray:none;stroke-opacity:1"
           d="m 15.875,174.625 h 95.25"
           id="path1061" />
      </g>
      <text
         xml:space="preserve"
         style="font-size:8.46667px;line-height:1.25;font-family:sans-serif;letter-spacing:0px;word-spacing:0px;stroke-width:0.264583"
         x="18.738266"
         y="98.038986"
         id="text2353"><tspan
           sodipodi:role="line"
           id="tspan2351"
           style="stroke-width:0.264583"
           x="18.738266"
           y="98.038986">x</tspan></text>
      <text
         xml:space="preserve"
         style="font-size:6.35px;line-height:1.25;font-family:sans-serif;letter-spacing:0px;word-spacing:0px;stroke-width:0.264583"
         x="29.436121"
         y="97.833366"
         id="text2753"><tspan
           sodipodi:role="line"
           id="tspan2751"
           style="font-size:6.35px;stroke-width:0.264583"
           x="29.436121"
           y="97.833366">5</tspan></text>
      <text
         xml:space="preserve"
         style="font-size:6.35px;line-height:1.25;font-family:sans-serif;letter-spacing:0px;word-spacing:0px;stroke-width:0.264583"
         x="71.769455"
         y="97.698624"
         id="text3837"><tspan
           sodipodi:role="line"
           id="tspan3835"
           style="font-size:6.35px;stroke-width:0.264583"
           x="71.769455"
           y="97.698624">6</tspan></text>
      <text
         xml:space="preserve"
         style="font-size:6.35px;line-height:1.25;font-family:sans-serif;letter-spacing:0px;word-spacing:0px;stroke-width:0.264583"
         x="19.049997"
         y="119.0625"
         id="text4567"><tspan
           sodipodi:role="line"
           id="tspan4565"
           style="font-size:6.35px;stroke-width:0.264583"
           x="19.049997"
           y="119.0625">2</tspan></text>
      <text
         xml:space="preserve"
         style="font-size:6.35px;line-height:1.25;font-family:sans-serif;letter-spacing:0px;word-spacing:0px;stroke-width:0.264583"
         x="38.350266"
         y="129.36693"
         id="text5187"><tspan
           sodipodi:role="line"
           id="tspan5185"
           style="font-size:6.35px;stroke-width:0.264583"
           x="38.350266"
           y="129.36693">40</tspan></text>
      <text
         xml:space="preserve"
         style="font-size:6.35px;line-height:1.25;font-family:sans-serif;letter-spacing:0px;word-spacing:0px;stroke-width:0.264583"
         x="59.463875"
         y="139.83476"
         id="text11089"><tspan
           sodipodi:role="line"
           id="tspan11087"
           style="font-size:6.35px;stroke-width:0.264583"
           x="59.463875"
           y="139.83476">49</tspan></text>
      <text
         xml:space="preserve"
         style="font-size:6.35px;line-height:1.25;font-family:sans-serif;letter-spacing:0px;word-spacing:0px;stroke-width:0.264583"
         x="80.630547"
         y="150.48051"
         id="text12413"><tspan
           sodipodi:role="line"
           id="tspan12411"
           style="font-size:6.35px;stroke-width:0.264583"
           x="80.630547"
           y="150.48051">36</tspan></text>
      <text
         xml:space="preserve"
         style="font-size:6.35px;line-height:1.25;font-family:sans-serif;letter-spacing:0px;word-spacing:0px;stroke-width:0.264583"
         x="27.319454"
         y="150.6153"
         id="text13935"><tspan
           sodipodi:role="line"
           id="tspan13933"
           style="font-size:6.35px;stroke-width:0.264583"
           x="27.319454"
           y="150.6153">20</tspan></text>
      <text
         xml:space="preserve"
         style="font-size:6.35px;line-height:1.25;font-family:sans-serif;letter-spacing:0px;word-spacing:0px;stroke-width:0.264583"
         x="38.099998"
         y="161.19862"
         id="text15181"><tspan
           sodipodi:role="line"
           id="tspan15179"
           style="font-size:6.35px;stroke-width:0.264583"
           x="38.099998"
           y="161.19862">72</tspan></text>
      <text
         xml:space="preserve"
         style="font-size:6.35px;line-height:1.25;font-family:sans-serif;letter-spacing:0px;word-spacing:0px;stroke-width:0.264583"
         x="50.934738"
         y="171.78197"
         id="text16559"><tspan
           sodipodi:role="line"
           id="tspan16557"
           style="font-size:6.35px;stroke-width:0.264583"
           x="50.934738"
           y="171.78197">9</tspan></text>
      <text
         xml:space="preserve"
         style="font-size:6.35px;line-height:1.25;font-family:sans-serif;letter-spacing:0px;word-spacing:0px;stroke-width:0.264583"
         x="101.60001"
         y="171.97917"
         id="text17399"><tspan
           sodipodi:role="line"
           id="tspan17397"
           style="font-size:6.35px;stroke-width:0.264583"
           x="101.60001"
           y="171.97917">12</tspan></text>
      <text
         xml:space="preserve"
         style="font-size:6.35px;line-height:1.25;font-family:sans-serif;letter-spacing:0px;word-spacing:0px;stroke-width:0.264583"
         x="70.047211"
         y="182.3653"
         id="text18843"><tspan
           sodipodi:role="line"
           id="tspan18841"
           style="font-size:6.35px;stroke-width:0.264583"
           x="70.047211"
           y="182.3653">48</tspan></text>
      <path
         style="opacity:0.530097;fill:#a0a0a0;stroke:none;stroke-width:0.745365"
         d="m 100.99696,360.01129 v -19.0068 h 19.0068 19.00681 v 19.0068 19.00681 h -19.00681 -19.0068 z m 22.02215,8.2329 c 3.72306,-3.72307 1.45968,-9.35094 -3.76071,-9.35094 -2.40173,0 -2.60878,-0.17747 -2.60878,-2.2361 0,-2.21351 0.0414,-2.23609 4.09951,-2.23609 3.1471,0 4.09951,-0.25975 4.09951,-1.11805 0,-0.88734 -1.07664,-1.11805 -5.21756,-1.11805 h -5.21755 v 4.47219 4.47219 h 2.92822 c 3.51452,0 5.54389,1.67961 4.82295,3.99171 -0.27415,0.87919 -0.87251,1.84495 -1.32969,2.14614 -1.20281,0.79239 -4.05598,0.69214 -5.72512,-0.20115 -1.1863,-0.63489 -1.44173,-0.52484 -1.44173,0.62113 0,2.03361 0.62965,2.38655 4.25762,2.38655 2.47144,0 3.70795,-0.44415 5.09333,-1.82953 z"
         id="path20305"
         transform="scale(0.26458333)" />
      <path
         style="opacity:0.530097;fill:#a0a0a0;stroke:none;stroke-width:0.745365"
         d="m 141.24667,360.01129 v -19.0068 h 18.63412 18.63413 v 19.0068 19.00681 h -18.63413 -18.63412 z"
         id="path20973"
         transform="scale(0.26458333)" />
      <path
         style="opacity:0.530097;fill:#a0a0a0;stroke:none;stroke-width:0.745365"
         d="m 181.49638,360.01129 v -19.0068 h 18.63412 18.63413 v 19.0068 19.00681 H 200.1305 181.49638 Z"
         id="path21012"
         transform="scale(0.26458333)" />
      <path
         style="opacity:0.504854;fill:#a0a0a0;stroke:none;stroke-width:0.745365"
         d="m 221.00072,360.01129 v -19.0068 h 19.00681 19.00681 v 19.0068 19.00681 h -19.00681 -19.00681 z"
         id="path21402"
         transform="scale(0.26458333)" />
      <path
         style="opacity:0.504854;fill:#a0a0a0;stroke:none;stroke-width:0.745365"
         d="m 261.25043,360.01129 v -19.0068 h 18.63413 18.63412 v 19.0068 19.00681 h -18.63412 -18.63413 z m 20.18582,9.31707 c 1.62968,0 3.66586,-3.10507 3.66586,-5.59024 0,-3.93697 -2.29112,-5.86192 -6.42272,-5.39623 -1.79686,0.20253 -3.26702,0.0588 -3.26702,-0.31945 0,-1.59596 3.75212,-4.34675 5.92904,-4.34675 1.52084,0 2.26997,-0.36897 2.26997,-1.11805 0,-1.46595 -3.8342,-1.48624 -6.64031,-0.0351 -3.74419,1.9362 -5.46502,9.68353 -3.12294,14.05975 1.07765,2.01359 4.16463,3.61151 5.91105,3.05974 0.54596,-0.17249 1.30065,-0.31362 1.67707,-0.31362 z"
         id="path21441"
         transform="scale(0.26458333)" />
      <path
         style="opacity:0.504854;fill:#a0a0a0;stroke:none;stroke-width:0.745365"
         d="m 301.50014,360.01129 v -19.0068 h 18.63413 18.63412 v 19.0068 19.00681 h -18.63412 -18.63413 z"
         id="path21480"
         transform="scale(0.26458333)" />
      <path
         style="opacity:0.6;fill:#a0a0a0;stroke:none;stroke-width:0.527053"
         d="m 276.67868,366.32554 c -0.93557,-0.93556 -1.29367,-1.86827 -1.29367,-3.36945 0,-2.3355 0.51825,-2.71561 3.70259,-2.71561 1.50566,0 2.2487,0.30479 2.85568,1.17138 1.8022,2.573 0.26275,6.20736 -2.62934,6.20736 -0.73787,0 -1.92374,-0.58215 -2.63526,-1.29368 z"
         id="path21558"
         transform="scale(0.26458333)" />
      <path
         style="opacity:0.504854;fill:#a0a0a0;stroke:none;stroke-width:0.745365"
         d="m 341.00449,360.01129 v -19.0068 h 19.0068 19.00681 v 19.0068 19.00681 h -19.00681 -19.0068 z"
         id="path21597"
         transform="scale(0.26458333)" />
      <path
         style="opacity:0.504854;fill:#a0a0a0;stroke:none;stroke-width:0.745365"
         d="m 381.2542,360.01129 v -19.0068 h 18.63412 18.63413 v 19.0068 19.00681 H 399.88832 381.2542 Z"
         id="path21636"
         transform="scale(0.26458333)" />
      <path
         style="opacity:0.508738;fill:#a0a0a0;stroke:none;stroke-width:0.745365"
         d="M 61.492612,399.88832 V 381.2542 h 18.634125 18.634125 v 18.63412 18.63413 H 80.126737 61.492612 Z"
         id="path21675"
         transform="scale(0.26458333)" />
      <path
         style="opacity:0.508738;fill:#a0a0a0;stroke:none;stroke-width:0.745365"
         d="m 61.492612,440.13803 v -18.63412 h 18.634125 18.634125 v 18.63412 18.63413 H 80.126737 61.492612 Z m 24.413931,8.75804 c -0.184518,-0.55937 -1.974507,-1.02038 -4.479084,-1.1536 l -4.171742,-0.22189 3.216251,-2.96463 c 5.522086,-5.09009 6.15822,-9.89305 1.586199,-11.9762 -2.258271,-1.02894 -7.073696,-0.21349 -7.652922,1.29595 -0.630866,1.64401 0,1.88827 2.566335,0.99364 2.997062,-1.04478 5.391252,0.1419 5.391252,2.67218 0,1.25319 -1.397147,3.1676 -4.46862,6.12304 -2.457741,2.36489 -4.470227,4.71907 -4.47219,5.23151 -0.0026,0.67328 1.77098,0.93171 6.394146,0.93171 4.785179,0 6.320251,-0.23484 6.090375,-0.93171 z"
         id="path21714"
         transform="scale(0.26458333)" />
      <path
         style="opacity:0.508738;fill:#a0a0a0;stroke:none;stroke-width:0.745365"
         d="m 61.492612,480.01506 v -19.00681 h 18.634125 18.634125 v 19.00681 19.00681 H 80.126737 61.492612 Z"
         id="path21753"
         transform="scale(0.26458333)" />
      <path
         style="opacity:0.508738;fill:#a0a0a0;stroke:none;stroke-width:0.745365"
         d="m 61.492612,519.89209 v -18.63413 h 18.634125 18.634125 v 18.63413 18.63412 H 80.126737 61.492612 Z"
         id="path21792"
         transform="scale(0.26458333)" />
      <path
         style="opacity:0.508738;fill:#a0a0a0;stroke:none;stroke-width:0.745365"
         d="m 61.492612,560.1418 v -18.63413 h 18.634125 18.634125 v 18.63413 18.63412 H 80.126737 61.492612 Z"
         id="path21831"
         transform="scale(0.26458333)" />
      <path
         style="opacity:0.508738;fill:#a0a0a0;stroke:none;stroke-width:0.745365"
         d="m 61.492612,600.01882 v -19.0068 h 18.634125 18.634125 v 19.0068 19.00681 H 80.126737 61.492612 Z"
         id="path21870"
         transform="scale(0.26458333)" />
      <path
         style="opacity:0.508738;fill:#a0a0a0;stroke:none;stroke-width:0.745365"
         d="m 61.492612,639.89585 v -18.63412 h 18.634125 18.634125 v 18.63412 18.63412 H 80.126737 61.492612 Z"
         id="path21909"
         transform="scale(0.26458333)" />
      <path
         style="opacity:0.508738;fill:#a0a0a0;stroke:none;stroke-width:0.745365"
         d="m 61.492612,680.14556 v -18.63413 h 18.634125 18.634125 v 18.63413 18.63412 H 80.126737 61.492612 Z"
         id="path21948"
         transform="scale(0.26458333)" />
    </g>
  </g>
</svg>
