<?xml version="1.0" encoding="UTF-8" standalone="no"?>
<svg
   xmlns:dc="http://purl.org/dc/elements/1.1/"
   xmlns:cc="http://creativecommons.org/ns#"
   xmlns:rdf="http://www.w3.org/1999/02/22-rdf-syntax-ns#"
   xmlns:svg="http://www.w3.org/2000/svg"
   xmlns="http://www.w3.org/2000/svg"
   xmlns:sodipodi="http://sodipodi.sourceforge.net/DTD/sodipodi-0.dtd"
   xmlns:inkscape="http://www.inkscape.org/namespaces/inkscape"
   width="40.912342mm"
   height="31.184593mm"
   viewBox="0 0 40.912342 31.184593"
   version="1.1"
   id="svg45"
   inkscape:version="1.0.1 (c497b03c, 2020-09-10)"
   sodipodi:docname="40 Two Cheerios in a hand.svg">
  <defs
     id="defs39" />
  <sodipodi:namedview
     id="base"
     pagecolor="#ffffff"
     bordercolor="#666666"
     borderopacity="1.0"
     inkscape:pageopacity="0.0"
     inkscape:pageshadow="2"
     inkscape:zoom="3.959798"
     inkscape:cx="102.08593"
     inkscape:cy="74.601617"
     inkscape:document-units="mm"
     inkscape:current-layer="layer1"
     inkscape:document-rotation="0"
     showgrid="false"
     inkscape:snap-global="false"
     inkscape:window-width="1252"
     inkscape:window-height="943"
     inkscape:window-x="466"
     inkscape:window-y="45"
     inkscape:window-maximized="0"
     fit-margin-top="1"
     fit-margin-left="1"
     fit-margin-bottom="1"
     fit-margin-right="1">
    <inkscape:grid
       type="xygrid"
       id="grid1583"
       originx="-48.651406"
       originy="-100.71693" />
  </sodipodi:namedview>
  <metadata
     id="metadata42">
    <rdf:RDF>
      <cc:Work
         rdf:about="">
        <dc:format>image/svg+xml</dc:format>
        <dc:type
           rdf:resource="http://purl.org/dc/dcmitype/StillImage" />
        <dc:title></dc:title>
      </cc:Work>
    </rdf:RDF>
  </metadata>
  <g
     inkscape:label="Layer 1"
     inkscape:groupmode="layer"
     id="layer1"
     transform="translate(-48.651404,-100.71693)">
    <g
       id="g2110">
      <g
         id="g2097">
        <path
           id="path181-2"
           style="display:inline;fill:none;stroke:#000000;stroke-width:0.264583px;stroke-linecap:butt;stroke-linejoin:miter;stroke-opacity:1"
           d="m 62.585215,115.46732 c -0.29493,-1.25768 -1.51659,-2.7281 -3.14626,-1.91327 m 0.38266,4.84694 c 0.002,-0.41747 -0.2248,-1.3374 -0.42244,-1.53389 -0.19937,-0.19825 -0.71148,-0.0534 -1.10822,0.0458 m -4.80438,2.55103 c 1.57005,2.4798 4.2377,-0.24085 2.84864,-0.93538 m -3.01871,-4.42176 c 0.15185,0.71115 0.29514,1.44061 0.59525,2.04081 0.3555,0.711 1.9923,2.70891 3.10373,2.33844 1.40128,-0.4671 1.49728,-1.52144 0.59524,-2.42347 m -1.23299,-3.91157 c 0.0119,0.46505 3e-5,0.85179 3e-5,1.31803 0,0.38002 0.009,0.69755 0.17007,1.02041 0.3746,0.74919 0.5913,1.61564 1.70068,1.61564 0.1747,0 -0.0164,0.011 0.12756,-0.085 1.05626,-0.70417 1.36565,-2.45576 0.80782,-3.57143 -0.20824,-0.41648 0.94824,-0.46027 0.46769,-0.34013 m -9.1412,7.18538 c 0.0751,3.18034 1.37802,6.07837 1.7432,9.14116 0.035,0.29337 0.3332,2.12758 0,2.21088 2.02647,0.15006 4.07847,-0.085 6.07993,-0.085 0.74724,0 1.99606,0.0856 2.50851,-0.0425 m -10e-6,0.085 c 0.37522,-1.61467 -0.41023,-3.72886 0.34014,-5.22959 0.77258,-1.54516 1.7433,-3.14678 2.08333,-4.84694 0.70214,-2.42355 0.22679,-2.2714 -0.5102,-4.03912 -0.25888,-0.6472 -0.16249,-1.46538 -0.38265,-2.12585 -0.43134,-1.29403 -1.27921,-2.59846 -1.65816,-3.10374 -0.0528,-0.39921 -1.65444,-1.77613 -2.29592,-1.53061 -0.66997,0.25642 -1.6586,0.79811 -1.79212,1.65476 -0.0518,0.33228 -0.29469,0.60346 -0.29122,0.89626 -0.22891,-0.0894 -0.26045,-0.26045 -0.38265,-0.68027 -0.41172,-1.41443 -2.40218,-0.71943 -2.64099,0.59431 -0.11538,0.63474 0.0992,1.50815 0.09,1.95671 -1.55985,-0.96291 -3.26626,1.02795 -2.21087,2.08333 -1.12386,-0.49539 -1.80931,1.9747 -1.14796,2.63606 0.11876,0.11875 0.56303,0.83196 1.0317,1.34384 0.55008,0.60079 1.13376,1.00449 1.26421,1.03711 0.31315,0.0783 1.82824,0.2693 1.82824,-0.34014 0,-1.41462 -2.55537,-2.99343 -2.97619,-4.67687"
           sodipodi:nodetypes="cccsccccssccscscsccscsccsccscsscssccssssc" />
        <path
           style="display:inline;fill:none;stroke:#000000;stroke-width:0.264583px;stroke-linecap:butt;stroke-linejoin:miter;stroke-opacity:1"
           d="m 85.183793,130.11666 c 0.23554,0 -0.0112,-1.64097 -0.12405,-2.46236 -0.18049,-1.31386 -0.33075,-2.60774 0.0295,-3.86874 0.25955,-0.9084 0.24895,-1.94079 0.47247,-2.83483 0.38927,-1.55712 -0.43298,-4.87447 0.47246,-6.14211 0.57516,-0.80522 1.21465,-3.00924 2.16739,-4.67936 0.20232,-0.35466 0.25801,-1.1564 0.21721,-1.57423 -0.0364,-0.37303 -0.0319,-0.56046 -0.25606,-0.6168 -0.43285,-0.10877 -0.42804,-0.4382 -1.1855,0.30753 -0.38313,0.37719 -0.62096,1.25448 -0.97558,2.01251 -0.29989,0.64103 -0.71186,1.13015 -1.07273,1.84337 -0.29527,0.58357 -0.47107,0.88014 -0.89094,0.91244 -0.61839,0.0476 -1.34781,-0.26636 -0.96075,-0.57592 0.1922,-0.15371 2.05917,-7.89217 1.0671,-9.25231 -0.21049,-0.28859 -0.91113,-0.0619 -1.27962,0.40255 -0.37797,0.4764 -0.42125,1.20049 -0.42125,1.67632 0,0.4689 -1.50896,7.51523 -2.55135,6.47284 -0.14,-0.13999 -0.25799,0.008 -0.35887,-0.28993 -0.58362,-1.72468 -0.35779,-6.06348 -0.4544,-8.29118 -0.0412,-0.94954 -0.90481,-1.3837 -1.26559,-1.29351 -0.34753,0.0869 -0.72265,0.49613 -0.89177,1.19983 -0.17038,0.70892 0.0334,1.74908 -0.0246,2.75489 -0.16386,2.84592 -0.18237,6.18577 -0.50109,6.34513 -1.63425,0.81712 -2.69076,-2.34564 -3.48283,-4.2801 -0.24762,-0.60481 -0.335766,-2.0584 -0.541276,-2.2639 -0.299,-0.299 -0.23128,-0.21624 -0.53929,-0.41515 -0.36724,-0.23722 -0.76773,0.0732 -0.97675,0.25624 -0.24671,0.21594 -0.33839,0.33765 -0.37518,0.89402 -0.0788,1.19096 0.50149,2.56423 0.50149,2.71252 0,0.30154 0.17921,0.66014 0.29637,0.98099 0.11366,0.31123 0.16302,0.58498 0.31129,0.86255 0.921,1.72419 2.561856,3.4265 2.065846,5.41056 -0.0653,0.26109 -0.18355,0.50608 -0.28349,0.75595 -0.1739,0.43476 -0.850076,-0.51934 -1.181166,-0.85045 -0.78563,-0.78562 -1.64634,-1.27975 -2.90974,-1.70089 -0.63687,-0.21229 -1.69951,0.29463 -2.07155,0.76547 -0.31592,0.3998 -0.33437,0.74182 -0.2032,1.02664 0.10398,0.22573 0.88229,0.35259 1.02539,0.28103 0.28774,-0.14388 0.74776,0.42519 0.95983,0.68711 0.24568,0.30341 0.272,0.33171 0.5537,0.54733 1.47747,1.13088 2.24553,3.42664 3.259816,4.44093 1.05977,1.05976 1.64669,2.29479 2.89492,3.33497 0.52525,0.43769 0.95951,2.33027 0.88709,3.59924 -0.0331,0.57916 -0.20508,0.98944 -0.002,1.19228 0.32879,0.3288 3.44851,0.5497 3.83117,0.16704 0.45696,-0.45696 3.3792,-1.3e-4 4.08579,0.0894 0.4059,0.0515 1.48013,-0.53996 0.682,-0.53996 z"
           id="path1804-5-8"
           sodipodi:nodetypes="ssssssssssssssssssssssssssssssssssssssssssssssss" />
        <g
           id="g852-3-1-5-9-5"
           transform="matrix(0.06381011,0,0,0.0930587,73.703679,110.75744)">
          <ellipse
             style="fill:none;fill-opacity:1;stroke:#000000;stroke-width:0.529;stroke-miterlimit:4;stroke-dasharray:none;stroke-opacity:1;paint-order:fill markers stroke"
             id="path833-6-5-7-8-0"
             ry="10.016369"
             rx="17.764881"
             cy="70.469635"
             cx="67.925011" />
          <path
             style="fill:none;fill-opacity:1;stroke:#000000;stroke-width:0.529;stroke-miterlimit:4;stroke-dasharray:none;stroke-opacity:1;paint-order:fill markers stroke"
             id="path835-2-0-2-3-4"
             sodipodi:type="arc"
             sodipodi:cx="68.012787"
             sodipodi:cy="67.035416"
             sodipodi:rx="9.0714293"
             sodipodi:ry="6.9372058"
             sodipodi:start="0.41873619"
             sodipodi:end="2.7436473"
             sodipodi:arc-type="arc"
             sodipodi:open="true"
             d="m 76.300477,69.856126 a 9.0714293,6.9372058 0 0 1 -8.38199,4.116121 9.0714293,6.9372058 0 0 1 -8.26828,-4.24849" />
          <path
             style="fill:none;fill-opacity:1;stroke:#000000;stroke-width:0.529;stroke-miterlimit:4;stroke-dasharray:none;stroke-opacity:1;paint-order:fill markers stroke"
             id="path837-2-3-2-5-2"
             sodipodi:type="arc"
             sodipodi:cx="67.978737"
             sodipodi:cy="-72.530098"
             sodipodi:rx="6.4160981"
             sodipodi:ry="4.7247024"
             sodipodi:start="0.16047614"
             sodipodi:end="2.9805176"
             sodipodi:open="true"
             sodipodi:arc-type="arc"
             transform="scale(1,-1)"
             d="m 74.312397,-71.775146 a 6.4160981,4.7247024 0 0 1 -6.331739,3.96975 6.4160981,4.7247024 0 0 1 -6.334966,-3.966957" />
        </g>
        <g
           id="g852-3-1-5-9-5-5"
           transform="matrix(0.06381011,0,0,0.0930587,76.836085,112.07947)">
          <ellipse
             style="fill:none;fill-opacity:1;stroke:#000000;stroke-width:0.529;stroke-miterlimit:4;stroke-dasharray:none;stroke-opacity:1;paint-order:fill markers stroke"
             id="path833-6-5-7-8-0-1"
             ry="10.016369"
             rx="17.764881"
             cy="70.469635"
             cx="67.925011" />
          <path
             style="fill:none;fill-opacity:1;stroke:#000000;stroke-width:0.529;stroke-miterlimit:4;stroke-dasharray:none;stroke-opacity:1;paint-order:fill markers stroke"
             id="path835-2-0-2-3-4-2"
             sodipodi:type="arc"
             sodipodi:cx="68.012787"
             sodipodi:cy="67.035416"
             sodipodi:rx="9.0714293"
             sodipodi:ry="6.9372058"
             sodipodi:start="0.41873619"
             sodipodi:end="2.7436473"
             sodipodi:arc-type="arc"
             sodipodi:open="true"
             d="m 76.300477,69.856126 a 9.0714293,6.9372058 0 0 1 -8.38199,4.116121 9.0714293,6.9372058 0 0 1 -8.26828,-4.24849" />
          <path
             style="fill:none;fill-opacity:1;stroke:#000000;stroke-width:0.529;stroke-miterlimit:4;stroke-dasharray:none;stroke-opacity:1;paint-order:fill markers stroke"
             id="path837-2-3-2-5-2-0"
             sodipodi:type="arc"
             sodipodi:cx="67.978737"
             sodipodi:cy="-72.530098"
             sodipodi:rx="6.4160981"
             sodipodi:ry="4.7247024"
             sodipodi:start="0.16047614"
             sodipodi:end="2.9805176"
             sodipodi:open="true"
             sodipodi:arc-type="arc"
             transform="scale(1,-1)"
             d="m 74.312397,-71.775146 a 6.4160981,4.7247024 0 0 1 -6.331739,3.96975 6.4160981,4.7247024 0 0 1 -6.334966,-3.966957" />
        </g>
      </g>
    </g>
  </g>
</svg>
