<?xml version="1.0" encoding="UTF-8" standalone="no"?>
<!-- Created with Inkscape (http://www.inkscape.org/) -->

<svg
   width="39.460613mm"
   height="225.28374mm"
   viewBox="0 0 39.460613 225.28374"
   version="1.1"
   id="svg2294"
   inkscape:version="1.1 (c4e8f9e, 2021-05-24)"
   sodipodi:docname="70 Fork Gold.svg"
   xmlns:inkscape="http://www.inkscape.org/namespaces/inkscape"
   xmlns:sodipodi="http://sodipodi.sourceforge.net/DTD/sodipodi-0.dtd"
   xmlns="http://www.w3.org/2000/svg"
   xmlns:svg="http://www.w3.org/2000/svg">
  <sodipodi:namedview
     id="namedview2296"
     pagecolor="#ffffff"
     bordercolor="#666666"
     borderopacity="1.0"
     inkscape:pageshadow="2"
     inkscape:pageopacity="0.0"
     inkscape:pagecheckerboard="0"
     inkscape:document-units="mm"
     showgrid="false"
     inkscape:zoom="0.67081229"
     inkscape:cx="17.143395"
     inkscape:cy="489.7048"
     inkscape:window-width="1312"
     inkscape:window-height="997"
     inkscape:window-x="27"
     inkscape:window-y="25"
     inkscape:window-maximized="0"
     inkscape:current-layer="layer1"
     fit-margin-left="1"
     fit-margin-top="1"
     fit-margin-right="1"
     fit-margin-bottom="1" />
  <defs
     id="defs2291" />
  <g
     inkscape:label="Layer 1"
     inkscape:groupmode="layer"
     id="layer1"
     transform="translate(-12.18283,-23.82825)">
    <path
       style="fill:#120000;stroke-width:0.264583;fill-opacity:1;stroke:#000000;stroke-opacity:1"
       d="m 29.470384,247.84933 c -3.725278,-0.87797 -7.453376,-4.52742 -8.764908,-8.57999 -0.690943,-2.13497 -0.69192,-3.69538 -0.0056,-8.87145 3.488137,-26.30512 5.49919,-50.7217 6.247572,-75.85299 l 0.316992,-10.64481 0.673544,0.58968 c 0.641512,0.56164 0.639575,0.55196 -0.04071,-0.20364 l -0.714251,-0.79333 0.142436,-7.01092 c 0.07834,-3.85601 0.02931,-11.89248 -0.108958,-17.85884 -0.240369,-10.3721 -0.27753,-10.90857 -0.847217,-12.2309 -0.760688,-1.76567 -2.454932,-3.33155 -4.277376,-3.95331 -3.19118,-1.08873 -5.051293,-2.25251 -6.351016,-3.9735 -2.669443,-3.53466 -2.917265,-5.51247 -2.236042,-17.84527 0.805566,-14.58392 1.725248,-31.57053 2.261431,-41.76889 0.294558,-5.60255 0.606724,-11.04966 0.693703,-12.10469 l 0.158147,-1.91823 h 1.564926 1.564925 v 3.66301 c 0,2.01465 0.07878,4.95061 0.175073,6.52435 0.136974,2.23866 0.103933,2.81737 -0.151824,2.6593 -0.24774,-0.15311 -0.261384,-0.0832 -0.05635,0.28868 0.166719,0.30238 0.428757,8.15697 0.682792,20.46675 0.407225,19.73291 0.419018,19.98167 0.96892,20.43906 0.306173,0.25466 0.887484,0.46302 1.291804,0.46302 0.404321,0 0.986721,-0.20836 1.294223,-0.46302 0.55409,-0.45888 0.563816,-0.67628 1.086181,-24.27552 0.289896,-13.09688 0.52774,-25.15196 0.528547,-26.78907 l 0.0015,-2.97656 h 1.688378 1.688378 l 0.168259,7.73906 c 0.09254,4.25649 0.224165,9.88219 0.292497,12.50157 0.06833,2.61937 0.255558,11.19187 0.41606,19.05 0.288044,14.10265 0.299161,14.29383 0.859303,14.77703 0.421521,0.36362 0.831982,0.45406 1.5958,0.35161 0.565573,-0.0759 1.143381,-0.25299 1.284015,-0.39362 0.26326,-0.26326 0.585417,-11.2296 0.860361,-29.28711 0.0842,-5.52979 0.208632,-10.8876 0.276524,-11.90625 0.06789,-1.01864 0.137867,-4.32263 0.155499,-7.34218 l 0.03206,-5.49011 h 1.661684 1.661684 l 0.158115,3.63802 c 0.08696,2.00091 0.2242,7.44802 0.304966,12.10469 0.08077,4.65667 0.199747,10.31214 0.264396,12.56771 0.06465,2.25557 0.197905,8.83697 0.296124,14.62534 0.120743,7.11564 0.275048,10.65622 0.476419,10.93161 0.163809,0.22403 0.78585,0.47277 1.382313,0.55278 0.874067,0.11723 1.193107,0.0368 1.644362,-0.41443 0.48577,-0.48577 0.55921,-0.86635 0.554789,-2.87499 -0.0075,-3.41781 0.783362,-41.82722 0.964298,-46.83125 l 0.155464,-4.29948 h 1.404466 1.404469 l 0.151451,1.91823 c 0.0833,1.05503 0.330821,5.37104 0.550052,9.59115 0.502659,9.67595 1.550279,28.99181 2.281651,42.06875 0.669536,11.97136 0.607205,14.62732 -0.400503,17.06562 -0.390919,0.94589 -1.213683,2.37464 -1.828366,3.175 -0.986314,1.28426 -1.49856,1.64545 -4.360452,3.07464 -3.668607,1.83204 -4.000945,2.08316 -4.9989,3.77725 -0.697712,1.18442 -0.723633,1.37796 -0.942753,7.03874 -0.123923,3.20146 -0.160536,6.77833 -0.08136,7.94861 0.117144,1.73148 0.06057,2.2489 -0.303753,2.77812 -0.42129,0.61198 -0.421132,0.62893 0.0027,0.28723 0.421029,-0.33945 0.450665,-0.0376 0.454552,4.63021 0.0042,5.03545 0.353774,16.8962 0.685175,23.24692 0.174562,3.34516 0.165987,3.42653 -0.321138,3.04727 -0.480491,-0.37409 -0.482428,-0.36835 -0.04845,0.14365 0.510628,0.60242 0.552723,1.04858 1.147062,12.15757 0.664469,12.41987 2.346642,36.42439 3.047166,43.48292 0.215014,2.1665 0.200287,2.82518 -0.07065,3.15965 -0.223507,0.27592 -0.23341,0.35724 -0.02854,0.23435 0.381294,-0.22872 0.329009,-0.63333 1.532681,11.86058 1.092943,11.3446 1.109485,11.93636 0.398058,14.23969 -1.17451,3.80262 -4.066607,6.74757 -7.758163,7.89993 -1.658848,0.51782 -5.074756,0.61497 -6.856675,0.195 z m 7.579236,-1.93611 c 3.252621,-1.59137 5.774277,-5.02762 6.134867,-8.35996 0.09667,-0.8934 -0.206941,-5.08149 -0.78641,-10.84792 -0.519131,-5.16599 -0.998911,-10.10709 -1.066176,-10.98021 -0.06726,-0.87313 -0.425045,-5.21891 -0.79507,-9.65729 -2.07717,-24.91527 -3.530103,-50.59874 -4.108625,-72.62813 -0.31187,-11.87553 -0.324019,-22.02054 -0.02967,-24.7754 0.462963,-4.33297 2.24422,-6.49646 6.73077,-8.1751 1.987741,-0.74371 3.927827,-2.54531 4.922819,-4.57143 1.482995,-3.01986 1.50627,-3.46249 0.84826,-16.13114 -0.326647,-6.28893 -0.654024,-11.89907 -0.727501,-12.46696 -0.12418,-0.95977 -0.100291,-1.00671 0.339005,-0.66602 0.445437,0.34545 0.447712,0.33636 0.03961,-0.15809 C 48.205969,66.07693 48.060376,64.87537 47.830721,60.547 47.672436,57.56382 47.239345,49.34851 46.868294,42.29075 46.173958,29.08383 45.969985,26.03477 45.792678,26.21207 c -0.09479,0.0948 -0.675672,24.11332 -1.063946,43.99222 -0.09096,4.65667 -0.279545,8.6814 -0.419089,8.94385 -0.745477,1.40204 -3.358597,1.9307 -4.899417,0.9912 C 37.928335,79.23576 38.142803,82.8022 37.468309,47.847 37.143686,31.02379 36.9655,26.15117 36.674914,26.15117 c -0.396801,0 -0.504905,3.16353 -0.940293,27.51667 -0.238051,13.31515 -0.516808,24.56656 -0.619458,25.00312 -0.548569,2.33296 -5.186519,2.67219 -6.076614,0.44446 -0.268632,-0.67234 -0.600342,-12.01123 -0.953437,-32.59134 -0.07865,-4.5839 -0.208753,-9.44722 -0.289131,-10.80736 -0.126487,-2.14045 -0.08148,-2.54899 0.334724,-3.03815 0.427879,-0.50288 0.429848,-0.52565 0.01783,-0.20659 -0.435456,0.33722 -0.463021,0.15974 -0.463021,-2.98112 1.1e-5,-2.5417 -0.08112,-3.33969 -0.339553,-3.33969 -0.270396,0 -0.451318,5.35144 -0.888232,26.27279 -0.402937,19.29443 -0.634646,26.43344 -0.872358,26.87761 -0.3791,0.70835 -1.774532,1.35377 -2.92693,1.35377 -1.130453,0 -2.545495,-0.64106 -2.907299,-1.3171 C 19.461732,78.79748 19.09847,65.80276 18.539829,36.0069 18.319748,24.26862 17.989278,23.07563 17.458773,32.10429 c -0.102608,1.74625 -0.166251,3.26139 -0.14143,3.36698 0.02482,0.10559 -0.131101,3.32028 -0.346488,7.14375 -0.215387,3.82348 -0.692245,12.54771 -1.059686,19.38719 -0.36744,6.83948 -0.845087,15.5594 -1.061442,19.37761 -0.497911,8.78714 -0.493387,10.48378 0.03269,12.25822 1.174853,3.96273 3.093633,5.90502 7.142345,7.22986 2.812614,0.92035 4.527548,2.44551 5.700536,5.06971 0.535609,1.19826 0.602297,1.90945 0.792564,8.4521 0.242705,8.34577 0.208664,27.19677 -0.06689,37.04167 -0.706668,25.24767 -2.689717,50.62648 -5.923105,75.80313 -0.832414,6.48155 -0.908125,6.92253 -1.161617,6.76587 -0.113913,-0.0704 -0.207118,0.0401 -0.207118,0.24558 0,0.20548 0.07834,0.32518 0.174085,0.26602 0.09575,-0.0592 0.191244,0.54459 0.212215,1.3417 0.126899,4.82314 3.097842,8.79422 7.856426,10.5012 2.013572,0.72232 5.704335,0.50917 7.647758,-0.44166 z"
       id="path2005"
       sodipodi:nodetypes="sscscsscsssssssscccsssssssssscccssssssssscccssssssssscccsssssssssssssssssssssssssssssssssssssssssssssssssssssssssssssssssssssssssssss" />
    <path
       style="fill:#c83737;stroke:#000000;stroke-width:1.49100002;fill-opacity:1;stroke-opacity:1;stroke-miterlimit:4;stroke-dasharray:none"
       d="M 64.031629,839.54025 C 47.201751,833.05576 36.976103,818.8896 36.404844,801.26737 36.285243,797.57781 37.568361,784.49666 39.256223,772.19814 54.355498,662.17801 63.428328,521.53722 63.250132,400.261 63.157227,337.03226 61.833734,314.9342 57.652824,306.80405 53.679005,299.07662 47.344478,294.13593 35.955173,289.88074 18.060725,283.19512 9.689745,270.20043 9.689745,249.10756 c 0,-6.00216 1.670805,-41.02779 3.712899,-77.83473 2.042094,-36.80695 4.705219,-86.299666 5.918055,-109.983807 1.212835,-23.684143 2.560759,-43.417681 2.995386,-43.852308 0.434627,-0.434627 0.79023,7.272587 0.79023,17.127142 0,26.845893 2.785283,143.580283 3.845995,161.190083 l 0.926139,15.37563 4.901741,2.33746 c 5.607889,2.67422 14.246893,1.72582 17.250934,-1.89382 2.094461,-2.52367 3.396927,-34.23603 5.221841,-127.140991 0.59874,-30.481377 1.434181,-55.075123 1.856537,-54.652768 0.89082,0.890822 1.17293,9.830385 3.308577,104.843269 0.871828,38.78673 2.192825,72.11966 2.93555,74.07317 2.771334,7.28917 13.545075,9.02766 20.242863,3.26646 l 4.008695,-3.44813 1.262164,-57.29912 c 0.694188,-31.51451 1.755588,-75.076066 2.358664,-96.803455 L 92.322518,14.9073 93.432664,43.976535 c 0.61058,15.988079 1.744681,59.256515 2.520225,96.152085 0.775543,36.89557 1.856661,68.19538 2.402484,69.55514 1.453757,3.62162 8.896597,6.21348 14.710607,5.12277 10.28273,-1.92905 9.6692,2.90087 11.91637,-93.80968 1.11836,-48.130862 2.32895,-87.806221 2.69019,-88.167459 0.36124,-0.361238 2.14106,27.322866 3.95516,61.520231 1.81409,34.197368 3.57633,66.872828 3.91608,72.612138 2.69513,45.52868 4.10092,81.58218 3.48178,89.2954 -1.26788,15.79515 -9.39924,26.97176 -24.47438,33.64021 -10.64756,4.70992 -16.919582,10.16478 -20.439662,17.77667 -2.921328,6.31715 -3.218353,9.86905 -3.691006,44.13824 -1.203851,87.2841 8.929185,273.06658 22.211168,407.22685 4.25191,42.94825 4.29934,51.97884 0.31272,59.54526 -8.05394,15.28604 -20.021067,23.01188 -35.346454,22.81928 -4.963402,-0.0623 -11.068244,-0.90091 -13.566317,-1.86342 z"
       id="path1769"
       transform="matrix(0.26458333,0,0,0.26458333,12.18283,23.82825)" />
  </g>
</svg>
