<?xml version="1.0" encoding="UTF-8" standalone="no"?>
<!-- Created with Inkscape (http://www.inkscape.org/) -->

<svg
   width="95.899849mm"
   height="223.95227mm"
   viewBox="0 0 95.899848 223.95227"
   version="1.1"
   id="svg2294"
   inkscape:version="1.1 (c4e8f9e, 2021-05-24)"
   sodipodi:docname="EFM70ForkGold.svg"
   xmlns:inkscape="http://www.inkscape.org/namespaces/inkscape"
   xmlns:sodipodi="http://sodipodi.sourceforge.net/DTD/sodipodi-0.dtd"
   xmlns="http://www.w3.org/2000/svg"
   xmlns:svg="http://www.w3.org/2000/svg">
  <sodipodi:namedview
     id="namedview2296"
     pagecolor="#ffffff"
     bordercolor="#666666"
     borderopacity="1.0"
     inkscape:pageshadow="2"
     inkscape:pageopacity="0.0"
     inkscape:pagecheckerboard="0"
     inkscape:document-units="mm"
     showgrid="false"
     inkscape:zoom="0.67081229"
     inkscape:cx="14.161935"
     inkscape:cy="486.72334"
     inkscape:window-width="1312"
     inkscape:window-height="997"
     inkscape:window-x="27"
     inkscape:window-y="25"
     inkscape:window-maximized="0"
     inkscape:current-layer="layer1"
     fit-margin-left="0.2"
     fit-margin-top="0.2"
     fit-margin-right="0.2"
     fit-margin-bottom="0.2" />
  <defs
     id="defs2291" />
  <g
     inkscape:label="Layer 1"
     inkscape:groupmode="layer"
     id="layer1"
     transform="translate(-12.850205,-24.495959)">
    <path
       style="fill:#120000;fill-opacity:1;stroke:#000000;stroke-width:0.264583;stroke-opacity:1"
       d="m 29.470384,247.84933 c -3.725278,-0.87797 -7.453376,-4.52742 -8.764908,-8.57999 -0.690943,-2.13497 -0.69192,-3.69538 -0.0056,-8.87145 3.488137,-26.30512 5.49919,-50.7217 6.247572,-75.85299 l 0.316992,-10.64481 0.673544,0.58968 c 0.641512,0.56164 0.639575,0.55196 -0.04071,-0.20364 l -0.714251,-0.79333 0.142436,-7.01092 c 0.07834,-3.85601 0.02931,-11.89248 -0.108958,-17.85884 -0.240369,-10.3721 -0.27753,-10.90857 -0.847217,-12.2309 -0.760688,-1.76567 -2.454932,-3.33155 -4.277376,-3.95331 -3.19118,-1.08873 -5.051293,-2.25251 -6.351016,-3.9735 -2.669443,-3.53466 -2.917265,-5.51247 -2.236042,-17.84527 0.805566,-14.58392 1.725248,-31.57053 2.261431,-41.76889 0.294558,-5.60255 0.606724,-11.04966 0.693703,-12.10469 l 0.158147,-1.91823 h 1.564926 1.564925 v 3.66301 c 0,2.01465 0.07878,4.95061 0.175073,6.52435 0.136974,2.23866 0.103933,2.81737 -0.151824,2.6593 -0.24774,-0.15311 -0.261384,-0.0832 -0.05635,0.28868 0.166719,0.30238 0.428757,8.15697 0.682792,20.46675 0.407225,19.73291 0.419018,19.98167 0.96892,20.43906 0.306173,0.25466 0.887484,0.46302 1.291804,0.46302 0.404321,0 0.986721,-0.20836 1.294223,-0.46302 0.55409,-0.45888 0.563816,-0.67628 1.086181,-24.27552 0.289896,-13.09688 0.52774,-25.15196 0.528547,-26.78907 l 0.0015,-2.97656 h 1.688378 1.688378 l 0.168259,7.73906 c 0.09254,4.25649 0.224165,9.88219 0.292497,12.50157 0.06833,2.61937 0.255558,11.19187 0.41606,19.05 0.288044,14.10265 0.299161,14.29383 0.859303,14.77703 0.421521,0.36362 0.831982,0.45406 1.5958,0.35161 0.565573,-0.0759 1.143381,-0.25299 1.284015,-0.39362 0.26326,-0.26326 0.585417,-11.2296 0.860361,-29.28711 0.0842,-5.52979 0.208632,-10.8876 0.276524,-11.90625 0.06789,-1.01864 0.137867,-4.32263 0.155499,-7.34218 l 0.03206,-5.49011 h 1.661684 1.661684 l 0.158115,3.63802 c 0.08696,2.00091 0.2242,7.44802 0.304966,12.10469 0.08077,4.65667 0.199747,10.31214 0.264396,12.56771 0.06465,2.25557 0.197905,8.83697 0.296124,14.62534 0.120743,7.11564 0.275048,10.65622 0.476419,10.93161 0.163809,0.22403 0.78585,0.47277 1.382313,0.55278 0.874067,0.11723 1.193107,0.0368 1.644362,-0.41443 0.48577,-0.48577 0.55921,-0.86635 0.554789,-2.87499 -0.0075,-3.41781 0.783362,-41.82722 0.964298,-46.83125 l 0.155464,-4.29948 h 1.404466 1.404469 l 0.151451,1.91823 c 0.0833,1.05503 0.330821,5.37104 0.550052,9.59115 0.502659,9.67595 1.550279,28.99181 2.281651,42.06875 0.669536,11.97136 0.607205,14.62732 -0.400503,17.06562 -0.390919,0.94589 -1.213683,2.37464 -1.828366,3.175 -0.986314,1.28426 -1.49856,1.64545 -4.360452,3.07464 -3.668607,1.83204 -4.000945,2.08316 -4.9989,3.77725 -0.697712,1.18442 -0.723633,1.37796 -0.942753,7.03874 -0.123923,3.20146 -0.160536,6.77833 -0.08136,7.94861 0.117144,1.73148 0.06057,2.2489 -0.303753,2.77812 -0.42129,0.61198 -0.421132,0.62893 0.0027,0.28723 0.421029,-0.33945 0.450665,-0.0376 0.454552,4.63021 0.0042,5.03545 0.353774,16.8962 0.685175,23.24692 0.174562,3.34516 0.165987,3.42653 -0.321138,3.04727 -0.480491,-0.37409 -0.482428,-0.36835 -0.04845,0.14365 0.510628,0.60242 0.552723,1.04858 1.147062,12.15757 0.664469,12.41987 2.346642,36.42439 3.047166,43.48292 0.215014,2.1665 0.200287,2.82518 -0.07065,3.15965 -0.223507,0.27592 -0.23341,0.35724 -0.02854,0.23435 0.381294,-0.22872 0.329009,-0.63333 1.532681,11.86058 1.092943,11.3446 1.109485,11.93636 0.398058,14.23969 -1.17451,3.80262 -4.066607,6.74757 -7.758163,7.89993 -1.658848,0.51782 -5.074756,0.61497 -6.856675,0.195 z m 7.579236,-1.93611 c 3.252621,-1.59137 5.774277,-5.02762 6.134867,-8.35996 0.09667,-0.8934 -0.206941,-5.08149 -0.78641,-10.84792 -0.519131,-5.16599 -0.998911,-10.10709 -1.066176,-10.98021 -0.06726,-0.87313 -0.425045,-5.21891 -0.79507,-9.65729 -2.07717,-24.91527 -3.530103,-50.59874 -4.108625,-72.62813 -0.31187,-11.87553 -0.324019,-22.02054 -0.02967,-24.7754 0.462963,-4.33297 2.24422,-6.49646 6.73077,-8.1751 1.987741,-0.74371 3.927827,-2.54531 4.922819,-4.57143 1.482995,-3.01986 1.50627,-3.46249 0.84826,-16.13114 -0.326647,-6.28893 -0.654024,-11.89907 -0.727501,-12.46696 -0.12418,-0.95977 -0.100291,-1.00671 0.339005,-0.66602 0.445437,0.34545 0.447712,0.33636 0.03961,-0.15809 C 48.205969,66.07693 48.060376,64.87537 47.830721,60.547 47.672436,57.56382 47.239345,49.34851 46.868294,42.29075 46.173958,29.08383 45.969985,26.03477 45.792678,26.21207 c -0.09479,0.0948 -0.675672,24.11332 -1.063946,43.99222 -0.09096,4.65667 -0.279545,8.6814 -0.419089,8.94385 -0.745477,1.40204 -3.358597,1.9307 -4.899417,0.9912 C 37.928335,79.23576 38.142803,82.8022 37.468309,47.847 37.143686,31.02379 36.9655,26.15117 36.674914,26.15117 c -0.396801,0 -0.504905,3.16353 -0.940293,27.51667 -0.238051,13.31515 -0.516808,24.56656 -0.619458,25.00312 -0.548569,2.33296 -5.186519,2.67219 -6.076614,0.44446 -0.268632,-0.67234 -0.600342,-12.01123 -0.953437,-32.59134 -0.07865,-4.5839 -0.208753,-9.44722 -0.289131,-10.80736 -0.126487,-2.14045 -0.08148,-2.54899 0.334724,-3.03815 0.427879,-0.50288 0.429848,-0.52565 0.01783,-0.20659 -0.435456,0.33722 -0.463021,0.15974 -0.463021,-2.98112 1.1e-5,-2.5417 -0.08112,-3.33969 -0.339553,-3.33969 -0.270396,0 -0.451318,5.35144 -0.888232,26.27279 -0.402937,19.29443 -0.634646,26.43344 -0.872358,26.87761 -0.3791,0.70835 -1.774532,1.35377 -2.92693,1.35377 -1.130453,0 -2.545495,-0.64106 -2.907299,-1.3171 C 19.461732,78.79748 19.09847,65.80276 18.539829,36.0069 18.319748,24.26862 17.989278,23.07563 17.458773,32.10429 c -0.102608,1.74625 -0.166251,3.26139 -0.14143,3.36698 0.02482,0.10559 -0.131101,3.32028 -0.346488,7.14375 -0.215387,3.82348 -0.692245,12.54771 -1.059686,19.38719 -0.36744,6.83948 -0.845087,15.5594 -1.061442,19.37761 -0.497911,8.78714 -0.493387,10.48378 0.03269,12.25822 1.174853,3.96273 3.093633,5.90502 7.142345,7.22986 2.812614,0.92035 4.527548,2.44551 5.700536,5.06971 0.535609,1.19826 0.602297,1.90945 0.792564,8.4521 0.242705,8.34577 0.208664,27.19677 -0.06689,37.04167 -0.706668,25.24767 -2.689717,50.62648 -5.923105,75.80313 -0.832414,6.48155 -0.908125,6.92253 -1.161617,6.76587 -0.113913,-0.0704 -0.207118,0.0401 -0.207118,0.24558 0,0.20548 0.07834,0.32518 0.174085,0.26602 0.09575,-0.0592 0.191244,0.54459 0.212215,1.3417 0.126899,4.82314 3.097842,8.79422 7.856426,10.5012 2.013572,0.72232 5.704335,0.50917 7.647758,-0.44166 z"
       id="path2005"
       sodipodi:nodetypes="sscscsscsssssssscccsssssssssscccssssssssscccssssssssscccsssssssssssssssssssssssssssssssssssssssssssssssssssssssssssssssssssssssssssss" />
    <path
       style="fill:#c83737;fill-opacity:1;stroke:#000000;stroke-width:1.491;stroke-miterlimit:4;stroke-dasharray:none;stroke-opacity:1"
       d="M 64.031629,839.54025 C 47.201751,833.05576 36.976103,818.8896 36.404844,801.26737 36.285243,797.57781 37.568361,784.49666 39.256223,772.19814 54.355498,662.17801 63.428328,521.53722 63.250132,400.261 63.157227,337.03226 61.833734,314.9342 57.652824,306.80405 53.679005,299.07662 47.344478,294.13593 35.955173,289.88074 18.060725,283.19512 9.689745,270.20043 9.689745,249.10756 c 0,-6.00216 1.670805,-41.02779 3.712899,-77.83473 2.042094,-36.80695 4.705219,-86.299666 5.918055,-109.983807 1.212835,-23.684143 2.560759,-43.417681 2.995386,-43.852308 0.434627,-0.434627 0.79023,7.272587 0.79023,17.127142 0,26.845893 2.785283,143.580283 3.845995,161.190083 l 0.926139,15.37563 4.901741,2.33746 c 5.607889,2.67422 14.246893,1.72582 17.250934,-1.89382 2.094461,-2.52367 3.396927,-34.23603 5.221841,-127.140991 0.59874,-30.481377 1.434181,-55.075123 1.856537,-54.652768 0.89082,0.890822 1.17293,9.830385 3.308577,104.843269 0.871828,38.78673 2.192825,72.11966 2.93555,74.07317 2.771334,7.28917 13.545075,9.02766 20.242863,3.26646 l 4.008695,-3.44813 1.262164,-57.29912 c 0.694188,-31.51451 1.755588,-75.076066 2.358664,-96.803455 L 92.322518,14.9073 93.432664,43.976535 c 0.61058,15.988079 1.744681,59.256515 2.520225,96.152085 0.775543,36.89557 1.856661,68.19538 2.402484,69.55514 1.453757,3.62162 8.896597,6.21348 14.710607,5.12277 10.28273,-1.92905 9.6692,2.90087 11.91637,-93.80968 1.11836,-48.130862 2.32895,-87.806221 2.69019,-88.167459 0.36124,-0.361238 2.14106,27.322866 3.95516,61.520231 1.81409,34.197368 3.57633,66.872828 3.91608,72.612138 2.69513,45.52868 4.10092,81.58218 3.48178,89.2954 -1.26788,15.79515 -9.39924,26.97176 -24.47438,33.64021 -10.64756,4.70992 -16.919582,10.16478 -20.439662,17.77667 -2.921328,6.31715 -3.218353,9.86905 -3.691006,44.13824 -1.203851,87.2841 8.929185,273.06658 22.211168,407.22685 4.25191,42.94825 4.29934,51.97884 0.31272,59.54526 -8.05394,15.28604 -20.021067,23.01188 -35.346454,22.81928 -4.963402,-0.0623 -11.068244,-0.90091 -13.566317,-1.86342 z"
       id="path1769"
       transform="matrix(0.26458333,0,0,0.26458333,12.18283,23.82825)" />
    <path
       d="m 81.528381,247.89494 c -3.314181,-1.06201 -5.966581,-3.39839 -7.498029,-6.60469 -1.431552,-2.99715 -1.548281,-4.53755 -0.771671,-10.1832 4.373941,-31.79691 6.502501,-64.15632 6.474471,-98.42826 -0.01561,-19.035 -0.267872,-26.20689 -0.978451,-27.81328 -0.779639,-1.76248 -2.08244,-2.91183 -4.455681,-3.93085 -3.72717,-1.600354 -5.893218,-3.193945 -7.91817,-5.82552 -3.637568,-4.727263 -5.436941,-11.776194 -5.417679,-21.223441 0.01109,-5.43655 0.357552,-8.325059 1.099534,-9.166828 0.60243,-0.683451 0.602739,-0.686811 0.01778,-0.193411 -0.75134,0.633749 -0.752295,0.71114 0.05057,-4.096601 2.846503,-17.045458 9.708555,-30.25312 17.874956,-34.404609 1.48746,-0.75617 2.04671,-0.88895 4.13979,-0.98287 1.83,-0.0821 2.76089,0.005 3.81817,0.35579 2.35488,0.78217 4.55877,2.267459 6.644,4.477661 0.81468,0.863499 0.93036,1.1161 0.6664,1.455208 -0.27751,0.356511 -0.26118,0.364792 0.12442,0.0631 0.39259,-0.307109 0.61256,-0.108558 1.90538,1.719789 4.553379,6.439563 8.598859,17.375161 10.080059,27.24808 0.23639,1.575612 0.49604,3.207062 0.577,3.62545 0.11487,0.593671 0.0684,0.713231 -0.21183,0.544522 -0.30087,-0.181171 -0.30161,-0.14537 -0.005,0.22103 0.82344,1.015701 1.0904,10.602409 0.4475,16.070141 -1.2466,10.60199 -5.32845,17.053144 -12.640129,19.977069 -2.46395,0.98534 -3.63906,1.91107 -4.55647,3.58951 l -0.78424,1.43481 -0.19146,6.74688 c -0.18205,6.4153 -0.11308,15.95336 0.1795,24.82292 0.0953,2.88794 0.0508,4.0019 -0.15465,3.87491 -0.20354,-0.12579 -0.21001,-0.0339 -0.022,0.3125 0.1465,0.26989 0.39938,3.94352 0.56196,8.16363 0.31013,8.05008 1.14687,24.12257 1.58405,30.42708 0.14128,2.03729 0.44221,6.38307 0.66875,9.65729 0.96593,13.96102 2.37069,30.38221 3.469,40.5515 0.59244,5.48545 0.63875,6.52732 0.3628,8.16329 -0.61006,3.61688 -3.2016,7.05636 -6.56267,8.71001 -1.59686,0.78565 -2.03304,0.87746 -4.54452,0.95641 -1.96811,0.0619 -3.14426,-0.03 -4.03387,-0.31506 z m 7.73804,-1.75313 c 1.91915,-0.89215 3.75052,-2.55363 4.76056,-4.31901 0.9352,-1.63457 1.68922,-4.82047 1.46908,-6.2072 -0.24057,-1.51548 -1.15925,-10.68298 -1.85737,-18.53473 -2.14182,-24.08886 -3.66081,-47.15044 -4.36554,-66.27812 -0.15548,-4.22011 -0.31952,-8.29585 -0.36452,-9.05722 -0.0718,-1.21473 -0.0321,-1.34437 0.32379,-1.05833 0.31569,0.2537 0.30577,0.18094 -0.0448,-0.32822 -0.36559,-0.53101 -0.4504,-1.28078 -0.4504,-3.98198 0,-2.29581 0.10257,-3.43829 0.33073,-3.68411 0.1819,-0.19597 0.19946,-0.28314 0.039,-0.1937 -0.43639,0.24325 -0.63748,-3.59143 -0.61362,-11.70115 0.0311,-10.57212 0.28853,-14.96654 0.96516,-16.47615 0.94637,-2.11143 2.44769,-3.4788 5.04128,-4.591487 3.14568,-1.349531 4.66066,-2.371598 6.606779,-4.457186 1.98375,-2.125918 3.96755,-6.007174 4.81765,-9.425596 0.65308,-2.626185 1.32696,-8.467212 1.33101,-11.537051 0.003,-2.260841 -0.41394,-8.33573 -0.67795,-9.878161 -0.1457,-0.851228 -0.12446,-0.88573 0.32865,-0.533728 0.46428,0.36068 0.4653,0.353788 0.0245,-0.165642 -0.25293,-0.29808 -0.52025,-0.891339 -0.59405,-1.318358 -1.08955,-6.304672 -2.14517,-10.658031 -3.65276,-15.06389 -3.457449,-10.10421 -8.383229,-17.371042 -13.540629,-19.97604 -1.71402,-0.865751 -1.99794,-0.926041 -4.36075,-0.926041 -2.32748,0 -2.6701,0.0698 -4.33225,0.882459 -8.23387,4.025752 -15.522533,19.915492 -17.67859,38.54046 -0.424728,3.66899 -0.431361,12.820114 -0.01132,15.610386 0.716774,4.761403 2.548498,9.999796 4.281622,12.244661 2.13646,2.767295 4.705951,4.699933 7.993581,6.012377 2.38864,0.953547 3.904999,2.335397 4.845277,4.415477 0.72264,1.59862 0.76323,1.90352 0.96205,7.2253 0.30288,8.10737 0.38816,20.77024 0.13988,20.77 -0.11773,-1.1e-4 -0.14167,0.11692 -0.0532,0.26007 0.0885,0.14315 0.15388,4.22104 0.14535,9.06198 -0.047,26.65602 -2.453108,60.42836 -6.355487,89.20453 -0.29374,2.16604 -0.534072,4.62404 -0.534072,5.46224 0,4.08972 2.483339,7.97404 6.269899,9.80708 1.78103,0.86217 2.61588,1.01592 5.10718,0.94056 1.75786,-0.0532 2.56673,-0.21574 3.70417,-0.74448 z"
       style="fill:#000000;stroke-width:0.0700042"
       id="path1033" />
    <path
       style="fill:#aa0000;stroke:#000000;stroke-width:0.394422;stroke-opacity:1"
       d="m 80.472978,245.81332 c -3.579745,-1.85104 -5.710676,-4.9514 -6.000127,-8.72977 -0.114627,-1.4963 0.283869,-6.2097 1.024082,-12.11279 2.61807,-20.87872 4.247937,-40.62526 5.176306,-62.71314 0.459488,-10.93221 0.479644,-49.63435 0.02831,-54.35807 -0.439401,-4.59881 -1.437437,-5.94497 -6.35743,-8.574964 C 68.099881,95.986724 65.59823,92.729892 63.634624,85.382184 62.453142,80.961148 62.207445,70.951221 63.11499,64.211805 65.508618,46.436769 72.524856,31.510864 80.361261,27.52317 c 2.633685,-1.340197 6.125216,-1.312466 8.900853,0.07069 6.784671,3.380944 13.130606,15.458874 16.251536,30.930818 1.22494,6.072589 1.37584,7.765123 1.37146,15.38247 -0.008,14.037161 -3.21161,21.151882 -11.375575,25.263918 -3.698658,1.862944 -5.545071,3.478824 -6.253231,5.472464 -0.668687,1.88252 -0.652023,34.96386 0.02474,49.13401 1.224954,25.64786 3.396242,55.76217 5.403302,74.94024 0.767667,7.33527 0.73134,9.22781 -0.226256,11.78721 -0.878305,2.34748 -3.084213,4.6637 -5.338723,5.60569 -2.040347,0.85251 -6.734887,0.69106 -8.646401,-0.29736 z"
       id="path2485" />
  </g>
</svg>
