<?xml version="1.0" encoding="UTF-8" standalone="no"?>
<!-- Created with Inkscape (http://www.inkscape.org/) -->

<svg
   width="49.587032mm"
   height="225.21573mm"
   viewBox="0 0 49.587032 225.21573"
   version="1.1"
   id="svg1038"
   inkscape:version="1.1 (c4e8f9e, 2021-05-24)"
   sodipodi:docname="70 Spoon Gold.svg"
   xmlns:inkscape="http://www.inkscape.org/namespaces/inkscape"
   xmlns:sodipodi="http://sodipodi.sourceforge.net/DTD/sodipodi-0.dtd"
   xmlns="http://www.w3.org/2000/svg"
   xmlns:svg="http://www.w3.org/2000/svg">
  <sodipodi:namedview
     id="namedview1040"
     pagecolor="#ffffff"
     bordercolor="#666666"
     borderopacity="1.0"
     inkscape:pageshadow="2"
     inkscape:pageopacity="1"
     inkscape:pagecheckerboard="0"
     inkscape:document-units="mm"
     showgrid="false"
     fit-margin-top="1"
     fit-margin-left="1"
     fit-margin-right="1"
     fit-margin-bottom="1"
     inkscape:zoom="0.67081229"
     inkscape:cx="94.661355"
     inkscape:cy="389.82589"
     inkscape:window-width="1312"
     inkscape:window-height="997"
     inkscape:window-x="553"
     inkscape:window-y="25"
     inkscape:window-maximized="0"
     inkscape:current-layer="layer1" />
  <defs
     id="defs1035" />
  <g
     inkscape:label="Layer 1"
     inkscape:groupmode="layer"
     id="layer1"
     transform="translate(-80.122817,-45.555479)">
    <path
       d="m 101.68818,269.43782 c -3.314181,-1.06201 -5.966581,-3.39839 -7.498029,-6.60469 -1.431552,-2.99715 -1.548281,-4.53755 -0.771671,-10.1832 4.373941,-31.79691 6.502501,-64.15632 6.474471,-98.42826 -0.01561,-19.035 -0.267872,-26.20689 -0.978451,-27.81328 -0.779639,-1.76248 -2.08244,-2.91183 -4.455681,-3.93085 -3.72717,-1.60036 -5.893218,-3.19396 -7.91817,-5.82555 -3.637568,-4.72729 -5.436941,-11.77626 -5.417679,-21.223543 0.01109,-5.43655 0.357552,-8.325059 1.099534,-9.166828 0.60243,-0.683451 0.602739,-0.686811 0.01778,-0.193411 -0.75134,0.633749 -0.752295,0.71114 0.05057,-4.096601 2.846503,-17.045458 9.708555,-30.25312 17.874956,-34.404609 1.48746,-0.75617 2.04671,-0.88895 4.13979,-0.98287 1.83,-0.0821 2.76089,0.005 3.81817,0.35579 2.35488,0.78217 4.55877,2.267459 6.644,4.477661 0.81468,0.863499 0.93036,1.1161 0.6664,1.455208 -0.27751,0.356511 -0.26118,0.364792 0.12442,0.0631 0.39259,-0.307109 0.61256,-0.108558 1.90538,1.719789 4.55338,6.439563 8.59886,17.375161 10.08006,27.24808 0.23639,1.575612 0.49604,3.207062 0.577,3.62545 0.11487,0.593671 0.0684,0.713231 -0.21183,0.544522 -0.30087,-0.181171 -0.30161,-0.14537 -0.005,0.22103 0.82344,1.015701 1.0904,10.602409 0.4475,16.070162 -1.2466,10.60205 -5.32845,17.05324 -12.64013,19.97718 -2.46395,0.98534 -3.63906,1.91107 -4.55647,3.58951 l -0.78424,1.43481 -0.19146,6.74688 c -0.18205,6.4153 -0.11308,15.95336 0.1795,24.82292 0.0953,2.88794 0.0508,4.0019 -0.15465,3.87491 -0.20354,-0.12579 -0.21001,-0.0339 -0.022,0.3125 0.1465,0.26989 0.39938,3.94352 0.56196,8.16363 0.31013,8.05008 1.14687,24.12257 1.58405,30.42708 0.14128,2.03729 0.44221,6.38307 0.66875,9.65729 0.96593,13.96102 2.37069,30.38221 3.469,40.5515 0.59244,5.48545 0.63875,6.52732 0.3628,8.16329 -0.61006,3.61688 -3.2016,7.05636 -6.56267,8.71001 -1.59686,0.78565 -2.03304,0.87746 -4.54452,0.95641 -1.96811,0.0619 -3.14426,-0.03 -4.03387,-0.31506 z m 7.73804,-1.75313 c 1.91915,-0.89215 3.75052,-2.55363 4.76056,-4.31901 0.9352,-1.63457 1.68922,-4.82047 1.46908,-6.2072 -0.24057,-1.51548 -1.15925,-10.68298 -1.85737,-18.53473 -2.14182,-24.08886 -3.66081,-47.15044 -4.36554,-66.27812 -0.15548,-4.22011 -0.31952,-8.29585 -0.36452,-9.05722 -0.0718,-1.21473 -0.0321,-1.34437 0.32379,-1.05833 0.31569,0.2537 0.30577,0.18094 -0.0448,-0.32822 -0.36559,-0.53101 -0.4504,-1.28078 -0.4504,-3.98198 0,-2.29581 0.10257,-3.43829 0.33073,-3.68411 0.1819,-0.19597 0.19946,-0.28314 0.039,-0.1937 -0.43639,0.24325 -0.63748,-3.59143 -0.61362,-11.70115 0.0311,-10.57212 0.28853,-14.96654 0.96516,-16.47615 0.94637,-2.11143 2.44769,-3.4788 5.04128,-4.59149 3.14568,-1.34954 4.66066,-2.37161 6.60678,-4.45721 1.98375,-2.12593 3.96755,-6.00721 4.81765,-9.42565 0.65308,-2.6262 1.32696,-8.467261 1.33101,-11.537102 0.003,-2.260841 -0.41394,-8.33573 -0.67795,-9.878161 -0.1457,-0.851228 -0.12446,-0.88573 0.32865,-0.533728 0.46428,0.36068 0.4653,0.353788 0.0245,-0.165642 -0.25293,-0.29808 -0.52025,-0.891339 -0.59405,-1.318358 -1.08955,-6.304672 -2.14517,-10.658031 -3.65276,-15.06389 -3.45745,-10.10421 -8.38323,-17.371042 -13.54063,-19.97604 -1.71402,-0.865751 -1.99794,-0.926041 -4.36075,-0.926041 -2.32748,0 -2.6701,0.0698 -4.33225,0.882459 -8.23387,4.025752 -15.522533,19.915492 -17.67859,38.54046 -0.424728,3.66899 -0.431361,12.820123 -0.01132,15.610413 0.716774,4.76143 2.548498,9.99985 4.281622,12.24473 2.13646,2.76731 4.705951,4.69996 7.993581,6.01241 2.38864,0.95355 3.904999,2.3354 4.845277,4.41548 0.72264,1.59862 0.76323,1.90352 0.96205,7.2253 0.30288,8.10737 0.38816,20.77024 0.13988,20.77 -0.11773,-1.1e-4 -0.14167,0.11692 -0.0532,0.26007 0.0885,0.14315 0.15388,4.22104 0.14535,9.06198 -0.047,26.65602 -2.453108,60.42836 -6.355487,89.20453 -0.29374,2.16604 -0.534072,4.62404 -0.534072,5.46224 0,4.08972 2.483339,7.97404 6.269899,9.80708 1.78103,0.86217 2.61588,1.01592 5.10718,0.94056 1.75786,-0.0532 2.56673,-0.21574 3.70417,-0.74448 z"
       style="fill:#000000;stroke-width:0.0700042"
       id="path1033" />
    <path
       style="fill:#aa0000;stroke:#000000;stroke-width:1.49073;stroke-opacity:1"
       d="M 77.51796,838.30196 C 63.988216,831.30589 55.934303,819.588 54.840316,805.30755 54.407079,799.65224 55.913206,781.83782 58.710861,759.52693 68.605927,680.6152 74.766056,605.98264 78.274852,522.50086 80.011501,481.18228 80.087678,334.90648 78.381845,317.05305 76.721118,299.67172 72.949014,294.58387 54.353766,284.6437 30.753496,272.0281 21.298435,259.71874 13.876934,231.94773 9.4114884,215.23819 8.4828704,177.40532 11.912963,151.93351 20.959745,84.75227 47.477809,28.3394 77.095719,13.267802 c 9.954084,-5.0653113 23.150421,-4.9605015 33.641021,0.267189 25.64285,12.77837 49.62748,58.427242 61.42314,116.903879 4.62967,22.95152 5.2,29.3485 5.18347,58.13847 -0.0304,53.05407 -12.13836,79.94448 -42.99431,95.48612 -13.97918,7.04108 -20.95775,13.14834 -23.63426,20.68336 -2.52732,7.11504 -2.46434,132.14689 0.0935,185.70335 4.62975,96.93682 12.83619,210.75466 20.42193,283.2387 2.90142,27.72385 2.76412,34.87677 -0.85514,44.5501 -3.31958,8.87237 -11.65687,17.62657 -20.17785,21.18687 -7.71155,3.22209 -25.454693,2.61188 -32.679312,-1.12388 z"
       id="path2485"
       transform="matrix(0.26458333,0,0,0.26458333,80.122817,45.555479)" />
  </g>
</svg>
